G04*
G04 #@! TF.GenerationSoftware,Altium Limited,Altium Designer,20.0.13 (296)*
G04*
G04 Layer_Color=16711935*
%FSTAX42Y42*%
%MOMM*%
G71*
G01*
G75*
%ADD42R,1.85X1.85*%
%ADD43C,1.85*%
%ADD44C,0.85*%
%ADD45O,1.10X1.90*%
%ADD46O,1.10X2.60*%
%ADD47C,1.84*%
%ADD48R,1.84X1.84*%
%ADD49C,2.45*%
%ADD50C,1.70*%
%ADD51R,1.70X1.70*%
%ADD52C,0.80*%
%ADD72R,1.40X2.10*%
%ADD73R,1.00X0.50*%
%ADD74R,1.20X2.71*%
%ADD75R,1.70X1.00*%
%ADD76R,1.00X1.70*%
%ADD77R,5.00X5.00*%
D42*
X012514Y012908D02*
D03*
D43*
Y013162D02*
D03*
Y013416D02*
D03*
Y01367D02*
D03*
D44*
X009366Y01378D02*
D03*
X009451D02*
D03*
X009536D02*
D03*
X009621D02*
D03*
X009706D02*
D03*
X009791D02*
D03*
X009876D02*
D03*
X009961D02*
D03*
Y013915D02*
D03*
X009876D02*
D03*
X009791D02*
D03*
X009706D02*
D03*
X009621D02*
D03*
X009536D02*
D03*
X009451D02*
D03*
X009366D02*
D03*
D45*
X009231Y014216D02*
D03*
X010096D02*
D03*
D46*
X009231Y013878D02*
D03*
X010096D02*
D03*
D47*
X00979Y012366D02*
D03*
D48*
X009536D02*
D03*
D49*
X009314Y009091D02*
D03*
X010014D02*
D03*
D50*
X009439Y008841D02*
D03*
D51*
X009889D02*
D03*
D52*
X01275Y014D02*
D03*
Y013D02*
D03*
X0125Y0125D02*
D03*
X01275Y01D02*
D03*
Y009D02*
D03*
X01225Y014D02*
D03*
Y01D02*
D03*
X012Y0095D02*
D03*
X01225Y009D02*
D03*
X01175Y014D02*
D03*
X0115Y0135D02*
D03*
Y0105D02*
D03*
X01125Y014D02*
D03*
X011Y0135D02*
D03*
X01125Y013D02*
D03*
X011Y0125D02*
D03*
X01125Y011D02*
D03*
X0105Y0135D02*
D03*
X01075Y013D02*
D03*
Y01D02*
D03*
X0105Y0095D02*
D03*
X01075Y009D02*
D03*
X0105Y0085D02*
D03*
X01025Y013D02*
D03*
Y011D02*
D03*
X01Y0105D02*
D03*
X01025Y009D02*
D03*
X01Y0085D02*
D03*
X00975Y013D02*
D03*
Y012D02*
D03*
Y011D02*
D03*
X0095Y0105D02*
D03*
X00975Y01D02*
D03*
X0095Y0095D02*
D03*
X00975Y009D02*
D03*
X0095Y0085D02*
D03*
X009Y0135D02*
D03*
X00925Y013D02*
D03*
Y012D02*
D03*
X009Y0115D02*
D03*
Y0105D02*
D03*
X00925Y01D02*
D03*
X009Y0095D02*
D03*
Y0085D02*
D03*
X0085Y0125D02*
D03*
Y0115D02*
D03*
X00875Y011D02*
D03*
X0085Y0105D02*
D03*
X00875Y01D02*
D03*
X0085Y0095D02*
D03*
X00875Y009D02*
D03*
X0085Y0085D02*
D03*
X00825Y013D02*
D03*
X008Y0125D02*
D03*
Y0115D02*
D03*
X00825Y011D02*
D03*
X008Y0105D02*
D03*
X00825Y01D02*
D03*
X008Y0095D02*
D03*
X00825Y009D02*
D03*
X008Y0085D02*
D03*
X0075Y0135D02*
D03*
X00775Y013D02*
D03*
Y012D02*
D03*
X0075Y0115D02*
D03*
X00775Y011D02*
D03*
X0075Y0105D02*
D03*
X00775Y01D02*
D03*
X0075Y0095D02*
D03*
X00775Y009D02*
D03*
X0075Y0085D02*
D03*
X00725Y014D02*
D03*
X007Y0125D02*
D03*
X00725Y012D02*
D03*
X007Y0115D02*
D03*
X00725Y011D02*
D03*
X007Y0105D02*
D03*
X00725Y01D02*
D03*
Y009D02*
D03*
X007Y0085D02*
D03*
X00675Y014D02*
D03*
X0065Y0135D02*
D03*
X00675Y013D02*
D03*
X0065Y0125D02*
D03*
X00675Y012D02*
D03*
X0065Y0115D02*
D03*
X00675Y011D02*
D03*
X0065Y0105D02*
D03*
X00675Y01D02*
D03*
X0065Y0095D02*
D03*
X00675Y009D02*
D03*
X010756Y011331D02*
D03*
X010674Y011416D02*
D03*
X010564Y011456D02*
D03*
X011033Y009336D02*
D03*
X012174Y009266D02*
D03*
X010724Y012096D02*
D03*
X010564D02*
D03*
X010414Y012066D02*
D03*
X010304Y012076D02*
D03*
X008833D02*
D03*
X012204Y010496D02*
D03*
X011933Y012796D02*
D03*
X011693Y010456D02*
D03*
X011783Y010416D02*
D03*
X010664Y011876D02*
D03*
X012193Y009506D02*
D03*
X011304Y009566D02*
D03*
X011683Y009596D02*
D03*
X010843Y012226D02*
D03*
X010424Y011956D02*
D03*
X010683Y011656D02*
D03*
X007924Y013636D02*
D03*
X008933Y013736D02*
D03*
X010593Y011766D02*
D03*
D72*
X012514Y009466D02*
D03*
D73*
X012633Y009391D02*
D03*
Y009441D02*
D03*
Y009491D02*
D03*
Y009541D02*
D03*
X012393D02*
D03*
Y009491D02*
D03*
Y009441D02*
D03*
Y009391D02*
D03*
D74*
X009282Y011451D02*
D03*
X009536Y011782D02*
D03*
X00979Y011451D02*
D03*
X010044Y011782D02*
D03*
D75*
X011114Y008716D02*
D03*
Y008841D02*
D03*
Y008966D02*
D03*
Y009091D02*
D03*
Y009216D02*
D03*
X011914D02*
D03*
Y009091D02*
D03*
Y008966D02*
D03*
Y008841D02*
D03*
Y008716D02*
D03*
D76*
X011264Y009366D02*
D03*
X011389D02*
D03*
X011514D02*
D03*
X011639D02*
D03*
X011764D02*
D03*
Y008566D02*
D03*
X011639D02*
D03*
X011514D02*
D03*
X011389D02*
D03*
X011264D02*
D03*
D77*
X011514Y008966D02*
D03*
M02*
