G04*
G04 #@! TF.GenerationSoftware,Altium Limited,Altium Designer,20.0.13 (296)*
G04*
G04 Layer_Color=255*
%FSTAX42Y42*%
%MOMM*%
G71*
G01*
G75*
%ADD55R,1.65X1.65*%
%ADD56C,1.65*%
%ADD57C,0.65*%
%ADD58O,0.90X1.70*%
%ADD59O,0.90X2.40*%
%ADD60C,1.64*%
%ADD61R,1.64X1.64*%
%ADD62C,2.25*%
%ADD63C,1.50*%
%ADD64R,1.50X1.50*%
%ADD66R,1.20X1.90*%
%ADD67R,0.80X0.30*%
%ADD68R,1.00X2.51*%
%ADD69R,1.50X0.80*%
%ADD70R,0.80X1.50*%
%ADD71R,4.80X4.80*%
D55*
X012514Y012908D02*
D03*
D56*
Y013162D02*
D03*
Y013416D02*
D03*
Y01367D02*
D03*
D57*
X009366Y01378D02*
D03*
X009451D02*
D03*
X009536D02*
D03*
X009621D02*
D03*
X009706D02*
D03*
X009791D02*
D03*
X009876D02*
D03*
X009961D02*
D03*
Y013915D02*
D03*
X009876D02*
D03*
X009791D02*
D03*
X009706D02*
D03*
X009621D02*
D03*
X009536D02*
D03*
X009451D02*
D03*
X009366D02*
D03*
D58*
X009231Y014216D02*
D03*
X010096D02*
D03*
D59*
X009231Y013878D02*
D03*
X010096D02*
D03*
D60*
X00979Y012366D02*
D03*
D61*
X009536D02*
D03*
D62*
X009314Y009091D02*
D03*
X010014D02*
D03*
D63*
X009439Y008841D02*
D03*
D64*
X009889D02*
D03*
D66*
X012514Y009466D02*
D03*
D67*
X012633Y009391D02*
D03*
Y009441D02*
D03*
Y009491D02*
D03*
Y009541D02*
D03*
X012393D02*
D03*
Y009491D02*
D03*
Y009441D02*
D03*
Y009391D02*
D03*
D68*
X009282Y011451D02*
D03*
X009536Y011782D02*
D03*
X00979Y011451D02*
D03*
X010044Y011782D02*
D03*
D69*
X011114Y008716D02*
D03*
Y008841D02*
D03*
Y008966D02*
D03*
Y009091D02*
D03*
Y009216D02*
D03*
X011914D02*
D03*
Y009091D02*
D03*
Y008966D02*
D03*
Y008841D02*
D03*
Y008716D02*
D03*
D70*
X011264Y009366D02*
D03*
X011389D02*
D03*
X011514D02*
D03*
X011639D02*
D03*
X011764D02*
D03*
Y008566D02*
D03*
X011639D02*
D03*
X011514D02*
D03*
X011389D02*
D03*
X011264D02*
D03*
D71*
X011514Y008966D02*
D03*
M02*
