G04*
G04 #@! TF.GenerationSoftware,Altium Limited,Altium Designer,20.0.13 (296)*
G04*
G04 Layer_Color=2752767*
%FSTAX42Y42*%
%MOMM*%
G71*
G01*
G75*
%ADD79C,0.05*%
%ADD80C,0.07*%
D79*
X012493Y012888D02*
Y012928D01*
X012534D01*
Y012888D01*
X012493D01*
Y013142D02*
Y013182D01*
X012534D01*
Y013142D01*
X012493D01*
Y013396D02*
Y013436D01*
X012534D01*
Y013396D01*
X012493D01*
Y01365D02*
Y01369D01*
X012534D01*
Y01365D01*
X012493D01*
X009231Y014196D02*
X009211Y014236D01*
X009251D01*
X009231Y014196D01*
X010096D02*
X010076Y014236D01*
X010116D01*
X010096Y014196D01*
X009231Y013858D02*
X009241Y013868D01*
X009251D01*
X009241Y013878D01*
X009251Y013888D01*
X009241D01*
X009231Y013898D01*
X009221Y013888D01*
X009211D01*
X009221Y013878D01*
X009211Y013868D01*
X009221D01*
X009231Y013858D01*
X010096D02*
X010106Y013868D01*
X010116D01*
X010106Y013878D01*
X010116Y013888D01*
X010106D01*
X010096Y013898D01*
X010086Y013888D01*
X010076D01*
X010086Y013878D01*
X010076Y013868D01*
X010086D01*
X010096Y013858D01*
X00977Y012346D02*
X00978Y012366D01*
X00977Y012386D01*
X00979Y012376D01*
X009811Y012386D01*
X009801Y012366D01*
X009811Y012346D01*
X00979Y012356D01*
X00977Y012346D01*
X009516D02*
X009526Y012366D01*
X009516Y012386D01*
X009536Y012376D01*
X009557Y012386D01*
X009547Y012366D01*
X009557Y012346D01*
X009536Y012356D01*
X009516Y012346D01*
X009303Y009081D02*
Y009071D01*
X009324D01*
Y009081D01*
X009334D01*
Y009101D01*
X009324D01*
Y009111D01*
X009303D01*
Y009101D01*
X009293D01*
Y009081D01*
X009303D01*
X010003D02*
Y009071D01*
X010024D01*
Y009081D01*
X010034D01*
Y009101D01*
X010024D01*
Y009111D01*
X010003D01*
Y009101D01*
X009993D01*
Y009081D01*
X010003D01*
X009418Y008821D02*
X009428D01*
X009439Y008831D01*
X009449Y008821D01*
X009459D01*
Y008831D01*
X009449Y008841D01*
X009459Y008851D01*
Y008861D01*
X009449D01*
X009439Y008851D01*
X009428Y008861D01*
X009418D01*
Y008851D01*
X009428Y008841D01*
X009418Y008831D01*
Y008821D01*
X009868D02*
X009878D01*
X009889Y008831D01*
X009899Y008821D01*
X009909D01*
Y008831D01*
X009899Y008841D01*
X009909Y008851D01*
Y008861D01*
X009899D01*
X009889Y008851D01*
X009878Y008861D01*
X009868D01*
Y008851D01*
X009878Y008841D01*
X009868Y008831D01*
Y008821D01*
X01273Y014D02*
X01275Y01402D01*
X01277Y014D01*
X01275Y01398D01*
X01273Y014D01*
Y013D02*
X01275Y01302D01*
X01277Y013D01*
X01275Y01298D01*
X01273Y013D01*
X01248Y0125D02*
X0125Y01252D01*
X01252Y0125D01*
X0125Y01248D01*
X01248Y0125D01*
X01273Y01D02*
X01275Y01002D01*
X01277Y01D01*
X01275Y00998D01*
X01273Y01D01*
Y009D02*
X01275Y00902D01*
X01277Y009D01*
X01275Y00898D01*
X01273Y009D01*
X01223Y014D02*
X01225Y01402D01*
X01227Y014D01*
X01225Y01398D01*
X01223Y014D01*
Y01D02*
X01225Y01002D01*
X01227Y01D01*
X01225Y00998D01*
X01223Y01D01*
X01198Y0095D02*
X012Y00952D01*
X01202Y0095D01*
X012Y00948D01*
X01198Y0095D01*
X01223Y009D02*
X01225Y00902D01*
X01227Y009D01*
X01225Y00898D01*
X01223Y009D01*
X01173Y014D02*
X01175Y01402D01*
X01177Y014D01*
X01175Y01398D01*
X01173Y014D01*
X01148Y0135D02*
X0115Y01352D01*
X01152Y0135D01*
X0115Y01348D01*
X01148Y0135D01*
Y0105D02*
X0115Y01052D01*
X01152Y0105D01*
X0115Y01048D01*
X01148Y0105D01*
X01123Y014D02*
X01125Y01402D01*
X01127Y014D01*
X01125Y01398D01*
X01123Y014D01*
X01098Y0135D02*
X011Y01352D01*
X01102Y0135D01*
X011Y01348D01*
X01098Y0135D01*
X01123Y013D02*
X01125Y01302D01*
X01127Y013D01*
X01125Y01298D01*
X01123Y013D01*
X01098Y0125D02*
X011Y01252D01*
X01102Y0125D01*
X011Y01248D01*
X01098Y0125D01*
X01123Y011D02*
X01125Y01102D01*
X01127Y011D01*
X01125Y01098D01*
X01123Y011D01*
X01048Y0135D02*
X0105Y01352D01*
X01052Y0135D01*
X0105Y01348D01*
X01048Y0135D01*
X01073Y013D02*
X01075Y01302D01*
X01077Y013D01*
X01075Y01298D01*
X01073Y013D01*
Y01D02*
X01075Y01002D01*
X01077Y01D01*
X01075Y00998D01*
X01073Y01D01*
X01048Y0095D02*
X0105Y00952D01*
X01052Y0095D01*
X0105Y00948D01*
X01048Y0095D01*
X01073Y009D02*
X01075Y00902D01*
X01077Y009D01*
X01075Y00898D01*
X01073Y009D01*
X01048Y0085D02*
X0105Y00852D01*
X01052Y0085D01*
X0105Y00848D01*
X01048Y0085D01*
X01023Y013D02*
X01025Y01302D01*
X01027Y013D01*
X01025Y01298D01*
X01023Y013D01*
Y011D02*
X01025Y01102D01*
X01027Y011D01*
X01025Y01098D01*
X01023Y011D01*
X00998Y0105D02*
X01Y01052D01*
X01002Y0105D01*
X01Y01048D01*
X00998Y0105D01*
X01023Y009D02*
X01025Y00902D01*
X01027Y009D01*
X01025Y00898D01*
X01023Y009D01*
X00998Y0085D02*
X01Y00852D01*
X01002Y0085D01*
X01Y00848D01*
X00998Y0085D01*
X00973Y013D02*
X00975Y01302D01*
X00977Y013D01*
X00975Y01298D01*
X00973Y013D01*
Y012D02*
X00975Y01202D01*
X00977Y012D01*
X00975Y01198D01*
X00973Y012D01*
Y011D02*
X00975Y01102D01*
X00977Y011D01*
X00975Y01098D01*
X00973Y011D01*
X00948Y0105D02*
X0095Y01052D01*
X00952Y0105D01*
X0095Y01048D01*
X00948Y0105D01*
X00973Y01D02*
X00975Y01002D01*
X00977Y01D01*
X00975Y00998D01*
X00973Y01D01*
X00948Y0095D02*
X0095Y00952D01*
X00952Y0095D01*
X0095Y00948D01*
X00948Y0095D01*
X00973Y009D02*
X00975Y00902D01*
X00977Y009D01*
X00975Y00898D01*
X00973Y009D01*
X00948Y0085D02*
X0095Y00852D01*
X00952Y0085D01*
X0095Y00848D01*
X00948Y0085D01*
X00898Y0135D02*
X009Y01352D01*
X00902Y0135D01*
X009Y01348D01*
X00898Y0135D01*
X00923Y013D02*
X00925Y01302D01*
X00927Y013D01*
X00925Y01298D01*
X00923Y013D01*
Y012D02*
X00925Y01202D01*
X00927Y012D01*
X00925Y01198D01*
X00923Y012D01*
X00898Y0115D02*
X009Y01152D01*
X00902Y0115D01*
X009Y01148D01*
X00898Y0115D01*
Y0105D02*
X009Y01052D01*
X00902Y0105D01*
X009Y01048D01*
X00898Y0105D01*
X00923Y01D02*
X00925Y01002D01*
X00927Y01D01*
X00925Y00998D01*
X00923Y01D01*
X00898Y0095D02*
X009Y00952D01*
X00902Y0095D01*
X009Y00948D01*
X00898Y0095D01*
Y0085D02*
X009Y00852D01*
X00902Y0085D01*
X009Y00848D01*
X00898Y0085D01*
X00848Y0125D02*
X0085Y01252D01*
X00852Y0125D01*
X0085Y01248D01*
X00848Y0125D01*
Y0115D02*
X0085Y01152D01*
X00852Y0115D01*
X0085Y01148D01*
X00848Y0115D01*
X00873Y011D02*
X00875Y01102D01*
X00877Y011D01*
X00875Y01098D01*
X00873Y011D01*
X00848Y0105D02*
X0085Y01052D01*
X00852Y0105D01*
X0085Y01048D01*
X00848Y0105D01*
X00873Y01D02*
X00875Y01002D01*
X00877Y01D01*
X00875Y00998D01*
X00873Y01D01*
X00848Y0095D02*
X0085Y00952D01*
X00852Y0095D01*
X0085Y00948D01*
X00848Y0095D01*
X00873Y009D02*
X00875Y00902D01*
X00877Y009D01*
X00875Y00898D01*
X00873Y009D01*
X00848Y0085D02*
X0085Y00852D01*
X00852Y0085D01*
X0085Y00848D01*
X00848Y0085D01*
X00823Y013D02*
X00825Y01302D01*
X00827Y013D01*
X00825Y01298D01*
X00823Y013D01*
X00798Y0125D02*
X008Y01252D01*
X00802Y0125D01*
X008Y01248D01*
X00798Y0125D01*
Y0115D02*
X008Y01152D01*
X00802Y0115D01*
X008Y01148D01*
X00798Y0115D01*
X00823Y011D02*
X00825Y01102D01*
X00827Y011D01*
X00825Y01098D01*
X00823Y011D01*
X00798Y0105D02*
X008Y01052D01*
X00802Y0105D01*
X008Y01048D01*
X00798Y0105D01*
X00823Y01D02*
X00825Y01002D01*
X00827Y01D01*
X00825Y00998D01*
X00823Y01D01*
X00798Y0095D02*
X008Y00952D01*
X00802Y0095D01*
X008Y00948D01*
X00798Y0095D01*
X00823Y009D02*
X00825Y00902D01*
X00827Y009D01*
X00825Y00898D01*
X00823Y009D01*
X00798Y0085D02*
X008Y00852D01*
X00802Y0085D01*
X008Y00848D01*
X00798Y0085D01*
X00748Y0135D02*
X0075Y01352D01*
X00752Y0135D01*
X0075Y01348D01*
X00748Y0135D01*
X00773Y013D02*
X00775Y01302D01*
X00777Y013D01*
X00775Y01298D01*
X00773Y013D01*
Y012D02*
X00775Y01202D01*
X00777Y012D01*
X00775Y01198D01*
X00773Y012D01*
X00748Y0115D02*
X0075Y01152D01*
X00752Y0115D01*
X0075Y01148D01*
X00748Y0115D01*
X00773Y011D02*
X00775Y01102D01*
X00777Y011D01*
X00775Y01098D01*
X00773Y011D01*
X00748Y0105D02*
X0075Y01052D01*
X00752Y0105D01*
X0075Y01048D01*
X00748Y0105D01*
X00773Y01D02*
X00775Y01002D01*
X00777Y01D01*
X00775Y00998D01*
X00773Y01D01*
X00748Y0095D02*
X0075Y00952D01*
X00752Y0095D01*
X0075Y00948D01*
X00748Y0095D01*
X00773Y009D02*
X00775Y00902D01*
X00777Y009D01*
X00775Y00898D01*
X00773Y009D01*
X00748Y0085D02*
X0075Y00852D01*
X00752Y0085D01*
X0075Y00848D01*
X00748Y0085D01*
X00723Y014D02*
X00725Y01402D01*
X00727Y014D01*
X00725Y01398D01*
X00723Y014D01*
X00698Y0125D02*
X007Y01252D01*
X00702Y0125D01*
X007Y01248D01*
X00698Y0125D01*
X00723Y012D02*
X00725Y01202D01*
X00727Y012D01*
X00725Y01198D01*
X00723Y012D01*
X00698Y0115D02*
X007Y01152D01*
X00702Y0115D01*
X007Y01148D01*
X00698Y0115D01*
X00723Y011D02*
X00725Y01102D01*
X00727Y011D01*
X00725Y01098D01*
X00723Y011D01*
X00698Y0105D02*
X007Y01052D01*
X00702Y0105D01*
X007Y01048D01*
X00698Y0105D01*
X00723Y01D02*
X00725Y01002D01*
X00727Y01D01*
X00725Y00998D01*
X00723Y01D01*
Y009D02*
X00725Y00902D01*
X00727Y009D01*
X00725Y00898D01*
X00723Y009D01*
X00698Y0085D02*
X007Y00852D01*
X00702Y0085D01*
X007Y00848D01*
X00698Y0085D01*
X00673Y014D02*
X00675Y01402D01*
X00677Y014D01*
X00675Y01398D01*
X00673Y014D01*
X00648Y0135D02*
X0065Y01352D01*
X00652Y0135D01*
X0065Y01348D01*
X00648Y0135D01*
X00673Y013D02*
X00675Y01302D01*
X00677Y013D01*
X00675Y01298D01*
X00673Y013D01*
X00648Y0125D02*
X0065Y01252D01*
X00652Y0125D01*
X0065Y01248D01*
X00648Y0125D01*
X00673Y012D02*
X00675Y01202D01*
X00677Y012D01*
X00675Y01198D01*
X00673Y012D01*
X00648Y0115D02*
X0065Y01152D01*
X00652Y0115D01*
X0065Y01148D01*
X00648Y0115D01*
X00673Y011D02*
X00675Y01102D01*
X00677Y011D01*
X00675Y01098D01*
X00673Y011D01*
X00648Y0105D02*
X0065Y01052D01*
X00652Y0105D01*
X0065Y01048D01*
X00648Y0105D01*
X00673Y01D02*
X00675Y01002D01*
X00677Y01D01*
X00675Y00998D01*
X00673Y01D01*
X00648Y0095D02*
X0065Y00952D01*
X00652Y0095D01*
X0065Y00948D01*
X00648Y0095D01*
X00673Y009D02*
X00675Y00902D01*
X00677Y009D01*
X00675Y00898D01*
X00673Y009D01*
X010736Y011331D02*
X010756Y011351D01*
X010776Y011331D01*
X010756Y011311D01*
X010736Y011331D01*
X010653Y011416D02*
X010674Y011436D01*
X010694Y011416D01*
X010674Y011396D01*
X010653Y011416D01*
X010543Y011456D02*
X010564Y011476D01*
X010584Y011456D01*
X010564Y011436D01*
X010543Y011456D01*
X011013Y009336D02*
X011033Y009356D01*
X011054Y009336D01*
X011033Y009316D01*
X011013Y009336D01*
X012153Y009266D02*
X012174Y009286D01*
X012194Y009266D01*
X012174Y009246D01*
X012153Y009266D01*
X010703Y012096D02*
X010724Y012116D01*
X010744Y012096D01*
X010724Y012076D01*
X010703Y012096D01*
X010543D02*
X010564Y012116D01*
X010584Y012096D01*
X010564Y012076D01*
X010543Y012096D01*
X010393Y012066D02*
X010414Y012086D01*
X010434Y012066D01*
X010414Y012046D01*
X010393Y012066D01*
X010283Y012076D02*
X010304Y012096D01*
X010324Y012076D01*
X010304Y012056D01*
X010283Y012076D01*
X008813D02*
X008833Y012096D01*
X008854Y012076D01*
X008833Y012056D01*
X008813Y012076D01*
X012183Y010496D02*
X012204Y010516D01*
X012224Y010496D01*
X012204Y010476D01*
X012183Y010496D01*
X011913Y012796D02*
X011933Y012816D01*
X011954Y012796D01*
X011933Y012776D01*
X011913Y012796D01*
X011673Y010456D02*
X011693Y010476D01*
X011714Y010456D01*
X011693Y010436D01*
X011673Y010456D01*
X011763Y010416D02*
X011783Y010436D01*
X011804Y010416D01*
X011783Y010396D01*
X011763Y010416D01*
X010643Y011876D02*
X010664Y011896D01*
X010684Y011876D01*
X010664Y011856D01*
X010643Y011876D01*
X012173Y009506D02*
X012193Y009526D01*
X012214Y009506D01*
X012193Y009486D01*
X012173Y009506D01*
X011283Y009566D02*
X011304Y009586D01*
X011324Y009566D01*
X011304Y009546D01*
X011283Y009566D01*
X011663Y009596D02*
X011683Y009616D01*
X011704Y009596D01*
X011683Y009576D01*
X011663Y009596D01*
X010823Y012226D02*
X010843Y012246D01*
X010864Y012226D01*
X010843Y012206D01*
X010823Y012226D01*
X010403Y011956D02*
X010424Y011976D01*
X010444Y011956D01*
X010424Y011936D01*
X010403Y011956D01*
X010663Y011656D02*
X010683Y011676D01*
X010704Y011656D01*
X010683Y011636D01*
X010663Y011656D01*
X007903Y013636D02*
X007924Y013656D01*
X007944Y013636D01*
X007924Y013616D01*
X007903Y013636D01*
X008913Y013736D02*
X008933Y013756D01*
X008954Y013736D01*
X008933Y013716D01*
X008913Y013736D01*
X010573Y011766D02*
X010593Y011786D01*
X010614Y011766D01*
X010593Y011746D01*
X010573Y011766D01*
D80*
X009386Y01378D02*
G03*
X009386Y01378I-00002J0D01*
G01*
X009471D02*
G03*
X009471Y01378I-00002J0D01*
G01*
X009556D02*
G03*
X009556Y01378I-00002J0D01*
G01*
X009641D02*
G03*
X009641Y01378I-00002J0D01*
G01*
X009726D02*
G03*
X009726Y01378I-00002J0D01*
G01*
X009811D02*
G03*
X009811Y01378I-00002J0D01*
G01*
X009896D02*
G03*
X009896Y01378I-00002J0D01*
G01*
X009981D02*
G03*
X009981Y01378I-00002J0D01*
G01*
Y013915D02*
G03*
X009981Y013915I-00002J0D01*
G01*
X009896D02*
G03*
X009896Y013915I-00002J0D01*
G01*
X009811D02*
G03*
X009811Y013915I-00002J0D01*
G01*
X009726D02*
G03*
X009726Y013915I-00002J0D01*
G01*
X009641D02*
G03*
X009641Y013915I-00002J0D01*
G01*
X009556D02*
G03*
X009556Y013915I-00002J0D01*
G01*
X009471D02*
G03*
X009471Y013915I-00002J0D01*
G01*
X009386D02*
G03*
X009386Y013915I-00002J0D01*
G01*
M02*
