G04*
G04 #@! TF.GenerationSoftware,Altium Limited,Altium Designer,20.0.13 (296)*
G04*
G04 Layer_Color=128*
%FSTAX42Y42*%
%MOMM*%
G71*
G01*
G75*
%ADD79C,0.05*%
D79*
X012458Y012908D02*
X012568D01*
X012514Y012853D02*
Y012963D01*
X012458Y013162D02*
X012568D01*
X012514Y013107D02*
Y013217D01*
X012458Y013416D02*
X012568D01*
X012514Y013361D02*
Y013471D01*
X012458Y01367D02*
X012568D01*
X012514Y013615D02*
Y013725D01*
X009346Y01378D02*
X009386D01*
X009366Y01376D02*
Y0138D01*
X009431Y01378D02*
X009471D01*
X009451Y01376D02*
Y0138D01*
X009516Y01378D02*
X009556D01*
X009536Y01376D02*
Y0138D01*
X009601Y01378D02*
X009641D01*
X009621Y01376D02*
Y0138D01*
X009686Y01378D02*
X009726D01*
X009706Y01376D02*
Y0138D01*
X009771Y01378D02*
X009811D01*
X009791Y01376D02*
Y0138D01*
X009856Y01378D02*
X009896D01*
X009876Y01376D02*
Y0138D01*
X009941Y01378D02*
X009981D01*
X009961Y01376D02*
Y0138D01*
X009941Y013915D02*
X009981D01*
X009961Y013895D02*
Y013935D01*
X009856Y013915D02*
X009896D01*
X009876Y013895D02*
Y013935D01*
X009771Y013915D02*
X009811D01*
X009791Y013895D02*
Y013935D01*
X009686Y013915D02*
X009726D01*
X009706Y013895D02*
Y013935D01*
X009601Y013915D02*
X009641D01*
X009621Y013895D02*
Y013935D01*
X009516Y013915D02*
X009556D01*
X009536Y013895D02*
Y013935D01*
X009431Y013915D02*
X009471D01*
X009451Y013895D02*
Y013935D01*
X009346Y013915D02*
X009386D01*
X009366Y013895D02*
Y013935D01*
X009201Y014216D02*
X009261D01*
X009231Y014186D02*
Y014246D01*
X010066Y014216D02*
X010126D01*
X010096Y014186D02*
Y014246D01*
X009201Y013878D02*
X009261D01*
X009231Y013848D02*
Y013908D01*
X010066Y013878D02*
X010126D01*
X010096Y013848D02*
Y013908D01*
X009736Y012366D02*
X009845D01*
X00979Y012312D02*
Y012421D01*
X009482Y012366D02*
X009591D01*
X009536Y012312D02*
Y012421D01*
X009239Y009091D02*
X009389D01*
X009314Y009016D02*
Y009166D01*
X009939Y009091D02*
X010089D01*
X010014Y009016D02*
Y009166D01*
X009389Y008841D02*
X009489D01*
X009439Y008791D02*
Y008891D01*
X009839Y008841D02*
X009939D01*
X009889Y008791D02*
Y008891D01*
X012735Y014D02*
X012765D01*
X01275Y013985D02*
Y014015D01*
X012735Y013D02*
X012765D01*
X01275Y012985D02*
Y013015D01*
X012485Y0125D02*
X012515D01*
X0125Y012485D02*
Y012515D01*
X012735Y01D02*
X012765D01*
X01275Y009985D02*
Y010015D01*
X012735Y009D02*
X012765D01*
X01275Y008985D02*
Y009015D01*
X012235Y014D02*
X012265D01*
X01225Y013985D02*
Y014015D01*
X012235Y01D02*
X012265D01*
X01225Y009985D02*
Y010015D01*
X011985Y0095D02*
X012015D01*
X012Y009485D02*
Y009515D01*
X012235Y009D02*
X012265D01*
X01225Y008985D02*
Y009015D01*
X011735Y014D02*
X011765D01*
X01175Y013985D02*
Y014015D01*
X011485Y0135D02*
X011515D01*
X0115Y013485D02*
Y013515D01*
X011485Y0105D02*
X011515D01*
X0115Y010485D02*
Y010515D01*
X011235Y014D02*
X011265D01*
X01125Y013985D02*
Y014015D01*
X010985Y0135D02*
X011015D01*
X011Y013485D02*
Y013515D01*
X011235Y013D02*
X011265D01*
X01125Y012985D02*
Y013015D01*
X010985Y0125D02*
X011015D01*
X011Y012485D02*
Y012515D01*
X011235Y011D02*
X011265D01*
X01125Y010985D02*
Y011015D01*
X010485Y0135D02*
X010515D01*
X0105Y013485D02*
Y013515D01*
X010735Y013D02*
X010765D01*
X01075Y012985D02*
Y013015D01*
X010735Y01D02*
X010765D01*
X01075Y009985D02*
Y010015D01*
X010485Y0095D02*
X010515D01*
X0105Y009485D02*
Y009515D01*
X010735Y009D02*
X010765D01*
X01075Y008985D02*
Y009015D01*
X010485Y0085D02*
X010515D01*
X0105Y008485D02*
Y008515D01*
X010235Y013D02*
X010265D01*
X01025Y012985D02*
Y013015D01*
X010235Y011D02*
X010265D01*
X01025Y010985D02*
Y011015D01*
X009985Y0105D02*
X010015D01*
X01Y010485D02*
Y010515D01*
X010235Y009D02*
X010265D01*
X01025Y008985D02*
Y009015D01*
X009985Y0085D02*
X010015D01*
X01Y008485D02*
Y008515D01*
X009735Y013D02*
X009765D01*
X00975Y012985D02*
Y013015D01*
X009735Y012D02*
X009765D01*
X00975Y011985D02*
Y012015D01*
X009735Y011D02*
X009765D01*
X00975Y010985D02*
Y011015D01*
X009485Y0105D02*
X009515D01*
X0095Y010485D02*
Y010515D01*
X009735Y01D02*
X009765D01*
X00975Y009985D02*
Y010015D01*
X009485Y0095D02*
X009515D01*
X0095Y009485D02*
Y009515D01*
X009735Y009D02*
X009765D01*
X00975Y008985D02*
Y009015D01*
X009485Y0085D02*
X009515D01*
X0095Y008485D02*
Y008515D01*
X008985Y0135D02*
X009015D01*
X009Y013485D02*
Y013515D01*
X009235Y013D02*
X009265D01*
X00925Y012985D02*
Y013015D01*
X009235Y012D02*
X009265D01*
X00925Y011985D02*
Y012015D01*
X008985Y0115D02*
X009015D01*
X009Y011485D02*
Y011515D01*
X008985Y0105D02*
X009015D01*
X009Y010485D02*
Y010515D01*
X009235Y01D02*
X009265D01*
X00925Y009985D02*
Y010015D01*
X008985Y0095D02*
X009015D01*
X009Y009485D02*
Y009515D01*
X008985Y0085D02*
X009015D01*
X009Y008485D02*
Y008515D01*
X008485Y0125D02*
X008515D01*
X0085Y012485D02*
Y012515D01*
X008485Y0115D02*
X008515D01*
X0085Y011485D02*
Y011515D01*
X008735Y011D02*
X008765D01*
X00875Y010985D02*
Y011015D01*
X008485Y0105D02*
X008515D01*
X0085Y010485D02*
Y010515D01*
X008735Y01D02*
X008765D01*
X00875Y009985D02*
Y010015D01*
X008485Y0095D02*
X008515D01*
X0085Y009485D02*
Y009515D01*
X008735Y009D02*
X008765D01*
X00875Y008985D02*
Y009015D01*
X008485Y0085D02*
X008515D01*
X0085Y008485D02*
Y008515D01*
X008235Y013D02*
X008265D01*
X00825Y012985D02*
Y013015D01*
X007985Y0125D02*
X008015D01*
X008Y012485D02*
Y012515D01*
X007985Y0115D02*
X008015D01*
X008Y011485D02*
Y011515D01*
X008235Y011D02*
X008265D01*
X00825Y010985D02*
Y011015D01*
X007985Y0105D02*
X008015D01*
X008Y010485D02*
Y010515D01*
X008235Y01D02*
X008265D01*
X00825Y009985D02*
Y010015D01*
X007985Y0095D02*
X008015D01*
X008Y009485D02*
Y009515D01*
X008235Y009D02*
X008265D01*
X00825Y008985D02*
Y009015D01*
X007985Y0085D02*
X008015D01*
X008Y008485D02*
Y008515D01*
X007485Y0135D02*
X007515D01*
X0075Y013485D02*
Y013515D01*
X007735Y013D02*
X007765D01*
X00775Y012985D02*
Y013015D01*
X007735Y012D02*
X007765D01*
X00775Y011985D02*
Y012015D01*
X007485Y0115D02*
X007515D01*
X0075Y011485D02*
Y011515D01*
X007735Y011D02*
X007765D01*
X00775Y010985D02*
Y011015D01*
X007485Y0105D02*
X007515D01*
X0075Y010485D02*
Y010515D01*
X007735Y01D02*
X007765D01*
X00775Y009985D02*
Y010015D01*
X007485Y0095D02*
X007515D01*
X0075Y009485D02*
Y009515D01*
X007735Y009D02*
X007765D01*
X00775Y008985D02*
Y009015D01*
X007485Y0085D02*
X007515D01*
X0075Y008485D02*
Y008515D01*
X007235Y014D02*
X007265D01*
X00725Y013985D02*
Y014015D01*
X006985Y0125D02*
X007015D01*
X007Y012485D02*
Y012515D01*
X007235Y012D02*
X007265D01*
X00725Y011985D02*
Y012015D01*
X006985Y0115D02*
X007015D01*
X007Y011485D02*
Y011515D01*
X007235Y011D02*
X007265D01*
X00725Y010985D02*
Y011015D01*
X006985Y0105D02*
X007015D01*
X007Y010485D02*
Y010515D01*
X007235Y01D02*
X007265D01*
X00725Y009985D02*
Y010015D01*
X007235Y009D02*
X007265D01*
X00725Y008985D02*
Y009015D01*
X006985Y0085D02*
X007015D01*
X007Y008485D02*
Y008515D01*
X006735Y014D02*
X006765D01*
X00675Y013985D02*
Y014015D01*
X006485Y0135D02*
X006515D01*
X0065Y013485D02*
Y013515D01*
X006735Y013D02*
X006765D01*
X00675Y012985D02*
Y013015D01*
X006485Y0125D02*
X006515D01*
X0065Y012485D02*
Y012515D01*
X006735Y012D02*
X006765D01*
X00675Y011985D02*
Y012015D01*
X006485Y0115D02*
X006515D01*
X0065Y011485D02*
Y011515D01*
X006735Y011D02*
X006765D01*
X00675Y010985D02*
Y011015D01*
X006485Y0105D02*
X006515D01*
X0065Y010485D02*
Y010515D01*
X006735Y01D02*
X006765D01*
X00675Y009985D02*
Y010015D01*
X006485Y0095D02*
X006515D01*
X0065Y009485D02*
Y009515D01*
X006735Y009D02*
X006765D01*
X00675Y008985D02*
Y009015D01*
X010741Y011331D02*
X010771D01*
X010756Y011316D02*
Y011346D01*
X010658Y011416D02*
X010689D01*
X010674Y011401D02*
Y011431D01*
X010549Y011456D02*
X010579D01*
X010564Y011441D02*
Y011471D01*
X011018Y009336D02*
X011049D01*
X011033Y009321D02*
Y009351D01*
X012158Y009266D02*
X012189D01*
X012174Y009251D02*
Y009281D01*
X010708Y012096D02*
X010739D01*
X010724Y012081D02*
Y012111D01*
X010549Y012096D02*
X010579D01*
X010564Y012081D02*
Y012111D01*
X010399Y012066D02*
X010429D01*
X010414Y012051D02*
Y012081D01*
X010289Y012076D02*
X010318D01*
X010304Y012061D02*
Y012091D01*
X008818Y012076D02*
X008849D01*
X008833Y012061D02*
Y012091D01*
X012189Y010496D02*
X012218D01*
X012204Y010481D02*
Y010511D01*
X011918Y012796D02*
X011949D01*
X011933Y012781D02*
Y012811D01*
X011679Y010456D02*
X011708D01*
X011693Y010441D02*
Y010471D01*
X011768Y010416D02*
X011799D01*
X011783Y010401D02*
Y010431D01*
X010649Y011876D02*
X010679D01*
X010664Y011861D02*
Y011891D01*
X012179Y009506D02*
X012208D01*
X012193Y009491D02*
Y009521D01*
X011289Y009566D02*
X011318D01*
X011304Y009551D02*
Y009581D01*
X011668Y009596D02*
X011699D01*
X011683Y009581D02*
Y009611D01*
X010829Y012226D02*
X010858D01*
X010843Y012211D02*
Y012241D01*
X010408Y011956D02*
X010439D01*
X010424Y011941D02*
Y011971D01*
X010668Y011656D02*
X010699D01*
X010683Y011641D02*
Y011671D01*
X007908Y013636D02*
X007939D01*
X007924Y013621D02*
Y013651D01*
X008918Y013736D02*
X008949D01*
X008933Y013721D02*
Y013751D01*
X010579Y011766D02*
X010608D01*
X010593Y011751D02*
Y011781D01*
M02*
