G04*
G04 #@! TF.GenerationSoftware,Altium Limited,Altium Designer,20.0.13 (296)*
G04*
G04 Layer_Physical_Order=1*
G04 Layer_Color=255*
%FSTAX42Y42*%
%MOMM*%
G71*
G01*
G75*
%ADD11C,0.20*%
%ADD13R,0.60X1.20*%
%ADD14R,0.55X1.05*%
%ADD15R,0.40X0.80*%
%ADD16R,0.80X0.40*%
%ADD17R,1.20X1.20*%
%ADD18R,0.80X0.80*%
%ADD19R,1.50X0.55*%
%ADD20R,3.50X2.60*%
%ADD21R,2.20X1.55*%
%ADD22R,0.60X0.70*%
%ADD23R,0.50X0.48*%
%ADD24R,0.72X0.60*%
%ADD25R,0.60X0.72*%
%ADD26R,1.15X1.15*%
%ADD53C,0.30*%
%ADD54C,0.28*%
%ADD55R,1.65X1.65*%
%ADD56C,1.65*%
%ADD57C,0.65*%
%ADD58O,0.90X1.70*%
%ADD59O,0.90X2.40*%
%ADD60C,1.64*%
%ADD61R,1.64X1.64*%
%ADD62C,2.25*%
%ADD63C,1.50*%
%ADD64R,1.50X1.50*%
%ADD65C,0.60*%
G36*
X012314Y014066D02*
X012733D01*
X012734Y014053D01*
X012728Y014052D01*
X01271Y01404D01*
X012698Y014022D01*
X012696Y014013D01*
X01275D01*
Y014D01*
X012763D01*
Y013946D01*
X012772Y013948D01*
X01279Y01396D01*
X012801Y013976D01*
X01281Y013975D01*
X012813Y013974D01*
Y013026D01*
X01281Y013025D01*
X012801Y013024D01*
X01279Y01304D01*
X012772Y013052D01*
X012763Y013054D01*
Y013D01*
Y012946D01*
X012772Y012948D01*
X01279Y01296D01*
X012801Y012976D01*
X01281Y012975D01*
X012813Y012974D01*
Y012266D01*
X012314D01*
Y012132D01*
X012221D01*
Y012066D01*
Y012001D01*
X012248D01*
Y011974D01*
X012313D01*
Y011948D01*
X012248D01*
Y011916D01*
Y011889D01*
X012313D01*
Y011863D01*
X012248D01*
Y011831D01*
Y011804D01*
X012313D01*
Y011778D01*
X012248D01*
Y011746D01*
Y011719D01*
X012313D01*
Y011693D01*
X012248D01*
Y011661D01*
Y011634D01*
X012313D01*
Y011608D01*
X012248D01*
Y011576D01*
Y011549D01*
X012313D01*
Y011523D01*
X012248D01*
Y011491D01*
Y011464D01*
X012313D01*
Y011438D01*
X012248D01*
Y011401D01*
X011864D01*
Y011446D01*
Y011518D01*
X011778D01*
Y011531D01*
X011766D01*
Y011617D01*
X011626D01*
Y011531D01*
X011601D01*
Y011617D01*
X011579D01*
X011421Y011774D01*
X01141Y011782D01*
X011396Y011784D01*
X011246D01*
X011039Y011991D01*
X011036Y011993D01*
X011039Y012006D01*
X011058Y012006D01*
X011071Y012006D01*
X011136D01*
X011143Y012006D01*
X011156Y012006D01*
X011221D01*
X011229Y012006D01*
X011241Y012006D01*
X011306D01*
X011314Y012006D01*
X011326Y012006D01*
X011391D01*
X011398Y012006D01*
X011411Y012006D01*
X011476D01*
X011484Y012006D01*
X011496Y012006D01*
X011561D01*
X011569Y012006D01*
X011581Y012006D01*
X011646D01*
X011654Y012006D01*
X011666Y012006D01*
X011731D01*
X011738Y012006D01*
X011751Y012006D01*
X011816D01*
X011824Y012006D01*
X011836Y012006D01*
X011901D01*
X011908Y012006D01*
X011921Y012006D01*
X011986D01*
X011993Y012006D01*
X012006Y012006D01*
X012078D01*
Y012001D01*
X012111D01*
Y012066D01*
Y012132D01*
X012078D01*
X012073Y012142D01*
Y01236D01*
X012104D01*
Y012355D01*
X012147D01*
Y012416D01*
Y012478D01*
X012104D01*
X012103Y01249D01*
Y012701D01*
X012394Y012992D01*
X012406Y012987D01*
Y012921D01*
X012501D01*
Y013016D01*
X012434D01*
X01243Y013028D01*
X012471Y013069D01*
X012487Y013062D01*
X012513Y013059D01*
X01254Y013062D01*
X012565Y013073D01*
X012587Y013089D01*
X012603Y01311D01*
X012613Y013135D01*
X012617Y013162D01*
X012613Y013189D01*
X012603Y013214D01*
X012587Y013235D01*
X012565Y013252D01*
X01254Y013262D01*
X012513Y013265D01*
X012487Y013262D01*
X012462Y013252D01*
X01244Y013235D01*
X012424Y013214D01*
X012414Y013189D01*
X01241Y013162D01*
X012414Y013135D01*
X01242Y013119D01*
X012125Y012824D01*
X012114Y012829D01*
Y012916D01*
Y013026D01*
X012099D01*
Y013106D01*
X012159D01*
Y013201D01*
X011969D01*
Y013106D01*
X012028D01*
Y013026D01*
X012014D01*
Y012967D01*
X012012Y012965D01*
X012005Y012964D01*
X011994Y012956D01*
X011908Y012871D01*
X011901Y012859D01*
X011898Y012846D01*
Y012832D01*
X011897Y012832D01*
X011886Y012816D01*
X011883Y012796D01*
X011886Y012777D01*
X011897Y01276D01*
X011914Y012749D01*
X011933Y012745D01*
X011953Y012749D01*
X01197Y01276D01*
X011981Y012777D01*
X011984Y012796D01*
X011981Y012816D01*
X01197Y012832D01*
X012002Y012863D01*
X012014Y012859D01*
Y012806D01*
X01203D01*
Y012472D01*
X012018D01*
Y012452D01*
X01157D01*
X011376Y012646D01*
X011365Y012654D01*
X011351Y012657D01*
X010913D01*
Y012676D01*
X010813D01*
Y012657D01*
X010663D01*
Y012676D01*
X010563D01*
Y012657D01*
X010501D01*
X010487Y012654D01*
X010476Y012646D01*
X010458Y012629D01*
X010451Y012617D01*
X010448Y012604D01*
Y012271D01*
X010304Y012127D01*
X010304Y012127D01*
X010284Y012123D01*
X010267Y012112D01*
X010256Y012096D01*
X010253Y012076D01*
X010256Y012057D01*
X010267Y01204D01*
X010284Y012029D01*
X010304Y012025D01*
X010323Y012029D01*
X01034Y01204D01*
X010347Y012051D01*
X010361Y012049D01*
X010361Y012044D01*
X010374Y012026D01*
X010392Y012014D01*
X010396Y012013D01*
X010399Y012D01*
X010387Y011992D01*
X010376Y011976D01*
X010373Y011956D01*
X010376Y011937D01*
X010387Y01192D01*
X010404Y011909D01*
X010424Y011905D01*
X010443Y011909D01*
X01046Y01192D01*
X01046Y01192D01*
X010619D01*
X010624Y011908D01*
X010616Y011896D01*
X010613Y011876D01*
X010616Y011857D01*
X010627Y01184D01*
X010629Y011839D01*
X010627Y011832D01*
X010625Y011826D01*
X010613Y011824D01*
X010601Y011816D01*
X010601Y011816D01*
X010593Y011817D01*
X010574Y011813D01*
X010557Y011802D01*
X010546Y011786D01*
X010543Y011766D01*
X010546Y011747D01*
X010557Y01173D01*
X010574Y011719D01*
X010593Y011715D01*
X010613Y011719D01*
X01063Y01173D01*
X010641Y011747D01*
X010643Y011756D01*
X010839D01*
X010843Y011749D01*
X010839Y011741D01*
X010745D01*
X01074Y011742D01*
X010726Y011739D01*
X010714Y011731D01*
X010689Y011706D01*
X010683Y011707D01*
X010664Y011703D01*
X010647Y011692D01*
X010636Y011676D01*
X010633Y011656D01*
X010636Y011637D01*
X010639Y011633D01*
X010633Y011622D01*
X010585D01*
X009883Y012324D01*
X00989Y01234D01*
X009893Y012366D01*
X00989Y012393D01*
X009879Y012417D01*
X009863Y012439D01*
X009842Y012455D01*
X009823Y012463D01*
X009826Y012475D01*
X010314D01*
Y012456D01*
X010414D01*
Y012561D01*
X010419D01*
Y012608D01*
X010364D01*
X010308D01*
Y012561D01*
X010314D01*
Y012547D01*
X009554D01*
X00954Y012544D01*
X009529Y012536D01*
X009511Y012519D01*
X009504Y012507D01*
X009501Y012494D01*
Y012468D01*
X009435D01*
Y012264D01*
X009638D01*
Y012468D01*
X009648Y012475D01*
X009755D01*
X009758Y012463D01*
X009739Y012455D01*
X009718Y012439D01*
X009702Y012417D01*
X009691Y012393D01*
X009688Y012366D01*
X009691Y01234D01*
X009702Y012315D01*
X009718Y012294D01*
X009739Y012277D01*
X009764Y012267D01*
X009791Y012263D01*
X009817Y012267D01*
X009833Y012273D01*
X010524Y011582D01*
X010519Y011571D01*
X009929D01*
X008728Y012772D01*
Y013315D01*
X008751D01*
Y01337D01*
X008764D01*
Y013383D01*
X008825D01*
Y013426D01*
X008819D01*
Y013512D01*
X008797D01*
Y013664D01*
X008806D01*
Y0137D01*
X008897D01*
X008897Y0137D01*
X008914Y013689D01*
X008933Y013685D01*
X008953Y013689D01*
X00897Y0137D01*
X008981Y013717D01*
X008984Y013736D01*
X008981Y013756D01*
X00897Y013772D01*
X008953Y013783D01*
X008933Y013787D01*
X008914Y013783D01*
X008897Y013772D01*
X008897Y013772D01*
X008806D01*
Y013809D01*
X008716D01*
Y013814D01*
X008676D01*
Y013736D01*
Y013658D01*
X008716D01*
X008725Y013649D01*
Y013512D01*
X008707D01*
Y01344D01*
X008695Y013435D01*
X008604Y013525D01*
Y013648D01*
X008611Y013658D01*
X008651D01*
Y013736D01*
Y013814D01*
X008611D01*
Y013809D01*
X008521D01*
Y013664D01*
X008533D01*
Y013614D01*
X008521Y013609D01*
X008479Y013651D01*
Y013941D01*
X008508Y01397D01*
X008521D01*
Y013924D01*
X008616D01*
Y014069D01*
X008521D01*
Y014042D01*
X008493D01*
X00848Y014039D01*
X008468Y014031D01*
X008418Y013981D01*
X008411Y01397D01*
X008408Y013956D01*
Y013636D01*
X008411Y013622D01*
X008418Y013611D01*
X008478Y013551D01*
Y013511D01*
X008469D01*
X008469Y013424D01*
X008463Y013414D01*
X008463Y013413D01*
Y013378D01*
X008564D01*
Y013413D01*
X008564Y013414D01*
X008559Y013424D01*
X008559Y013427D01*
Y013454D01*
X00857Y013458D01*
X008657Y013372D01*
Y012789D01*
X008645Y012784D01*
X008344Y013085D01*
Y013661D01*
X008358D01*
Y013821D01*
X008269D01*
Y013826D01*
X008226D01*
Y013741D01*
Y013656D01*
X008269D01*
X008273Y013645D01*
Y01307D01*
X008274Y013065D01*
X008263Y013054D01*
X008263Y013054D01*
Y013D01*
Y012946D01*
X008272Y012948D01*
X00829Y01296D01*
X008302Y012978D01*
X008306Y013D01*
X008305Y013005D01*
X008317Y013011D01*
X009261Y012067D01*
X009255Y012055D01*
X00925Y012056D01*
X009228Y012052D01*
X00921Y01204D01*
X009198Y012022D01*
X009196Y012013D01*
X00925D01*
Y012D01*
X009263D01*
Y011946D01*
X009272Y011948D01*
X00929Y01196D01*
X009302Y011978D01*
X009306Y012D01*
X009305Y012005D01*
X009317Y012011D01*
X009888Y011441D01*
X009899Y011433D01*
X009913Y01143D01*
X009959D01*
X00997Y011423D01*
X009983Y01142D01*
X010527D01*
X010527Y01142D01*
X010544Y011409D01*
X010564Y011405D01*
X010583Y011409D01*
X0106Y01142D01*
X010611Y011437D01*
X010614Y011456D01*
X010611Y011476D01*
X010602Y011489D01*
X010607Y011501D01*
X010848D01*
X010854Y011491D01*
X010854Y011483D01*
Y011419D01*
X010854Y011411D01*
X010854Y011398D01*
Y011334D01*
X010854Y011326D01*
X010854Y011313D01*
Y011249D01*
X010854Y011241D01*
X010854Y011228D01*
Y011164D01*
X010854Y011156D01*
X010854Y011143D01*
Y011079D01*
X010854Y011071D01*
X010854Y011058D01*
Y010994D01*
X010854Y010986D01*
X010854Y010973D01*
Y010909D01*
X010854Y010901D01*
X010854Y010888D01*
Y010824D01*
X010854Y010816D01*
X010854Y010803D01*
Y010732D01*
X010848D01*
Y010679D01*
X010914D01*
Y010666D01*
X010926D01*
Y010601D01*
X010979D01*
Y010606D01*
X011051D01*
X011058Y010606D01*
X011071Y010606D01*
X011136D01*
X011143Y010606D01*
X011156Y010606D01*
X011221D01*
X011229Y010606D01*
X011241Y010606D01*
X011306D01*
X011314Y010606D01*
X011326Y010606D01*
X011391D01*
X011398Y010606D01*
X011411Y010606D01*
X011476D01*
X011484Y010606D01*
X011496Y010606D01*
X011561D01*
X011569Y010606D01*
X011581Y010606D01*
X011646D01*
X011654Y010606D01*
X011661Y010597D01*
Y010495D01*
X011657Y010492D01*
X011646Y010476D01*
X011643Y010456D01*
X011646Y010437D01*
X011657Y01042D01*
X011674Y010409D01*
X011693Y010405D01*
X011713Y010409D01*
X01172Y010414D01*
X011734Y010408D01*
X011736Y010397D01*
X011747Y01038D01*
X011764Y010369D01*
X011783Y010365D01*
X011803Y010369D01*
X01182Y01038D01*
X011831Y010397D01*
X011834Y010416D01*
X011831Y010436D01*
X01182Y010452D01*
X011818Y010453D01*
Y010536D01*
X011818Y010536D01*
Y0106D01*
X011829Y010606D01*
X011836Y010606D01*
X011908D01*
Y010601D01*
X011941D01*
Y010666D01*
Y010732D01*
X011908D01*
Y010726D01*
X011836D01*
X011829Y010726D01*
X011816Y010726D01*
X011744D01*
Y010726D01*
X011738D01*
Y010726D01*
X011666D01*
X011658Y010726D01*
X011646Y010726D01*
X011581D01*
X011574Y010726D01*
X011561Y010726D01*
X011496D01*
X011489Y010726D01*
X011476Y010726D01*
X011411D01*
X011404Y010726D01*
X011391Y010726D01*
X011326D01*
X011318Y010726D01*
X011306Y010726D01*
X011241D01*
X011234Y010726D01*
X011221Y010726D01*
X011156D01*
X011149Y010726D01*
X011136Y010726D01*
X011071D01*
X011063Y010726D01*
X011051Y010726D01*
X010984D01*
X010979Y010731D01*
Y010732D01*
X010979D01*
X010974Y010742D01*
Y010803D01*
X010974Y010811D01*
X010974Y010824D01*
Y010888D01*
X010974Y010896D01*
X010974Y010909D01*
Y010973D01*
X010974Y010981D01*
X010974Y010994D01*
Y011058D01*
X010974Y011066D01*
X010974Y011079D01*
Y011143D01*
X010974Y011151D01*
X010974Y011164D01*
Y011228D01*
X010974Y011236D01*
X010974Y011249D01*
Y011313D01*
X010974Y011321D01*
X010974Y011334D01*
Y011398D01*
X010974Y011406D01*
X010974Y011419D01*
Y011483D01*
X010974Y011491D01*
X010974Y011504D01*
Y011576D01*
X010974D01*
Y011581D01*
X010974D01*
Y011661D01*
X010974D01*
Y011666D01*
X010974D01*
Y011738D01*
X010974Y011746D01*
X010974Y011759D01*
Y011831D01*
X010974D01*
Y011836D01*
X010974D01*
Y011916D01*
X010974D01*
Y011921D01*
X010974D01*
Y01194D01*
X010986Y011944D01*
X010988Y011941D01*
X010988Y011941D01*
X011206Y011723D01*
X011363Y011566D01*
Y011544D01*
X011449D01*
Y011518D01*
X011363D01*
Y011446D01*
Y011379D01*
X011449D01*
Y011353D01*
X011363D01*
Y011281D01*
Y011214D01*
X011449D01*
Y011201D01*
X011461D01*
Y011116D01*
X011601D01*
Y011201D01*
X011626D01*
Y011116D01*
X011766D01*
Y011201D01*
X011778D01*
Y011214D01*
X011864D01*
Y011281D01*
Y011331D01*
X012248D01*
Y011294D01*
X012313D01*
Y011268D01*
X012248D01*
Y011236D01*
Y011209D01*
X012313D01*
Y011183D01*
X012248D01*
Y011151D01*
Y011124D01*
X012313D01*
Y011098D01*
X012248D01*
Y011066D01*
Y011039D01*
X012313D01*
Y011013D01*
X012248D01*
Y010981D01*
Y010954D01*
X012313D01*
Y010928D01*
X012248D01*
Y010896D01*
Y010869D01*
X012313D01*
Y010843D01*
X012248D01*
Y010811D01*
Y010784D01*
X012313D01*
Y010758D01*
X012248D01*
Y010726D01*
X012176D01*
X012168Y010726D01*
X012156Y010726D01*
X012084D01*
Y010732D01*
X012051D01*
Y010666D01*
Y010601D01*
X012084D01*
Y010606D01*
X012156D01*
X012164Y010606D01*
X012171Y010597D01*
Y010535D01*
X012167Y010532D01*
X012156Y010516D01*
X012153Y010496D01*
X012156Y010477D01*
X012167Y01046D01*
X012184Y010449D01*
X012204Y010445D01*
X012223Y010449D01*
X01224Y01046D01*
X012251Y010477D01*
X012254Y010496D01*
X012251Y010516D01*
X012241Y01053D01*
Y010591D01*
X012248Y010601D01*
X012314D01*
Y010466D01*
X012813D01*
Y010026D01*
X01281Y010025D01*
X012801Y010024D01*
X01279Y01004D01*
X012772Y010052D01*
X012763Y010054D01*
Y01D01*
Y009946D01*
X012772Y009948D01*
X01279Y00996D01*
X012801Y009976D01*
X01281Y009975D01*
X012813Y009974D01*
Y009026D01*
X01281Y009025D01*
X012801Y009024D01*
X01279Y00904D01*
X012772Y009052D01*
X012763Y009054D01*
Y009D01*
Y008946D01*
X012772Y008948D01*
X01279Y00896D01*
X012801Y008976D01*
X01281Y008975D01*
X012813Y008974D01*
Y008766D01*
X012314D01*
Y008266D01*
X006514D01*
Y008766D01*
X006013D01*
Y014066D01*
X006514D01*
Y014566D01*
X012314D01*
Y014066D01*
D02*
G37*
G36*
X010813Y012576D02*
X010813Y012566D01*
X010813Y012566D01*
Y012456D01*
X010828D01*
Y012451D01*
X010831Y012437D01*
X010838Y012426D01*
X010928Y012336D01*
Y012266D01*
X010924Y012262D01*
X01088D01*
X01088Y012262D01*
X010863Y012273D01*
X010843Y012277D01*
X010824Y012273D01*
X010807Y012262D01*
X010796Y012246D01*
X010793Y012226D01*
X010796Y012207D01*
X010807Y01219D01*
X010824Y012179D01*
X010843Y012175D01*
X010863Y012179D01*
X01088Y01219D01*
X01088Y01219D01*
X010984D01*
Y012142D01*
X010979Y012132D01*
X010926D01*
Y012066D01*
X010901D01*
Y012132D01*
X010848D01*
Y012126D01*
X01077D01*
X010763Y012136D01*
X010745Y012148D01*
X010736Y01215D01*
Y012096D01*
X010711D01*
Y01215D01*
X010707Y012149D01*
X010694Y012157D01*
Y012466D01*
X010691Y01248D01*
X010684Y012491D01*
X010663Y012512D01*
Y012553D01*
X010663Y012566D01*
X010663D01*
Y012566D01*
X010663D01*
Y012585D01*
X010805D01*
X010813Y012576D01*
D02*
G37*
G36*
X01153Y012391D02*
X011542Y012384D01*
X011556Y012381D01*
X012004D01*
X012004Y01238D01*
Y012132D01*
X011993Y012126D01*
X011986Y012126D01*
X011921D01*
X011913Y012126D01*
X011901Y012126D01*
X011836D01*
X011829Y012126D01*
X011816Y012126D01*
X011751D01*
X011744Y012126D01*
X011731Y012126D01*
X011666D01*
X011658Y012126D01*
X011646Y012126D01*
X011581D01*
X011574Y012126D01*
X011561Y012126D01*
X011496D01*
X011489Y012126D01*
X011476Y012126D01*
X011411D01*
X011404Y012126D01*
X011391Y012126D01*
X011326D01*
X011318Y012126D01*
X011306Y012126D01*
X011241D01*
X011234Y012126D01*
X011221Y012126D01*
X011156D01*
X011149Y012126D01*
X011136Y012126D01*
X011071D01*
X011063Y012126D01*
X011053Y012132D01*
Y012206D01*
X011054Y012211D01*
X011051Y012225D01*
X011044Y012236D01*
X010999Y012281D01*
Y012351D01*
X010996Y012365D01*
X010989Y012376D01*
X010919Y012446D01*
X010913Y012456D01*
X010913D01*
X010913Y012456D01*
Y012553D01*
X010913Y012566D01*
X010913D01*
Y012566D01*
X010913D01*
Y012585D01*
X011336D01*
X01153Y012391D01*
D02*
G37*
G36*
X010563Y012576D02*
X010563Y012566D01*
X010563Y012566D01*
Y012456D01*
X010618D01*
X010623Y012451D01*
Y01213D01*
X01061Y012126D01*
X010603Y012136D01*
X010585Y012148D01*
X010576Y01215D01*
Y012096D01*
X010551D01*
Y01215D01*
X010542Y012148D01*
X010524Y012136D01*
X010511Y012118D01*
X010508Y012102D01*
X010456D01*
X010453Y012106D01*
X010435Y012118D01*
X010418Y012122D01*
X010412Y012134D01*
X010509Y012231D01*
X010516Y012242D01*
X010519Y012256D01*
Y012585D01*
X010555D01*
X010563Y012576D01*
D02*
G37*
%LPC*%
G36*
X009244Y014325D02*
Y014229D01*
X009302D01*
Y014256D01*
X0093Y014274D01*
X009292Y014292D01*
X009281Y014306D01*
X009267Y014318D01*
X009249Y014325D01*
X009244Y014325D01*
D02*
G37*
G36*
X009218D02*
X009213Y014325D01*
X009195Y014318D01*
X009181Y014306D01*
X00917Y014292D01*
X009162Y014274D01*
X00916Y014256D01*
Y014229D01*
X009218D01*
Y014325D01*
D02*
G37*
G36*
X009302Y014203D02*
X009244D01*
Y014107D01*
X009249Y014108D01*
X009267Y014115D01*
X009281Y014126D01*
X009292Y014141D01*
X0093Y014158D01*
X009302Y014176D01*
Y014203D01*
D02*
G37*
G36*
X009218D02*
X00916D01*
Y014176D01*
X009162Y014158D01*
X00917Y014141D01*
X009181Y014126D01*
X009195Y014115D01*
X009213Y014108D01*
X009218Y014107D01*
Y014203D01*
D02*
G37*
G36*
X007755Y014077D02*
X007712D01*
Y014029D01*
X007755D01*
Y014077D01*
D02*
G37*
G36*
X007846Y014329D02*
X007821D01*
X007807Y014327D01*
X007796Y014319D01*
X006948Y013471D01*
X006941Y01346D01*
X006938Y013446D01*
Y012906D01*
X006941Y012892D01*
X006948Y012881D01*
X007762Y012067D01*
X007756Y012055D01*
X00775Y012056D01*
X007728Y012052D01*
X00771Y01204D01*
X007698Y012022D01*
X007696Y012013D01*
X007804D01*
X007802Y012022D01*
X007797Y012029D01*
X007802Y012037D01*
X007805Y01204D01*
X008797D01*
X008797Y01204D01*
X008814Y012029D01*
X008833Y012025D01*
X008853Y012029D01*
X00887Y01204D01*
X008881Y012057D01*
X008884Y012076D01*
X008881Y012096D01*
X00887Y012112D01*
X008853Y012123D01*
X008833Y012127D01*
X008814Y012123D01*
X008797Y012112D01*
X008797Y012112D01*
X007818D01*
X007009Y012921D01*
Y012948D01*
X007019Y012956D01*
X007022Y012956D01*
X007409D01*
Y013206D01*
X007683Y01348D01*
X008086D01*
X0081Y013483D01*
X008111Y013491D01*
X008144Y013523D01*
X008151Y013535D01*
X008154Y013549D01*
Y013645D01*
X008158Y013656D01*
X008201D01*
Y013741D01*
Y013826D01*
X008158D01*
Y013821D01*
X008068D01*
Y013772D01*
X007941D01*
X007927Y013769D01*
X007916Y013761D01*
X007898Y013744D01*
X007891Y013732D01*
X007888Y013719D01*
Y013672D01*
X007887Y013672D01*
X007876Y013656D01*
X007873Y013636D01*
X007876Y013617D01*
X007887Y0136D01*
X007904Y013589D01*
X007924Y013585D01*
X007943Y013589D01*
X00796Y0136D01*
X007971Y013617D01*
X007974Y013636D01*
X007971Y013656D01*
X00796Y013672D01*
X007959Y013672D01*
Y0137D01*
X008068D01*
Y013661D01*
X008083D01*
Y013563D01*
X008071Y013552D01*
X007669D01*
X007655Y013549D01*
X007643Y013541D01*
X007358Y013256D01*
X007022D01*
X007019Y013256D01*
X007009Y013264D01*
Y013431D01*
X007834Y014256D01*
X008051Y014039D01*
X008046Y014027D01*
X00791D01*
Y014072D01*
X007823D01*
Y014077D01*
X00778D01*
Y014016D01*
Y013955D01*
X007823D01*
Y01396D01*
X007866D01*
X007869Y013958D01*
X007883Y013955D01*
X008068D01*
Y013911D01*
X008168D01*
Y014071D01*
X008119D01*
X007871Y014319D01*
X00786Y014327D01*
X007846Y014329D01*
D02*
G37*
G36*
X012263Y014054D02*
Y014013D01*
X012304D01*
X012302Y014022D01*
X01229Y01404D01*
X012272Y014052D01*
X012263Y014054D01*
D02*
G37*
G36*
X012237D02*
X012228Y014052D01*
X01221Y01404D01*
X012198Y014022D01*
X012196Y014013D01*
X012237D01*
Y014054D01*
D02*
G37*
G36*
X011763D02*
Y014013D01*
X011804D01*
X011802Y014022D01*
X01179Y01404D01*
X011772Y014052D01*
X011763Y014054D01*
D02*
G37*
G36*
X011737D02*
X011728Y014052D01*
X01171Y01404D01*
X011698Y014022D01*
X011696Y014013D01*
X011737D01*
Y014054D01*
D02*
G37*
G36*
X011263D02*
Y014013D01*
X011304D01*
X011302Y014022D01*
X01129Y01404D01*
X011272Y014052D01*
X011263Y014054D01*
D02*
G37*
G36*
X011237D02*
X011228Y014052D01*
X01121Y01404D01*
X011198Y014022D01*
X011196Y014013D01*
X011237D01*
Y014054D01*
D02*
G37*
G36*
X007263D02*
Y014013D01*
X007304D01*
X007302Y014022D01*
X00729Y01404D01*
X007272Y014052D01*
X007263Y014054D01*
D02*
G37*
G36*
X007237D02*
X007228Y014052D01*
X00721Y01404D01*
X007198Y014022D01*
X007196Y014013D01*
X007237D01*
Y014054D01*
D02*
G37*
G36*
X006763D02*
Y014013D01*
X006804D01*
X006802Y014022D01*
X00679Y01404D01*
X006772Y014052D01*
X006763Y014054D01*
D02*
G37*
G36*
X006737D02*
X006728Y014052D01*
X00671Y01404D01*
X006698Y014022D01*
X006696Y014013D01*
X006737D01*
Y014054D01*
D02*
G37*
G36*
X010129Y014372D02*
X009854D01*
X00984Y014369D01*
X009828Y014361D01*
X009766Y014299D01*
X009758Y014287D01*
X009755Y014274D01*
Y013962D01*
X009744Y013955D01*
X00974Y013956D01*
X009726Y013965D01*
X009706Y013969D01*
X009686Y013965D01*
X009672Y013956D01*
X009664Y013954D01*
X009655Y013956D01*
X009641Y013965D01*
X009621Y013969D01*
X009601Y013965D01*
X009583Y013953D01*
X009574D01*
X009556Y013965D01*
X009536Y013969D01*
X009516Y013965D01*
X009498Y013953D01*
X009489D01*
X009471Y013965D01*
X009451Y013969D01*
X009431Y013965D01*
X009413Y013953D01*
X009408Y013957D01*
X009408Y013957D01*
X009389Y01397D01*
X009379Y013972D01*
Y013915D01*
Y013859D01*
X009389Y013861D01*
X009408Y013873D01*
X009408Y013874D01*
X009413Y013877D01*
X009431Y013866D01*
X009451Y013862D01*
X009471Y013866D01*
X009489Y013877D01*
X009498D01*
X009516Y013866D01*
X009536Y013862D01*
X009556Y013866D01*
X009574Y013877D01*
X009583D01*
X009601Y013866D01*
X009621Y013862D01*
X009641Y013866D01*
X009655Y013874D01*
X009664Y013876D01*
X009672Y013874D01*
X009686Y013866D01*
X009706Y013862D01*
X009726Y013866D01*
X00974Y013874D01*
X009749Y013876D01*
X009757Y013874D01*
X009771Y013866D01*
X009791Y013862D01*
X009811Y013866D01*
X009825Y013874D01*
X009834Y013876D01*
X009842Y013874D01*
X009856Y013866D01*
X009876Y013862D01*
X009896Y013866D01*
X009914Y013877D01*
X009919Y013874D01*
X009919Y013873D01*
X009938Y013861D01*
X009948Y013859D01*
Y013915D01*
X009974D01*
Y013859D01*
X009984Y013861D01*
X010003Y013873D01*
X010012Y013888D01*
X010025Y013884D01*
Y013811D01*
X010012Y013808D01*
X010003Y013822D01*
X009984Y013835D01*
X009974Y013837D01*
Y01378D01*
X009948D01*
Y013837D01*
X009938Y013835D01*
X009919Y013822D01*
X009919Y013822D01*
X009914Y013818D01*
X009896Y01383D01*
X009876Y013834D01*
X009856Y01383D01*
X009842Y013821D01*
X009834Y013819D01*
X009825Y013821D01*
X009811Y01383D01*
X009791Y013834D01*
X009771Y01383D01*
X009757Y013821D01*
X009749Y013819D01*
X00974Y013821D01*
X009726Y01383D01*
X009706Y013834D01*
X009686Y01383D01*
X009672Y013821D01*
X009664Y013819D01*
X009655Y013821D01*
X009641Y01383D01*
X009621Y013834D01*
X009601Y01383D01*
X009583Y013818D01*
X009574D01*
X009556Y01383D01*
X009536Y013834D01*
X009516Y01383D01*
X009498Y013818D01*
X009489D01*
X009471Y01383D01*
X009451Y013834D01*
X009431Y01383D01*
X009413Y013818D01*
X009408Y013822D01*
X009408Y013822D01*
X009389Y013835D01*
X009379Y013837D01*
Y01378D01*
Y013724D01*
X009389Y013726D01*
X009403Y013735D01*
X009415Y013729D01*
Y013414D01*
X009349D01*
Y01354D01*
X009346Y013554D01*
X009339Y013565D01*
X009187Y013717D01*
Y013734D01*
X009199Y01374D01*
X009213Y013735D01*
X009218Y013734D01*
Y013878D01*
Y014022D01*
X009213Y014022D01*
X009195Y014015D01*
X009188Y014009D01*
X009178Y014005D01*
X00917Y01401D01*
X009159Y014021D01*
X009147Y014029D01*
X009133Y014032D01*
X008806D01*
Y014069D01*
X008711D01*
Y013924D01*
X008806D01*
Y01396D01*
X009115D01*
Y013702D01*
X009118Y013689D01*
X009126Y013677D01*
X009278Y013525D01*
Y013224D01*
X009281Y01321D01*
X009288Y013199D01*
X009309Y013178D01*
X00932Y013171D01*
X009334Y013168D01*
X009583D01*
X009597Y013171D01*
X009608Y013178D01*
X009648Y013218D01*
X009806D01*
X009809Y013219D01*
X009998D01*
Y01328D01*
X01004D01*
X010053Y013283D01*
X010065Y013291D01*
X010089Y013315D01*
X010102Y01331D01*
Y013283D01*
X010164D01*
X010225D01*
Y013326D01*
X010219D01*
Y013412D01*
X010107D01*
Y013395D01*
X010082D01*
X010069Y013392D01*
X010057Y013384D01*
X010025Y013352D01*
X009998D01*
Y013414D01*
X009738D01*
Y013289D01*
X009633D01*
X009619Y013287D01*
X009608Y013279D01*
X0096Y013271D01*
X009588Y013276D01*
Y013414D01*
X009487D01*
Y013734D01*
X009498Y013739D01*
X009507Y013733D01*
Y013594D01*
X00951Y01358D01*
X009517Y013568D01*
X009535Y013551D01*
X009547Y013543D01*
X00956Y01354D01*
X010191D01*
X010205Y013543D01*
X010216Y013551D01*
X010436Y013771D01*
X010541D01*
Y013908D01*
X010554Y013913D01*
X010578Y013889D01*
Y013774D01*
X010581Y01376D01*
X010588Y013748D01*
X010606Y013731D01*
X010617Y013723D01*
X010631Y01372D01*
X010835D01*
X010849Y013723D01*
X010861Y013731D01*
X010881Y013751D01*
X010889Y013763D01*
X010892Y013777D01*
Y013921D01*
X010889Y013934D01*
X010881Y013946D01*
X010851Y013976D01*
X010839Y013984D01*
X010826Y013987D01*
X010811D01*
X010805Y013993D01*
X01081Y014006D01*
X010841D01*
Y014161D01*
X010686D01*
Y014121D01*
X010674Y014116D01*
X010569Y014221D01*
X010557Y014229D01*
X010543Y014232D01*
X010318D01*
X010239Y014311D01*
X010227Y014319D01*
X010214Y014322D01*
X010194D01*
X010154Y014361D01*
X010143Y014369D01*
X010129Y014372D01*
D02*
G37*
G36*
X007755Y014003D02*
X007712D01*
Y013955D01*
X007755D01*
Y014003D01*
D02*
G37*
G36*
X012737Y013987D02*
X012696D01*
X012698Y013978D01*
X01271Y01396D01*
X012728Y013948D01*
X012737Y013946D01*
Y013987D01*
D02*
G37*
G36*
X012304D02*
X012263D01*
Y013946D01*
X012272Y013948D01*
X01229Y01396D01*
X012302Y013978D01*
X012304Y013987D01*
D02*
G37*
G36*
X012237D02*
X012196D01*
X012198Y013978D01*
X01221Y01396D01*
X012228Y013948D01*
X012237Y013946D01*
Y013987D01*
D02*
G37*
G36*
X011804D02*
X011763D01*
Y013946D01*
X011772Y013948D01*
X01179Y01396D01*
X011802Y013978D01*
X011804Y013987D01*
D02*
G37*
G36*
X011737D02*
X011696D01*
X011698Y013978D01*
X01171Y01396D01*
X011728Y013948D01*
X011737Y013946D01*
Y013987D01*
D02*
G37*
G36*
X011304D02*
X011263D01*
Y013946D01*
X011272Y013948D01*
X01129Y01396D01*
X011302Y013978D01*
X011304Y013987D01*
D02*
G37*
G36*
X011237D02*
X011196D01*
X011198Y013978D01*
X01121Y01396D01*
X011228Y013948D01*
X011237Y013946D01*
Y013987D01*
D02*
G37*
G36*
X007304D02*
X007263D01*
Y013946D01*
X007272Y013948D01*
X00729Y01396D01*
X007302Y013978D01*
X007304Y013987D01*
D02*
G37*
G36*
X007237D02*
X007196D01*
X007198Y013978D01*
X00721Y01396D01*
X007228Y013948D01*
X007237Y013946D01*
Y013987D01*
D02*
G37*
G36*
X006804D02*
X006763D01*
Y013946D01*
X006772Y013948D01*
X00679Y01396D01*
X006802Y013978D01*
X006804Y013987D01*
D02*
G37*
G36*
X006737D02*
X006696D01*
X006698Y013978D01*
X00671Y01396D01*
X006728Y013948D01*
X006737Y013946D01*
Y013987D01*
D02*
G37*
G36*
X008358Y014071D02*
X008258D01*
Y013911D01*
X008358D01*
Y014071D01*
D02*
G37*
G36*
X009244Y014022D02*
Y013878D01*
Y013734D01*
X009249Y013735D01*
X009267Y013742D01*
X009281Y013753D01*
X009292Y013768D01*
X009295Y013774D01*
X009308Y013773D01*
X009311Y013758D01*
X009324Y013738D01*
X009343Y013726D01*
X009353Y013724D01*
Y01378D01*
Y013837D01*
X009343Y013835D01*
X009324Y013822D01*
X009315Y013808D01*
X009302Y013811D01*
Y013884D01*
X009315Y013888D01*
X009324Y013873D01*
X009343Y013861D01*
X009353Y013859D01*
Y013915D01*
Y013972D01*
X009343Y01397D01*
X009324Y013957D01*
X009315Y013943D01*
X009302Y013946D01*
Y013953D01*
X0093Y013971D01*
X009292Y013989D01*
X009281Y014003D01*
X009267Y014015D01*
X009249Y014022D01*
X009244Y014022D01*
D02*
G37*
G36*
X012513Y013773D02*
X012487Y01377D01*
X012462Y01376D01*
X01244Y013743D01*
X012424Y013722D01*
X012414Y013697D01*
X01241Y01367D01*
X012414Y013643D01*
X012424Y013618D01*
X01244Y013597D01*
X012462Y013581D01*
X012487Y01357D01*
X012513Y013567D01*
X01254Y01357D01*
X012565Y013581D01*
X012587Y013597D01*
X012603Y013618D01*
X012613Y013643D01*
X012617Y01367D01*
X012613Y013697D01*
X012603Y013722D01*
X012587Y013743D01*
X012565Y01376D01*
X01254Y01377D01*
X012513Y013773D01*
D02*
G37*
G36*
X011513Y013554D02*
Y013513D01*
X011554D01*
X011552Y013522D01*
X01154Y01354D01*
X011522Y013552D01*
X011513Y013554D01*
D02*
G37*
G36*
X011487D02*
X011478Y013552D01*
X01146Y01354D01*
X011448Y013522D01*
X011446Y013513D01*
X011487D01*
Y013554D01*
D02*
G37*
G36*
X011013D02*
Y013513D01*
X011054D01*
X011052Y013522D01*
X01104Y01354D01*
X011022Y013552D01*
X011013Y013554D01*
D02*
G37*
G36*
X010987D02*
X010978Y013552D01*
X01096Y01354D01*
X010948Y013522D01*
X010946Y013513D01*
X010987D01*
Y013554D01*
D02*
G37*
G36*
X010513D02*
Y013513D01*
X010554D01*
X010552Y013522D01*
X01054Y01354D01*
X010522Y013552D01*
X010513Y013554D01*
D02*
G37*
G36*
X010487D02*
X010478Y013552D01*
X01046Y01354D01*
X010448Y013522D01*
X010446Y013513D01*
X010487D01*
Y013554D01*
D02*
G37*
G36*
X009013D02*
Y013513D01*
X009054D01*
X009052Y013522D01*
X00904Y01354D01*
X009022Y013552D01*
X009013Y013554D01*
D02*
G37*
G36*
X008987D02*
X008978Y013552D01*
X00896Y01354D01*
X008948Y013522D01*
X008946Y013513D01*
X008987D01*
Y013554D01*
D02*
G37*
G36*
X007513D02*
Y013513D01*
X007554D01*
X007552Y013522D01*
X00754Y01354D01*
X007522Y013552D01*
X007513Y013554D01*
D02*
G37*
G36*
X007487D02*
X007478Y013552D01*
X00746Y01354D01*
X007448Y013522D01*
X007446Y013513D01*
X007487D01*
Y013554D01*
D02*
G37*
G36*
X006513D02*
Y013513D01*
X006554D01*
X006552Y013522D01*
X00654Y01354D01*
X006522Y013552D01*
X006513Y013554D01*
D02*
G37*
G36*
X006487D02*
X006478Y013552D01*
X00646Y01354D01*
X006448Y013522D01*
X006446Y013513D01*
X006487D01*
Y013554D01*
D02*
G37*
G36*
X012164Y013532D02*
X012076D01*
Y013491D01*
X012164D01*
Y013532D01*
D02*
G37*
G36*
X012051D02*
X011963D01*
Y013491D01*
X012051D01*
Y013532D01*
D02*
G37*
G36*
X011554Y013487D02*
X011513D01*
Y013446D01*
X011522Y013448D01*
X01154Y01346D01*
X011552Y013478D01*
X011554Y013487D01*
D02*
G37*
G36*
X011487D02*
X011446D01*
X011448Y013478D01*
X01146Y01346D01*
X011478Y013448D01*
X011487Y013446D01*
Y013487D01*
D02*
G37*
G36*
X011054D02*
X011013D01*
Y013446D01*
X011022Y013448D01*
X01104Y01346D01*
X011052Y013478D01*
X011054Y013487D01*
D02*
G37*
G36*
X010987D02*
X010946D01*
X010948Y013478D01*
X01096Y01346D01*
X010978Y013448D01*
X010987Y013446D01*
Y013487D01*
D02*
G37*
G36*
X010554D02*
X010513D01*
Y013446D01*
X010522Y013448D01*
X01054Y01346D01*
X010552Y013478D01*
X010554Y013487D01*
D02*
G37*
G36*
X010487D02*
X010446D01*
X010448Y013478D01*
X01046Y01346D01*
X010478Y013448D01*
X010487Y013446D01*
Y013487D01*
D02*
G37*
G36*
X009054D02*
X009013D01*
Y013446D01*
X009022Y013448D01*
X00904Y01346D01*
X009052Y013478D01*
X009054Y013487D01*
D02*
G37*
G36*
X008987D02*
X008946D01*
X008948Y013478D01*
X00896Y01346D01*
X008978Y013448D01*
X008987Y013446D01*
Y013487D01*
D02*
G37*
G36*
X007554D02*
X007513D01*
Y013446D01*
X007522Y013448D01*
X00754Y01346D01*
X007552Y013478D01*
X007554Y013487D01*
D02*
G37*
G36*
X007487D02*
X007446D01*
X007448Y013478D01*
X00746Y01346D01*
X007478Y013448D01*
X007487Y013446D01*
Y013487D01*
D02*
G37*
G36*
X006554D02*
X006513D01*
Y013446D01*
X006522Y013448D01*
X00654Y01346D01*
X006552Y013478D01*
X006554Y013487D01*
D02*
G37*
G36*
X006487D02*
X006446D01*
X006448Y013478D01*
X00646Y01346D01*
X006478Y013448D01*
X006487Y013446D01*
Y013487D01*
D02*
G37*
G36*
X012164Y013466D02*
X012076D01*
Y013426D01*
X012164D01*
Y013466D01*
D02*
G37*
G36*
X012051D02*
X011963D01*
Y013426D01*
X012051D01*
Y013466D01*
D02*
G37*
G36*
X008564Y013352D02*
X008526D01*
Y013316D01*
X008564D01*
Y013352D01*
D02*
G37*
G36*
X008501D02*
X008463D01*
Y013316D01*
X008501D01*
Y013352D01*
D02*
G37*
G36*
X008825Y013357D02*
X008776D01*
Y013315D01*
X008825D01*
Y013357D01*
D02*
G37*
G36*
X012513Y013519D02*
X012487Y013516D01*
X012462Y013506D01*
X01244Y013489D01*
X012424Y013468D01*
X012414Y013443D01*
X01241Y013416D01*
X012414Y013389D01*
X012424Y013364D01*
X01244Y013343D01*
X012462Y013327D01*
X012487Y013316D01*
X012513Y013313D01*
X01254Y013316D01*
X012565Y013327D01*
X012587Y013343D01*
X012603Y013364D01*
X012613Y013389D01*
X012617Y013416D01*
X012613Y013443D01*
X012603Y013468D01*
X012587Y013489D01*
X012565Y013506D01*
X01254Y013516D01*
X012513Y013519D01*
D02*
G37*
G36*
X010225Y013257D02*
X010176D01*
Y013215D01*
X010225D01*
Y013257D01*
D02*
G37*
G36*
X010151D02*
X010102D01*
Y013215D01*
X010151D01*
Y013257D01*
D02*
G37*
G36*
X012737Y013054D02*
X012728Y013052D01*
X01271Y01304D01*
X012698Y013022D01*
X012696Y013013D01*
X012737D01*
Y013054D01*
D02*
G37*
G36*
X011263D02*
Y013013D01*
X011304D01*
X011302Y013022D01*
X01129Y01304D01*
X011272Y013052D01*
X011263Y013054D01*
D02*
G37*
G36*
X011237D02*
X011228Y013052D01*
X01121Y01304D01*
X011198Y013022D01*
X011196Y013013D01*
X011237D01*
Y013054D01*
D02*
G37*
G36*
X010763D02*
Y013013D01*
X010804D01*
X010802Y013022D01*
X01079Y01304D01*
X010772Y013052D01*
X010763Y013054D01*
D02*
G37*
G36*
X010737D02*
X010728Y013052D01*
X01071Y01304D01*
X010698Y013022D01*
X010696Y013013D01*
X010737D01*
Y013054D01*
D02*
G37*
G36*
X010263D02*
Y013013D01*
X010304D01*
X010302Y013022D01*
X01029Y01304D01*
X010272Y013052D01*
X010263Y013054D01*
D02*
G37*
G36*
X010237D02*
X010228Y013052D01*
X01021Y01304D01*
X010198Y013022D01*
X010196Y013013D01*
X010237D01*
Y013054D01*
D02*
G37*
G36*
X009763D02*
Y013013D01*
X009804D01*
X009802Y013022D01*
X00979Y01304D01*
X009772Y013052D01*
X009763Y013054D01*
D02*
G37*
G36*
X009737D02*
X009728Y013052D01*
X00971Y01304D01*
X009698Y013022D01*
X009696Y013013D01*
X009737D01*
Y013054D01*
D02*
G37*
G36*
X009263D02*
Y013013D01*
X009304D01*
X009302Y013022D01*
X00929Y01304D01*
X009272Y013052D01*
X009263Y013054D01*
D02*
G37*
G36*
X009237D02*
X009228Y013052D01*
X00921Y01304D01*
X009198Y013022D01*
X009196Y013013D01*
X009237D01*
Y013054D01*
D02*
G37*
G36*
X008237D02*
X008228Y013052D01*
X00821Y01304D01*
X008198Y013022D01*
X008196Y013013D01*
X008237D01*
Y013054D01*
D02*
G37*
G36*
X007763D02*
Y013013D01*
X007804D01*
X007802Y013022D01*
X00779Y01304D01*
X007772Y013052D01*
X007763Y013054D01*
D02*
G37*
G36*
X007737D02*
X007728Y013052D01*
X00771Y01304D01*
X007698Y013022D01*
X007696Y013013D01*
X007737D01*
Y013054D01*
D02*
G37*
G36*
X006763D02*
Y013013D01*
X006804D01*
X006802Y013022D01*
X00679Y01304D01*
X006772Y013052D01*
X006763Y013054D01*
D02*
G37*
G36*
X006737D02*
X006728Y013052D01*
X00671Y01304D01*
X006698Y013022D01*
X006696Y013013D01*
X006737D01*
Y013054D01*
D02*
G37*
G36*
X012737Y012987D02*
X012696D01*
X012698Y012978D01*
X01271Y01296D01*
X012728Y012948D01*
X012737Y012946D01*
Y012987D01*
D02*
G37*
G36*
X011304D02*
X011263D01*
Y012946D01*
X011272Y012948D01*
X01129Y01296D01*
X011302Y012978D01*
X011304Y012987D01*
D02*
G37*
G36*
X011237D02*
X011196D01*
X011198Y012978D01*
X01121Y01296D01*
X011228Y012948D01*
X011237Y012946D01*
Y012987D01*
D02*
G37*
G36*
X010804D02*
X010763D01*
Y012946D01*
X010772Y012948D01*
X01079Y01296D01*
X010802Y012978D01*
X010804Y012987D01*
D02*
G37*
G36*
X010737D02*
X010696D01*
X010698Y012978D01*
X01071Y01296D01*
X010728Y012948D01*
X010737Y012946D01*
Y012987D01*
D02*
G37*
G36*
X010304D02*
X010263D01*
Y012946D01*
X010272Y012948D01*
X01029Y01296D01*
X010302Y012978D01*
X010304Y012987D01*
D02*
G37*
G36*
X010237D02*
X010196D01*
X010198Y012978D01*
X01021Y01296D01*
X010228Y012948D01*
X010237Y012946D01*
Y012987D01*
D02*
G37*
G36*
X009804D02*
X009763D01*
Y012946D01*
X009772Y012948D01*
X00979Y01296D01*
X009802Y012978D01*
X009804Y012987D01*
D02*
G37*
G36*
X009737D02*
X009696D01*
X009698Y012978D01*
X00971Y01296D01*
X009728Y012948D01*
X009737Y012946D01*
Y012987D01*
D02*
G37*
G36*
X009304D02*
X009263D01*
Y012946D01*
X009272Y012948D01*
X00929Y01296D01*
X009302Y012978D01*
X009304Y012987D01*
D02*
G37*
G36*
X009237D02*
X009196D01*
X009198Y012978D01*
X00921Y01296D01*
X009228Y012948D01*
X009237Y012946D01*
Y012987D01*
D02*
G37*
G36*
X008237D02*
X008196D01*
X008198Y012978D01*
X00821Y01296D01*
X008228Y012948D01*
X008237Y012946D01*
Y012987D01*
D02*
G37*
G36*
X007804D02*
X007763D01*
Y012946D01*
X007772Y012948D01*
X00779Y01296D01*
X007802Y012978D01*
X007804Y012987D01*
D02*
G37*
G36*
X007737D02*
X007696D01*
X007698Y012978D01*
X00771Y01296D01*
X007728Y012948D01*
X007737Y012946D01*
Y012987D01*
D02*
G37*
G36*
X006804D02*
X006763D01*
Y012946D01*
X006772Y012948D01*
X00679Y01296D01*
X006802Y012978D01*
X006804Y012987D01*
D02*
G37*
G36*
X006737D02*
X006696D01*
X006698Y012978D01*
X00671Y01296D01*
X006728Y012948D01*
X006737Y012946D01*
Y012987D01*
D02*
G37*
G36*
X012621Y013016D02*
X012526D01*
Y012921D01*
X012621D01*
Y013016D01*
D02*
G37*
G36*
Y012895D02*
X012526D01*
Y0128D01*
X012621D01*
Y012895D01*
D02*
G37*
G36*
X012501D02*
X012406D01*
Y0128D01*
X012501D01*
Y012895D01*
D02*
G37*
G36*
X010419Y012682D02*
X010376D01*
Y012634D01*
X010419D01*
Y012682D01*
D02*
G37*
G36*
X010351D02*
X010308D01*
Y012634D01*
X010351D01*
Y012682D01*
D02*
G37*
G36*
X012513Y012554D02*
Y012513D01*
X012554D01*
X012552Y012522D01*
X01254Y01254D01*
X012522Y012552D01*
X012513Y012554D01*
D02*
G37*
G36*
X012487D02*
X012478Y012552D01*
X01246Y01254D01*
X012448Y012522D01*
X012446Y012513D01*
X012487D01*
Y012554D01*
D02*
G37*
G36*
X008513D02*
Y012513D01*
X008554D01*
X008552Y012522D01*
X00854Y01254D01*
X008522Y012552D01*
X008513Y012554D01*
D02*
G37*
G36*
X008487D02*
X008478Y012552D01*
X00846Y01254D01*
X008448Y012522D01*
X008446Y012513D01*
X008487D01*
Y012554D01*
D02*
G37*
G36*
X008013D02*
Y012513D01*
X008054D01*
X008052Y012522D01*
X00804Y01254D01*
X008022Y012552D01*
X008013Y012554D01*
D02*
G37*
G36*
X007987D02*
X007978Y012552D01*
X00796Y01254D01*
X007948Y012522D01*
X007946Y012513D01*
X007987D01*
Y012554D01*
D02*
G37*
G36*
X007013D02*
Y012513D01*
X007054D01*
X007052Y012522D01*
X00704Y01254D01*
X007022Y012552D01*
X007013Y012554D01*
D02*
G37*
G36*
X006987D02*
X006978Y012552D01*
X00696Y01254D01*
X006948Y012522D01*
X006946Y012513D01*
X006987D01*
Y012554D01*
D02*
G37*
G36*
X006513D02*
Y012513D01*
X006554D01*
X006552Y012522D01*
X00654Y01254D01*
X006522Y012552D01*
X006513Y012554D01*
D02*
G37*
G36*
X006487D02*
X006478Y012552D01*
X00646Y01254D01*
X006448Y012522D01*
X006446Y012513D01*
X006487D01*
Y012554D01*
D02*
G37*
G36*
X012554Y012487D02*
X012513D01*
Y012446D01*
X012522Y012448D01*
X01254Y01246D01*
X012552Y012478D01*
X012554Y012487D01*
D02*
G37*
G36*
X012487D02*
X012446D01*
X012448Y012478D01*
X01246Y01246D01*
X012478Y012448D01*
X012487Y012446D01*
Y012487D01*
D02*
G37*
G36*
X008554D02*
X008513D01*
Y012446D01*
X008522Y012448D01*
X00854Y01246D01*
X008552Y012478D01*
X008554Y012487D01*
D02*
G37*
G36*
X008487D02*
X008446D01*
X008448Y012478D01*
X00846Y01246D01*
X008478Y012448D01*
X008487Y012446D01*
Y012487D01*
D02*
G37*
G36*
X008054D02*
X008013D01*
Y012446D01*
X008022Y012448D01*
X00804Y01246D01*
X008052Y012478D01*
X008054Y012487D01*
D02*
G37*
G36*
X007987D02*
X007946D01*
X007948Y012478D01*
X00796Y01246D01*
X007978Y012448D01*
X007987Y012446D01*
Y012487D01*
D02*
G37*
G36*
X007054D02*
X007013D01*
Y012446D01*
X007022Y012448D01*
X00704Y01246D01*
X007052Y012478D01*
X007054Y012487D01*
D02*
G37*
G36*
X006987D02*
X006946D01*
X006948Y012478D01*
X00696Y01246D01*
X006978Y012448D01*
X006987Y012446D01*
Y012487D01*
D02*
G37*
G36*
X006554D02*
X006513D01*
Y012446D01*
X006522Y012448D01*
X00654Y01246D01*
X006552Y012478D01*
X006554Y012487D01*
D02*
G37*
G36*
X006487D02*
X006446D01*
X006448Y012478D01*
X00646Y01246D01*
X006478Y012448D01*
X006487Y012446D01*
Y012487D01*
D02*
G37*
G36*
X012172Y012478D02*
Y012429D01*
X012215D01*
Y012478D01*
X012172D01*
D02*
G37*
G36*
X012215Y012403D02*
X012172D01*
Y012355D01*
X012215D01*
Y012403D01*
D02*
G37*
G36*
X009763Y012054D02*
Y012013D01*
X009804D01*
X009802Y012022D01*
X00979Y01204D01*
X009772Y012052D01*
X009763Y012054D01*
D02*
G37*
G36*
X009737D02*
X009728Y012052D01*
X00971Y01204D01*
X009698Y012022D01*
X009696Y012013D01*
X009737D01*
Y012054D01*
D02*
G37*
G36*
X007263D02*
Y012013D01*
X007304D01*
X007302Y012022D01*
X00729Y01204D01*
X007272Y012052D01*
X007263Y012054D01*
D02*
G37*
G36*
X007237D02*
X007228Y012052D01*
X00721Y01204D01*
X007198Y012022D01*
X007196Y012013D01*
X007237D01*
Y012054D01*
D02*
G37*
G36*
X006763D02*
Y012013D01*
X006804D01*
X006802Y012022D01*
X00679Y01204D01*
X006772Y012052D01*
X006763Y012054D01*
D02*
G37*
G36*
X006737D02*
X006728Y012052D01*
X00671Y01204D01*
X006698Y012022D01*
X006696Y012013D01*
X006737D01*
Y012054D01*
D02*
G37*
G36*
X012136Y012132D02*
Y012066D01*
Y012001D01*
X012196D01*
Y012066D01*
Y012132D01*
X012136D01*
D02*
G37*
G36*
X009804Y011987D02*
X009763D01*
Y011946D01*
X009772Y011948D01*
X00979Y01196D01*
X009802Y011978D01*
X009804Y011987D01*
D02*
G37*
G36*
X009737D02*
X009696D01*
X009698Y011978D01*
X00971Y01196D01*
X009728Y011948D01*
X009737Y011946D01*
Y011987D01*
D02*
G37*
G36*
X009237D02*
X009196D01*
X009198Y011978D01*
X00921Y01196D01*
X009228Y011948D01*
X009237Y011946D01*
Y011987D01*
D02*
G37*
G36*
X007804D02*
X007763D01*
Y011946D01*
X007772Y011948D01*
X00779Y01196D01*
X007802Y011978D01*
X007804Y011987D01*
D02*
G37*
G36*
X007737D02*
X007696D01*
X007698Y011978D01*
X00771Y01196D01*
X007728Y011948D01*
X007737Y011946D01*
Y011987D01*
D02*
G37*
G36*
X007304D02*
X007263D01*
Y011946D01*
X007272Y011948D01*
X00729Y01196D01*
X007302Y011978D01*
X007304Y011987D01*
D02*
G37*
G36*
X007237D02*
X007196D01*
X007198Y011978D01*
X00721Y01196D01*
X007228Y011948D01*
X007237Y011946D01*
Y011987D01*
D02*
G37*
G36*
X006804D02*
X006763D01*
Y011946D01*
X006772Y011948D01*
X00679Y01196D01*
X006802Y011978D01*
X006804Y011987D01*
D02*
G37*
G36*
X006737D02*
X006696D01*
X006698Y011978D01*
X00671Y01196D01*
X006728Y011948D01*
X006737Y011946D01*
Y011987D01*
D02*
G37*
G36*
X011864Y011617D02*
X011791D01*
Y011544D01*
X011864D01*
Y011617D01*
D02*
G37*
G36*
X009013Y011554D02*
Y011513D01*
X009054D01*
X009052Y011522D01*
X00904Y01154D01*
X009022Y011552D01*
X009013Y011554D01*
D02*
G37*
G36*
X008987D02*
X008978Y011552D01*
X00896Y01154D01*
X008948Y011522D01*
X008946Y011513D01*
X008987D01*
Y011554D01*
D02*
G37*
G36*
X008513D02*
Y011513D01*
X008554D01*
X008552Y011522D01*
X00854Y01154D01*
X008522Y011552D01*
X008513Y011554D01*
D02*
G37*
G36*
X008487D02*
X008478Y011552D01*
X00846Y01154D01*
X008448Y011522D01*
X008446Y011513D01*
X008487D01*
Y011554D01*
D02*
G37*
G36*
X008013D02*
Y011513D01*
X008054D01*
X008052Y011522D01*
X00804Y01154D01*
X008022Y011552D01*
X008013Y011554D01*
D02*
G37*
G36*
X007987D02*
X007978Y011552D01*
X00796Y01154D01*
X007948Y011522D01*
X007946Y011513D01*
X007987D01*
Y011554D01*
D02*
G37*
G36*
X007513D02*
Y011513D01*
X007554D01*
X007552Y011522D01*
X00754Y01154D01*
X007522Y011552D01*
X007513Y011554D01*
D02*
G37*
G36*
X007487D02*
X007478Y011552D01*
X00746Y01154D01*
X007448Y011522D01*
X007446Y011513D01*
X007487D01*
Y011554D01*
D02*
G37*
G36*
X007013D02*
Y011513D01*
X007054D01*
X007052Y011522D01*
X00704Y01154D01*
X007022Y011552D01*
X007013Y011554D01*
D02*
G37*
G36*
X006987D02*
X006978Y011552D01*
X00696Y01154D01*
X006948Y011522D01*
X006946Y011513D01*
X006987D01*
Y011554D01*
D02*
G37*
G36*
X006513D02*
Y011513D01*
X006554D01*
X006552Y011522D01*
X00654Y01154D01*
X006522Y011552D01*
X006513Y011554D01*
D02*
G37*
G36*
X006487D02*
X006478Y011552D01*
X00646Y01154D01*
X006448Y011522D01*
X006446Y011513D01*
X006487D01*
Y011554D01*
D02*
G37*
G36*
X009054Y011487D02*
X009013D01*
Y011446D01*
X009022Y011448D01*
X00904Y01146D01*
X009052Y011478D01*
X009054Y011487D01*
D02*
G37*
G36*
X008987D02*
X008946D01*
X008948Y011478D01*
X00896Y01146D01*
X008978Y011448D01*
X008987Y011446D01*
Y011487D01*
D02*
G37*
G36*
X008554D02*
X008513D01*
Y011446D01*
X008522Y011448D01*
X00854Y01146D01*
X008552Y011478D01*
X008554Y011487D01*
D02*
G37*
G36*
X008487D02*
X008446D01*
X008448Y011478D01*
X00846Y01146D01*
X008478Y011448D01*
X008487Y011446D01*
Y011487D01*
D02*
G37*
G36*
X008054D02*
X008013D01*
Y011446D01*
X008022Y011448D01*
X00804Y01146D01*
X008052Y011478D01*
X008054Y011487D01*
D02*
G37*
G36*
X007987D02*
X007946D01*
X007948Y011478D01*
X00796Y01146D01*
X007978Y011448D01*
X007987Y011446D01*
Y011487D01*
D02*
G37*
G36*
X007554D02*
X007513D01*
Y011446D01*
X007522Y011448D01*
X00754Y01146D01*
X007552Y011478D01*
X007554Y011487D01*
D02*
G37*
G36*
X007487D02*
X007446D01*
X007448Y011478D01*
X00746Y01146D01*
X007478Y011448D01*
X007487Y011446D01*
Y011487D01*
D02*
G37*
G36*
X007054D02*
X007013D01*
Y011446D01*
X007022Y011448D01*
X00704Y01146D01*
X007052Y011478D01*
X007054Y011487D01*
D02*
G37*
G36*
X006987D02*
X006946D01*
X006948Y011478D01*
X00696Y01146D01*
X006978Y011448D01*
X006987Y011446D01*
Y011487D01*
D02*
G37*
G36*
X006554D02*
X006513D01*
Y011446D01*
X006522Y011448D01*
X00654Y01146D01*
X006552Y011478D01*
X006554Y011487D01*
D02*
G37*
G36*
X006487D02*
X006446D01*
X006448Y011478D01*
X00646Y01146D01*
X006478Y011448D01*
X006487Y011446D01*
Y011487D01*
D02*
G37*
G36*
X011864Y011188D02*
X011791D01*
Y011116D01*
X011864D01*
Y011188D01*
D02*
G37*
G36*
X011436D02*
X011363D01*
Y011116D01*
X011436D01*
Y011188D01*
D02*
G37*
G36*
X011263Y011054D02*
Y011013D01*
X011304D01*
X011302Y011022D01*
X01129Y01104D01*
X011272Y011052D01*
X011263Y011054D01*
D02*
G37*
G36*
X011237D02*
X011228Y011052D01*
X01121Y01104D01*
X011198Y011022D01*
X011196Y011013D01*
X011237D01*
Y011054D01*
D02*
G37*
G36*
X010263D02*
Y011013D01*
X010304D01*
X010302Y011022D01*
X01029Y01104D01*
X010272Y011052D01*
X010263Y011054D01*
D02*
G37*
G36*
X010237D02*
X010228Y011052D01*
X01021Y01104D01*
X010198Y011022D01*
X010196Y011013D01*
X010237D01*
Y011054D01*
D02*
G37*
G36*
X009763D02*
Y011013D01*
X009804D01*
X009802Y011022D01*
X00979Y01104D01*
X009772Y011052D01*
X009763Y011054D01*
D02*
G37*
G36*
X009737D02*
X009728Y011052D01*
X00971Y01104D01*
X009698Y011022D01*
X009696Y011013D01*
X009737D01*
Y011054D01*
D02*
G37*
G36*
X008763D02*
Y011013D01*
X008804D01*
X008802Y011022D01*
X00879Y01104D01*
X008772Y011052D01*
X008763Y011054D01*
D02*
G37*
G36*
X008737D02*
X008728Y011052D01*
X00871Y01104D01*
X008698Y011022D01*
X008696Y011013D01*
X008737D01*
Y011054D01*
D02*
G37*
G36*
X008263D02*
Y011013D01*
X008304D01*
X008302Y011022D01*
X00829Y01104D01*
X008272Y011052D01*
X008263Y011054D01*
D02*
G37*
G36*
X008237D02*
X008228Y011052D01*
X00821Y01104D01*
X008198Y011022D01*
X008196Y011013D01*
X008237D01*
Y011054D01*
D02*
G37*
G36*
X007763D02*
Y011013D01*
X007804D01*
X007802Y011022D01*
X00779Y01104D01*
X007772Y011052D01*
X007763Y011054D01*
D02*
G37*
G36*
X007737D02*
X007728Y011052D01*
X00771Y01104D01*
X007698Y011022D01*
X007696Y011013D01*
X007737D01*
Y011054D01*
D02*
G37*
G36*
X007263D02*
Y011013D01*
X007304D01*
X007302Y011022D01*
X00729Y01104D01*
X007272Y011052D01*
X007263Y011054D01*
D02*
G37*
G36*
X007237D02*
X007228Y011052D01*
X00721Y01104D01*
X007198Y011022D01*
X007196Y011013D01*
X007237D01*
Y011054D01*
D02*
G37*
G36*
X006763D02*
Y011013D01*
X006804D01*
X006802Y011022D01*
X00679Y01104D01*
X006772Y011052D01*
X006763Y011054D01*
D02*
G37*
G36*
X006737D02*
X006728Y011052D01*
X00671Y01104D01*
X006698Y011022D01*
X006696Y011013D01*
X006737D01*
Y011054D01*
D02*
G37*
G36*
X011304Y010987D02*
X011263D01*
Y010946D01*
X011272Y010948D01*
X01129Y01096D01*
X011302Y010978D01*
X011304Y010987D01*
D02*
G37*
G36*
X011237D02*
X011196D01*
X011198Y010978D01*
X01121Y01096D01*
X011228Y010948D01*
X011237Y010946D01*
Y010987D01*
D02*
G37*
G36*
X010304D02*
X010263D01*
Y010946D01*
X010272Y010948D01*
X01029Y01096D01*
X010302Y010978D01*
X010304Y010987D01*
D02*
G37*
G36*
X010237D02*
X010196D01*
X010198Y010978D01*
X01021Y01096D01*
X010228Y010948D01*
X010237Y010946D01*
Y010987D01*
D02*
G37*
G36*
X009804D02*
X009763D01*
Y010946D01*
X009772Y010948D01*
X00979Y01096D01*
X009802Y010978D01*
X009804Y010987D01*
D02*
G37*
G36*
X009737D02*
X009696D01*
X009698Y010978D01*
X00971Y01096D01*
X009728Y010948D01*
X009737Y010946D01*
Y010987D01*
D02*
G37*
G36*
X008804D02*
X008763D01*
Y010946D01*
X008772Y010948D01*
X00879Y01096D01*
X008802Y010978D01*
X008804Y010987D01*
D02*
G37*
G36*
X008737D02*
X008696D01*
X008698Y010978D01*
X00871Y01096D01*
X008728Y010948D01*
X008737Y010946D01*
Y010987D01*
D02*
G37*
G36*
X008304D02*
X008263D01*
Y010946D01*
X008272Y010948D01*
X00829Y01096D01*
X008302Y010978D01*
X008304Y010987D01*
D02*
G37*
G36*
X008237D02*
X008196D01*
X008198Y010978D01*
X00821Y01096D01*
X008228Y010948D01*
X008237Y010946D01*
Y010987D01*
D02*
G37*
G36*
X007804D02*
X007763D01*
Y010946D01*
X007772Y010948D01*
X00779Y01096D01*
X007802Y010978D01*
X007804Y010987D01*
D02*
G37*
G36*
X007737D02*
X007696D01*
X007698Y010978D01*
X00771Y01096D01*
X007728Y010948D01*
X007737Y010946D01*
Y010987D01*
D02*
G37*
G36*
X007304D02*
X007263D01*
Y010946D01*
X007272Y010948D01*
X00729Y01096D01*
X007302Y010978D01*
X007304Y010987D01*
D02*
G37*
G36*
X007237D02*
X007196D01*
X007198Y010978D01*
X00721Y01096D01*
X007228Y010948D01*
X007237Y010946D01*
Y010987D01*
D02*
G37*
G36*
X006804D02*
X006763D01*
Y010946D01*
X006772Y010948D01*
X00679Y01096D01*
X006802Y010978D01*
X006804Y010987D01*
D02*
G37*
G36*
X006737D02*
X006696D01*
X006698Y010978D01*
X00671Y01096D01*
X006728Y010948D01*
X006737Y010946D01*
Y010987D01*
D02*
G37*
G36*
X012026Y010732D02*
X011966D01*
Y010666D01*
Y010601D01*
X012026D01*
Y010666D01*
Y010732D01*
D02*
G37*
G36*
X010901Y010653D02*
X010848D01*
Y010601D01*
X010901D01*
Y010653D01*
D02*
G37*
G36*
X011513Y010554D02*
Y010513D01*
X011554D01*
X011552Y010522D01*
X01154Y01054D01*
X011522Y010552D01*
X011513Y010554D01*
D02*
G37*
G36*
X011487D02*
X011478Y010552D01*
X01146Y01054D01*
X011448Y010522D01*
X011446Y010513D01*
X011487D01*
Y010554D01*
D02*
G37*
G36*
X010013D02*
Y010513D01*
X010054D01*
X010052Y010522D01*
X01004Y01054D01*
X010022Y010552D01*
X010013Y010554D01*
D02*
G37*
G36*
X009987D02*
X009978Y010552D01*
X00996Y01054D01*
X009948Y010522D01*
X009946Y010513D01*
X009987D01*
Y010554D01*
D02*
G37*
G36*
X009513D02*
Y010513D01*
X009554D01*
X009552Y010522D01*
X00954Y01054D01*
X009522Y010552D01*
X009513Y010554D01*
D02*
G37*
G36*
X009487D02*
X009478Y010552D01*
X00946Y01054D01*
X009448Y010522D01*
X009446Y010513D01*
X009487D01*
Y010554D01*
D02*
G37*
G36*
X009013D02*
Y010513D01*
X009054D01*
X009052Y010522D01*
X00904Y01054D01*
X009022Y010552D01*
X009013Y010554D01*
D02*
G37*
G36*
X008987D02*
X008978Y010552D01*
X00896Y01054D01*
X008948Y010522D01*
X008946Y010513D01*
X008987D01*
Y010554D01*
D02*
G37*
G36*
X008513D02*
Y010513D01*
X008554D01*
X008552Y010522D01*
X00854Y01054D01*
X008522Y010552D01*
X008513Y010554D01*
D02*
G37*
G36*
X008487D02*
X008478Y010552D01*
X00846Y01054D01*
X008448Y010522D01*
X008446Y010513D01*
X008487D01*
Y010554D01*
D02*
G37*
G36*
X008013D02*
Y010513D01*
X008054D01*
X008052Y010522D01*
X00804Y01054D01*
X008022Y010552D01*
X008013Y010554D01*
D02*
G37*
G36*
X007987D02*
X007978Y010552D01*
X00796Y01054D01*
X007948Y010522D01*
X007946Y010513D01*
X007987D01*
Y010554D01*
D02*
G37*
G36*
X007513D02*
Y010513D01*
X007554D01*
X007552Y010522D01*
X00754Y01054D01*
X007522Y010552D01*
X007513Y010554D01*
D02*
G37*
G36*
X007487D02*
X007478Y010552D01*
X00746Y01054D01*
X007448Y010522D01*
X007446Y010513D01*
X007487D01*
Y010554D01*
D02*
G37*
G36*
X007013D02*
Y010513D01*
X007054D01*
X007052Y010522D01*
X00704Y01054D01*
X007022Y010552D01*
X007013Y010554D01*
D02*
G37*
G36*
X006987D02*
X006978Y010552D01*
X00696Y01054D01*
X006948Y010522D01*
X006946Y010513D01*
X006987D01*
Y010554D01*
D02*
G37*
G36*
X006513D02*
Y010513D01*
X006554D01*
X006552Y010522D01*
X00654Y01054D01*
X006522Y010552D01*
X006513Y010554D01*
D02*
G37*
G36*
X006487D02*
X006478Y010552D01*
X00646Y01054D01*
X006448Y010522D01*
X006446Y010513D01*
X006487D01*
Y010554D01*
D02*
G37*
G36*
X011554Y010487D02*
X011513D01*
Y010446D01*
X011522Y010448D01*
X01154Y01046D01*
X011552Y010478D01*
X011554Y010487D01*
D02*
G37*
G36*
X011487D02*
X011446D01*
X011448Y010478D01*
X01146Y01046D01*
X011478Y010448D01*
X011487Y010446D01*
Y010487D01*
D02*
G37*
G36*
X010054D02*
X010013D01*
Y010446D01*
X010022Y010448D01*
X01004Y01046D01*
X010052Y010478D01*
X010054Y010487D01*
D02*
G37*
G36*
X009987D02*
X009946D01*
X009948Y010478D01*
X00996Y01046D01*
X009978Y010448D01*
X009987Y010446D01*
Y010487D01*
D02*
G37*
G36*
X009554D02*
X009513D01*
Y010446D01*
X009522Y010448D01*
X00954Y01046D01*
X009552Y010478D01*
X009554Y010487D01*
D02*
G37*
G36*
X009487D02*
X009446D01*
X009448Y010478D01*
X00946Y01046D01*
X009478Y010448D01*
X009487Y010446D01*
Y010487D01*
D02*
G37*
G36*
X009054D02*
X009013D01*
Y010446D01*
X009022Y010448D01*
X00904Y01046D01*
X009052Y010478D01*
X009054Y010487D01*
D02*
G37*
G36*
X008987D02*
X008946D01*
X008948Y010478D01*
X00896Y01046D01*
X008978Y010448D01*
X008987Y010446D01*
Y010487D01*
D02*
G37*
G36*
X008554D02*
X008513D01*
Y010446D01*
X008522Y010448D01*
X00854Y01046D01*
X008552Y010478D01*
X008554Y010487D01*
D02*
G37*
G36*
X008487D02*
X008446D01*
X008448Y010478D01*
X00846Y01046D01*
X008478Y010448D01*
X008487Y010446D01*
Y010487D01*
D02*
G37*
G36*
X008054D02*
X008013D01*
Y010446D01*
X008022Y010448D01*
X00804Y01046D01*
X008052Y010478D01*
X008054Y010487D01*
D02*
G37*
G36*
X007987D02*
X007946D01*
X007948Y010478D01*
X00796Y01046D01*
X007978Y010448D01*
X007987Y010446D01*
Y010487D01*
D02*
G37*
G36*
X007554D02*
X007513D01*
Y010446D01*
X007522Y010448D01*
X00754Y01046D01*
X007552Y010478D01*
X007554Y010487D01*
D02*
G37*
G36*
X007487D02*
X007446D01*
X007448Y010478D01*
X00746Y01046D01*
X007478Y010448D01*
X007487Y010446D01*
Y010487D01*
D02*
G37*
G36*
X007054D02*
X007013D01*
Y010446D01*
X007022Y010448D01*
X00704Y01046D01*
X007052Y010478D01*
X007054Y010487D01*
D02*
G37*
G36*
X006987D02*
X006946D01*
X006948Y010478D01*
X00696Y01046D01*
X006978Y010448D01*
X006987Y010446D01*
Y010487D01*
D02*
G37*
G36*
X006554D02*
X006513D01*
Y010446D01*
X006522Y010448D01*
X00654Y01046D01*
X006552Y010478D01*
X006554Y010487D01*
D02*
G37*
G36*
X006487D02*
X006446D01*
X006448Y010478D01*
X00646Y01046D01*
X006478Y010448D01*
X006487Y010446D01*
Y010487D01*
D02*
G37*
G36*
X012737Y010054D02*
X012728Y010052D01*
X01271Y01004D01*
X012698Y010022D01*
X012696Y010013D01*
X012737D01*
Y010054D01*
D02*
G37*
G36*
X012263D02*
Y010013D01*
X012304D01*
X012302Y010022D01*
X01229Y01004D01*
X012272Y010052D01*
X012263Y010054D01*
D02*
G37*
G36*
X012237D02*
X012228Y010052D01*
X01221Y01004D01*
X012198Y010022D01*
X012196Y010013D01*
X012237D01*
Y010054D01*
D02*
G37*
G36*
X010763D02*
Y010013D01*
X010804D01*
X010802Y010022D01*
X01079Y01004D01*
X010772Y010052D01*
X010763Y010054D01*
D02*
G37*
G36*
X010737D02*
X010728Y010052D01*
X01071Y01004D01*
X010698Y010022D01*
X010696Y010013D01*
X010737D01*
Y010054D01*
D02*
G37*
G36*
X009763D02*
Y010013D01*
X009804D01*
X009802Y010022D01*
X00979Y01004D01*
X009772Y010052D01*
X009763Y010054D01*
D02*
G37*
G36*
X009737D02*
X009728Y010052D01*
X00971Y01004D01*
X009698Y010022D01*
X009696Y010013D01*
X009737D01*
Y010054D01*
D02*
G37*
G36*
X009263D02*
Y010013D01*
X009304D01*
X009302Y010022D01*
X00929Y01004D01*
X009272Y010052D01*
X009263Y010054D01*
D02*
G37*
G36*
X009237D02*
X009228Y010052D01*
X00921Y01004D01*
X009198Y010022D01*
X009196Y010013D01*
X009237D01*
Y010054D01*
D02*
G37*
G36*
X008763D02*
Y010013D01*
X008804D01*
X008802Y010022D01*
X00879Y01004D01*
X008772Y010052D01*
X008763Y010054D01*
D02*
G37*
G36*
X008737D02*
X008728Y010052D01*
X00871Y01004D01*
X008698Y010022D01*
X008696Y010013D01*
X008737D01*
Y010054D01*
D02*
G37*
G36*
X008263D02*
Y010013D01*
X008304D01*
X008302Y010022D01*
X00829Y01004D01*
X008272Y010052D01*
X008263Y010054D01*
D02*
G37*
G36*
X008237D02*
X008228Y010052D01*
X00821Y01004D01*
X008198Y010022D01*
X008196Y010013D01*
X008237D01*
Y010054D01*
D02*
G37*
G36*
X007763D02*
Y010013D01*
X007804D01*
X007802Y010022D01*
X00779Y01004D01*
X007772Y010052D01*
X007763Y010054D01*
D02*
G37*
G36*
X007737D02*
X007728Y010052D01*
X00771Y01004D01*
X007698Y010022D01*
X007696Y010013D01*
X007737D01*
Y010054D01*
D02*
G37*
G36*
X007263D02*
Y010013D01*
X007304D01*
X007302Y010022D01*
X00729Y01004D01*
X007272Y010052D01*
X007263Y010054D01*
D02*
G37*
G36*
X007237D02*
X007228Y010052D01*
X00721Y01004D01*
X007198Y010022D01*
X007196Y010013D01*
X007237D01*
Y010054D01*
D02*
G37*
G36*
X006763D02*
Y010013D01*
X006804D01*
X006802Y010022D01*
X00679Y01004D01*
X006772Y010052D01*
X006763Y010054D01*
D02*
G37*
G36*
X006737D02*
X006728Y010052D01*
X00671Y01004D01*
X006698Y010022D01*
X006696Y010013D01*
X006737D01*
Y010054D01*
D02*
G37*
G36*
X012737Y009987D02*
X012696D01*
X012698Y009978D01*
X01271Y00996D01*
X012728Y009948D01*
X012737Y009946D01*
Y009987D01*
D02*
G37*
G36*
X012304D02*
X012263D01*
Y009946D01*
X012272Y009948D01*
X01229Y00996D01*
X012302Y009978D01*
X012304Y009987D01*
D02*
G37*
G36*
X012237D02*
X012196D01*
X012198Y009978D01*
X01221Y00996D01*
X012228Y009948D01*
X012237Y009946D01*
Y009987D01*
D02*
G37*
G36*
X010804D02*
X010763D01*
Y009946D01*
X010772Y009948D01*
X01079Y00996D01*
X010802Y009978D01*
X010804Y009987D01*
D02*
G37*
G36*
X010737D02*
X010696D01*
X010698Y009978D01*
X01071Y00996D01*
X010728Y009948D01*
X010737Y009946D01*
Y009987D01*
D02*
G37*
G36*
X009804D02*
X009763D01*
Y009946D01*
X009772Y009948D01*
X00979Y00996D01*
X009802Y009978D01*
X009804Y009987D01*
D02*
G37*
G36*
X009737D02*
X009696D01*
X009698Y009978D01*
X00971Y00996D01*
X009728Y009948D01*
X009737Y009946D01*
Y009987D01*
D02*
G37*
G36*
X009304D02*
X009263D01*
Y009946D01*
X009272Y009948D01*
X00929Y00996D01*
X009302Y009978D01*
X009304Y009987D01*
D02*
G37*
G36*
X009237D02*
X009196D01*
X009198Y009978D01*
X00921Y00996D01*
X009228Y009948D01*
X009237Y009946D01*
Y009987D01*
D02*
G37*
G36*
X008804D02*
X008763D01*
Y009946D01*
X008772Y009948D01*
X00879Y00996D01*
X008802Y009978D01*
X008804Y009987D01*
D02*
G37*
G36*
X008737D02*
X008696D01*
X008698Y009978D01*
X00871Y00996D01*
X008728Y009948D01*
X008737Y009946D01*
Y009987D01*
D02*
G37*
G36*
X008304D02*
X008263D01*
Y009946D01*
X008272Y009948D01*
X00829Y00996D01*
X008302Y009978D01*
X008304Y009987D01*
D02*
G37*
G36*
X008237D02*
X008196D01*
X008198Y009978D01*
X00821Y00996D01*
X008228Y009948D01*
X008237Y009946D01*
Y009987D01*
D02*
G37*
G36*
X007804D02*
X007763D01*
Y009946D01*
X007772Y009948D01*
X00779Y00996D01*
X007802Y009978D01*
X007804Y009987D01*
D02*
G37*
G36*
X007737D02*
X007696D01*
X007698Y009978D01*
X00771Y00996D01*
X007728Y009948D01*
X007737Y009946D01*
Y009987D01*
D02*
G37*
G36*
X007304D02*
X007263D01*
Y009946D01*
X007272Y009948D01*
X00729Y00996D01*
X007302Y009978D01*
X007304Y009987D01*
D02*
G37*
G36*
X007237D02*
X007196D01*
X007198Y009978D01*
X00721Y00996D01*
X007228Y009948D01*
X007237Y009946D01*
Y009987D01*
D02*
G37*
G36*
X006804D02*
X006763D01*
Y009946D01*
X006772Y009948D01*
X00679Y00996D01*
X006802Y009978D01*
X006804Y009987D01*
D02*
G37*
G36*
X006737D02*
X006696D01*
X006698Y009978D01*
X00671Y00996D01*
X006728Y009948D01*
X006737Y009946D01*
Y009987D01*
D02*
G37*
G36*
X007414Y009882D02*
X007226D01*
Y009739D01*
X007414D01*
Y009882D01*
D02*
G37*
G36*
X007201D02*
X007013D01*
Y009739D01*
X007201D01*
Y009882D01*
D02*
G37*
G36*
X011683Y009647D02*
X011664Y009643D01*
X011647Y009632D01*
X011647Y009632D01*
X011333D01*
X01132Y009629D01*
X011308Y009621D01*
X011304Y009617D01*
X011304Y009617D01*
X011284Y009613D01*
X011267Y009602D01*
X011256Y009586D01*
X011253Y009566D01*
X011256Y009547D01*
X011267Y00953D01*
X011284Y009519D01*
X011304Y009515D01*
X011323Y009519D01*
X01134Y00953D01*
X011351Y009547D01*
X011353Y00956D01*
X011647D01*
X011647Y00956D01*
X011664Y009549D01*
X011683Y009545D01*
X011703Y009549D01*
X01172Y00956D01*
X011731Y009577D01*
X011734Y009596D01*
X011731Y009616D01*
X01172Y009632D01*
X011703Y009643D01*
X011683Y009647D01*
D02*
G37*
G36*
X007414Y009713D02*
X007226D01*
Y009571D01*
X007414D01*
Y009713D01*
D02*
G37*
G36*
X007201D02*
X007013D01*
Y009571D01*
X007201D01*
Y009713D01*
D02*
G37*
G36*
X012013Y009554D02*
Y009513D01*
X012054D01*
X012052Y009522D01*
X01204Y00954D01*
X012022Y009552D01*
X012013Y009554D01*
D02*
G37*
G36*
X011987D02*
X011978Y009552D01*
X01196Y00954D01*
X011948Y009522D01*
X011946Y009513D01*
X011987D01*
Y009554D01*
D02*
G37*
G36*
X010513D02*
Y009513D01*
X010554D01*
X010552Y009522D01*
X01054Y00954D01*
X010522Y009552D01*
X010513Y009554D01*
D02*
G37*
G36*
X010487D02*
X010478Y009552D01*
X01046Y00954D01*
X010448Y009522D01*
X010446Y009513D01*
X010487D01*
Y009554D01*
D02*
G37*
G36*
X009513D02*
Y009513D01*
X009554D01*
X009552Y009522D01*
X00954Y00954D01*
X009522Y009552D01*
X009513Y009554D01*
D02*
G37*
G36*
X009487D02*
X009478Y009552D01*
X00946Y00954D01*
X009448Y009522D01*
X009446Y009513D01*
X009487D01*
Y009554D01*
D02*
G37*
G36*
X009013D02*
Y009513D01*
X009054D01*
X009052Y009522D01*
X00904Y00954D01*
X009022Y009552D01*
X009013Y009554D01*
D02*
G37*
G36*
X008987D02*
X008978Y009552D01*
X00896Y00954D01*
X008948Y009522D01*
X008946Y009513D01*
X008987D01*
Y009554D01*
D02*
G37*
G36*
X008513D02*
Y009513D01*
X008554D01*
X008552Y009522D01*
X00854Y00954D01*
X008522Y009552D01*
X008513Y009554D01*
D02*
G37*
G36*
X008487D02*
X008478Y009552D01*
X00846Y00954D01*
X008448Y009522D01*
X008446Y009513D01*
X008487D01*
Y009554D01*
D02*
G37*
G36*
X008013D02*
Y009513D01*
X008054D01*
X008052Y009522D01*
X00804Y00954D01*
X008022Y009552D01*
X008013Y009554D01*
D02*
G37*
G36*
X007987D02*
X007978Y009552D01*
X00796Y00954D01*
X007948Y009522D01*
X007946Y009513D01*
X007987D01*
Y009554D01*
D02*
G37*
G36*
X007513D02*
Y009513D01*
X007554D01*
X007552Y009522D01*
X00754Y00954D01*
X007522Y009552D01*
X007513Y009554D01*
D02*
G37*
G36*
X007487D02*
X007478Y009552D01*
X00746Y00954D01*
X007448Y009522D01*
X007446Y009513D01*
X007487D01*
Y009554D01*
D02*
G37*
G36*
X006513D02*
Y009513D01*
X006554D01*
X006552Y009522D01*
X00654Y00954D01*
X006522Y009552D01*
X006513Y009554D01*
D02*
G37*
G36*
X006487D02*
X006478Y009552D01*
X00646Y00954D01*
X006448Y009522D01*
X006446Y009513D01*
X006487D01*
Y009554D01*
D02*
G37*
G36*
X010674Y011467D02*
X010654Y011463D01*
X010637Y011452D01*
X010626Y011436D01*
X010623Y011416D01*
X010626Y011397D01*
X010637Y01138D01*
X010638Y01138D01*
Y010091D01*
X009476Y008929D01*
X009463Y008934D01*
X009438Y008937D01*
X009414Y008934D01*
X009391Y008924D01*
X009371Y008909D01*
X009356Y008889D01*
X009346Y008866D01*
X009343Y008841D01*
X009346Y008816D01*
X009356Y008793D01*
X009371Y008773D01*
X009391Y008758D01*
X009414Y008749D01*
X009438Y008745D01*
X009463Y008749D01*
X009486Y008758D01*
X009506Y008773D01*
X009521Y008793D01*
X009531Y008816D01*
X009534Y008841D01*
X009531Y008866D01*
X009526Y008878D01*
X010699Y010051D01*
X010706Y010062D01*
X010709Y010076D01*
Y010562D01*
X010722Y010563D01*
X010723Y010558D01*
X010731Y010546D01*
X010756Y010521D01*
X010767Y010513D01*
X010781Y01051D01*
X011139D01*
X012143Y009507D01*
X012143Y009506D01*
X012146Y009487D01*
X012157Y00947D01*
X012174Y009459D01*
X012193Y009455D01*
X012213Y009459D01*
X01223Y00947D01*
X012241Y009487D01*
X012244Y009506D01*
X012241Y009526D01*
X01223Y009542D01*
X012213Y009553D01*
X012193Y009557D01*
X012193Y009557D01*
X011179Y010571D01*
X011167Y010579D01*
X011154Y010582D01*
X010796D01*
X010792Y010586D01*
Y011295D01*
X010792Y011295D01*
X010803Y011312D01*
X010807Y011331D01*
X010803Y011351D01*
X010792Y011367D01*
X010776Y011378D01*
X010756Y011382D01*
X010736Y011378D01*
X010727Y011372D01*
X010714Y011378D01*
X010712Y011384D01*
X010721Y011397D01*
X010724Y011416D01*
X010721Y011436D01*
X01071Y011452D01*
X010693Y011463D01*
X010674Y011467D01*
D02*
G37*
G36*
X012054Y009487D02*
X012013D01*
Y009446D01*
X012022Y009448D01*
X01204Y00946D01*
X012052Y009478D01*
X012054Y009487D01*
D02*
G37*
G36*
X011987D02*
X011946D01*
X011948Y009478D01*
X01196Y00946D01*
X011978Y009448D01*
X011987Y009446D01*
Y009487D01*
D02*
G37*
G36*
X010554D02*
X010513D01*
Y009446D01*
X010522Y009448D01*
X01054Y00946D01*
X010552Y009478D01*
X010554Y009487D01*
D02*
G37*
G36*
X010487D02*
X010446D01*
X010448Y009478D01*
X01046Y00946D01*
X010478Y009448D01*
X010487Y009446D01*
Y009487D01*
D02*
G37*
G36*
X009554D02*
X009513D01*
Y009446D01*
X009522Y009448D01*
X00954Y00946D01*
X009552Y009478D01*
X009554Y009487D01*
D02*
G37*
G36*
X009487D02*
X009446D01*
X009448Y009478D01*
X00946Y00946D01*
X009478Y009448D01*
X009487Y009446D01*
Y009487D01*
D02*
G37*
G36*
X009054D02*
X009013D01*
Y009446D01*
X009022Y009448D01*
X00904Y00946D01*
X009052Y009478D01*
X009054Y009487D01*
D02*
G37*
G36*
X008987D02*
X008946D01*
X008948Y009478D01*
X00896Y00946D01*
X008978Y009448D01*
X008987Y009446D01*
Y009487D01*
D02*
G37*
G36*
X008554D02*
X008513D01*
Y009446D01*
X008522Y009448D01*
X00854Y00946D01*
X008552Y009478D01*
X008554Y009487D01*
D02*
G37*
G36*
X008487D02*
X008446D01*
X008448Y009478D01*
X00846Y00946D01*
X008478Y009448D01*
X008487Y009446D01*
Y009487D01*
D02*
G37*
G36*
X008054D02*
X008013D01*
Y009446D01*
X008022Y009448D01*
X00804Y00946D01*
X008052Y009478D01*
X008054Y009487D01*
D02*
G37*
G36*
X007987D02*
X007946D01*
X007948Y009478D01*
X00796Y00946D01*
X007978Y009448D01*
X007987Y009446D01*
Y009487D01*
D02*
G37*
G36*
X007554D02*
X007513D01*
Y009446D01*
X007522Y009448D01*
X00754Y00946D01*
X007552Y009478D01*
X007554Y009487D01*
D02*
G37*
G36*
X007487D02*
X007446D01*
X007448Y009478D01*
X00746Y00946D01*
X007478Y009448D01*
X007487Y009446D01*
Y009487D01*
D02*
G37*
G36*
X006554D02*
X006513D01*
Y009446D01*
X006522Y009448D01*
X00654Y00946D01*
X006552Y009478D01*
X006554Y009487D01*
D02*
G37*
G36*
X006487D02*
X006446D01*
X006448Y009478D01*
X00646Y00946D01*
X006478Y009448D01*
X006487Y009446D01*
Y009487D01*
D02*
G37*
G36*
X011046Y00939D02*
Y009349D01*
X011087D01*
X011086Y009358D01*
X011073Y009376D01*
X011055Y009388D01*
X011046Y00939D01*
D02*
G37*
G36*
X011021D02*
X011012Y009388D01*
X010994Y009376D01*
X010981Y009358D01*
X01098Y009349D01*
X011021D01*
Y00939D01*
D02*
G37*
G36*
Y009323D02*
X01098D01*
X010981Y009314D01*
X010994Y009296D01*
X011012Y009284D01*
X011021Y009282D01*
Y009323D01*
D02*
G37*
G36*
X012186Y00932D02*
Y009279D01*
X012227D01*
X012226Y009288D01*
X012213Y009306D01*
X012195Y009318D01*
X012186Y00932D01*
D02*
G37*
G36*
X012227Y009253D02*
X012186D01*
Y009212D01*
X012195Y009214D01*
X012213Y009226D01*
X012226Y009244D01*
X012227Y009253D01*
D02*
G37*
G36*
X011097Y009323D02*
X011046D01*
Y009273D01*
X011078Y009241D01*
X01109Y009233D01*
X011104Y00923D01*
X012131D01*
X012134Y009226D01*
X012152Y009214D01*
X012161Y009212D01*
Y009266D01*
Y00932D01*
X012152Y009318D01*
X012134Y009306D01*
X012131Y009302D01*
X011118D01*
X011097Y009323D01*
D02*
G37*
G36*
X010026Y009229D02*
Y009104D01*
X010151D01*
X010148Y009127D01*
X010134Y009161D01*
X010112Y009189D01*
X010083Y009212D01*
X010049Y009225D01*
X010026Y009229D01*
D02*
G37*
G36*
X009326D02*
Y009104D01*
X009451D01*
X009448Y009127D01*
X009434Y009161D01*
X009412Y009189D01*
X009383Y009212D01*
X009349Y009225D01*
X009326Y009229D01*
D02*
G37*
G36*
X010001D02*
X009977Y009225D01*
X009944Y009212D01*
X009915Y009189D01*
X009893Y009161D01*
X009879Y009127D01*
X009876Y009104D01*
X010001D01*
Y009229D01*
D02*
G37*
G36*
X009301D02*
X009278Y009225D01*
X009244Y009212D01*
X009215Y009189D01*
X009193Y009161D01*
X009179Y009127D01*
X009176Y009104D01*
X009301D01*
Y009229D01*
D02*
G37*
G36*
X012737Y009054D02*
X012728Y009052D01*
X01271Y00904D01*
X012698Y009022D01*
X012696Y009013D01*
X012737D01*
Y009054D01*
D02*
G37*
G36*
X012263D02*
Y009013D01*
X012304D01*
X012302Y009022D01*
X01229Y00904D01*
X012272Y009052D01*
X012263Y009054D01*
D02*
G37*
G36*
X012237D02*
X012228Y009052D01*
X01221Y00904D01*
X012198Y009022D01*
X012196Y009013D01*
X012237D01*
Y009054D01*
D02*
G37*
G36*
X010763D02*
Y009013D01*
X010804D01*
X010802Y009022D01*
X01079Y00904D01*
X010772Y009052D01*
X010763Y009054D01*
D02*
G37*
G36*
X010737D02*
X010728Y009052D01*
X01071Y00904D01*
X010698Y009022D01*
X010696Y009013D01*
X010737D01*
Y009054D01*
D02*
G37*
G36*
X010263D02*
Y009013D01*
X010304D01*
X010302Y009022D01*
X01029Y00904D01*
X010272Y009052D01*
X010263Y009054D01*
D02*
G37*
G36*
X010237D02*
X010228Y009052D01*
X01021Y00904D01*
X010198Y009022D01*
X010196Y009013D01*
X010237D01*
Y009054D01*
D02*
G37*
G36*
X009763D02*
Y009013D01*
X009804D01*
X009802Y009022D01*
X00979Y00904D01*
X009772Y009052D01*
X009763Y009054D01*
D02*
G37*
G36*
X009737D02*
X009728Y009052D01*
X00971Y00904D01*
X009698Y009022D01*
X009696Y009013D01*
X009737D01*
Y009054D01*
D02*
G37*
G36*
X008763D02*
Y009013D01*
X008804D01*
X008802Y009022D01*
X00879Y00904D01*
X008772Y009052D01*
X008763Y009054D01*
D02*
G37*
G36*
X008737D02*
X008728Y009052D01*
X00871Y00904D01*
X008698Y009022D01*
X008696Y009013D01*
X008737D01*
Y009054D01*
D02*
G37*
G36*
X008263D02*
Y009013D01*
X008304D01*
X008302Y009022D01*
X00829Y00904D01*
X008272Y009052D01*
X008263Y009054D01*
D02*
G37*
G36*
X008237D02*
X008228Y009052D01*
X00821Y00904D01*
X008198Y009022D01*
X008196Y009013D01*
X008237D01*
Y009054D01*
D02*
G37*
G36*
X007763D02*
Y009013D01*
X007804D01*
X007802Y009022D01*
X00779Y00904D01*
X007772Y009052D01*
X007763Y009054D01*
D02*
G37*
G36*
X007737D02*
X007728Y009052D01*
X00771Y00904D01*
X007698Y009022D01*
X007696Y009013D01*
X007737D01*
Y009054D01*
D02*
G37*
G36*
X007263D02*
Y009013D01*
X007304D01*
X007302Y009022D01*
X00729Y00904D01*
X007272Y009052D01*
X007263Y009054D01*
D02*
G37*
G36*
X007237D02*
X007228Y009052D01*
X00721Y00904D01*
X007198Y009022D01*
X007196Y009013D01*
X007237D01*
Y009054D01*
D02*
G37*
G36*
X006763D02*
Y009013D01*
X006804D01*
X006802Y009022D01*
X00679Y00904D01*
X006772Y009052D01*
X006763Y009054D01*
D02*
G37*
G36*
X006737D02*
X006728Y009052D01*
X00671Y00904D01*
X006698Y009022D01*
X006696Y009013D01*
X006737D01*
Y009054D01*
D02*
G37*
G36*
X010151Y009078D02*
X010026D01*
Y008954D01*
X010049Y008957D01*
X010083Y008971D01*
X010112Y008993D01*
X010134Y009022D01*
X010148Y009055D01*
X010151Y009078D01*
D02*
G37*
G36*
X009451D02*
X009326D01*
Y008954D01*
X009349Y008957D01*
X009383Y008971D01*
X009412Y008993D01*
X009434Y009022D01*
X009448Y009055D01*
X009451Y009078D01*
D02*
G37*
G36*
X010001D02*
X009876D01*
X009879Y009055D01*
X009893Y009022D01*
X009915Y008993D01*
X009944Y008971D01*
X009977Y008957D01*
X010001Y008954D01*
Y009078D01*
D02*
G37*
G36*
X009301D02*
X009176D01*
X009179Y009055D01*
X009193Y009022D01*
X009215Y008993D01*
X009244Y008971D01*
X009278Y008957D01*
X009301Y008954D01*
Y009078D01*
D02*
G37*
G36*
X012737Y008987D02*
X012696D01*
X012698Y008978D01*
X01271Y00896D01*
X012728Y008948D01*
X012737Y008946D01*
Y008987D01*
D02*
G37*
G36*
X012304D02*
X012263D01*
Y008946D01*
X012272Y008948D01*
X01229Y00896D01*
X012302Y008978D01*
X012304Y008987D01*
D02*
G37*
G36*
X012237D02*
X012196D01*
X012198Y008978D01*
X01221Y00896D01*
X012228Y008948D01*
X012237Y008946D01*
Y008987D01*
D02*
G37*
G36*
X010804D02*
X010763D01*
Y008946D01*
X010772Y008948D01*
X01079Y00896D01*
X010802Y008978D01*
X010804Y008987D01*
D02*
G37*
G36*
X010737D02*
X010696D01*
X010698Y008978D01*
X01071Y00896D01*
X010728Y008948D01*
X010737Y008946D01*
Y008987D01*
D02*
G37*
G36*
X010304D02*
X010263D01*
Y008946D01*
X010272Y008948D01*
X01029Y00896D01*
X010302Y008978D01*
X010304Y008987D01*
D02*
G37*
G36*
X010237D02*
X010196D01*
X010198Y008978D01*
X01021Y00896D01*
X010228Y008948D01*
X010237Y008946D01*
Y008987D01*
D02*
G37*
G36*
X009804D02*
X009763D01*
Y008946D01*
X009772Y008948D01*
X00979Y00896D01*
X009802Y008978D01*
X009804Y008987D01*
D02*
G37*
G36*
X009737D02*
X009696D01*
X009698Y008978D01*
X00971Y00896D01*
X009728Y008948D01*
X009737Y008946D01*
Y008987D01*
D02*
G37*
G36*
X008804D02*
X008763D01*
Y008946D01*
X008772Y008948D01*
X00879Y00896D01*
X008802Y008978D01*
X008804Y008987D01*
D02*
G37*
G36*
X008737D02*
X008696D01*
X008698Y008978D01*
X00871Y00896D01*
X008728Y008948D01*
X008737Y008946D01*
Y008987D01*
D02*
G37*
G36*
X008304D02*
X008263D01*
Y008946D01*
X008272Y008948D01*
X00829Y00896D01*
X008302Y008978D01*
X008304Y008987D01*
D02*
G37*
G36*
X008237D02*
X008196D01*
X008198Y008978D01*
X00821Y00896D01*
X008228Y008948D01*
X008237Y008946D01*
Y008987D01*
D02*
G37*
G36*
X007804D02*
X007763D01*
Y008946D01*
X007772Y008948D01*
X00779Y00896D01*
X007802Y008978D01*
X007804Y008987D01*
D02*
G37*
G36*
X007737D02*
X007696D01*
X007698Y008978D01*
X00771Y00896D01*
X007728Y008948D01*
X007737Y008946D01*
Y008987D01*
D02*
G37*
G36*
X007304D02*
X007263D01*
Y008946D01*
X007272Y008948D01*
X00729Y00896D01*
X007302Y008978D01*
X007304Y008987D01*
D02*
G37*
G36*
X007237D02*
X007196D01*
X007198Y008978D01*
X00721Y00896D01*
X007228Y008948D01*
X007237Y008946D01*
Y008987D01*
D02*
G37*
G36*
X006804D02*
X006763D01*
Y008946D01*
X006772Y008948D01*
X00679Y00896D01*
X006802Y008978D01*
X006804Y008987D01*
D02*
G37*
G36*
X006737D02*
X006696D01*
X006698Y008978D01*
X00671Y00896D01*
X006728Y008948D01*
X006737Y008946D01*
Y008987D01*
D02*
G37*
G36*
X009983Y008936D02*
X009793D01*
Y008746D01*
X009983D01*
Y008936D01*
D02*
G37*
G36*
X010513Y008554D02*
Y008513D01*
X010554D01*
X010552Y008522D01*
X01054Y00854D01*
X010522Y008552D01*
X010513Y008554D01*
D02*
G37*
G36*
X010487D02*
X010478Y008552D01*
X01046Y00854D01*
X010448Y008522D01*
X010446Y008513D01*
X010487D01*
Y008554D01*
D02*
G37*
G36*
X010013D02*
Y008513D01*
X010054D01*
X010052Y008522D01*
X01004Y00854D01*
X010022Y008552D01*
X010013Y008554D01*
D02*
G37*
G36*
X009987D02*
X009978Y008552D01*
X00996Y00854D01*
X009948Y008522D01*
X009946Y008513D01*
X009987D01*
Y008554D01*
D02*
G37*
G36*
X009513D02*
Y008513D01*
X009554D01*
X009552Y008522D01*
X00954Y00854D01*
X009522Y008552D01*
X009513Y008554D01*
D02*
G37*
G36*
X009487D02*
X009478Y008552D01*
X00946Y00854D01*
X009448Y008522D01*
X009446Y008513D01*
X009487D01*
Y008554D01*
D02*
G37*
G36*
X009013D02*
Y008513D01*
X009054D01*
X009052Y008522D01*
X00904Y00854D01*
X009022Y008552D01*
X009013Y008554D01*
D02*
G37*
G36*
X008987D02*
X008978Y008552D01*
X00896Y00854D01*
X008948Y008522D01*
X008946Y008513D01*
X008987D01*
Y008554D01*
D02*
G37*
G36*
X008513D02*
Y008513D01*
X008554D01*
X008552Y008522D01*
X00854Y00854D01*
X008522Y008552D01*
X008513Y008554D01*
D02*
G37*
G36*
X008487D02*
X008478Y008552D01*
X00846Y00854D01*
X008448Y008522D01*
X008446Y008513D01*
X008487D01*
Y008554D01*
D02*
G37*
G36*
X008013D02*
Y008513D01*
X008054D01*
X008052Y008522D01*
X00804Y00854D01*
X008022Y008552D01*
X008013Y008554D01*
D02*
G37*
G36*
X007987D02*
X007978Y008552D01*
X00796Y00854D01*
X007948Y008522D01*
X007946Y008513D01*
X007987D01*
Y008554D01*
D02*
G37*
G36*
X007513D02*
Y008513D01*
X007554D01*
X007552Y008522D01*
X00754Y00854D01*
X007522Y008552D01*
X007513Y008554D01*
D02*
G37*
G36*
X007487D02*
X007478Y008552D01*
X00746Y00854D01*
X007448Y008522D01*
X007446Y008513D01*
X007487D01*
Y008554D01*
D02*
G37*
G36*
X007013D02*
Y008513D01*
X007054D01*
X007052Y008522D01*
X00704Y00854D01*
X007022Y008552D01*
X007013Y008554D01*
D02*
G37*
G36*
X006987D02*
X006978Y008552D01*
X00696Y00854D01*
X006948Y008522D01*
X006946Y008513D01*
X006987D01*
Y008554D01*
D02*
G37*
G36*
X010554Y008487D02*
X010513D01*
Y008446D01*
X010522Y008448D01*
X01054Y00846D01*
X010552Y008478D01*
X010554Y008487D01*
D02*
G37*
G36*
X010487D02*
X010446D01*
X010448Y008478D01*
X01046Y00846D01*
X010478Y008448D01*
X010487Y008446D01*
Y008487D01*
D02*
G37*
G36*
X010054D02*
X010013D01*
Y008446D01*
X010022Y008448D01*
X01004Y00846D01*
X010052Y008478D01*
X010054Y008487D01*
D02*
G37*
G36*
X009987D02*
X009946D01*
X009948Y008478D01*
X00996Y00846D01*
X009978Y008448D01*
X009987Y008446D01*
Y008487D01*
D02*
G37*
G36*
X009554D02*
X009513D01*
Y008446D01*
X009522Y008448D01*
X00954Y00846D01*
X009552Y008478D01*
X009554Y008487D01*
D02*
G37*
G36*
X009487D02*
X009446D01*
X009448Y008478D01*
X00946Y00846D01*
X009478Y008448D01*
X009487Y008446D01*
Y008487D01*
D02*
G37*
G36*
X009054D02*
X009013D01*
Y008446D01*
X009022Y008448D01*
X00904Y00846D01*
X009052Y008478D01*
X009054Y008487D01*
D02*
G37*
G36*
X008987D02*
X008946D01*
X008948Y008478D01*
X00896Y00846D01*
X008978Y008448D01*
X008987Y008446D01*
Y008487D01*
D02*
G37*
G36*
X008554D02*
X008513D01*
Y008446D01*
X008522Y008448D01*
X00854Y00846D01*
X008552Y008478D01*
X008554Y008487D01*
D02*
G37*
G36*
X008487D02*
X008446D01*
X008448Y008478D01*
X00846Y00846D01*
X008478Y008448D01*
X008487Y008446D01*
Y008487D01*
D02*
G37*
G36*
X008054D02*
X008013D01*
Y008446D01*
X008022Y008448D01*
X00804Y00846D01*
X008052Y008478D01*
X008054Y008487D01*
D02*
G37*
G36*
X007987D02*
X007946D01*
X007948Y008478D01*
X00796Y00846D01*
X007978Y008448D01*
X007987Y008446D01*
Y008487D01*
D02*
G37*
G36*
X007554D02*
X007513D01*
Y008446D01*
X007522Y008448D01*
X00754Y00846D01*
X007552Y008478D01*
X007554Y008487D01*
D02*
G37*
G36*
X007487D02*
X007446D01*
X007448Y008478D01*
X00746Y00846D01*
X007478Y008448D01*
X007487Y008446D01*
Y008487D01*
D02*
G37*
G36*
X007054D02*
X007013D01*
Y008446D01*
X007022Y008448D01*
X00704Y00846D01*
X007052Y008478D01*
X007054Y008487D01*
D02*
G37*
G36*
X006987D02*
X006946D01*
X006948Y008478D01*
X00696Y00846D01*
X006978Y008448D01*
X006987Y008446D01*
Y008487D01*
D02*
G37*
%LPD*%
G36*
X010628Y014061D02*
Y013958D01*
X010615Y013952D01*
X010589Y013979D01*
X010577Y013987D01*
X010563Y013989D01*
X010311D01*
X010297Y013987D01*
X010286Y013979D01*
X010191Y013884D01*
X010183Y013873D01*
X010181Y013859D01*
Y013836D01*
X01018Y013836D01*
X010167Y013842D01*
Y013865D01*
X010096D01*
Y013891D01*
X010167D01*
Y013953D01*
X010165Y013971D01*
X010157Y013989D01*
X010151Y013998D01*
X010157Y01401D01*
X010386D01*
Y014006D01*
X010541D01*
Y014132D01*
X010553Y014136D01*
X010628Y014061D01*
D02*
G37*
G36*
X010033Y014288D02*
X010027Y014274D01*
X010025Y014256D01*
Y014229D01*
X010096D01*
X010167D01*
Y014243D01*
X010177Y014251D01*
X010179Y01425D01*
X010199D01*
X010278Y014171D01*
X01029Y014163D01*
X010304Y01416D01*
X010386D01*
Y014082D01*
X009894D01*
X00988Y014079D01*
X009868Y014071D01*
X009851Y014054D01*
X009843Y014042D01*
X00984Y014029D01*
Y013972D01*
X009834Y013968D01*
X009827Y013972D01*
Y014259D01*
X009868Y0143D01*
X010027D01*
X010033Y014288D01*
D02*
G37*
G36*
X010386Y013822D02*
X010176Y013612D01*
X009578D01*
Y01373D01*
X009591Y013737D01*
X009601Y013731D01*
X009621Y013727D01*
X009641Y013731D01*
X009655Y013739D01*
X009664Y013741D01*
X009672Y013739D01*
X009686Y013731D01*
X009706Y013727D01*
X009726Y013731D01*
X00974Y013739D01*
X009749Y013741D01*
X009757Y013739D01*
X009771Y013731D01*
X009791Y013727D01*
X009811Y013731D01*
X009825Y013739D01*
X009834Y013741D01*
X009842Y013739D01*
X009856Y013731D01*
X009867Y013728D01*
X009868Y013727D01*
X009944Y013651D01*
X009956Y013643D01*
X00997Y01364D01*
X010082D01*
X010096Y013643D01*
X010107Y013651D01*
X010242Y013785D01*
X010249Y013797D01*
X010252Y01381D01*
Y013844D01*
X010326Y013918D01*
X010386D01*
Y013822D01*
D02*
G37*
%LPC*%
G36*
X010167Y014203D02*
X010109D01*
Y014107D01*
X010114Y014108D01*
X010132Y014115D01*
X010146Y014126D01*
X010157Y014141D01*
X010165Y014158D01*
X010167Y014176D01*
Y014203D01*
D02*
G37*
G36*
X010083D02*
X010025D01*
Y014176D01*
X010027Y014158D01*
X010035Y014141D01*
X010046Y014126D01*
X01006Y014115D01*
X010078Y014108D01*
X010083Y014107D01*
Y014203D01*
D02*
G37*
G36*
X011013Y012554D02*
Y012513D01*
X011054D01*
X011052Y012522D01*
X01104Y01254D01*
X011022Y012552D01*
X011013Y012554D01*
D02*
G37*
G36*
X010987D02*
X010978Y012552D01*
X01096Y01254D01*
X010948Y012522D01*
X010946Y012513D01*
X010987D01*
Y012554D01*
D02*
G37*
G36*
X011054Y012487D02*
X011013D01*
Y012446D01*
X011022Y012448D01*
X01104Y01246D01*
X011052Y012478D01*
X011054Y012487D01*
D02*
G37*
G36*
X010987D02*
X010946D01*
X010948Y012478D01*
X01096Y01246D01*
X010978Y012448D01*
X010987Y012446D01*
Y012487D01*
D02*
G37*
%LPD*%
D11*
X010914Y012066D02*
X011014Y011966D01*
Y011966D02*
Y011966D01*
D13*
X008118Y013741D02*
D03*
X008214D02*
D03*
X008308D02*
D03*
Y013991D02*
D03*
X008118D02*
D03*
D14*
X008568Y013996D02*
D03*
X008758D02*
D03*
Y013736D02*
D03*
X008664D02*
D03*
X008568D02*
D03*
D15*
X012208Y012066D02*
D03*
X012124D02*
D03*
X012039D02*
D03*
X011954D02*
D03*
X011868D02*
D03*
X011783D02*
D03*
X011699D02*
D03*
X011614D02*
D03*
X011529D02*
D03*
X011443D02*
D03*
X011358D02*
D03*
X011274D02*
D03*
X011189D02*
D03*
X011104D02*
D03*
X011018D02*
D03*
Y010666D02*
D03*
X011104D02*
D03*
X011189D02*
D03*
X011274D02*
D03*
X011358D02*
D03*
X011443D02*
D03*
X011529D02*
D03*
X011614D02*
D03*
X011699D02*
D03*
X011783D02*
D03*
X011868D02*
D03*
X011954D02*
D03*
X012039D02*
D03*
X012124D02*
D03*
X012208D02*
D03*
D16*
X010914Y011961D02*
D03*
Y011876D02*
D03*
Y011791D02*
D03*
Y011706D02*
D03*
Y011621D02*
D03*
Y011536D02*
D03*
Y011451D02*
D03*
Y011366D02*
D03*
Y011281D02*
D03*
Y011196D02*
D03*
Y011111D02*
D03*
Y011026D02*
D03*
Y010941D02*
D03*
Y010856D02*
D03*
Y010771D02*
D03*
X012314D02*
D03*
Y010856D02*
D03*
Y010941D02*
D03*
Y011026D02*
D03*
Y011111D02*
D03*
Y011196D02*
D03*
Y011281D02*
D03*
Y011366D02*
D03*
Y011451D02*
D03*
Y011536D02*
D03*
Y011621D02*
D03*
Y011706D02*
D03*
Y011791D02*
D03*
Y011876D02*
D03*
Y011961D02*
D03*
D17*
X011614Y011366D02*
D03*
X011779Y011531D02*
D03*
X011614D02*
D03*
X011449D02*
D03*
Y011366D02*
D03*
Y011201D02*
D03*
X011614D02*
D03*
X011779D02*
D03*
Y011366D02*
D03*
D18*
X012314Y012066D02*
D03*
X010914D02*
D03*
Y010666D02*
D03*
X012314D02*
D03*
D19*
X012064Y013154D02*
D03*
Y013479D02*
D03*
D20*
X007214Y013106D02*
D03*
Y009726D02*
D03*
D21*
X009868Y013316D02*
D03*
X009458D02*
D03*
D22*
X012064Y012861D02*
D03*
Y012971D02*
D03*
X010864Y012511D02*
D03*
Y012621D02*
D03*
X010614Y012511D02*
D03*
Y012621D02*
D03*
X010364D02*
D03*
Y012511D02*
D03*
D23*
X008514Y013467D02*
D03*
Y013365D02*
D03*
D24*
X010164Y01327D02*
D03*
Y013362D02*
D03*
X008764Y013462D02*
D03*
Y01337D02*
D03*
D25*
X007768Y014016D02*
D03*
X00786D02*
D03*
X01216Y012416D02*
D03*
X012068D02*
D03*
D26*
X010764Y013849D02*
D03*
Y014084D02*
D03*
X010464Y013849D02*
D03*
Y014084D02*
D03*
D53*
X010756Y010571D02*
X010781Y010546D01*
X010756Y010571D02*
Y011331D01*
X010781Y010546D02*
X011154D01*
X010674Y010076D02*
Y011416D01*
X009438Y008841D02*
X010674Y010076D01*
X009983Y011456D02*
X010564D01*
X009974Y011466D02*
X009983Y011456D01*
X009913Y011466D02*
X009974D01*
X008309Y01307D02*
X009913Y011466D01*
X011154Y010546D02*
X012193Y009506D01*
X011033Y009336D02*
X011104Y009266D01*
X012174D01*
X011231Y011749D02*
X011449Y011531D01*
X011014Y011966D02*
X011231Y011749D01*
X011396D02*
X011614Y011531D01*
X011231Y011749D02*
X011396D01*
X011449Y011201D02*
Y011366D01*
X011614Y011201D02*
X011778D01*
X011614D02*
Y011366D01*
Y011531D02*
X011778D01*
X010889Y01209D02*
X010914Y012066D01*
X010729Y01209D02*
X010889D01*
X010724Y012096D02*
X010729Y01209D01*
X010533Y012066D02*
X010564Y012096D01*
X010414Y012066D02*
X010533D01*
X010659Y011961D02*
Y012466D01*
X010613Y012506D02*
Y012511D01*
Y012506D02*
X010628Y012491D01*
X010633D01*
X010659Y012466D01*
X011014Y011966D02*
X011014D01*
X010483Y012256D02*
Y012604D01*
X010501Y012621D02*
X010613D01*
X010483Y012604D02*
X010501Y012621D01*
X010304Y012076D02*
X010483Y012256D01*
X012065Y012417D02*
X012067Y012415D01*
Y012416D02*
Y012716D01*
X012038Y012386D02*
X012067Y012415D01*
X010863Y012621D02*
X011351D01*
X011556Y012417D01*
X012065D01*
X006974Y012906D02*
X007804Y012076D01*
X008833D01*
X006974Y012906D02*
Y013446D01*
X007846Y014294D02*
X008118Y014021D01*
X007821Y014294D02*
X007846D01*
X006974Y013446D02*
X007821Y014294D01*
X008118Y013991D02*
Y014021D01*
X012064Y012966D02*
Y012971D01*
X012029Y012931D02*
X012064Y012966D01*
X012019Y012931D02*
X012029D01*
X011933Y012846D02*
X012019Y012931D01*
X011933Y012796D02*
Y012846D01*
X011783Y010416D02*
X011784Y010416D01*
X012067Y012716D02*
X012513Y013162D01*
X012064Y012971D02*
Y013154D01*
X010764Y011586D02*
X010798Y011621D01*
X009791Y012366D02*
X010571Y011586D01*
X010764D01*
X011333Y009596D02*
X011683D01*
X011304Y009566D02*
X011333Y009596D01*
X010964Y012266D02*
X011004Y012226D01*
X010843D02*
X011004D01*
X011018Y012211D01*
X010424Y011956D02*
X010654D01*
X010659Y011961D01*
X01069Y011656D02*
X01074Y011706D01*
X010683Y011656D02*
X01069D01*
X009554Y012511D02*
X010364D01*
X009537Y012366D02*
Y012494D01*
X009554Y012511D01*
X007924Y013636D02*
Y013719D01*
X008114Y013736D02*
X008118Y013741D01*
X007941Y013736D02*
X008114D01*
X007924Y013719D02*
X007941Y013736D01*
X008758Y013736D02*
X008933D01*
X008933Y013736D01*
X007669Y013516D02*
X008086D01*
X008118Y013549D02*
Y013741D01*
X008086Y013516D02*
X008118Y013549D01*
X007214Y013106D02*
X007259D01*
X007669Y013516D01*
X010602Y011766D02*
X010627Y011791D01*
X010593Y011766D02*
X010602D01*
X008309Y01307D02*
Y013741D01*
X007883Y013991D02*
X008118D01*
X00786Y014015D02*
X007883Y013991D01*
X00786Y014015D02*
Y014016D01*
X008692Y012757D02*
X009913Y011536D01*
X008569Y013511D02*
X008692Y013387D01*
Y012757D02*
Y013387D01*
X008569Y013511D02*
Y013736D01*
X008559Y014006D02*
X008569Y013996D01*
X008493Y014006D02*
X008559D01*
X008443Y013636D02*
Y013956D01*
X008493Y014006D01*
X008514Y013467D02*
Y013566D01*
X008443Y013636D02*
X008514Y013566D01*
X008761Y013465D02*
X008763Y013462D01*
X008761Y013465D02*
Y013734D01*
X008758Y013736D02*
X008761Y013734D01*
X009151Y013702D02*
Y013979D01*
X008758Y013996D02*
X009133D01*
X009151Y013979D01*
Y013702D02*
X009313Y01354D01*
Y013224D02*
Y01354D01*
X009806Y013254D02*
X009868Y013316D01*
X009633Y013254D02*
X009806D01*
X009583Y013204D02*
X009633Y013254D01*
X009334Y013204D02*
X009583D01*
X009313Y013224D02*
X009334Y013204D01*
X009451Y013324D02*
X009458Y013316D01*
X009451Y013324D02*
Y01378D01*
X012064Y012861D02*
X012065Y012859D01*
Y012417D02*
Y012859D01*
X009876Y013771D02*
Y01378D01*
Y013771D02*
X009894Y013753D01*
Y013752D02*
Y013753D01*
Y013752D02*
X00997Y013676D01*
X010216Y01381D02*
Y013859D01*
X010082Y013676D02*
X010216Y01381D01*
X00997Y013676D02*
X010082D01*
X010216Y013859D02*
X010311Y013954D01*
X010563D01*
X010631Y013756D02*
X010835D01*
X010614Y013774D02*
X010631Y013756D01*
X010614Y013774D02*
Y013904D01*
X010563Y013954D02*
X010614Y013904D01*
X010856Y013777D02*
Y013921D01*
X010763Y013981D02*
X010794Y013951D01*
X010835Y013756D02*
X010856Y013777D01*
X010763Y013981D02*
Y014084D01*
X010794Y013951D02*
X010826D01*
X010856Y013921D01*
X009791Y013915D02*
Y014274D01*
X010179Y014286D02*
X010214D01*
X010129Y014336D02*
X010179Y014286D01*
X009854Y014336D02*
X010129D01*
X009791Y014274D02*
X009854Y014336D01*
X010304Y014196D02*
X010543D01*
X010214Y014286D02*
X010304Y014196D01*
X010543D02*
X010663Y014076D01*
Y013949D02*
Y014076D01*
Y013949D02*
X010763Y013849D01*
X010426Y014046D02*
X010464Y014084D01*
X009876Y013915D02*
Y014029D01*
X009894Y014046D01*
X010426D01*
X010191Y013576D02*
X010464Y013849D01*
X00956Y013576D02*
X010191D01*
X009543Y013594D02*
Y013773D01*
Y013594D02*
X00956Y013576D01*
X009536Y01378D02*
X009543Y013773D01*
X009868Y013316D02*
X01004D01*
X010082Y013359D01*
X01016D01*
X010164Y013362D01*
X010613Y012621D02*
X010613Y012621D01*
X010863D01*
X010863Y012621D01*
Y012511D02*
X010864Y012511D01*
Y012451D02*
Y012511D01*
X010964Y012266D02*
Y012351D01*
X010864Y012451D02*
X010964Y012351D01*
D54*
X012313Y011281D02*
Y011366D01*
Y010666D02*
Y010771D01*
X011778Y011366D02*
X012313D01*
X011449D02*
X011614D01*
X012124Y012046D02*
Y012066D01*
X012208D02*
X012313D01*
X012206Y010664D02*
X012208Y010666D01*
X012206Y010499D02*
Y010664D01*
X012204Y010496D02*
X012206Y010499D01*
X011696Y010664D02*
X011698Y010666D01*
X011696Y010459D02*
Y010664D01*
X011693Y010456D02*
X011696Y010459D01*
X011784Y010536D02*
Y010666D01*
X011784Y010536D02*
X011784Y010536D01*
X011784Y010416D02*
Y010536D01*
X010914Y011876D02*
X010914Y011876D01*
X010664Y011876D02*
X010914D01*
X010798Y011621D02*
X010914D01*
X01074Y011706D02*
X010914D01*
X010627Y011791D02*
X010914D01*
X009913Y011536D02*
X010914D01*
X012038Y012066D02*
Y012386D01*
X010659Y011961D02*
X010914D01*
X011018Y012066D02*
Y012211D01*
D55*
X012514Y012908D02*
D03*
D56*
Y013162D02*
D03*
Y013416D02*
D03*
Y01367D02*
D03*
D57*
X009366Y01378D02*
D03*
X009451D02*
D03*
X009536D02*
D03*
X009621D02*
D03*
X009706D02*
D03*
X009791D02*
D03*
X009876D02*
D03*
X009961D02*
D03*
Y013915D02*
D03*
X009876D02*
D03*
X009791D02*
D03*
X009706D02*
D03*
X009621D02*
D03*
X009536D02*
D03*
X009451D02*
D03*
X009366D02*
D03*
D58*
X009231Y014216D02*
D03*
X010096D02*
D03*
D59*
X009231Y013878D02*
D03*
X010096D02*
D03*
D60*
X00979Y012366D02*
D03*
D61*
X009536D02*
D03*
D62*
X009314Y009091D02*
D03*
X010014D02*
D03*
D63*
X009439Y008841D02*
D03*
D64*
X009889D02*
D03*
D65*
X01275Y014D02*
D03*
Y013D02*
D03*
X0125Y0125D02*
D03*
X01275Y01D02*
D03*
Y009D02*
D03*
X01225Y014D02*
D03*
Y01D02*
D03*
X012Y0095D02*
D03*
X01225Y009D02*
D03*
X01175Y014D02*
D03*
X0115Y0135D02*
D03*
Y0105D02*
D03*
X01125Y014D02*
D03*
X011Y0135D02*
D03*
X01125Y013D02*
D03*
X011Y0125D02*
D03*
X01125Y011D02*
D03*
X0105Y0135D02*
D03*
X01075Y013D02*
D03*
Y01D02*
D03*
X0105Y0095D02*
D03*
X01075Y009D02*
D03*
X0105Y0085D02*
D03*
X01025Y013D02*
D03*
Y011D02*
D03*
X01Y0105D02*
D03*
X01025Y009D02*
D03*
X01Y0085D02*
D03*
X00975Y013D02*
D03*
Y012D02*
D03*
Y011D02*
D03*
X0095Y0105D02*
D03*
X00975Y01D02*
D03*
X0095Y0095D02*
D03*
X00975Y009D02*
D03*
X0095Y0085D02*
D03*
X009Y0135D02*
D03*
X00925Y013D02*
D03*
Y012D02*
D03*
X009Y0115D02*
D03*
Y0105D02*
D03*
X00925Y01D02*
D03*
X009Y0095D02*
D03*
Y0085D02*
D03*
X0085Y0125D02*
D03*
Y0115D02*
D03*
X00875Y011D02*
D03*
X0085Y0105D02*
D03*
X00875Y01D02*
D03*
X0085Y0095D02*
D03*
X00875Y009D02*
D03*
X0085Y0085D02*
D03*
X00825Y013D02*
D03*
X008Y0125D02*
D03*
Y0115D02*
D03*
X00825Y011D02*
D03*
X008Y0105D02*
D03*
X00825Y01D02*
D03*
X008Y0095D02*
D03*
X00825Y009D02*
D03*
X008Y0085D02*
D03*
X0075Y0135D02*
D03*
X00775Y013D02*
D03*
Y012D02*
D03*
X0075Y0115D02*
D03*
X00775Y011D02*
D03*
X0075Y0105D02*
D03*
X00775Y01D02*
D03*
X0075Y0095D02*
D03*
X00775Y009D02*
D03*
X0075Y0085D02*
D03*
X00725Y014D02*
D03*
X007Y0125D02*
D03*
X00725Y012D02*
D03*
X007Y0115D02*
D03*
X00725Y011D02*
D03*
X007Y0105D02*
D03*
X00725Y01D02*
D03*
Y009D02*
D03*
X007Y0085D02*
D03*
X00675Y014D02*
D03*
X0065Y0135D02*
D03*
X00675Y013D02*
D03*
X0065Y0125D02*
D03*
X00675Y012D02*
D03*
X0065Y0115D02*
D03*
X00675Y011D02*
D03*
X0065Y0105D02*
D03*
X00675Y01D02*
D03*
X0065Y0095D02*
D03*
X00675Y009D02*
D03*
X010756Y011331D02*
D03*
X010674Y011416D02*
D03*
X010564Y011456D02*
D03*
X011033Y009336D02*
D03*
X012174Y009266D02*
D03*
X010724Y012096D02*
D03*
X010564D02*
D03*
X010414Y012066D02*
D03*
X010304Y012076D02*
D03*
X008833D02*
D03*
X012204Y010496D02*
D03*
X011933Y012796D02*
D03*
X011693Y010456D02*
D03*
X011783Y010416D02*
D03*
X010664Y011876D02*
D03*
X012193Y009506D02*
D03*
X011304Y009566D02*
D03*
X011683Y009596D02*
D03*
X010843Y012226D02*
D03*
X010424Y011956D02*
D03*
X010683Y011656D02*
D03*
X007924Y013636D02*
D03*
X008933Y013736D02*
D03*
X010593Y011766D02*
D03*
M02*
