G04*
G04 #@! TF.GenerationSoftware,Altium Limited,Altium Designer,20.0.13 (296)*
G04*
G04 Layer_Color=255*
%FSTAX42Y42*%
%MOMM*%
G71*
G01*
G75*
%ADD13R,0.60X1.20*%
%ADD14R,0.55X1.05*%
%ADD15R,0.40X0.80*%
%ADD16R,0.80X0.40*%
%ADD17R,1.20X1.20*%
%ADD18R,0.80X0.80*%
%ADD19R,1.50X0.55*%
%ADD20R,3.50X2.60*%
%ADD21R,2.20X1.55*%
%ADD22R,0.60X0.70*%
%ADD23R,0.50X0.48*%
%ADD24R,0.72X0.60*%
%ADD25R,0.60X0.72*%
%ADD26R,1.15X1.15*%
%ADD55R,1.65X1.65*%
%ADD56C,1.65*%
%ADD57C,0.65*%
%ADD58O,0.90X1.70*%
%ADD59O,0.90X2.40*%
%ADD60C,1.64*%
%ADD61R,1.64X1.64*%
%ADD62C,2.25*%
%ADD63C,1.50*%
%ADD64R,1.50X1.50*%
D13*
X008118Y013741D02*
D03*
X008214D02*
D03*
X008308D02*
D03*
Y013991D02*
D03*
X008118D02*
D03*
D14*
X008568Y013996D02*
D03*
X008758D02*
D03*
Y013736D02*
D03*
X008664D02*
D03*
X008568D02*
D03*
D15*
X012208Y012066D02*
D03*
X012124D02*
D03*
X012039D02*
D03*
X011954D02*
D03*
X011868D02*
D03*
X011783D02*
D03*
X011699D02*
D03*
X011614D02*
D03*
X011529D02*
D03*
X011443D02*
D03*
X011358D02*
D03*
X011274D02*
D03*
X011189D02*
D03*
X011104D02*
D03*
X011018D02*
D03*
Y010666D02*
D03*
X011104D02*
D03*
X011189D02*
D03*
X011274D02*
D03*
X011358D02*
D03*
X011443D02*
D03*
X011529D02*
D03*
X011614D02*
D03*
X011699D02*
D03*
X011783D02*
D03*
X011868D02*
D03*
X011954D02*
D03*
X012039D02*
D03*
X012124D02*
D03*
X012208D02*
D03*
D16*
X010914Y011961D02*
D03*
Y011876D02*
D03*
Y011791D02*
D03*
Y011706D02*
D03*
Y011621D02*
D03*
Y011536D02*
D03*
Y011451D02*
D03*
Y011366D02*
D03*
Y011281D02*
D03*
Y011196D02*
D03*
Y011111D02*
D03*
Y011026D02*
D03*
Y010941D02*
D03*
Y010856D02*
D03*
Y010771D02*
D03*
X012314D02*
D03*
Y010856D02*
D03*
Y010941D02*
D03*
Y011026D02*
D03*
Y011111D02*
D03*
Y011196D02*
D03*
Y011281D02*
D03*
Y011366D02*
D03*
Y011451D02*
D03*
Y011536D02*
D03*
Y011621D02*
D03*
Y011706D02*
D03*
Y011791D02*
D03*
Y011876D02*
D03*
Y011961D02*
D03*
D17*
X011614Y011366D02*
D03*
X011779Y011531D02*
D03*
X011614D02*
D03*
X011449D02*
D03*
Y011366D02*
D03*
Y011201D02*
D03*
X011614D02*
D03*
X011779D02*
D03*
Y011366D02*
D03*
D18*
X012314Y012066D02*
D03*
X010914D02*
D03*
Y010666D02*
D03*
X012314D02*
D03*
D19*
X012064Y013154D02*
D03*
Y013479D02*
D03*
D20*
X007214Y013106D02*
D03*
Y009726D02*
D03*
D21*
X009868Y013316D02*
D03*
X009458D02*
D03*
D22*
X012064Y012861D02*
D03*
Y012971D02*
D03*
X010864Y012511D02*
D03*
Y012621D02*
D03*
X010614Y012511D02*
D03*
Y012621D02*
D03*
X010364D02*
D03*
Y012511D02*
D03*
D23*
X008514Y013467D02*
D03*
Y013365D02*
D03*
D24*
X010164Y01327D02*
D03*
Y013362D02*
D03*
X008764Y013462D02*
D03*
Y01337D02*
D03*
D25*
X007768Y014016D02*
D03*
X00786D02*
D03*
X01216Y012416D02*
D03*
X012068D02*
D03*
D26*
X010764Y013849D02*
D03*
Y014084D02*
D03*
X010464Y013849D02*
D03*
Y014084D02*
D03*
D55*
X012514Y012908D02*
D03*
D56*
Y013162D02*
D03*
Y013416D02*
D03*
Y01367D02*
D03*
D57*
X009366Y01378D02*
D03*
X009451D02*
D03*
X009536D02*
D03*
X009621D02*
D03*
X009706D02*
D03*
X009791D02*
D03*
X009876D02*
D03*
X009961D02*
D03*
Y013915D02*
D03*
X009876D02*
D03*
X009791D02*
D03*
X009706D02*
D03*
X009621D02*
D03*
X009536D02*
D03*
X009451D02*
D03*
X009366D02*
D03*
D58*
X009231Y014216D02*
D03*
X010096D02*
D03*
D59*
X009231Y013878D02*
D03*
X010096D02*
D03*
D60*
X00979Y012366D02*
D03*
D61*
X009536D02*
D03*
D62*
X009314Y009091D02*
D03*
X010014D02*
D03*
D63*
X009439Y008841D02*
D03*
D64*
X009889D02*
D03*
M02*
