G04*
G04 #@! TF.GenerationSoftware,Altium Limited,Altium Designer,20.0.13 (296)*
G04*
G04 Layer_Color=8388736*
%FSTAX42Y42*%
%MOMM*%
G71*
G01*
G75*
%ADD27R,0.76X1.36*%
%ADD28R,0.80X1.40*%
%ADD29R,0.75X1.25*%
%ADD30R,0.60X1.00*%
%ADD31R,1.00X0.60*%
%ADD32R,1.40X1.40*%
%ADD33R,1.00X1.00*%
%ADD34R,1.70X0.75*%
%ADD35R,3.70X2.80*%
%ADD36R,2.40X1.75*%
%ADD37R,0.80X0.90*%
%ADD38R,0.70X0.68*%
%ADD39R,0.86X0.74*%
%ADD40R,0.74X0.86*%
%ADD41R,1.35X1.35*%
%ADD42R,1.85X1.85*%
%ADD43C,1.85*%
%ADD44C,0.85*%
%ADD45O,1.10X1.90*%
%ADD46O,1.10X2.60*%
%ADD47C,1.84*%
%ADD48R,1.84X1.84*%
%ADD49C,2.45*%
%ADD50C,1.70*%
%ADD51R,1.70X1.70*%
%ADD52C,0.80*%
D27*
X008118Y013741D02*
D03*
X008214D02*
D03*
X008308D02*
D03*
D28*
Y013991D02*
D03*
X008118D02*
D03*
D29*
X008568Y013996D02*
D03*
X008758D02*
D03*
Y013736D02*
D03*
X008664D02*
D03*
X008568D02*
D03*
D30*
X012208Y012066D02*
D03*
X012124D02*
D03*
X012039D02*
D03*
X011954D02*
D03*
X011868D02*
D03*
X011783D02*
D03*
X011699D02*
D03*
X011614D02*
D03*
X011529D02*
D03*
X011443D02*
D03*
X011358D02*
D03*
X011274D02*
D03*
X011189D02*
D03*
X011104D02*
D03*
X011018D02*
D03*
Y010666D02*
D03*
X011104D02*
D03*
X011189D02*
D03*
X011274D02*
D03*
X011358D02*
D03*
X011443D02*
D03*
X011529D02*
D03*
X011614D02*
D03*
X011699D02*
D03*
X011783D02*
D03*
X011868D02*
D03*
X011954D02*
D03*
X012039D02*
D03*
X012124D02*
D03*
X012208D02*
D03*
D31*
X010914Y011961D02*
D03*
Y011876D02*
D03*
Y011791D02*
D03*
Y011706D02*
D03*
Y011621D02*
D03*
Y011536D02*
D03*
Y011451D02*
D03*
Y011366D02*
D03*
Y011281D02*
D03*
Y011196D02*
D03*
Y011111D02*
D03*
Y011026D02*
D03*
Y010941D02*
D03*
Y010856D02*
D03*
Y010771D02*
D03*
X012314D02*
D03*
Y010856D02*
D03*
Y010941D02*
D03*
Y011026D02*
D03*
Y011111D02*
D03*
Y011196D02*
D03*
Y011281D02*
D03*
Y011366D02*
D03*
Y011451D02*
D03*
Y011536D02*
D03*
Y011621D02*
D03*
Y011706D02*
D03*
Y011791D02*
D03*
Y011876D02*
D03*
Y011961D02*
D03*
D32*
X011614Y011366D02*
D03*
X011779Y011531D02*
D03*
X011614D02*
D03*
X011449D02*
D03*
Y011366D02*
D03*
Y011201D02*
D03*
X011614D02*
D03*
X011779D02*
D03*
Y011366D02*
D03*
D33*
X012314Y012066D02*
D03*
X010914D02*
D03*
Y010666D02*
D03*
X012314D02*
D03*
D34*
X012064Y013154D02*
D03*
Y013479D02*
D03*
D35*
X007214Y013106D02*
D03*
Y009726D02*
D03*
D36*
X009868Y013316D02*
D03*
X009458D02*
D03*
D37*
X012064Y012861D02*
D03*
Y012971D02*
D03*
X010864Y012511D02*
D03*
Y012621D02*
D03*
X010614Y012511D02*
D03*
Y012621D02*
D03*
X010364D02*
D03*
Y012511D02*
D03*
D38*
X008514Y013467D02*
D03*
Y013365D02*
D03*
D39*
X010164Y01327D02*
D03*
Y013362D02*
D03*
X008764Y013462D02*
D03*
Y01337D02*
D03*
D40*
X007768Y014016D02*
D03*
X00786D02*
D03*
X01216Y012416D02*
D03*
X012068D02*
D03*
D41*
X010764Y013849D02*
D03*
Y014084D02*
D03*
X010464Y013849D02*
D03*
Y014084D02*
D03*
D42*
X012514Y012908D02*
D03*
D43*
Y013162D02*
D03*
Y013416D02*
D03*
Y01367D02*
D03*
D44*
X009366Y01378D02*
D03*
X009451D02*
D03*
X009536D02*
D03*
X009621D02*
D03*
X009706D02*
D03*
X009791D02*
D03*
X009876D02*
D03*
X009961D02*
D03*
Y013915D02*
D03*
X009876D02*
D03*
X009791D02*
D03*
X009706D02*
D03*
X009621D02*
D03*
X009536D02*
D03*
X009451D02*
D03*
X009366D02*
D03*
D45*
X009231Y014216D02*
D03*
X010096D02*
D03*
D46*
X009231Y013878D02*
D03*
X010096D02*
D03*
D47*
X00979Y012366D02*
D03*
D48*
X009536D02*
D03*
D49*
X009314Y009091D02*
D03*
X010014D02*
D03*
D50*
X009439Y008841D02*
D03*
D51*
X009889D02*
D03*
D52*
X01275Y014D02*
D03*
Y013D02*
D03*
X0125Y0125D02*
D03*
X01275Y01D02*
D03*
Y009D02*
D03*
X01225Y014D02*
D03*
Y01D02*
D03*
X012Y0095D02*
D03*
X01225Y009D02*
D03*
X01175Y014D02*
D03*
X0115Y0135D02*
D03*
Y0105D02*
D03*
X01125Y014D02*
D03*
X011Y0135D02*
D03*
X01125Y013D02*
D03*
X011Y0125D02*
D03*
X01125Y011D02*
D03*
X0105Y0135D02*
D03*
X01075Y013D02*
D03*
Y01D02*
D03*
X0105Y0095D02*
D03*
X01075Y009D02*
D03*
X0105Y0085D02*
D03*
X01025Y013D02*
D03*
Y011D02*
D03*
X01Y0105D02*
D03*
X01025Y009D02*
D03*
X01Y0085D02*
D03*
X00975Y013D02*
D03*
Y012D02*
D03*
Y011D02*
D03*
X0095Y0105D02*
D03*
X00975Y01D02*
D03*
X0095Y0095D02*
D03*
X00975Y009D02*
D03*
X0095Y0085D02*
D03*
X009Y0135D02*
D03*
X00925Y013D02*
D03*
Y012D02*
D03*
X009Y0115D02*
D03*
Y0105D02*
D03*
X00925Y01D02*
D03*
X009Y0095D02*
D03*
Y0085D02*
D03*
X0085Y0125D02*
D03*
Y0115D02*
D03*
X00875Y011D02*
D03*
X0085Y0105D02*
D03*
X00875Y01D02*
D03*
X0085Y0095D02*
D03*
X00875Y009D02*
D03*
X0085Y0085D02*
D03*
X00825Y013D02*
D03*
X008Y0125D02*
D03*
Y0115D02*
D03*
X00825Y011D02*
D03*
X008Y0105D02*
D03*
X00825Y01D02*
D03*
X008Y0095D02*
D03*
X00825Y009D02*
D03*
X008Y0085D02*
D03*
X0075Y0135D02*
D03*
X00775Y013D02*
D03*
Y012D02*
D03*
X0075Y0115D02*
D03*
X00775Y011D02*
D03*
X0075Y0105D02*
D03*
X00775Y01D02*
D03*
X0075Y0095D02*
D03*
X00775Y009D02*
D03*
X0075Y0085D02*
D03*
X00725Y014D02*
D03*
X007Y0125D02*
D03*
X00725Y012D02*
D03*
X007Y0115D02*
D03*
X00725Y011D02*
D03*
X007Y0105D02*
D03*
X00725Y01D02*
D03*
Y009D02*
D03*
X007Y0085D02*
D03*
X00675Y014D02*
D03*
X0065Y0135D02*
D03*
X00675Y013D02*
D03*
X0065Y0125D02*
D03*
X00675Y012D02*
D03*
X0065Y0115D02*
D03*
X00675Y011D02*
D03*
X0065Y0105D02*
D03*
X00675Y01D02*
D03*
X0065Y0095D02*
D03*
X00675Y009D02*
D03*
X010756Y011331D02*
D03*
X010674Y011416D02*
D03*
X010564Y011456D02*
D03*
X011033Y009336D02*
D03*
X012174Y009266D02*
D03*
X010724Y012096D02*
D03*
X010564D02*
D03*
X010414Y012066D02*
D03*
X010304Y012076D02*
D03*
X008833D02*
D03*
X012204Y010496D02*
D03*
X011933Y012796D02*
D03*
X011693Y010456D02*
D03*
X011783Y010416D02*
D03*
X010664Y011876D02*
D03*
X012193Y009506D02*
D03*
X011304Y009566D02*
D03*
X011683Y009596D02*
D03*
X010843Y012226D02*
D03*
X010424Y011956D02*
D03*
X010683Y011656D02*
D03*
X007924Y013636D02*
D03*
X008933Y013736D02*
D03*
X010593Y011766D02*
D03*
M02*
