G04*
G04 #@! TF.GenerationSoftware,Altium Limited,Altium Designer,20.0.13 (296)*
G04*
G04 Layer_Color=65535*
%FSTAX42Y42*%
%MOMM*%
G71*
G01*
G75*
%ADD10C,0.10*%
%ADD11C,0.20*%
%ADD12C,0.25*%
G36*
X007477Y008385D02*
X007465D01*
Y008399D01*
X007477D01*
Y008385D01*
D02*
G37*
G36*
X007842Y008303D02*
X007831D01*
Y008311D01*
X007831Y008311D01*
X007831Y008311D01*
X00783Y00831D01*
X00783Y00831D01*
X007829Y008309D01*
X007828Y008308D01*
X007827Y008307D01*
X007826Y008306D01*
X007825Y008305D01*
X007824Y008304D01*
X007822Y008303D01*
X00782Y008303D01*
X007818Y008302D01*
X007816Y008302D01*
X007814Y008301D01*
X007812Y008301D01*
X007811D01*
X00781Y008301D01*
X007809Y008301D01*
X007807Y008302D01*
X007804Y008302D01*
X007802Y008303D01*
X007799Y008304D01*
X007796Y008306D01*
X007796D01*
X007796Y008306D01*
X007795Y008307D01*
X007794Y008308D01*
X007792Y008309D01*
X007791Y008311D01*
X007789Y008313D01*
X007787Y008316D01*
X007786Y008318D01*
Y008319D01*
X007785Y008319D01*
X007785Y008319D01*
X007785Y00832D01*
X007785Y008321D01*
X007784Y008322D01*
X007784Y008323D01*
X007784Y008324D01*
X007783Y008327D01*
X007782Y00833D01*
X007782Y008333D01*
X007782Y008337D01*
Y008337D01*
Y008338D01*
Y008338D01*
Y008339D01*
X007782Y00834D01*
Y008341D01*
X007782Y008344D01*
X007783Y008346D01*
X007783Y00835D01*
X007784Y008353D01*
X007785Y008356D01*
Y008356D01*
X007785Y008357D01*
X007786Y008357D01*
X007786Y008358D01*
X007787Y008359D01*
X007788Y008361D01*
X007789Y008363D01*
X007791Y008365D01*
X007793Y008367D01*
X007796Y008369D01*
X007796D01*
X007796Y008369D01*
X007796Y00837D01*
X007797Y00837D01*
X007798Y008371D01*
X0078Y008372D01*
X007802Y008372D01*
X007805Y008373D01*
X007808Y008374D01*
X007811Y008374D01*
X007812D01*
X007813Y008374D01*
X007815Y008373D01*
X007817Y008373D01*
X007819Y008373D01*
X00782Y008372D01*
X007822Y008371D01*
X007823Y008371D01*
X007823Y008371D01*
X007824Y00837D01*
X007825Y008369D01*
X007826Y008368D01*
X007828Y008367D01*
X007829Y008366D01*
X00783Y008364D01*
Y008399D01*
X007842D01*
Y008303D01*
D02*
G37*
G36*
X008015Y008374D02*
X008016Y008373D01*
X008018Y008373D01*
X00802Y008373D01*
X008022Y008372D01*
X008024Y008371D01*
X008024Y008371D01*
X008025Y008371D01*
X008026Y008371D01*
X008027Y00837D01*
X008028Y008369D01*
X00803Y008368D01*
X008031Y008367D01*
X008032Y008365D01*
X008032Y008365D01*
X008033Y008365D01*
X008033Y008364D01*
X008034Y008363D01*
X008034Y008362D01*
X008035Y00836D01*
X008035Y008359D01*
X008036Y008357D01*
Y008357D01*
X008036Y008356D01*
X008036Y008355D01*
X008036Y008354D01*
Y008353D01*
X008036Y008351D01*
X008037Y008348D01*
Y008345D01*
Y008303D01*
X008025D01*
Y008345D01*
Y008345D01*
Y008345D01*
Y008346D01*
Y008347D01*
X008025Y008349D01*
X008024Y008351D01*
X008024Y008352D01*
X008024Y008354D01*
X008023Y008356D01*
Y008356D01*
X008023Y008356D01*
X008023Y008357D01*
X008022Y008358D01*
X008022Y008359D01*
X008021Y008359D01*
X00802Y00836D01*
X008018Y008361D01*
X008018Y008361D01*
X008018Y008362D01*
X008017Y008362D01*
X008016Y008362D01*
X008015Y008363D01*
X008014Y008363D01*
X008012Y008363D01*
X00801Y008364D01*
X008009D01*
X008009Y008363D01*
X008008Y008363D01*
X008006Y008363D01*
X008004Y008362D01*
X008002Y008361D01*
X007999Y00836D01*
X007997Y008359D01*
X007997Y008358D01*
X007996Y008358D01*
X007996Y008357D01*
X007996Y008356D01*
X007995Y008356D01*
X007995Y008355D01*
X007994Y008354D01*
X007994Y008352D01*
X007993Y008351D01*
X007993Y008349D01*
X007992Y008347D01*
X007992Y008345D01*
X007992Y008343D01*
Y00834D01*
Y008303D01*
X00798D01*
Y008372D01*
X007991D01*
Y008362D01*
X007991Y008362D01*
X007991Y008363D01*
X007991Y008363D01*
X007992Y008364D01*
X007993Y008365D01*
X007994Y008366D01*
X007995Y008367D01*
X007996Y008368D01*
X007998Y008369D01*
X007999Y00837D01*
X008001Y008371D01*
X008003Y008372D01*
X008005Y008373D01*
X008008Y008373D01*
X00801Y008374D01*
X008013Y008374D01*
X008014D01*
X008015Y008374D01*
D02*
G37*
G36*
X007746D02*
X007748Y008373D01*
X00775Y008373D01*
X007752Y008373D01*
X007754Y008372D01*
X007756Y008371D01*
X007756Y008371D01*
X007757Y008371D01*
X007757Y008371D01*
X007759Y00837D01*
X00776Y008369D01*
X007761Y008368D01*
X007762Y008367D01*
X007764Y008365D01*
X007764Y008365D01*
X007764Y008365D01*
X007764Y008364D01*
X007765Y008363D01*
X007766Y008362D01*
X007766Y00836D01*
X007767Y008359D01*
X007767Y008357D01*
Y008357D01*
X007767Y008356D01*
X007768Y008355D01*
X007768Y008354D01*
Y008353D01*
X007768Y008351D01*
X007768Y008348D01*
Y008345D01*
Y008303D01*
X007756D01*
Y008345D01*
Y008345D01*
Y008345D01*
Y008346D01*
Y008347D01*
X007756Y008349D01*
X007756Y008351D01*
X007756Y008352D01*
X007755Y008354D01*
X007755Y008356D01*
Y008356D01*
X007755Y008356D01*
X007754Y008357D01*
X007754Y008358D01*
X007753Y008359D01*
X007752Y008359D01*
X007751Y00836D01*
X00775Y008361D01*
X00775Y008361D01*
X007749Y008362D01*
X007748Y008362D01*
X007748Y008362D01*
X007746Y008363D01*
X007745Y008363D01*
X007743Y008363D01*
X007742Y008364D01*
X007741D01*
X00774Y008363D01*
X007739Y008363D01*
X007737Y008363D01*
X007735Y008362D01*
X007733Y008361D01*
X007731Y00836D01*
X007729Y008359D01*
X007729Y008358D01*
X007728Y008358D01*
X007728Y008357D01*
X007727Y008356D01*
X007727Y008356D01*
X007726Y008355D01*
X007726Y008354D01*
X007725Y008352D01*
X007725Y008351D01*
X007724Y008349D01*
X007724Y008347D01*
X007724Y008345D01*
X007723Y008343D01*
Y00834D01*
Y008303D01*
X007712D01*
Y008372D01*
X007722D01*
Y008362D01*
X007722Y008362D01*
X007723Y008363D01*
X007723Y008363D01*
X007724Y008364D01*
X007724Y008365D01*
X007725Y008366D01*
X007726Y008367D01*
X007728Y008368D01*
X007729Y008369D01*
X007731Y00837D01*
X007733Y008371D01*
X007735Y008372D01*
X007737Y008373D01*
X007739Y008373D01*
X007742Y008374D01*
X007744Y008374D01*
X007745D01*
X007746Y008374D01*
D02*
G37*
G36*
X00715D02*
X007151Y008373D01*
X007153Y008373D01*
X007155Y008373D01*
X007157Y008372D01*
X007159Y008371D01*
X007159Y008371D01*
X00716Y008371D01*
X007161Y008371D01*
X007162Y00837D01*
X007163Y008369D01*
X007165Y008368D01*
X007166Y008367D01*
X007167Y008365D01*
X007167Y008365D01*
X007167Y008365D01*
X007168Y008364D01*
X007169Y008363D01*
X007169Y008362D01*
X00717Y00836D01*
X00717Y008359D01*
X007171Y008357D01*
Y008357D01*
X007171Y008356D01*
X007171Y008355D01*
X007171Y008354D01*
Y008353D01*
X007171Y008351D01*
X007171Y008348D01*
Y008345D01*
Y008303D01*
X00716D01*
Y008345D01*
Y008345D01*
Y008345D01*
Y008346D01*
Y008347D01*
X007159Y008349D01*
X007159Y008351D01*
X007159Y008352D01*
X007159Y008354D01*
X007158Y008356D01*
Y008356D01*
X007158Y008356D01*
X007158Y008357D01*
X007157Y008358D01*
X007156Y008359D01*
X007156Y008359D01*
X007154Y00836D01*
X007153Y008361D01*
X007153Y008361D01*
X007153Y008362D01*
X007152Y008362D01*
X007151Y008362D01*
X00715Y008363D01*
X007148Y008363D01*
X007147Y008363D01*
X007145Y008364D01*
X007144D01*
X007144Y008363D01*
X007142Y008363D01*
X007141Y008363D01*
X007139Y008362D01*
X007136Y008361D01*
X007134Y00836D01*
X007132Y008359D01*
X007132Y008358D01*
X007131Y008358D01*
X007131Y008357D01*
X007131Y008356D01*
X00713Y008356D01*
X00713Y008355D01*
X007129Y008354D01*
X007128Y008352D01*
X007128Y008351D01*
X007128Y008349D01*
X007127Y008347D01*
X007127Y008345D01*
X007127Y008343D01*
Y00834D01*
Y008303D01*
X007115D01*
Y008372D01*
X007126D01*
Y008362D01*
X007126Y008362D01*
X007126Y008363D01*
X007126Y008363D01*
X007127Y008364D01*
X007128Y008365D01*
X007129Y008366D01*
X00713Y008367D01*
X007131Y008368D01*
X007133Y008369D01*
X007134Y00837D01*
X007136Y008371D01*
X007138Y008372D01*
X00714Y008373D01*
X007142Y008373D01*
X007145Y008374D01*
X007148Y008374D01*
X007149D01*
X00715Y008374D01*
D02*
G37*
G36*
X007889D02*
X00789Y008373D01*
X007892Y008373D01*
X007894Y008372D01*
X007896Y008371D01*
X007898Y00837D01*
X007894Y008359D01*
X007894Y008359D01*
X007893Y008359D01*
X007893Y00836D01*
X007891Y00836D01*
X00789Y008361D01*
X007889Y008361D01*
X007887Y008361D01*
X007886Y008362D01*
X007885D01*
X007884Y008361D01*
X007883Y008361D01*
X007882Y008361D01*
X007881Y008361D01*
X00788Y00836D01*
X007879Y008359D01*
X007879Y008359D01*
X007878Y008359D01*
X007878Y008358D01*
X007877Y008358D01*
X007876Y008357D01*
X007876Y008355D01*
X007875Y008354D01*
X007874Y008353D01*
X007874Y008352D01*
X007874Y008352D01*
X007874Y00835D01*
X007873Y008349D01*
X007873Y008347D01*
X007873Y008344D01*
X007873Y008342D01*
X007872Y008339D01*
Y008303D01*
X007861D01*
Y008372D01*
X007871D01*
Y008362D01*
X007871Y008362D01*
X007872Y008363D01*
X007873Y008364D01*
X007874Y008366D01*
X007875Y008367D01*
X007876Y008369D01*
X007877Y00837D01*
X007879Y008371D01*
X007879Y008371D01*
X007879Y008372D01*
X00788Y008372D01*
X007881Y008373D01*
X007882Y008373D01*
X007883Y008373D01*
X007885Y008374D01*
X007886Y008374D01*
X007887D01*
X007889Y008374D01*
D02*
G37*
G36*
X007525D02*
X007526D01*
X007527Y008373D01*
X00753Y008373D01*
X007533Y008372D01*
X007536Y008371D01*
X007539Y00837D01*
X007542Y008368D01*
X007542D01*
X007542Y008368D01*
X007543Y008367D01*
X007544Y008366D01*
X007546Y008364D01*
X007547Y008362D01*
X007549Y008359D01*
X00755Y008356D01*
X007551Y008352D01*
X00754Y00835D01*
Y00835D01*
X007539Y00835D01*
X007539Y008351D01*
X007539Y008352D01*
X007538Y008354D01*
X007538Y008356D01*
X007536Y008357D01*
X007535Y008359D01*
X007534Y00836D01*
X007534Y008361D01*
X007533Y008361D01*
X007532Y008362D01*
X007531Y008362D01*
X007529Y008363D01*
X007528Y008364D01*
X007526Y008364D01*
X007524Y008364D01*
X007523D01*
X007522Y008364D01*
X007521Y008364D01*
X007519Y008363D01*
X007516Y008363D01*
X007514Y008361D01*
X007512Y00836D01*
X007511Y008359D01*
X007509Y008358D01*
Y008358D01*
X007509Y008357D01*
X007509Y008357D01*
X007509Y008356D01*
X007508Y008356D01*
X007508Y008355D01*
X007507Y008354D01*
X007507Y008353D01*
X007506Y008351D01*
X007506Y00835D01*
X007505Y008348D01*
X007505Y008346D01*
X007504Y008345D01*
X007504Y008342D01*
X007504Y00834D01*
Y008337D01*
Y008337D01*
Y008337D01*
Y008336D01*
X007504Y008335D01*
Y008334D01*
X007504Y008333D01*
X007505Y00833D01*
X007505Y008326D01*
X007506Y008323D01*
X007507Y00832D01*
X007508Y008318D01*
X007509Y008317D01*
X007509Y008317D01*
X00751Y008316D01*
X007511Y008315D01*
X007513Y008314D01*
X007515Y008313D01*
X007517Y008312D01*
X00752Y008311D01*
X007522Y008311D01*
X007523Y008311D01*
X007523D01*
X007524Y008311D01*
X007526Y008311D01*
X007527Y008311D01*
X007529Y008312D01*
X007531Y008313D01*
X007533Y008314D01*
X007535Y008315D01*
X007535Y008315D01*
X007535Y008316D01*
X007536Y008317D01*
X007537Y008318D01*
X007538Y00832D01*
X007539Y008322D01*
X00754Y008325D01*
X007541Y008328D01*
X007552Y008327D01*
Y008326D01*
X007552Y008326D01*
X007552Y008326D01*
X007552Y008325D01*
X007552Y008324D01*
X007551Y008322D01*
X00755Y00832D01*
X007549Y008317D01*
X007547Y008314D01*
X007545Y008311D01*
X007544Y008309D01*
X007542Y008308D01*
X007542Y008308D01*
X007542Y008307D01*
X007542Y008307D01*
X007541Y008307D01*
X00754Y008306D01*
X007539Y008306D01*
X007538Y008305D01*
X007537Y008304D01*
X007534Y008303D01*
X007531Y008302D01*
X007527Y008301D01*
X007525Y008301D01*
X007523Y008301D01*
X007522D01*
X007521Y008301D01*
X00752Y008301D01*
X007518Y008302D01*
X007517Y008302D01*
X007515Y008302D01*
X007511Y008303D01*
X00751Y008304D01*
X007508Y008305D01*
X007506Y008306D01*
X007504Y008307D01*
X007502Y008309D01*
X0075Y00831D01*
X0075Y008311D01*
X0075Y008311D01*
X0075Y008311D01*
X007499Y008312D01*
X007498Y008313D01*
X007498Y008314D01*
X007497Y008316D01*
X007496Y008317D01*
X007495Y008319D01*
X007495Y008321D01*
X007494Y008323D01*
X007493Y008326D01*
X007493Y008328D01*
X007492Y008331D01*
X007492Y008334D01*
X007492Y008337D01*
Y008337D01*
Y008338D01*
Y008338D01*
Y008339D01*
X007492Y00834D01*
Y008341D01*
X007492Y008342D01*
X007492Y008344D01*
X007493Y008347D01*
X007493Y00835D01*
X007494Y008354D01*
X007495Y008357D01*
Y008357D01*
X007496Y008357D01*
X007496Y008358D01*
X007496Y008358D01*
X007497Y00836D01*
X007498Y008362D01*
X0075Y008364D01*
X007502Y008366D01*
X007504Y008368D01*
X007507Y008369D01*
X007507D01*
X007507Y00837D01*
X007508Y00837D01*
X007508Y00837D01*
X007509Y00837D01*
X00751Y008371D01*
X007512Y008372D01*
X007514Y008372D01*
X007517Y008373D01*
X00752Y008374D01*
X007523Y008374D01*
X007525D01*
X007525Y008374D01*
D02*
G37*
G36*
X007428Y008303D02*
X007417D01*
X007391Y008372D01*
X007403D01*
X007418Y008331D01*
Y00833D01*
X007419Y00833D01*
X007419Y00833D01*
X007419Y008329D01*
X007419Y008328D01*
X00742Y008326D01*
X00742Y008324D01*
X007421Y008322D01*
X007422Y008319D01*
X007423Y008316D01*
X007423Y008317D01*
X007423Y008317D01*
X007424Y008319D01*
X007424Y00832D01*
X007425Y008322D01*
X007425Y008324D01*
X007426Y008327D01*
X007427Y00833D01*
X007443Y008372D01*
X007455D01*
X007428Y008303D01*
D02*
G37*
G36*
X007938Y008374D02*
X00794Y008373D01*
X007942Y008373D01*
X007945Y008373D01*
X007947Y008372D01*
X007949Y008372D01*
X00795Y008371D01*
X00795Y008371D01*
X007951Y008371D01*
X007952Y00837D01*
X007954Y008369D01*
X007955Y008368D01*
X007957Y008367D01*
X007958Y008366D01*
X007958Y008366D01*
X007958Y008366D01*
X007958Y008365D01*
X007959Y008364D01*
X00796Y008363D01*
X00796Y008362D01*
X007961Y00836D01*
X007961Y008358D01*
Y008358D01*
X007961Y008358D01*
X007961Y008357D01*
X007962Y008356D01*
Y008354D01*
X007962Y008353D01*
X007962Y00835D01*
Y008348D01*
Y008332D01*
Y008332D01*
Y008331D01*
Y00833D01*
Y008329D01*
Y008328D01*
Y008326D01*
X007962Y008323D01*
Y00832D01*
X007962Y008316D01*
X007962Y008315D01*
Y008313D01*
X007962Y008312D01*
X007963Y008311D01*
Y008311D01*
X007963Y00831D01*
X007963Y008309D01*
X007963Y008308D01*
X007964Y008307D01*
X007964Y008306D01*
X007965Y008304D01*
X007966Y008303D01*
X007953D01*
X007953Y008303D01*
X007953Y008303D01*
X007953Y008304D01*
X007952Y008305D01*
X007952Y008306D01*
X007952Y008308D01*
X007951Y00831D01*
X007951Y008311D01*
X007951D01*
X007951Y008311D01*
X00795Y00831D01*
X007949Y008309D01*
X007947Y008308D01*
X007945Y008307D01*
X007943Y008306D01*
X007941Y008304D01*
X007938Y008303D01*
X007938Y008303D01*
X007937Y008303D01*
X007936Y008303D01*
X007934Y008302D01*
X007932Y008302D01*
X00793Y008302D01*
X007928Y008301D01*
X007925Y008301D01*
X007924D01*
X007923Y008301D01*
X007922D01*
X007921Y008301D01*
X007919Y008302D01*
X007916Y008302D01*
X007913Y008303D01*
X00791Y008305D01*
X007908Y008307D01*
X007907Y008307D01*
X007907Y008308D01*
X007906Y008309D01*
X007905Y008311D01*
X007903Y008313D01*
X007902Y008315D01*
X007902Y008318D01*
X007902Y008319D01*
X007901Y008321D01*
Y008321D01*
Y008322D01*
X007902Y008323D01*
X007902Y008324D01*
X007902Y008326D01*
X007902Y008327D01*
X007903Y008329D01*
X007904Y00833D01*
X007904Y00833D01*
X007904Y008331D01*
X007905Y008332D01*
X007905Y008333D01*
X007906Y008334D01*
X007907Y008335D01*
X007908Y008336D01*
X00791Y008337D01*
X00791Y008337D01*
X00791Y008337D01*
X007911Y008338D01*
X007912Y008339D01*
X007914Y008339D01*
X007915Y00834D01*
X007917Y00834D01*
X007918Y008341D01*
X007919D01*
X007919Y008341D01*
X00792Y008341D01*
X007921Y008341D01*
X007922Y008342D01*
X007924Y008342D01*
X007926Y008342D01*
X007929Y008343D01*
X007929D01*
X007929Y008343D01*
X00793D01*
X007931Y008343D01*
X007932Y008343D01*
X007934Y008343D01*
X007935Y008344D01*
X007937Y008344D01*
X00794Y008345D01*
X007944Y008345D01*
X007947Y008346D01*
X007948Y008346D01*
X00795Y008347D01*
Y008347D01*
Y008347D01*
X00795Y008348D01*
Y008349D01*
Y00835D01*
Y00835D01*
Y00835D01*
Y00835D01*
Y008351D01*
X00795Y008352D01*
X00795Y008354D01*
X007949Y008356D01*
X007948Y008357D01*
X007948Y008359D01*
X007947Y00836D01*
X007946Y00836D01*
X007946Y008361D01*
X007945Y008361D01*
X007943Y008362D01*
X007941Y008363D01*
X007939Y008364D01*
X007936Y008364D01*
X007933Y008364D01*
X007932D01*
X00793Y008364D01*
X007928Y008364D01*
X007926Y008363D01*
X007924Y008363D01*
X007922Y008362D01*
X007921Y008361D01*
X007921Y008361D01*
X00792Y008361D01*
X007919Y00836D01*
X007919Y008359D01*
X007918Y008357D01*
X007917Y008356D01*
X007916Y008353D01*
X007915Y008351D01*
X007904Y008352D01*
Y008353D01*
X007904Y008353D01*
Y008353D01*
X007904Y008354D01*
X007904Y008355D01*
X007905Y008357D01*
X007905Y008359D01*
X007906Y00836D01*
X007907Y008362D01*
X007909Y008364D01*
X007909Y008364D01*
X007909Y008365D01*
X00791Y008366D01*
X007911Y008367D01*
X007913Y008368D01*
X007915Y008369D01*
X007917Y00837D01*
X007919Y008371D01*
X007919D01*
X007919Y008371D01*
X00792Y008372D01*
X00792Y008372D01*
X007922Y008372D01*
X007924Y008373D01*
X007926Y008373D01*
X007929Y008373D01*
X007932Y008374D01*
X007935Y008374D01*
X007936D01*
X007938Y008374D01*
D02*
G37*
G36*
X007669D02*
X007672Y008373D01*
X007674Y008373D01*
X007676Y008373D01*
X007679Y008372D01*
X007681Y008372D01*
X007681Y008371D01*
X007682Y008371D01*
X007683Y008371D01*
X007684Y00837D01*
X007685Y008369D01*
X007687Y008368D01*
X007688Y008367D01*
X007689Y008366D01*
X007689Y008366D01*
X00769Y008366D01*
X00769Y008365D01*
X007691Y008364D01*
X007691Y008363D01*
X007692Y008362D01*
X007692Y00836D01*
X007693Y008358D01*
Y008358D01*
X007693Y008358D01*
X007693Y008357D01*
X007693Y008356D01*
Y008354D01*
X007693Y008353D01*
X007693Y00835D01*
Y008348D01*
Y008332D01*
Y008332D01*
Y008331D01*
Y00833D01*
Y008329D01*
Y008328D01*
Y008326D01*
X007694Y008323D01*
Y00832D01*
X007694Y008316D01*
X007694Y008315D01*
Y008313D01*
X007694Y008312D01*
X007694Y008311D01*
Y008311D01*
X007694Y00831D01*
X007694Y008309D01*
X007695Y008308D01*
X007695Y008307D01*
X007696Y008306D01*
X007696Y008304D01*
X007697Y008303D01*
X007685D01*
X007685Y008303D01*
X007684Y008303D01*
X007684Y008304D01*
X007684Y008305D01*
X007683Y008306D01*
X007683Y008308D01*
X007683Y00831D01*
X007682Y008311D01*
X007682D01*
X007682Y008311D01*
X007681Y00831D01*
X00768Y008309D01*
X007678Y008308D01*
X007676Y008307D01*
X007674Y008306D01*
X007672Y008304D01*
X00767Y008303D01*
X007669Y008303D01*
X007669Y008303D01*
X007667Y008303D01*
X007666Y008302D01*
X007664Y008302D01*
X007662Y008302D01*
X007659Y008301D01*
X007657Y008301D01*
X007656D01*
X007655Y008301D01*
X007654D01*
X007653Y008301D01*
X00765Y008302D01*
X007647Y008302D01*
X007644Y008303D01*
X007642Y008305D01*
X007639Y008307D01*
X007639Y008307D01*
X007638Y008308D01*
X007637Y008309D01*
X007636Y008311D01*
X007635Y008313D01*
X007634Y008315D01*
X007633Y008318D01*
X007633Y008319D01*
X007633Y008321D01*
Y008321D01*
Y008322D01*
X007633Y008323D01*
X007633Y008324D01*
X007634Y008326D01*
X007634Y008327D01*
X007634Y008329D01*
X007635Y00833D01*
X007635Y00833D01*
X007636Y008331D01*
X007636Y008332D01*
X007637Y008333D01*
X007638Y008334D01*
X007639Y008335D01*
X00764Y008336D01*
X007641Y008337D01*
X007641Y008337D01*
X007642Y008337D01*
X007643Y008338D01*
X007644Y008339D01*
X007645Y008339D01*
X007647Y00834D01*
X007648Y00834D01*
X00765Y008341D01*
X00765D01*
X007651Y008341D01*
X007651Y008341D01*
X007653Y008341D01*
X007654Y008342D01*
X007656Y008342D01*
X007658Y008342D01*
X00766Y008343D01*
X00766D01*
X007661Y008343D01*
X007662D01*
X007663Y008343D01*
X007664Y008343D01*
X007665Y008343D01*
X007667Y008344D01*
X007668Y008344D01*
X007672Y008345D01*
X007675Y008345D01*
X007678Y008346D01*
X00768Y008346D01*
X007681Y008347D01*
Y008347D01*
Y008347D01*
X007681Y008348D01*
Y008349D01*
Y00835D01*
Y00835D01*
Y00835D01*
Y00835D01*
Y008351D01*
X007681Y008352D01*
X007681Y008354D01*
X007681Y008356D01*
X00768Y008357D01*
X007679Y008359D01*
X007678Y00836D01*
X007678Y00836D01*
X007677Y008361D01*
X007676Y008361D01*
X007675Y008362D01*
X007673Y008363D01*
X007671Y008364D01*
X007668Y008364D01*
X007665Y008364D01*
X007663D01*
X007662Y008364D01*
X00766Y008364D01*
X007658Y008363D01*
X007656Y008363D01*
X007654Y008362D01*
X007652Y008361D01*
X007652Y008361D01*
X007652Y008361D01*
X007651Y00836D01*
X00765Y008359D01*
X007649Y008357D01*
X007648Y008356D01*
X007647Y008353D01*
X007647Y008351D01*
X007635Y008352D01*
Y008353D01*
X007635Y008353D01*
Y008353D01*
X007635Y008354D01*
X007636Y008355D01*
X007636Y008357D01*
X007637Y008359D01*
X007638Y00836D01*
X007639Y008362D01*
X00764Y008364D01*
X00764Y008364D01*
X007641Y008365D01*
X007642Y008366D01*
X007643Y008367D01*
X007644Y008368D01*
X007646Y008369D01*
X007648Y00837D01*
X007651Y008371D01*
X007651D01*
X007651Y008371D01*
X007651Y008372D01*
X007652Y008372D01*
X007653Y008372D01*
X007655Y008373D01*
X007657Y008373D01*
X00766Y008373D01*
X007663Y008374D01*
X007666Y008374D01*
X007668D01*
X007669Y008374D01*
D02*
G37*
G36*
X007574Y008364D02*
X007574Y008364D01*
X007575Y008365D01*
X007575Y008365D01*
X007576Y008366D01*
X007576Y008366D01*
X007577Y008367D01*
X007579Y008368D01*
X00758Y008369D01*
X007581Y00837D01*
X007583Y008371D01*
X007586Y008372D01*
X007588Y008373D01*
X00759Y008373D01*
X007593Y008374D01*
X007595Y008374D01*
X007596D01*
X007598Y008374D01*
X007599Y008373D01*
X007601Y008373D01*
X007604Y008373D01*
X007606Y008372D01*
X007608Y008371D01*
X007608Y008371D01*
X007609Y00837D01*
X00761Y008369D01*
X007611Y008368D01*
X007613Y008367D01*
X007614Y008366D01*
X007615Y008364D01*
X007616Y008362D01*
X007616Y008362D01*
X007617Y008361D01*
X007617Y00836D01*
X007618Y008358D01*
X007618Y008356D01*
X007618Y008353D01*
X007619Y00835D01*
X007619Y008347D01*
Y008303D01*
X007607D01*
Y008347D01*
Y008347D01*
Y008347D01*
Y008348D01*
Y008348D01*
X007607Y00835D01*
X007607Y008352D01*
X007606Y008354D01*
X007605Y008356D01*
X007604Y008358D01*
X007603Y008359D01*
X007603Y00836D01*
X007602Y00836D01*
X007602Y008361D01*
X0076Y008362D01*
X007599Y008362D01*
X007597Y008363D01*
X007595Y008364D01*
X007592Y008364D01*
X007591D01*
X007591Y008364D01*
X007589Y008363D01*
X007588Y008363D01*
X007586Y008363D01*
X007584Y008362D01*
X007583Y008361D01*
X007582Y008361D01*
X007582Y00836D01*
X007581Y00836D01*
X00758Y008359D01*
X007579Y008358D01*
X007578Y008357D01*
X007577Y008355D01*
X007576Y008353D01*
X007576Y008353D01*
X007576Y008353D01*
X007576Y008351D01*
X007575Y00835D01*
X007575Y008348D01*
X007574Y008346D01*
X007574Y008344D01*
X007574Y008341D01*
Y008303D01*
X007562D01*
Y008399D01*
X007574D01*
Y008364D01*
D02*
G37*
G36*
X007477Y008303D02*
X007465D01*
Y008372D01*
X007477D01*
Y008303D01*
D02*
G37*
G36*
X007356Y008374D02*
X007358Y008373D01*
X007361Y008373D01*
X007363Y008373D01*
X007365Y008372D01*
X007368Y008372D01*
X007368Y008371D01*
X007368Y008371D01*
X007369Y008371D01*
X007371Y00837D01*
X007372Y008369D01*
X007373Y008368D01*
X007375Y008367D01*
X007376Y008366D01*
X007376Y008366D01*
X007376Y008366D01*
X007377Y008365D01*
X007377Y008364D01*
X007378Y008363D01*
X007378Y008362D01*
X007379Y00836D01*
X007379Y008358D01*
Y008358D01*
X00738Y008358D01*
X00738Y008357D01*
X00738Y008356D01*
Y008354D01*
X00738Y008353D01*
X00738Y00835D01*
Y008348D01*
Y008332D01*
Y008332D01*
Y008331D01*
Y00833D01*
Y008329D01*
Y008328D01*
Y008326D01*
X00738Y008323D01*
Y00832D01*
X00738Y008316D01*
X007381Y008315D01*
Y008313D01*
X007381Y008312D01*
X007381Y008311D01*
Y008311D01*
X007381Y00831D01*
X007381Y008309D01*
X007382Y008308D01*
X007382Y008307D01*
X007382Y008306D01*
X007383Y008304D01*
X007384Y008303D01*
X007371D01*
X007371Y008303D01*
X007371Y008303D01*
X007371Y008304D01*
X00737Y008305D01*
X00737Y008306D01*
X00737Y008308D01*
X007369Y00831D01*
X007369Y008311D01*
X007369D01*
X007369Y008311D01*
X007368Y00831D01*
X007367Y008309D01*
X007365Y008308D01*
X007363Y008307D01*
X007361Y008306D01*
X007359Y008304D01*
X007356Y008303D01*
X007356Y008303D01*
X007355Y008303D01*
X007354Y008303D01*
X007353Y008302D01*
X007351Y008302D01*
X007348Y008302D01*
X007346Y008301D01*
X007343Y008301D01*
X007342D01*
X007341Y008301D01*
X00734D01*
X007339Y008301D01*
X007337Y008302D01*
X007334Y008302D01*
X007331Y008303D01*
X007328Y008305D01*
X007326Y008307D01*
X007325Y008307D01*
X007325Y008308D01*
X007324Y008309D01*
X007323Y008311D01*
X007322Y008313D01*
X007321Y008315D01*
X00732Y008318D01*
X00732Y008319D01*
X00732Y008321D01*
Y008321D01*
Y008322D01*
X00732Y008323D01*
X00732Y008324D01*
X00732Y008326D01*
X007321Y008327D01*
X007321Y008329D01*
X007322Y00833D01*
X007322Y00833D01*
X007322Y008331D01*
X007323Y008332D01*
X007324Y008333D01*
X007324Y008334D01*
X007325Y008335D01*
X007327Y008336D01*
X007328Y008337D01*
X007328Y008337D01*
X007329Y008337D01*
X007329Y008338D01*
X00733Y008339D01*
X007332Y008339D01*
X007333Y00834D01*
X007335Y00834D01*
X007337Y008341D01*
X007337D01*
X007337Y008341D01*
X007338Y008341D01*
X007339Y008341D01*
X007341Y008342D01*
X007342Y008342D01*
X007344Y008342D01*
X007347Y008343D01*
X007347D01*
X007348Y008343D01*
X007348D01*
X007349Y008343D01*
X00735Y008343D01*
X007352Y008343D01*
X007353Y008344D01*
X007355Y008344D01*
X007358Y008345D01*
X007362Y008345D01*
X007365Y008346D01*
X007367Y008346D01*
X007368Y008347D01*
Y008347D01*
Y008347D01*
X007368Y008348D01*
Y008349D01*
Y00835D01*
Y00835D01*
Y00835D01*
Y00835D01*
Y008351D01*
X007368Y008352D01*
X007368Y008354D01*
X007367Y008356D01*
X007367Y008357D01*
X007366Y008359D01*
X007365Y00836D01*
X007365Y00836D01*
X007364Y008361D01*
X007363Y008361D01*
X007361Y008362D01*
X007359Y008363D01*
X007357Y008364D01*
X007354Y008364D01*
X007351Y008364D01*
X00735D01*
X007349Y008364D01*
X007347Y008364D01*
X007345Y008363D01*
X007343Y008363D01*
X007341Y008362D01*
X007339Y008361D01*
X007339Y008361D01*
X007338Y008361D01*
X007338Y00836D01*
X007337Y008359D01*
X007336Y008357D01*
X007335Y008356D01*
X007334Y008353D01*
X007333Y008351D01*
X007322Y008352D01*
Y008353D01*
X007322Y008353D01*
Y008353D01*
X007322Y008354D01*
X007322Y008355D01*
X007323Y008357D01*
X007324Y008359D01*
X007325Y00836D01*
X007326Y008362D01*
X007327Y008364D01*
X007327Y008364D01*
X007328Y008365D01*
X007328Y008366D01*
X00733Y008367D01*
X007331Y008368D01*
X007333Y008369D01*
X007335Y00837D01*
X007337Y008371D01*
X007337D01*
X007338Y008371D01*
X007338Y008372D01*
X007339Y008372D01*
X00734Y008372D01*
X007342Y008373D01*
X007344Y008373D01*
X007347Y008373D01*
X00735Y008374D01*
X007353Y008374D01*
X007355D01*
X007356Y008374D01*
D02*
G37*
G36*
X007274Y008398D02*
X007275D01*
X007278Y008398D01*
X007281Y008398D01*
X007285Y008397D01*
X007288Y008397D01*
X007289Y008396D01*
X007291Y008396D01*
X007291D01*
X007291Y008396D01*
X007292Y008395D01*
X007293Y008395D01*
X007294Y008394D01*
X007296Y008393D01*
X007298Y008391D01*
X0073Y008389D01*
X007301Y008387D01*
Y008387D01*
X007301Y008387D01*
X007302Y008386D01*
X007302Y008384D01*
X007303Y008383D01*
X007304Y00838D01*
X007305Y008378D01*
X007305Y008375D01*
X007305Y008372D01*
Y008372D01*
Y008372D01*
Y008371D01*
X007305Y008371D01*
Y00837D01*
X007305Y008369D01*
X007304Y008366D01*
X007304Y008364D01*
X007302Y008361D01*
X007301Y008358D01*
X0073Y008356D01*
X007299Y008355D01*
X007298Y008355D01*
X007298Y008355D01*
X007298Y008354D01*
X007297Y008354D01*
X007297Y008353D01*
X007296Y008353D01*
X007295Y008352D01*
X007294Y008351D01*
X007292Y008351D01*
X007291Y00835D01*
X007289Y008349D01*
X007287Y008348D01*
X007285Y008348D01*
X007283Y008347D01*
X007281Y008347D01*
X007278Y008346D01*
X007278Y008346D01*
X007279Y008346D01*
X00728Y008345D01*
X007281Y008345D01*
X007283Y008343D01*
X007285Y008342D01*
X007286Y008341D01*
X007286Y008341D01*
X007287Y00834D01*
X007288Y008339D01*
X007289Y008338D01*
X007291Y008336D01*
X007293Y008334D01*
X007294Y008331D01*
X007296Y008329D01*
X007313Y008303D01*
X007297D01*
X007284Y008323D01*
Y008323D01*
X007284Y008323D01*
X007284Y008323D01*
X007283Y008324D01*
X007283Y008326D01*
X007281Y008327D01*
X00728Y00833D01*
X007278Y008332D01*
X007277Y008334D01*
X007275Y008336D01*
X007275Y008336D01*
X007275Y008336D01*
X007274Y008337D01*
X007273Y008338D01*
X007271Y00834D01*
X00727Y008341D01*
X007269Y008342D01*
X007269Y008342D01*
X007268Y008342D01*
X007268Y008343D01*
X007267Y008343D01*
X007266Y008344D01*
X007265Y008344D01*
X007263Y008345D01*
X007263D01*
X007263Y008345D01*
X007262D01*
X007261Y008345D01*
X00726Y008345D01*
X007259D01*
X007258Y008345D01*
X007241D01*
Y008303D01*
X007229D01*
Y008399D01*
X007273D01*
X007274Y008398D01*
D02*
G37*
G36*
X007073Y008374D02*
X007075Y008373D01*
X007077Y008373D01*
X00708Y008373D01*
X007082Y008372D01*
X007084Y008372D01*
X007084Y008371D01*
X007085Y008371D01*
X007086Y008371D01*
X007087Y00837D01*
X007089Y008369D01*
X00709Y008368D01*
X007091Y008367D01*
X007093Y008366D01*
X007093Y008366D01*
X007093Y008366D01*
X007093Y008365D01*
X007094Y008364D01*
X007095Y008363D01*
X007095Y008362D01*
X007096Y00836D01*
X007096Y008358D01*
Y008358D01*
X007096Y008358D01*
X007096Y008357D01*
X007097Y008356D01*
Y008354D01*
X007097Y008353D01*
X007097Y00835D01*
Y008348D01*
Y008332D01*
Y008332D01*
Y008331D01*
Y00833D01*
Y008329D01*
Y008328D01*
Y008326D01*
X007097Y008323D01*
Y00832D01*
X007097Y008316D01*
X007097Y008315D01*
Y008313D01*
X007097Y008312D01*
X007097Y008311D01*
Y008311D01*
X007098Y00831D01*
X007098Y008309D01*
X007098Y008308D01*
X007098Y008307D01*
X007099Y008306D01*
X0071Y008304D01*
X0071Y008303D01*
X007088D01*
X007088Y008303D01*
X007088Y008303D01*
X007088Y008304D01*
X007087Y008305D01*
X007087Y008306D01*
X007086Y008308D01*
X007086Y00831D01*
X007086Y008311D01*
X007086D01*
X007086Y008311D01*
X007085Y00831D01*
X007083Y008309D01*
X007082Y008308D01*
X00708Y008307D01*
X007078Y008306D01*
X007075Y008304D01*
X007073Y008303D01*
X007073Y008303D01*
X007072Y008303D01*
X007071Y008303D01*
X007069Y008302D01*
X007067Y008302D01*
X007065Y008302D01*
X007063Y008301D01*
X00706Y008301D01*
X007059D01*
X007058Y008301D01*
X007057D01*
X007056Y008301D01*
X007054Y008302D01*
X007051Y008302D01*
X007048Y008303D01*
X007045Y008305D01*
X007042Y008307D01*
X007042Y008307D01*
X007041Y008308D01*
X00704Y008309D01*
X007039Y008311D01*
X007038Y008313D01*
X007037Y008315D01*
X007037Y008318D01*
X007036Y008319D01*
X007036Y008321D01*
Y008321D01*
Y008322D01*
X007036Y008323D01*
X007037Y008324D01*
X007037Y008326D01*
X007037Y008327D01*
X007038Y008329D01*
X007039Y00833D01*
X007039Y00833D01*
X007039Y008331D01*
X00704Y008332D01*
X00704Y008333D01*
X007041Y008334D01*
X007042Y008335D01*
X007043Y008336D01*
X007045Y008337D01*
X007045Y008337D01*
X007045Y008337D01*
X007046Y008338D01*
X007047Y008339D01*
X007048Y008339D01*
X00705Y00834D01*
X007051Y00834D01*
X007053Y008341D01*
X007053D01*
X007054Y008341D01*
X007055Y008341D01*
X007056Y008341D01*
X007057Y008342D01*
X007059Y008342D01*
X007061Y008342D01*
X007064Y008343D01*
X007064D01*
X007064Y008343D01*
X007065D01*
X007066Y008343D01*
X007067Y008343D01*
X007069Y008343D01*
X00707Y008344D01*
X007072Y008344D01*
X007075Y008345D01*
X007079Y008345D01*
X007082Y008346D01*
X007083Y008346D01*
X007085Y008347D01*
Y008347D01*
Y008347D01*
X007085Y008348D01*
Y008349D01*
Y00835D01*
Y00835D01*
Y00835D01*
Y00835D01*
Y008351D01*
X007085Y008352D01*
X007084Y008354D01*
X007084Y008356D01*
X007083Y008357D01*
X007083Y008359D01*
X007081Y00836D01*
X007081Y00836D01*
X007081Y008361D01*
X007079Y008361D01*
X007078Y008362D01*
X007076Y008363D01*
X007074Y008364D01*
X007071Y008364D01*
X007068Y008364D01*
X007067D01*
X007065Y008364D01*
X007063Y008364D01*
X007061Y008363D01*
X007059Y008363D01*
X007057Y008362D01*
X007056Y008361D01*
X007055Y008361D01*
X007055Y008361D01*
X007054Y00836D01*
X007053Y008359D01*
X007053Y008357D01*
X007052Y008356D01*
X007051Y008353D01*
X00705Y008351D01*
X007038Y008352D01*
Y008353D01*
X007039Y008353D01*
Y008353D01*
X007039Y008354D01*
X007039Y008355D01*
X00704Y008357D01*
X00704Y008359D01*
X007041Y00836D01*
X007042Y008362D01*
X007044Y008364D01*
X007044Y008364D01*
X007044Y008365D01*
X007045Y008366D01*
X007046Y008367D01*
X007048Y008368D01*
X00705Y008369D01*
X007052Y00837D01*
X007054Y008371D01*
X007054D01*
X007054Y008371D01*
X007055Y008372D01*
X007055Y008372D01*
X007057Y008372D01*
X007059Y008373D01*
X007061Y008373D01*
X007064Y008373D01*
X007066Y008374D01*
X00707Y008374D01*
X007071D01*
X007073Y008374D01*
D02*
G37*
G36*
X006978Y008364D02*
X006978Y008364D01*
X006978Y008365D01*
X006978Y008365D01*
X006979Y008366D01*
X00698Y008366D01*
X006981Y008367D01*
X006982Y008368D01*
X006983Y008369D01*
X006985Y00837D01*
X006986Y008371D01*
X00699Y008372D01*
X006992Y008373D01*
X006994Y008373D01*
X006996Y008374D01*
X006998Y008374D01*
X006999D01*
X007001Y008374D01*
X007003Y008373D01*
X007005Y008373D01*
X007007Y008373D01*
X007009Y008372D01*
X007012Y008371D01*
X007012Y008371D01*
X007012Y00837D01*
X007013Y008369D01*
X007015Y008368D01*
X007016Y008367D01*
X007017Y008366D01*
X007019Y008364D01*
X00702Y008362D01*
X00702Y008362D01*
X00702Y008361D01*
X007021Y00836D01*
X007021Y008358D01*
X007021Y008356D01*
X007022Y008353D01*
X007022Y00835D01*
X007022Y008347D01*
Y008303D01*
X00701D01*
Y008347D01*
Y008347D01*
Y008347D01*
Y008348D01*
Y008348D01*
X00701Y00835D01*
X00701Y008352D01*
X007009Y008354D01*
X007009Y008356D01*
X007008Y008358D01*
X007007Y008359D01*
X007006Y00836D01*
X007006Y00836D01*
X007005Y008361D01*
X007004Y008362D01*
X007002Y008362D01*
X007Y008363D01*
X006998Y008364D01*
X006996Y008364D01*
X006995D01*
X006994Y008364D01*
X006993Y008363D01*
X006991Y008363D01*
X006989Y008363D01*
X006988Y008362D01*
X006986Y008361D01*
X006986Y008361D01*
X006985Y00836D01*
X006984Y00836D01*
X006984Y008359D01*
X006982Y008358D01*
X006981Y008357D01*
X00698Y008355D01*
X006979Y008353D01*
X006979Y008353D01*
X006979Y008353D01*
X006979Y008351D01*
X006979Y00835D01*
X006978Y008348D01*
X006978Y008346D01*
X006978Y008344D01*
X006978Y008341D01*
Y008303D01*
X006966D01*
Y008399D01*
X006978D01*
Y008364D01*
D02*
G37*
G36*
X006842Y008398D02*
X006843D01*
X006846Y008398D01*
X006849Y008398D01*
X006852Y008397D01*
X006855Y008397D01*
X006857Y008396D01*
X006858Y008396D01*
X006858D01*
X006858Y008396D01*
X006859Y008395D01*
X00686Y008395D01*
X006862Y008394D01*
X006864Y008393D01*
X006865Y008391D01*
X006867Y008389D01*
X006869Y008387D01*
Y008387D01*
X006869Y008387D01*
X006869Y008386D01*
X00687Y008384D01*
X006871Y008383D01*
X006871Y00838D01*
X006872Y008378D01*
X006873Y008375D01*
X006873Y008372D01*
Y008372D01*
Y008372D01*
Y008371D01*
X006873Y008371D01*
Y00837D01*
X006872Y008369D01*
X006872Y008366D01*
X006871Y008364D01*
X00687Y008361D01*
X006868Y008358D01*
X006867Y008356D01*
X006866Y008355D01*
X006866Y008355D01*
X006866Y008355D01*
X006865Y008354D01*
X006865Y008354D01*
X006864Y008353D01*
X006863Y008353D01*
X006862Y008352D01*
X006861Y008351D01*
X00686Y008351D01*
X006858Y00835D01*
X006856Y008349D01*
X006855Y008348D01*
X006853Y008348D01*
X006851Y008347D01*
X006848Y008347D01*
X006846Y008346D01*
X006846Y008346D01*
X006846Y008346D01*
X006847Y008345D01*
X006848Y008345D01*
X006851Y008343D01*
X006852Y008342D01*
X006853Y008341D01*
X006854Y008341D01*
X006854Y00834D01*
X006855Y008339D01*
X006857Y008338D01*
X006858Y008336D01*
X00686Y008334D01*
X006862Y008331D01*
X006864Y008329D01*
X00688Y008303D01*
X006865D01*
X006852Y008323D01*
Y008323D01*
X006852Y008323D01*
X006851Y008323D01*
X006851Y008324D01*
X00685Y008326D01*
X006849Y008327D01*
X006847Y00833D01*
X006846Y008332D01*
X006844Y008334D01*
X006843Y008336D01*
X006843Y008336D01*
X006842Y008336D01*
X006841Y008337D01*
X006841Y008338D01*
X006838Y00834D01*
X006837Y008341D01*
X006836Y008342D01*
X006836Y008342D01*
X006836Y008342D01*
X006835Y008343D01*
X006834Y008343D01*
X006834Y008344D01*
X006833Y008344D01*
X00683Y008345D01*
X00683D01*
X00683Y008345D01*
X006829D01*
X006829Y008345D01*
X006828Y008345D01*
X006827D01*
X006825Y008345D01*
X006809D01*
Y008303D01*
X006796D01*
Y008399D01*
X006841D01*
X006842Y008398D01*
D02*
G37*
G36*
X006922Y008374D02*
X006923Y008373D01*
X006924Y008373D01*
X006926Y008373D01*
X006928Y008373D01*
X006931Y008371D01*
X006933Y008371D01*
X006935Y00837D01*
X006937Y008369D01*
X006939Y008367D01*
X006941Y008366D01*
X006943Y008364D01*
X006943Y008364D01*
X006943Y008364D01*
X006944Y008363D01*
X006944Y008363D01*
X006945Y008362D01*
X006946Y00836D01*
X006946Y008359D01*
X006947Y008358D01*
X006948Y008356D01*
X006949Y008354D01*
X00695Y008352D01*
X00695Y008349D01*
X006951Y008347D01*
X006951Y008344D01*
X006952Y008341D01*
X006952Y008338D01*
Y008338D01*
Y008338D01*
Y008337D01*
Y008336D01*
X006952Y008335D01*
X006952Y008334D01*
Y008332D01*
X006951Y008331D01*
X006951Y008327D01*
X00695Y008324D01*
X006949Y00832D01*
X006948Y008317D01*
Y008317D01*
X006948Y008317D01*
X006947Y008316D01*
X006947Y008316D01*
X006946Y008315D01*
X006945Y008313D01*
X006943Y008311D01*
X006941Y008309D01*
X006939Y008307D01*
X006936Y008305D01*
X006936D01*
X006936Y008305D01*
X006935Y008305D01*
X006935Y008305D01*
X006934Y008304D01*
X006933Y008304D01*
X006931Y008303D01*
X006929Y008302D01*
X006926Y008302D01*
X006923Y008301D01*
X006919Y008301D01*
X006918D01*
X006917Y008301D01*
X006916Y008301D01*
X006914Y008302D01*
X006912Y008302D01*
X006911Y008302D01*
X006907Y008303D01*
X006905Y008304D01*
X006903Y008305D01*
X006901Y008306D01*
X006899Y008307D01*
X006897Y008309D01*
X006896Y00831D01*
X006895Y008311D01*
X006895Y008311D01*
X006895Y008311D01*
X006894Y008312D01*
X006893Y008313D01*
X006893Y008314D01*
X006892Y008316D01*
X006891Y008317D01*
X00689Y008319D01*
X006889Y008321D01*
X006889Y008323D01*
X006888Y008326D01*
X006888Y008328D01*
X006887Y008331D01*
X006887Y008334D01*
X006887Y008337D01*
Y008338D01*
Y008338D01*
X006887Y008339D01*
Y008341D01*
X006887Y008342D01*
X006887Y008344D01*
X006888Y008346D01*
X006888Y008348D01*
X006889Y00835D01*
X006889Y008353D01*
X00689Y008355D01*
X006891Y008358D01*
X006892Y00836D01*
X006894Y008362D01*
X006895Y008364D01*
X006897Y008366D01*
X006898Y008366D01*
X006898Y008366D01*
X006898Y008367D01*
X006899Y008367D01*
X0069Y008368D01*
X006901Y008368D01*
X006902Y008369D01*
X006903Y00837D01*
X006905Y008371D01*
X006907Y008371D01*
X00691Y008373D01*
X006915Y008373D01*
X006917Y008374D01*
X006919Y008374D01*
X006921D01*
X006922Y008374D01*
D02*
G37*
G36*
X012413Y013975D02*
X012414Y013975D01*
X012416Y013975D01*
X012417Y013975D01*
X012419Y013974D01*
X012423Y013973D01*
X012427Y013972D01*
X012429Y013971D01*
X012431Y01397D01*
X012433Y013969D01*
X012435Y013968D01*
X012435Y013968D01*
X012436Y013968D01*
X012436Y013967D01*
X012437Y013966D01*
X012438Y013966D01*
X012439Y013965D01*
X01244Y013964D01*
X012441Y013962D01*
X012442Y013961D01*
X012443Y013959D01*
X012444Y013958D01*
X012445Y013956D01*
X012446Y013954D01*
X012448Y013952D01*
X012448Y013949D01*
X012449Y013947D01*
X012437Y013944D01*
Y013944D01*
X012436Y013944D01*
X012436Y013945D01*
X012436Y013946D01*
X012436Y013946D01*
X012435Y013947D01*
X012434Y01395D01*
X012433Y013952D01*
X012431Y013955D01*
X012429Y013957D01*
X012427Y013959D01*
X012426Y01396D01*
X012425Y01396D01*
X012424Y013961D01*
X012422Y013962D01*
X01242Y013963D01*
X012417Y013964D01*
X012414Y013964D01*
X01241Y013964D01*
X012409D01*
X012409Y013964D01*
X012408D01*
X012406Y013964D01*
X012404Y013964D01*
X012401Y013963D01*
X012398Y013962D01*
X012394Y013961D01*
X012392Y013959D01*
X012391D01*
X012391Y013958D01*
X01239Y013958D01*
X012389Y013957D01*
X012387Y013955D01*
X012386Y013953D01*
X012384Y01395D01*
X012382Y013947D01*
X012381Y013944D01*
Y013944D01*
X012381Y013944D01*
X012381Y013943D01*
X012381Y013943D01*
X01238Y013942D01*
X01238Y013941D01*
X01238Y013938D01*
X012379Y013936D01*
X012378Y013933D01*
X012378Y013929D01*
X012378Y013926D01*
Y013925D01*
Y013925D01*
Y013924D01*
Y013923D01*
X012378Y013922D01*
Y013921D01*
X012378Y01392D01*
X012378Y013918D01*
X012379Y013915D01*
X01238Y013911D01*
X01238Y013907D01*
X012381Y013904D01*
Y013904D01*
X012382Y013903D01*
X012382Y013903D01*
X012382Y013902D01*
X012383Y013901D01*
X012384Y013899D01*
X012386Y013896D01*
X012388Y013894D01*
X01239Y013892D01*
X012393Y01389D01*
X012393D01*
X012393Y01389D01*
X012394Y013889D01*
X012394Y013889D01*
X012395Y013889D01*
X012396Y013888D01*
X012398Y013888D01*
X0124Y013887D01*
X012403Y013886D01*
X012406Y013885D01*
X012409Y013885D01*
X01241D01*
X012411Y013885D01*
X012412D01*
X012413Y013886D01*
X012416Y013886D01*
X012419Y013887D01*
X012422Y013888D01*
X012425Y01389D01*
X012426Y01389D01*
X012428Y013892D01*
X012428Y013892D01*
X012428Y013892D01*
X012428Y013892D01*
X012429Y013893D01*
X01243Y013893D01*
X01243Y013894D01*
X012431Y013895D01*
X012432Y013896D01*
X012433Y013897D01*
X012434Y013899D01*
X012435Y0139D01*
X012435Y013902D01*
X012436Y013904D01*
X012437Y013906D01*
X012437Y013908D01*
X012438Y01391D01*
X012451Y013907D01*
Y013907D01*
X012451Y013906D01*
X012451Y013905D01*
X01245Y013904D01*
X01245Y013903D01*
X012449Y013901D01*
X012448Y0139D01*
X012448Y013898D01*
X012446Y013894D01*
X012443Y01389D01*
X012442Y013888D01*
X01244Y013886D01*
X012438Y013884D01*
X012436Y013883D01*
X012436Y013883D01*
X012436Y013882D01*
X012435Y013882D01*
X012435Y013881D01*
X012433Y013881D01*
X012432Y01388D01*
X012431Y013879D01*
X012429Y013879D01*
X012427Y013878D01*
X012425Y013877D01*
X012423Y013876D01*
X012421Y013876D01*
X012419Y013875D01*
X012416Y013875D01*
X012413Y013874D01*
X012411Y013874D01*
X012409D01*
X012408Y013874D01*
X012407D01*
X012405Y013875D01*
X012403Y013875D01*
X012401Y013875D01*
X012397Y013876D01*
X012393Y013877D01*
X012389Y013879D01*
X012387Y01388D01*
X012385Y013881D01*
X012385Y013881D01*
X012384Y013881D01*
X012384Y013881D01*
X012383Y013882D01*
X012382Y013883D01*
X012381Y013883D01*
X01238Y013884D01*
X012379Y013885D01*
X012378Y013887D01*
X012377Y013888D01*
X012374Y013891D01*
X012372Y013895D01*
X01237Y013899D01*
Y013899D01*
X01237Y0139D01*
X012369Y013901D01*
X012369Y013901D01*
X012369Y013903D01*
X012368Y013904D01*
X012368Y013905D01*
X012367Y013907D01*
X012367Y013909D01*
X012366Y013911D01*
X012366Y013915D01*
X012365Y01392D01*
X012365Y013926D01*
Y013926D01*
Y013926D01*
Y013927D01*
X012365Y013928D01*
Y013929D01*
X012365Y013931D01*
X012365Y013933D01*
X012365Y013935D01*
X012366Y013939D01*
X012367Y013943D01*
X012369Y013948D01*
X012371Y013952D01*
X012371Y013952D01*
X012371Y013953D01*
X012371Y013953D01*
X012372Y013954D01*
X012372Y013955D01*
X012373Y013956D01*
X012375Y013958D01*
X012377Y013961D01*
X01238Y013964D01*
X012383Y013967D01*
X012387Y013969D01*
X012387Y013969D01*
X012388Y01397D01*
X012388Y01397D01*
X012389Y01397D01*
X01239Y013971D01*
X012391Y013971D01*
X012392Y013972D01*
X012394Y013972D01*
X012396Y013973D01*
X012398Y013973D01*
X012402Y013974D01*
X012406Y013975D01*
X012411Y013975D01*
X012412D01*
X012413Y013975D01*
D02*
G37*
G36*
X012544Y013876D02*
X01253D01*
X012479Y013953D01*
Y013876D01*
X012467D01*
Y013974D01*
X01248D01*
X012531Y013897D01*
Y013974D01*
X012544D01*
Y013876D01*
D02*
G37*
G36*
X012595Y013974D02*
X012596Y013974D01*
X012598Y013974D01*
X012599Y013973D01*
X012601Y013973D01*
X012604Y013972D01*
X012608Y013971D01*
X01261Y01397D01*
X012612Y013969D01*
X012613Y013968D01*
X012615Y013966D01*
X012615Y013966D01*
X012615Y013966D01*
X012616Y013965D01*
X012616Y013965D01*
X012617Y013964D01*
X012618Y013963D01*
X012618Y013962D01*
X012619Y013961D01*
X012621Y013958D01*
X012622Y013955D01*
X012623Y013953D01*
X012623Y013951D01*
X012623Y013949D01*
X012623Y013947D01*
Y013947D01*
Y013946D01*
X012623Y013945D01*
X012623Y013943D01*
X012623Y013942D01*
X012622Y01394D01*
X012622Y013937D01*
X012621Y013935D01*
X012621Y013935D01*
X01262Y013934D01*
X01262Y013933D01*
X012619Y013932D01*
X012618Y01393D01*
X012616Y013928D01*
X012615Y013926D01*
X012613Y013923D01*
X012612Y013923D01*
X012612Y013922D01*
X012611Y013922D01*
X01261Y013921D01*
X012609Y01392D01*
X012608Y013919D01*
X012607Y013918D01*
X012606Y013916D01*
X012604Y013915D01*
X012603Y013914D01*
X012601Y013912D01*
X012599Y01391D01*
X012597Y013908D01*
X012594Y013906D01*
X012594Y013906D01*
X012594Y013906D01*
X012593Y013905D01*
X012593Y013905D01*
X012592Y013904D01*
X012591Y013903D01*
X012589Y013901D01*
X012586Y013899D01*
X012584Y013897D01*
X012582Y013895D01*
X012581Y013895D01*
X01258Y013894D01*
X01258Y013894D01*
X01258Y013893D01*
X012579Y013893D01*
X012579Y013892D01*
X012578Y013891D01*
X012577Y01389D01*
X012575Y013888D01*
X012623D01*
Y013876D01*
X012559D01*
Y013876D01*
Y013877D01*
Y013878D01*
X012559Y013879D01*
X012559Y01388D01*
X012559Y013881D01*
X01256Y013883D01*
X01256Y013884D01*
Y013884D01*
X01256Y013885D01*
X012561Y013885D01*
X012561Y013887D01*
X012562Y013888D01*
X012563Y01389D01*
X012564Y013893D01*
X012566Y013895D01*
X012568Y013897D01*
Y013897D01*
X012568Y013898D01*
X012569Y013898D01*
X01257Y0139D01*
X012572Y013902D01*
X012574Y013904D01*
X012577Y013906D01*
X01258Y013909D01*
X012584Y013912D01*
X012584Y013912D01*
X012584Y013913D01*
X012585Y013913D01*
X012586Y013914D01*
X012587Y013915D01*
X012589Y013916D01*
X012591Y013918D01*
X012592Y013919D01*
X012596Y013923D01*
X012599Y013926D01*
X012601Y013928D01*
X012603Y01393D01*
X012604Y013931D01*
X012605Y013933D01*
Y013933D01*
X012605Y013933D01*
X012606Y013933D01*
X012606Y013934D01*
X012607Y013936D01*
X012608Y013937D01*
X012609Y01394D01*
X01261Y013942D01*
X012611Y013945D01*
X012611Y013947D01*
Y013947D01*
Y013947D01*
X012611Y013948D01*
X012611Y01395D01*
X01261Y013951D01*
X01261Y013953D01*
X012609Y013955D01*
X012607Y013957D01*
X012606Y013959D01*
X012605Y013959D01*
X012605Y01396D01*
X012604Y013961D01*
X012602Y013962D01*
X0126Y013963D01*
X012598Y013963D01*
X012595Y013964D01*
X012592Y013964D01*
X012592D01*
X012591Y013964D01*
X012589Y013964D01*
X012587Y013963D01*
X012585Y013963D01*
X012583Y013962D01*
X012581Y013961D01*
X012578Y013959D01*
X012578Y013959D01*
X012578Y013958D01*
X012577Y013957D01*
X012576Y013955D01*
X012575Y013953D01*
X012574Y013951D01*
X012573Y013948D01*
X012573Y013945D01*
X012561Y013946D01*
Y013946D01*
X012561Y013946D01*
Y013947D01*
X012561Y013948D01*
X012562Y013949D01*
X012562Y01395D01*
X012562Y013952D01*
X012563Y013954D01*
X012564Y013957D01*
X012565Y01396D01*
X012566Y013962D01*
X012568Y013964D01*
X012569Y013965D01*
X01257Y013967D01*
X012571Y013967D01*
X012571Y013967D01*
X012571Y013967D01*
X012572Y013968D01*
X012573Y013968D01*
X012574Y013969D01*
X012575Y01397D01*
X012576Y01397D01*
X012578Y013971D01*
X01258Y013972D01*
X012581Y013972D01*
X012583Y013973D01*
X012585Y013973D01*
X012588Y013974D01*
X01259Y013974D01*
X012593Y013974D01*
X012594D01*
X012595Y013974D01*
D02*
G37*
G36*
X011977Y013698D02*
X011978D01*
X011981Y013698D01*
X011984Y013698D01*
X011987Y013697D01*
X01199Y013696D01*
X011993Y013695D01*
X011993D01*
X011994Y013695D01*
X011994Y013694D01*
X011995Y013694D01*
X011996Y013693D01*
X011998Y013692D01*
X012Y013691D01*
X012002Y013689D01*
X012004Y013687D01*
X012006Y013684D01*
Y013684D01*
X012006Y013684D01*
X012006Y013684D01*
X012007Y013683D01*
X012007Y013682D01*
X012008Y01368D01*
X012009Y013678D01*
X01201Y013675D01*
X012011Y013672D01*
X012011Y013669D01*
X011999Y013668D01*
Y013668D01*
Y013669D01*
X011998Y013669D01*
X011998Y01367D01*
X011998Y013671D01*
X011997Y013673D01*
X011996Y013676D01*
X011995Y013678D01*
X011994Y01368D01*
X011992Y013682D01*
X011991Y013682D01*
X011991Y013683D01*
X011989Y013684D01*
X011987Y013684D01*
X011985Y013685D01*
X011982Y013686D01*
X011979Y013687D01*
X011975Y013687D01*
X011973D01*
X011972Y013687D01*
X011971Y013687D01*
X011968Y013686D01*
X011965Y013686D01*
X011963Y013685D01*
X01196Y013684D01*
X011959Y013683D01*
X011958Y013682D01*
X011957Y013682D01*
X011957Y013682D01*
X011956Y013681D01*
X011955Y01368D01*
X011954Y013678D01*
X011953Y013676D01*
X011953Y013674D01*
X011952Y013672D01*
Y013672D01*
Y013671D01*
X011953Y01367D01*
X011953Y013669D01*
X011953Y013668D01*
X011954Y013666D01*
X011955Y013665D01*
X011956Y013664D01*
X011956Y013663D01*
X011957Y013663D01*
X011958Y013663D01*
X011958Y013662D01*
X011959Y013662D01*
X01196Y013661D01*
X011961Y013661D01*
X011963Y01366D01*
X011964Y01366D01*
X011966Y013659D01*
X011968Y013659D01*
X01197Y013658D01*
X011973Y013657D01*
X011976Y013657D01*
X011976D01*
X011976Y013656D01*
X011977Y013656D01*
X011978Y013656D01*
X011979Y013656D01*
X011981Y013655D01*
X011982Y013655D01*
X011984Y013654D01*
X011988Y013653D01*
X011991Y013652D01*
X011993Y013652D01*
X011995Y013651D01*
X011996Y013651D01*
X011997Y01365D01*
X011997D01*
X011998Y01365D01*
X011998Y01365D01*
X011999Y01365D01*
X012Y013649D01*
X012002Y013648D01*
X012004Y013646D01*
X012006Y013644D01*
X012008Y013642D01*
X01201Y01364D01*
X01201Y01364D01*
X012011Y013639D01*
X012011Y013638D01*
X012012Y013636D01*
X012013Y013634D01*
X012013Y013632D01*
X012014Y013629D01*
X012014Y013627D01*
Y013626D01*
Y013626D01*
Y013626D01*
Y013625D01*
X012014Y013624D01*
X012013Y013622D01*
X012013Y013619D01*
X012012Y013617D01*
X012011Y013615D01*
X012009Y013612D01*
Y013612D01*
X012009Y013612D01*
X012009Y013611D01*
X012008Y013609D01*
X012006Y013608D01*
X012004Y013606D01*
X012002Y013605D01*
X012Y013603D01*
X011997Y013601D01*
X011996D01*
X011996Y013601D01*
X011996Y013601D01*
X011995Y013601D01*
X011994Y0136D01*
X011993Y0136D01*
X011991Y013599D01*
X011988Y013599D01*
X011985Y013598D01*
X011982Y013598D01*
X011978Y013597D01*
X011976D01*
X011974Y013598D01*
X011973D01*
X011972Y013598D01*
X01197Y013598D01*
X011967Y013598D01*
X011963Y013599D01*
X011959Y0136D01*
X011956Y013601D01*
X011956D01*
X011955Y013601D01*
X011955Y013602D01*
X011954Y013602D01*
X011953Y013603D01*
X011951Y013604D01*
X011948Y013606D01*
X011946Y013608D01*
X011944Y01361D01*
X011942Y013613D01*
Y013613D01*
X011941Y013613D01*
X011941Y013614D01*
X011941Y013614D01*
X01194Y013615D01*
X01194Y013616D01*
X011939Y013618D01*
X011938Y013621D01*
X011937Y013624D01*
X011937Y013627D01*
X011936Y01363D01*
X011949Y013632D01*
Y013631D01*
Y013631D01*
X011949Y013631D01*
Y01363D01*
X011949Y013629D01*
X011949Y013627D01*
X01195Y013625D01*
X01195Y013623D01*
X011951Y013621D01*
X011952Y013619D01*
X011953Y013619D01*
X011953Y013619D01*
X011954Y013618D01*
X011955Y013617D01*
X011956Y013616D01*
X011958Y013614D01*
X01196Y013613D01*
X011962Y013612D01*
X011962D01*
X011962Y013612D01*
X011963Y013612D01*
X011963Y013611D01*
X011965Y013611D01*
X011967Y01361D01*
X011969Y01361D01*
X011971Y013609D01*
X011974Y013609D01*
X011977Y013609D01*
X011979D01*
X01198Y013609D01*
X011982Y013609D01*
X011984Y01361D01*
X011986Y01361D01*
X011988Y01361D01*
X01199Y013611D01*
X011991Y013611D01*
X011991Y013612D01*
X011992Y013612D01*
X011993Y013613D01*
X011995Y013614D01*
X011996Y013615D01*
X011998Y013616D01*
X011999Y013617D01*
X011999Y013617D01*
X011999Y013618D01*
X012Y013619D01*
X012Y01362D01*
X012001Y013621D01*
X012001Y013622D01*
X012001Y013624D01*
X012002Y013626D01*
Y013626D01*
Y013626D01*
X012001Y013627D01*
X012001Y013628D01*
X012001Y013629D01*
X012Y013631D01*
X012Y013632D01*
X011999Y013634D01*
X011999Y013634D01*
X011998Y013634D01*
X011998Y013635D01*
X011997Y013636D01*
X011995Y013636D01*
X011994Y013637D01*
X011992Y013638D01*
X01199Y013639D01*
X01199Y013639D01*
X011989Y013639D01*
X011988Y01364D01*
X011987Y01364D01*
X011986Y01364D01*
X011985Y013641D01*
X011984Y013641D01*
X011983Y013641D01*
X011981Y013642D01*
X011979Y013642D01*
X011977Y013643D01*
X011975Y013643D01*
X011973Y013644D01*
X011972D01*
X011972Y013644D01*
X011971Y013644D01*
X011971Y013645D01*
X011969Y013645D01*
X011968Y013645D01*
X011965Y013646D01*
X011962Y013647D01*
X011959Y013648D01*
X011956Y013649D01*
X011955Y013649D01*
X011954Y01365D01*
X011954D01*
X011953Y01365D01*
X011953Y013651D01*
X011951Y013651D01*
X01195Y013653D01*
X011948Y013654D01*
X011947Y013655D01*
X011945Y013657D01*
X011943Y013659D01*
X011943Y013659D01*
X011943Y01366D01*
X011942Y013661D01*
X011942Y013663D01*
X011941Y013665D01*
X011941Y013667D01*
X01194Y013669D01*
X01194Y013671D01*
Y013671D01*
Y013672D01*
Y013672D01*
Y013673D01*
X01194Y013674D01*
X011941Y013676D01*
X011941Y013678D01*
X011942Y01368D01*
X011943Y013683D01*
X011944Y013685D01*
Y013685D01*
X011944Y013685D01*
X011945Y013686D01*
X011946Y013687D01*
X011947Y013689D01*
X011949Y01369D01*
X011951Y013692D01*
X011954Y013694D01*
X011956Y013695D01*
X011957D01*
X011957Y013695D01*
X011957Y013695D01*
X011958Y013696D01*
X011959Y013696D01*
X01196Y013696D01*
X011962Y013697D01*
X011964Y013697D01*
X011967Y013698D01*
X011971Y013698D01*
X011974Y013698D01*
X011976D01*
X011977Y013698D01*
D02*
G37*
G36*
X012121Y013599D02*
X012109D01*
X012088Y013673D01*
Y013674D01*
X012088Y013674D01*
X012088Y013674D01*
X012088Y013675D01*
X012088Y013677D01*
X012087Y013678D01*
X012087Y01368D01*
X012086Y013682D01*
X012086Y013684D01*
X012085Y013684D01*
X012085Y013685D01*
Y013685D01*
X012085Y013685D01*
X012085Y013684D01*
X012085Y013682D01*
X012084Y013681D01*
X012084Y013679D01*
X012083Y013677D01*
X012083Y013675D01*
X012082Y013673D01*
X012062Y013599D01*
X012048D01*
X012023Y013697D01*
X012036D01*
X012051Y013633D01*
Y013633D01*
X012051Y013632D01*
X012051Y013632D01*
X012051Y013631D01*
X012051Y01363D01*
X012051Y013629D01*
X012052Y013628D01*
X012052Y013626D01*
X012053Y013623D01*
X012053Y01362D01*
X012054Y013616D01*
X012055Y013613D01*
Y013613D01*
X012055Y013613D01*
X012055Y013614D01*
X012055Y013615D01*
X012056Y013616D01*
X012056Y013618D01*
X012057Y013621D01*
X012058Y013624D01*
X012058Y013626D01*
X012058Y013627D01*
X012059Y013628D01*
X012059Y013629D01*
X012059Y01363D01*
X012059Y013631D01*
X012078Y013697D01*
X012093D01*
X012107Y013647D01*
Y013647D01*
X012108Y013646D01*
X012108Y013645D01*
X012108Y013644D01*
X012109Y013642D01*
X012109Y013641D01*
X01211Y013638D01*
X01211Y013636D01*
X012111Y013633D01*
X012111Y013631D01*
X012113Y013625D01*
X012114Y013619D01*
X012115Y013613D01*
Y013613D01*
X012115Y013613D01*
Y013614D01*
X012115Y013614D01*
X012116Y013615D01*
X012116Y013616D01*
X012116Y013617D01*
X012116Y013619D01*
X012117Y013622D01*
X012118Y013626D01*
X012119Y01363D01*
X01212Y013634D01*
X012135Y013697D01*
X012148D01*
X012121Y013599D01*
D02*
G37*
G36*
X01219Y013697D02*
X012191Y013697D01*
X012193Y013697D01*
X012194Y013696D01*
X012196Y013696D01*
X012199Y013695D01*
X012203Y013694D01*
X012205Y013693D01*
X012207Y013692D01*
X012208Y013691D01*
X01221Y013689D01*
X01221Y013689D01*
X01221Y013689D01*
X012211Y013688D01*
X012211Y013688D01*
X012212Y013687D01*
X012213Y013686D01*
X012213Y013685D01*
X012214Y013684D01*
X012216Y013681D01*
X012217Y013678D01*
X012218Y013676D01*
X012218Y013674D01*
X012218Y013672D01*
X012218Y01367D01*
Y01367D01*
Y013669D01*
X012218Y013668D01*
X012218Y013666D01*
X012218Y013665D01*
X012217Y013663D01*
X012217Y013661D01*
X012216Y013659D01*
X012216Y013658D01*
X012215Y013658D01*
X012215Y013656D01*
X012214Y013655D01*
X012213Y013653D01*
X012211Y013651D01*
X01221Y013649D01*
X012208Y013647D01*
X012207Y013646D01*
X012207Y013645D01*
X012206Y013645D01*
X012205Y013644D01*
X012205Y013643D01*
X012203Y013642D01*
X012202Y013641D01*
X012201Y01364D01*
X012199Y013638D01*
X012198Y013637D01*
X012196Y013635D01*
X012194Y013633D01*
X012192Y013631D01*
X012189Y013629D01*
X012189Y013629D01*
X012189Y013629D01*
X012188Y013629D01*
X012188Y013628D01*
X012187Y013627D01*
X012186Y013626D01*
X012184Y013625D01*
X012181Y013622D01*
X012179Y01362D01*
X012177Y013618D01*
X012176Y013618D01*
X012175Y013617D01*
X012175Y013617D01*
X012175Y013616D01*
X012174Y013616D01*
X012174Y013615D01*
X012173Y013614D01*
X012172Y013613D01*
X01217Y013611D01*
X012218D01*
Y013599D01*
X012154D01*
Y013599D01*
Y0136D01*
Y013601D01*
X012154Y013602D01*
X012154Y013603D01*
X012154Y013605D01*
X012155Y013606D01*
X012155Y013607D01*
Y013608D01*
X012155Y013608D01*
X012156Y013609D01*
X012156Y01361D01*
X012157Y013612D01*
X012158Y013614D01*
X01216Y013616D01*
X012161Y013618D01*
X012163Y01362D01*
Y013621D01*
X012163Y013621D01*
X012164Y013622D01*
X012165Y013623D01*
X012167Y013625D01*
X012169Y013627D01*
X012172Y013629D01*
X012175Y013632D01*
X012179Y013635D01*
X012179Y013635D01*
X012179Y013636D01*
X01218Y013636D01*
X012181Y013637D01*
X012183Y013638D01*
X012184Y01364D01*
X012186Y013641D01*
X012187Y013643D01*
X012191Y013646D01*
X012195Y013649D01*
X012196Y013651D01*
X012198Y013653D01*
X012199Y013654D01*
X0122Y013656D01*
Y013656D01*
X012201Y013656D01*
X012201Y013657D01*
X012201Y013657D01*
X012202Y013659D01*
X012203Y01366D01*
X012204Y013663D01*
X012205Y013665D01*
X012206Y013668D01*
X012206Y01367D01*
Y01367D01*
Y013671D01*
X012206Y013671D01*
X012206Y013673D01*
X012205Y013674D01*
X012205Y013676D01*
X012204Y013678D01*
X012203Y01368D01*
X012201Y013682D01*
X012201Y013683D01*
X0122Y013683D01*
X012199Y013684D01*
X012197Y013685D01*
X012195Y013686D01*
X012193Y013687D01*
X01219Y013687D01*
X012187Y013687D01*
X012187D01*
X012186Y013687D01*
X012184Y013687D01*
X012182Y013687D01*
X01218Y013686D01*
X012178Y013685D01*
X012176Y013684D01*
X012174Y013682D01*
X012173Y013682D01*
X012173Y013681D01*
X012172Y01368D01*
X012171Y013678D01*
X01217Y013676D01*
X012169Y013674D01*
X012169Y013671D01*
X012168Y013668D01*
X012156Y013669D01*
Y013669D01*
X012156Y01367D01*
Y01367D01*
X012156Y013671D01*
X012157Y013672D01*
X012157Y013674D01*
X012157Y013675D01*
X012158Y013677D01*
X012159Y01368D01*
X012161Y013683D01*
X012162Y013685D01*
X012163Y013687D01*
X012164Y013688D01*
X012165Y01369D01*
X012166Y01369D01*
X012166Y01369D01*
X012166Y013691D01*
X012167Y013691D01*
X012168Y013691D01*
X012169Y013692D01*
X01217Y013693D01*
X012171Y013693D01*
X012173Y013694D01*
X012175Y013695D01*
X012176Y013695D01*
X012178Y013696D01*
X012181Y013696D01*
X012183Y013697D01*
X012185Y013697D01*
X012188Y013697D01*
X012189D01*
X01219Y013697D01*
D02*
G37*
G36*
X010462Y012822D02*
X010462Y012821D01*
X010462Y012821D01*
X010461Y012821D01*
X010461Y01282D01*
X01046Y012819D01*
X010459Y012818D01*
X010457Y012816D01*
X010456Y012815D01*
X010455Y012813D01*
X010453Y012811D01*
X010452Y012809D01*
X01045Y012806D01*
X010449Y012804D01*
X010447Y012801D01*
X010445Y012798D01*
X010443Y012795D01*
X010443Y012795D01*
X010443Y012795D01*
X010443Y012794D01*
X010442Y012792D01*
X010441Y012791D01*
X01044Y012789D01*
X010439Y012787D01*
X010438Y012785D01*
X010437Y012782D01*
X010436Y01278D01*
X010435Y012777D01*
X010434Y012774D01*
X010432Y012768D01*
X010429Y012762D01*
Y012761D01*
X010429Y012761D01*
X010429Y01276D01*
X010429Y012759D01*
X010429Y012758D01*
X010428Y012757D01*
X010428Y012755D01*
X010428Y012754D01*
X010427Y012752D01*
X010427Y01275D01*
X010426Y012745D01*
X010425Y01274D01*
X010425Y012735D01*
X010413D01*
Y012735D01*
Y012735D01*
Y012736D01*
X010413Y012737D01*
Y012738D01*
X010413Y012739D01*
X010413Y012741D01*
X010413Y012743D01*
X010413Y012744D01*
X010414Y012746D01*
X010414Y012749D01*
X010415Y012751D01*
X010415Y012754D01*
X010416Y012757D01*
X010417Y012762D01*
Y012763D01*
X010417Y012763D01*
X010417Y012764D01*
X010418Y012765D01*
X010418Y012767D01*
X010419Y012768D01*
X010419Y01277D01*
X01042Y012772D01*
X010421Y012775D01*
X010422Y012777D01*
X010424Y012783D01*
X010427Y012788D01*
X010429Y012794D01*
X01043Y012794D01*
X01043Y012795D01*
X01043Y012795D01*
X010431Y012796D01*
X010432Y012798D01*
X010432Y012799D01*
X010433Y012801D01*
X010435Y012803D01*
X010437Y012807D01*
X01044Y012811D01*
X010443Y012815D01*
X010447Y012819D01*
X010399D01*
Y012831D01*
X010462D01*
Y012822D01*
D02*
G37*
G36*
X010351Y012832D02*
X010352D01*
X010355Y012832D01*
X010358Y012832D01*
X010362Y012831D01*
X010365Y01283D01*
X010367Y01283D01*
X010368Y01283D01*
X010368D01*
X010368Y012829D01*
X010369Y012829D01*
X01037Y012829D01*
X010372Y012828D01*
X010373Y012826D01*
X010375Y012825D01*
X010377Y012823D01*
X010379Y01282D01*
Y01282D01*
X010379Y01282D01*
X010379Y012819D01*
X01038Y012818D01*
X010381Y012816D01*
X010381Y012814D01*
X010382Y012811D01*
X010383Y012809D01*
X010383Y012806D01*
Y012806D01*
Y012805D01*
Y012805D01*
X010383Y012804D01*
Y012803D01*
X010382Y012802D01*
X010382Y0128D01*
X010381Y012797D01*
X01038Y012794D01*
X010378Y012791D01*
X010377Y012789D01*
X010376Y012788D01*
X010376Y012788D01*
X010376Y012788D01*
X010375Y012787D01*
X010375Y012787D01*
X010374Y012786D01*
X010373Y012786D01*
X010372Y012785D01*
X010371Y012784D01*
X010369Y012784D01*
X010368Y012783D01*
X010366Y012782D01*
X010364Y012781D01*
X010362Y012781D01*
X01036Y01278D01*
X010358Y01278D01*
X010355Y012779D01*
X010356Y012779D01*
X010356Y012779D01*
X010357Y012778D01*
X010358Y012778D01*
X010361Y012776D01*
X010362Y012775D01*
X010363Y012774D01*
X010363Y012774D01*
X010364Y012773D01*
X010365Y012772D01*
X010367Y012771D01*
X010368Y012769D01*
X01037Y012767D01*
X010372Y012764D01*
X010374Y012761D01*
X01039Y012735D01*
X010374D01*
X010362Y012755D01*
Y012755D01*
X010361Y012755D01*
X010361Y012756D01*
X010361Y012756D01*
X01036Y012758D01*
X010358Y01276D01*
X010357Y012762D01*
X010355Y012764D01*
X010354Y012766D01*
X010352Y012768D01*
X010352Y012769D01*
X010352Y012769D01*
X010351Y01277D01*
X01035Y012771D01*
X010348Y012773D01*
X010347Y012774D01*
X010346Y012775D01*
X010346Y012775D01*
X010345Y012775D01*
X010345Y012775D01*
X010344Y012776D01*
X010343Y012776D01*
X010342Y012777D01*
X01034Y012777D01*
X01034D01*
X010339Y012778D01*
X010339D01*
X010338Y012778D01*
X010337Y012778D01*
X010336D01*
X010334Y012778D01*
X010318D01*
Y012735D01*
X010305D01*
Y012832D01*
X01035D01*
X010351Y012832D01*
D02*
G37*
G36*
X010686Y012833D02*
X010687D01*
X010688Y012833D01*
X010691Y012833D01*
X010694Y012832D01*
X010697Y012831D01*
X0107Y012829D01*
X010702Y012828D01*
X010703Y012827D01*
X010703Y012827D01*
X010703Y012827D01*
X010704Y012826D01*
X010704Y012826D01*
X010705Y012825D01*
X010705Y012824D01*
X010707Y012822D01*
X010708Y01282D01*
X01071Y012817D01*
X010711Y012813D01*
X010712Y012809D01*
X0107Y012808D01*
Y012808D01*
X0107Y012809D01*
X0107Y012809D01*
X010699Y012811D01*
X010699Y012812D01*
X010698Y012814D01*
X010697Y012816D01*
X010696Y012817D01*
X010695Y012818D01*
X010695Y012819D01*
X010695Y012819D01*
X010694Y01282D01*
X010692Y012821D01*
X01069Y012822D01*
X010688Y012823D01*
X010686Y012823D01*
X010683Y012824D01*
X010682D01*
X010681Y012824D01*
X01068Y012823D01*
X010678Y012823D01*
X010677Y012822D01*
X010675Y012822D01*
X010673Y01282D01*
X010673Y01282D01*
X010672Y01282D01*
X010671Y012819D01*
X01067Y012817D01*
X010669Y012816D01*
X010667Y012814D01*
X010666Y012811D01*
X010664Y012808D01*
Y012808D01*
X010664Y012808D01*
X010664Y012807D01*
X010664Y012807D01*
X010664Y012806D01*
X010663Y012805D01*
X010663Y012804D01*
X010663Y012803D01*
X010662Y012801D01*
X010662Y012799D01*
X010662Y012797D01*
X010662Y012795D01*
X010661Y012793D01*
X010661Y012791D01*
X010661Y012788D01*
Y012786D01*
X010661Y012786D01*
X010662Y012787D01*
X010663Y012788D01*
X010664Y012789D01*
X010665Y012791D01*
X010667Y012793D01*
X010669Y012794D01*
X010671Y012796D01*
X010672D01*
X010672Y012796D01*
X010673Y012796D01*
X010674Y012797D01*
X010676Y012797D01*
X010677Y012798D01*
X01068Y012798D01*
X010682Y012799D01*
X010685Y012799D01*
X010686D01*
X010687Y012799D01*
X010688Y012799D01*
X010689Y012798D01*
X01069Y012798D01*
X010692Y012798D01*
X010695Y012797D01*
X010697Y012796D01*
X010698Y012795D01*
X0107Y012794D01*
X010702Y012793D01*
X010704Y012792D01*
X010705Y01279D01*
X010705Y01279D01*
X010706Y01279D01*
X010706Y012789D01*
X010706Y012788D01*
X010707Y012787D01*
X010708Y012786D01*
X010708Y012785D01*
X010709Y012784D01*
X01071Y012782D01*
X010711Y012781D01*
X010712Y012779D01*
X010712Y012777D01*
X010713Y012774D01*
X010713Y012772D01*
X010713Y01277D01*
X010714Y012767D01*
Y012767D01*
Y012767D01*
Y012766D01*
Y012766D01*
X010713Y012765D01*
Y012764D01*
X010713Y012762D01*
X010713Y012759D01*
X010712Y012756D01*
X010711Y012753D01*
X010709Y01275D01*
Y01275D01*
X010709Y01275D01*
X010709Y012749D01*
X010709Y012749D01*
X010708Y012747D01*
X010707Y012746D01*
X010705Y012744D01*
X010703Y012742D01*
X010701Y01274D01*
X010699Y012738D01*
X010698D01*
X010698Y012738D01*
X010698Y012738D01*
X010697Y012737D01*
X010696Y012737D01*
X010694Y012736D01*
X010692Y012735D01*
X010689Y012735D01*
X010686Y012734D01*
X010683Y012734D01*
X010682D01*
X010681Y012734D01*
X01068D01*
X010679Y012734D01*
X010678Y012734D01*
X010676Y012735D01*
X010674Y012735D01*
X010672Y012736D01*
X01067Y012737D01*
X010668Y012737D01*
X010666Y012739D01*
X010664Y01274D01*
X010662Y012741D01*
X01066Y012743D01*
X010658Y012745D01*
X010658Y012745D01*
X010658Y012745D01*
X010658Y012746D01*
X010657Y012747D01*
X010656Y012748D01*
X010655Y01275D01*
X010655Y012751D01*
X010654Y012753D01*
X010653Y012756D01*
X010652Y012759D01*
X010651Y012761D01*
X010651Y012765D01*
X01065Y012768D01*
X010649Y012772D01*
X010649Y012777D01*
X010649Y012781D01*
Y012781D01*
Y012781D01*
Y012782D01*
Y012782D01*
X010649Y012784D01*
Y012786D01*
X010649Y012788D01*
X01065Y012791D01*
X01065Y012794D01*
X01065Y012797D01*
X010651Y0128D01*
X010652Y012804D01*
X010652Y012807D01*
X010653Y01281D01*
X010655Y012814D01*
X010656Y012817D01*
X010658Y01282D01*
X010659Y012822D01*
X01066Y012822D01*
X01066Y012823D01*
X01066Y012823D01*
X010661Y012824D01*
X010662Y012825D01*
X010663Y012826D01*
X010665Y012827D01*
X010666Y012828D01*
X010668Y012829D01*
X010669Y01283D01*
X010672Y012831D01*
X010674Y012832D01*
X010676Y012833D01*
X010679Y012833D01*
X010681Y012833D01*
X010684Y012834D01*
X010685D01*
X010686Y012833D01*
D02*
G37*
G36*
X010603Y012833D02*
X010604D01*
X010607Y012833D01*
X01061Y012832D01*
X010613Y012832D01*
X010616Y012831D01*
X010618Y012831D01*
X010619Y01283D01*
X010619D01*
X01062Y01283D01*
X01062Y01283D01*
X010622Y012829D01*
X010623Y012828D01*
X010625Y012827D01*
X010627Y012825D01*
X010628Y012823D01*
X01063Y012821D01*
Y012821D01*
X01063Y012821D01*
X010631Y01282D01*
X010631Y012819D01*
X010632Y012817D01*
X010633Y012815D01*
X010634Y012812D01*
X010634Y012809D01*
X010634Y012806D01*
Y012806D01*
Y012806D01*
Y012805D01*
X010634Y012805D01*
Y012804D01*
X010634Y012803D01*
X010633Y0128D01*
X010633Y012798D01*
X010631Y012795D01*
X01063Y012792D01*
X010629Y01279D01*
X010627Y012789D01*
X010627Y012789D01*
X010627Y012789D01*
X010627Y012788D01*
X010626Y012788D01*
X010625Y012787D01*
X010625Y012787D01*
X010623Y012786D01*
X010622Y012785D01*
X010621Y012784D01*
X010619Y012784D01*
X010618Y012783D01*
X010616Y012782D01*
X010614Y012782D01*
X010612Y012781D01*
X010609Y01278D01*
X010607Y01278D01*
X010607Y01278D01*
X010608Y01278D01*
X010608Y012779D01*
X01061Y012778D01*
X010612Y012777D01*
X010613Y012776D01*
X010614Y012775D01*
X010615Y012775D01*
X010615Y012774D01*
X010617Y012773D01*
X010618Y012772D01*
X01062Y01277D01*
X010621Y012767D01*
X010623Y012765D01*
X010625Y012762D01*
X010642Y012736D01*
X010626D01*
X010613Y012756D01*
Y012756D01*
X010613Y012756D01*
X010612Y012757D01*
X010612Y012757D01*
X010611Y012759D01*
X01061Y012761D01*
X010608Y012763D01*
X010607Y012765D01*
X010605Y012767D01*
X010604Y012769D01*
X010604Y012769D01*
X010603Y01277D01*
X010602Y012771D01*
X010601Y012772D01*
X010599Y012774D01*
X010598Y012775D01*
X010597Y012776D01*
X010597Y012776D01*
X010597Y012776D01*
X010596Y012776D01*
X010595Y012777D01*
X010594Y012777D01*
X010593Y012778D01*
X010591Y012778D01*
X010591D01*
X010591Y012778D01*
X01059D01*
X01059Y012779D01*
X010589Y012779D01*
X010587D01*
X010586Y012779D01*
X010569D01*
Y012736D01*
X010556D01*
Y012833D01*
X010601D01*
X010603Y012833D01*
D02*
G37*
G36*
X010959Y01282D02*
X010919D01*
X010914Y012794D01*
X010914Y012794D01*
X010915Y012794D01*
X010915Y012795D01*
X010916Y012795D01*
X010917Y012795D01*
X010918Y012796D01*
X01092Y012797D01*
X010923Y012798D01*
X010926Y012799D01*
X010929Y0128D01*
X010931Y0128D01*
X010934D01*
X010935Y0128D01*
X010936Y0128D01*
X010937Y0128D01*
X010939Y0128D01*
X01094Y012799D01*
X010944Y012798D01*
X010945Y012797D01*
X010947Y012796D01*
X010949Y012795D01*
X010951Y012794D01*
X010953Y012793D01*
X010954Y012791D01*
X010954Y012791D01*
X010955Y012791D01*
X010955Y012791D01*
X010956Y01279D01*
X010956Y012789D01*
X010957Y012788D01*
X010958Y012787D01*
X010959Y012785D01*
X01096Y012784D01*
X01096Y012782D01*
X010961Y01278D01*
X010962Y012778D01*
X010962Y012776D01*
X010963Y012773D01*
X010963Y012771D01*
X010963Y012769D01*
Y012768D01*
Y012768D01*
Y012767D01*
X010963Y012766D01*
X010963Y012765D01*
X010963Y012764D01*
X010962Y012762D01*
X010962Y012761D01*
X010961Y012757D01*
X01096Y012753D01*
X010959Y012751D01*
X010958Y01275D01*
X010957Y012748D01*
X010955Y012746D01*
X010955Y012746D01*
X010955Y012745D01*
X010954Y012745D01*
X010954Y012744D01*
X010953Y012743D01*
X010952Y012742D01*
X01095Y012741D01*
X010949Y01274D01*
X010947Y012739D01*
X010945Y012738D01*
X010943Y012737D01*
X010941Y012736D01*
X010938Y012735D01*
X010936Y012734D01*
X010933Y012734D01*
X01093Y012734D01*
X010929D01*
X010928Y012734D01*
X010926Y012734D01*
X010925Y012734D01*
X010924Y012734D01*
X010922Y012735D01*
X010918Y012736D01*
X010915Y012737D01*
X010913Y012738D01*
X010911Y012739D01*
X01091Y01274D01*
X010908Y012741D01*
X010908Y012741D01*
X010908Y012741D01*
X010907Y012742D01*
X010907Y012743D01*
X010906Y012743D01*
X010905Y012744D01*
X010904Y012745D01*
X010904Y012747D01*
X010903Y012748D01*
X010902Y012749D01*
X0109Y012753D01*
X010899Y012757D01*
X010899Y012759D01*
X010898Y012761D01*
X010911Y012762D01*
Y012762D01*
Y012762D01*
X010911Y012761D01*
X010911Y012761D01*
X010912Y012759D01*
X010912Y012757D01*
X010913Y012755D01*
X010914Y012752D01*
X010916Y01275D01*
X010917Y012748D01*
X010918Y012748D01*
X010918Y012748D01*
X010919Y012747D01*
X010921Y012746D01*
X010923Y012745D01*
X010925Y012744D01*
X010927Y012744D01*
X01093Y012744D01*
X010931D01*
X010931Y012744D01*
X010933Y012744D01*
X010935Y012745D01*
X010937Y012745D01*
X01094Y012746D01*
X010942Y012748D01*
X010943Y012749D01*
X010944Y01275D01*
X010945Y01275D01*
X010945Y012751D01*
X010945Y012751D01*
X010945Y012751D01*
X010946Y012753D01*
X010948Y012755D01*
X010949Y012757D01*
X01095Y01276D01*
X01095Y012764D01*
X01095Y012766D01*
Y012768D01*
Y012768D01*
Y012768D01*
Y012769D01*
X01095Y012769D01*
Y01277D01*
X01095Y012771D01*
X01095Y012773D01*
X010949Y012776D01*
X010948Y012779D01*
X010947Y012781D01*
X010945Y012784D01*
Y012784D01*
X010944Y012784D01*
X010944Y012785D01*
X010942Y012786D01*
X010941Y012787D01*
X010939Y012788D01*
X010936Y012789D01*
X010933Y012789D01*
X010931Y01279D01*
X010929D01*
X010928Y01279D01*
X010926Y012789D01*
X010924Y012789D01*
X010923Y012789D01*
X010921Y012788D01*
X010919Y012787D01*
X010919Y012787D01*
X010918Y012787D01*
X010918Y012786D01*
X010916Y012785D01*
X010915Y012784D01*
X010914Y012783D01*
X010913Y012782D01*
X010912Y01278D01*
X010901Y012782D01*
X01091Y012832D01*
X010959D01*
Y01282D01*
D02*
G37*
G36*
X010852Y012833D02*
X010853D01*
X010856Y012833D01*
X010859Y012832D01*
X010862Y012832D01*
X010865Y012831D01*
X010867Y012831D01*
X010868Y01283D01*
X010868D01*
X010868Y01283D01*
X010869Y01283D01*
X010871Y012829D01*
X010872Y012828D01*
X010874Y012827D01*
X010876Y012825D01*
X010877Y012823D01*
X010879Y012821D01*
Y012821D01*
X010879Y012821D01*
X01088Y01282D01*
X01088Y012819D01*
X010881Y012817D01*
X010882Y012815D01*
X010883Y012812D01*
X010883Y012809D01*
X010883Y012806D01*
Y012806D01*
Y012806D01*
Y012805D01*
X010883Y012805D01*
Y012804D01*
X010883Y012803D01*
X010882Y0128D01*
X010881Y012798D01*
X01088Y012795D01*
X010879Y012792D01*
X010877Y01279D01*
X010876Y012789D01*
X010876Y012789D01*
X010876Y012789D01*
X010876Y012788D01*
X010875Y012788D01*
X010874Y012787D01*
X010874Y012787D01*
X010872Y012786D01*
X010871Y012785D01*
X01087Y012784D01*
X010868Y012784D01*
X010867Y012783D01*
X010865Y012782D01*
X010863Y012782D01*
X010861Y012781D01*
X010858Y01278D01*
X010856Y01278D01*
X010856Y01278D01*
X010856Y01278D01*
X010857Y012779D01*
X010858Y012778D01*
X010861Y012777D01*
X010862Y012776D01*
X010863Y012775D01*
X010864Y012775D01*
X010864Y012774D01*
X010865Y012773D01*
X010867Y012772D01*
X010868Y01277D01*
X01087Y012767D01*
X010872Y012765D01*
X010874Y012762D01*
X010891Y012736D01*
X010875D01*
X010862Y012756D01*
Y012756D01*
X010862Y012756D01*
X010861Y012757D01*
X010861Y012757D01*
X01086Y012759D01*
X010859Y012761D01*
X010857Y012763D01*
X010856Y012765D01*
X010854Y012767D01*
X010853Y012769D01*
X010853Y012769D01*
X010852Y01277D01*
X010851Y012771D01*
X01085Y012772D01*
X010848Y012774D01*
X010847Y012775D01*
X010846Y012776D01*
X010846Y012776D01*
X010846Y012776D01*
X010845Y012776D01*
X010844Y012777D01*
X010843Y012777D01*
X010842Y012778D01*
X01084Y012778D01*
X01084D01*
X01084Y012778D01*
X010839D01*
X010838Y012779D01*
X010837Y012779D01*
X010836D01*
X010835Y012779D01*
X010818D01*
Y012736D01*
X010805D01*
Y012833D01*
X01085D01*
X010852Y012833D01*
D02*
G37*
G36*
X011979Y012922D02*
X011992D01*
Y012911D01*
X011979D01*
Y012887D01*
X011967D01*
Y012911D01*
X011924D01*
Y012922D01*
X011969Y012985D01*
X011979D01*
Y012922D01*
D02*
G37*
G36*
X011881Y012985D02*
X011883D01*
X011886Y012985D01*
X011889Y012984D01*
X011892Y012984D01*
X011895Y012983D01*
X011897Y012983D01*
X011898Y012982D01*
X011898D01*
X011898Y012982D01*
X011899Y012982D01*
X0119Y012981D01*
X011902Y01298D01*
X011904Y012979D01*
X011906Y012977D01*
X011907Y012975D01*
X011909Y012973D01*
Y012973D01*
X011909Y012973D01*
X01191Y012972D01*
X01191Y01297D01*
X011911Y012969D01*
X011912Y012966D01*
X011912Y012964D01*
X011913Y012961D01*
X011913Y012958D01*
Y012958D01*
Y012958D01*
Y012957D01*
X011913Y012957D01*
Y012956D01*
X011913Y012955D01*
X011912Y012952D01*
X011911Y012949D01*
X01191Y012946D01*
X011908Y012943D01*
X011907Y012942D01*
X011906Y012941D01*
X011906Y01294D01*
X011906Y01294D01*
X011906Y01294D01*
X011905Y012939D01*
X011904Y012939D01*
X011903Y012938D01*
X011902Y012938D01*
X011901Y012937D01*
X0119Y012936D01*
X011898Y012935D01*
X011897Y012935D01*
X011895Y012934D01*
X011893Y012933D01*
X01189Y012933D01*
X011888Y012932D01*
X011886Y012932D01*
X011886Y012932D01*
X011886Y012931D01*
X011887Y012931D01*
X011888Y01293D01*
X011891Y012929D01*
X011892Y012928D01*
X011893Y012927D01*
X011894Y012927D01*
X011894Y012926D01*
X011895Y012925D01*
X011897Y012923D01*
X011898Y012921D01*
X0119Y012919D01*
X011902Y012917D01*
X011904Y012914D01*
X011921Y012887D01*
X011905D01*
X011892Y012908D01*
Y012908D01*
X011892Y012908D01*
X011891Y012908D01*
X011891Y012909D01*
X01189Y012911D01*
X011889Y012913D01*
X011887Y012915D01*
X011886Y012917D01*
X011884Y012919D01*
X011883Y012921D01*
X011882Y012921D01*
X011882Y012922D01*
X011881Y012923D01*
X01188Y012924D01*
X011878Y012926D01*
X011877Y012927D01*
X011876Y012928D01*
X011876Y012928D01*
X011876Y012928D01*
X011875Y012928D01*
X011874Y012928D01*
X011873Y012929D01*
X011872Y012929D01*
X01187Y01293D01*
X01187D01*
X01187Y01293D01*
X011869D01*
X011868Y01293D01*
X011867Y01293D01*
X011866D01*
X011865Y012931D01*
X011848D01*
Y012887D01*
X011835D01*
Y012985D01*
X01188D01*
X011881Y012985D01*
D02*
G37*
G36*
X008412Y013516D02*
X008414Y013516D01*
X008416Y013515D01*
X008418Y013514D01*
X008421Y013514D01*
X008423Y013512D01*
X008424D01*
X008424Y013512D01*
X008425Y013512D01*
X008426Y013511D01*
X008427Y01351D01*
X008429Y013509D01*
X008431Y013507D01*
X008432Y013505D01*
X008434Y013503D01*
X008434Y013503D01*
X008434Y013502D01*
X008435Y013501D01*
X008436Y013499D01*
X008436Y013497D01*
X008437Y013495D01*
X008437Y013493D01*
X008437Y013491D01*
Y01349D01*
Y013489D01*
X008437Y013488D01*
X008437Y013487D01*
X008437Y013485D01*
X008436Y013483D01*
X008435Y013481D01*
X008434Y013479D01*
X008434Y013479D01*
X008433Y013478D01*
X008432Y013477D01*
X008431Y013476D01*
X00843Y013475D01*
X008428Y013473D01*
X008426Y013472D01*
X008424Y013471D01*
X008424D01*
X008424Y013471D01*
X008425Y013471D01*
X008425Y01347D01*
X008427Y01347D01*
X008429Y013469D01*
X008431Y013468D01*
X008433Y013466D01*
X008435Y013465D01*
X008437Y013463D01*
X008438Y013462D01*
X008438Y013461D01*
X008439Y01346D01*
X00844Y013458D01*
X008441Y013456D01*
X008441Y013453D01*
X008442Y01345D01*
X008442Y013447D01*
Y013447D01*
Y013446D01*
Y013445D01*
X008442Y013445D01*
X008442Y013443D01*
X008442Y013442D01*
X008441Y013441D01*
X008441Y013439D01*
X00844Y013436D01*
X008439Y013434D01*
X008438Y013432D01*
X008437Y013431D01*
X008436Y013429D01*
X008434Y013427D01*
X008433Y013425D01*
X008433Y013425D01*
X008432Y013425D01*
X008432Y013424D01*
X008431Y013424D01*
X00843Y013423D01*
X008429Y013422D01*
X008428Y013421D01*
X008426Y013421D01*
X008425Y01342D01*
X008423Y013419D01*
X008421Y013418D01*
X008419Y013418D01*
X008417Y013417D01*
X008414Y013417D01*
X008412Y013416D01*
X008409Y013416D01*
X008408D01*
X008407Y013416D01*
X008406Y013417D01*
X008405Y013417D01*
X008403Y013417D01*
X008402Y013417D01*
X008398Y013418D01*
X008395Y01342D01*
X008393Y01342D01*
X008391Y013421D01*
X00839Y013423D01*
X008388Y013424D01*
X008388Y013424D01*
X008387Y013424D01*
X008387Y013425D01*
X008387Y013425D01*
X008386Y013426D01*
X008385Y013427D01*
X008384Y013428D01*
X008384Y013429D01*
X008383Y013431D01*
X008382Y013432D01*
X00838Y013435D01*
X008379Y013439D01*
X008379Y013442D01*
X008378Y013444D01*
X00839Y013445D01*
Y013445D01*
X00839Y013445D01*
X008391Y013444D01*
X008391Y013444D01*
X008391Y013443D01*
X008391Y013442D01*
X008392Y01344D01*
X008393Y013437D01*
X008394Y013435D01*
X008396Y013432D01*
X008397Y013431D01*
X008397Y01343D01*
X008398Y01343D01*
X008399Y013429D01*
X008401Y013428D01*
X008402Y013428D01*
X008404Y013427D01*
X008407Y013426D01*
X008409Y013426D01*
X00841D01*
X008411Y013426D01*
X008412Y013426D01*
X008414Y013427D01*
X008417Y013428D01*
X008419Y013429D01*
X008421Y01343D01*
X008424Y013432D01*
X008424Y013432D01*
X008425Y013433D01*
X008425Y013434D01*
X008427Y013436D01*
X008428Y013438D01*
X008428Y013441D01*
X008429Y013443D01*
X008429Y013446D01*
Y013447D01*
Y013447D01*
Y013447D01*
X008429Y013448D01*
X008429Y013449D01*
X008429Y013451D01*
X008428Y013453D01*
X008427Y013456D01*
X008426Y013458D01*
X008424Y01346D01*
X008424Y01346D01*
X008423Y013461D01*
X008422Y013462D01*
X00842Y013463D01*
X008418Y013464D01*
X008416Y013465D01*
X008413Y013465D01*
X00841Y013465D01*
X008409D01*
X008408Y013465D01*
X008407Y013465D01*
X008405Y013465D01*
X008404Y013465D01*
X008402Y013464D01*
X008403Y013475D01*
X008404D01*
X008405Y013475D01*
X008406D01*
X008408Y013475D01*
X00841Y013475D01*
X008412Y013476D01*
X008414Y013476D01*
X008417Y013477D01*
X008419Y013479D01*
X008419D01*
X008419Y013479D01*
X00842Y013479D01*
X008421Y01348D01*
X008422Y013482D01*
X008423Y013483D01*
X008424Y013485D01*
X008425Y013488D01*
X008425Y013489D01*
Y013491D01*
Y013491D01*
Y013491D01*
Y013492D01*
X008425Y013493D01*
X008425Y013495D01*
X008424Y013496D01*
X008423Y013498D01*
X008422Y0135D01*
X008421Y013502D01*
X00842Y013502D01*
X00842Y013502D01*
X008419Y013503D01*
X008417Y013504D01*
X008416Y013505D01*
X008414Y013505D01*
X008412Y013506D01*
X008409Y013506D01*
X008408D01*
X008407Y013506D01*
X008405Y013506D01*
X008403Y013505D01*
X008401Y013504D01*
X008399Y013503D01*
X008397Y013502D01*
X008397Y013502D01*
X008397Y013501D01*
X008396Y0135D01*
X008395Y013498D01*
X008394Y013497D01*
X008393Y013494D01*
X008392Y013492D01*
X008392Y013489D01*
X00838Y013491D01*
Y013491D01*
X00838Y013491D01*
X00838Y013492D01*
X00838Y013493D01*
X00838Y013494D01*
X008381Y013495D01*
X008382Y013497D01*
X008383Y013501D01*
X008385Y013504D01*
X008387Y013507D01*
X008389Y013509D01*
X00839Y013509D01*
X00839Y01351D01*
X00839Y01351D01*
X008391Y01351D01*
X008392Y013511D01*
X008393Y013511D01*
X008394Y013512D01*
X008395Y013513D01*
X008398Y013514D01*
X008401Y013515D01*
X008405Y013516D01*
X008407Y013516D01*
X00841D01*
X008412Y013516D01*
D02*
G37*
G36*
X008331Y013515D02*
X008332D01*
X008335Y013515D01*
X008339Y013515D01*
X008342Y013514D01*
X008345Y013514D01*
X008347Y013513D01*
X008348Y013513D01*
X008348D01*
X008348Y013513D01*
X008349Y013512D01*
X00835Y013512D01*
X008352Y013511D01*
X008353Y013509D01*
X008355Y013508D01*
X008357Y013506D01*
X008359Y013504D01*
Y013503D01*
X008359Y013503D01*
X008359Y013502D01*
X00836Y013501D01*
X008361Y013499D01*
X008362Y013497D01*
X008362Y013495D01*
X008363Y013492D01*
X008363Y013489D01*
Y013489D01*
Y013488D01*
Y013488D01*
X008363Y013487D01*
Y013486D01*
X008363Y013485D01*
X008362Y013483D01*
X008361Y01348D01*
X00836Y013477D01*
X008358Y013474D01*
X008357Y013473D01*
X008356Y013471D01*
X008356Y013471D01*
X008356Y013471D01*
X008355Y013471D01*
X008355Y01347D01*
X008354Y01347D01*
X008353Y013469D01*
X008352Y013468D01*
X008351Y013467D01*
X00835Y013467D01*
X008348Y013466D01*
X008346Y013465D01*
X008344Y013464D01*
X008342Y013464D01*
X00834Y013463D01*
X008338Y013463D01*
X008335Y013462D01*
X008336Y013462D01*
X008336Y013462D01*
X008337Y013461D01*
X008338Y013461D01*
X008341Y013459D01*
X008342Y013458D01*
X008343Y013457D01*
X008343Y013457D01*
X008344Y013456D01*
X008345Y013455D01*
X008347Y013454D01*
X008348Y013452D01*
X00835Y01345D01*
X008352Y013447D01*
X008354Y013444D01*
X008371Y013418D01*
X008354D01*
X008342Y013438D01*
Y013438D01*
X008341Y013439D01*
X008341Y013439D01*
X008341Y01344D01*
X00834Y013441D01*
X008338Y013443D01*
X008337Y013445D01*
X008335Y013448D01*
X008334Y01345D01*
X008332Y013452D01*
X008332Y013452D01*
X008332Y013452D01*
X008331Y013453D01*
X00833Y013454D01*
X008328Y013456D01*
X008327Y013457D01*
X008326Y013458D01*
X008326Y013458D01*
X008325Y013458D01*
X008325Y013459D01*
X008324Y013459D01*
X008323Y01346D01*
X008322Y01346D01*
X00832Y013461D01*
X00832D01*
X008319Y013461D01*
X008319D01*
X008318Y013461D01*
X008317Y013461D01*
X008316D01*
X008314Y013461D01*
X008298D01*
Y013418D01*
X008285D01*
Y013516D01*
X00833D01*
X008331Y013515D01*
D02*
G37*
G36*
X010489Y014342D02*
X01049Y014342D01*
X010491Y014342D01*
X010493Y014342D01*
X010494Y014341D01*
X010498Y01434D01*
X010502Y014339D01*
X010503Y014338D01*
X010505Y014337D01*
X010507Y014336D01*
X010509Y014334D01*
X010509Y014334D01*
X010509Y014334D01*
X010509Y014334D01*
X01051Y014333D01*
X010511Y014332D01*
X010511Y014331D01*
X010512Y01433D01*
X010513Y014329D01*
X010514Y014326D01*
X010516Y014323D01*
X010516Y014321D01*
X010516Y014319D01*
X010517Y014317D01*
X010517Y014315D01*
Y014315D01*
Y014314D01*
X010517Y014313D01*
X010517Y014312D01*
X010516Y01431D01*
X010516Y014308D01*
X010515Y014306D01*
X010514Y014304D01*
X010514Y014303D01*
X010514Y014303D01*
X010513Y014302D01*
X010512Y0143D01*
X010511Y014298D01*
X01051Y014296D01*
X010508Y014294D01*
X010506Y014292D01*
X010506Y014291D01*
X010505Y014291D01*
X010505Y01429D01*
X010504Y014289D01*
X010503Y014288D01*
X010502Y014287D01*
X010501Y014286D01*
X010499Y014285D01*
X010498Y014283D01*
X010496Y014282D01*
X010494Y01428D01*
X010492Y014278D01*
X01049Y014277D01*
X010488Y014275D01*
X010488Y014274D01*
X010488Y014274D01*
X010487Y014274D01*
X010486Y014273D01*
X010485Y014272D01*
X010484Y014272D01*
X010482Y01427D01*
X01048Y014268D01*
X010478Y014265D01*
X010476Y014264D01*
X010475Y014263D01*
X010474Y014262D01*
X010474Y014262D01*
X010473Y014262D01*
X010473Y014261D01*
X010472Y01426D01*
X010471Y014259D01*
X010471Y014258D01*
X010469Y014256D01*
X010517D01*
Y014244D01*
X010452D01*
Y014244D01*
Y014245D01*
Y014246D01*
X010452Y014247D01*
X010453Y014248D01*
X010453Y01425D01*
X010453Y014251D01*
X010454Y014253D01*
Y014253D01*
X010454Y014253D01*
X010454Y014254D01*
X010455Y014255D01*
X010456Y014257D01*
X010457Y014259D01*
X010458Y014261D01*
X01046Y014263D01*
X010462Y014266D01*
Y014266D01*
X010462Y014266D01*
X010463Y014267D01*
X010464Y014268D01*
X010466Y01427D01*
X010468Y014272D01*
X01047Y014274D01*
X010474Y014277D01*
X010477Y01428D01*
X010477Y01428D01*
X010478Y014281D01*
X010479Y014282D01*
X01048Y014282D01*
X010481Y014284D01*
X010483Y014285D01*
X010484Y014286D01*
X010486Y014288D01*
X01049Y014291D01*
X010493Y014295D01*
X010495Y014296D01*
X010496Y014298D01*
X010498Y014299D01*
X010499Y014301D01*
Y014301D01*
X010499Y014301D01*
X010499Y014302D01*
X0105Y014302D01*
X010501Y014304D01*
X010502Y014306D01*
X010503Y014308D01*
X010504Y01431D01*
X010504Y014313D01*
X010505Y014316D01*
Y014316D01*
Y014316D01*
X010504Y014317D01*
X010504Y014318D01*
X010504Y01432D01*
X010503Y014322D01*
X010502Y014324D01*
X010501Y014326D01*
X010499Y014327D01*
X010499Y014328D01*
X010498Y014328D01*
X010497Y014329D01*
X010496Y01433D01*
X010494Y014331D01*
X010492Y014332D01*
X010489Y014332D01*
X010486Y014332D01*
X010485D01*
X010485Y014332D01*
X010483Y014332D01*
X010481Y014332D01*
X010479Y014331D01*
X010476Y01433D01*
X010474Y014329D01*
X010472Y014327D01*
X010472Y014327D01*
X010471Y014326D01*
X01047Y014325D01*
X010469Y014323D01*
X010469Y014321D01*
X010468Y014319D01*
X010467Y014316D01*
X010467Y014313D01*
X010455Y014314D01*
Y014314D01*
X010455Y014315D01*
Y014315D01*
X010455Y014316D01*
X010455Y014317D01*
X010455Y014319D01*
X010456Y01432D01*
X010456Y014322D01*
X010457Y014325D01*
X010459Y014329D01*
X01046Y01433D01*
X010461Y014332D01*
X010463Y014334D01*
X010464Y014335D01*
X010464Y014335D01*
X010464Y014335D01*
X010465Y014336D01*
X010466Y014336D01*
X010466Y014337D01*
X010467Y014337D01*
X010469Y014338D01*
X01047Y014339D01*
X010471Y014339D01*
X010473Y01434D01*
X010475Y014341D01*
X010477Y014341D01*
X010479Y014342D01*
X010481Y014342D01*
X010484Y014342D01*
X010486Y014342D01*
X010488D01*
X010489Y014342D01*
D02*
G37*
G36*
X010407Y014342D02*
X010408D01*
X010411Y014342D01*
X010414Y014341D01*
X010418Y014341D01*
X010421Y01434D01*
X010422Y01434D01*
X010424Y014339D01*
X010424D01*
X010424Y014339D01*
X010425Y014339D01*
X010426Y014338D01*
X010428Y014337D01*
X010429Y014336D01*
X010431Y014334D01*
X010433Y014332D01*
X010435Y01433D01*
Y01433D01*
X010435Y01433D01*
X010435Y014329D01*
X010436Y014327D01*
X010437Y014326D01*
X010437Y014323D01*
X010438Y014321D01*
X010438Y014318D01*
X010439Y014315D01*
Y014315D01*
Y014315D01*
Y014314D01*
X010438Y014314D01*
Y014313D01*
X010438Y014312D01*
X010438Y014309D01*
X010437Y014306D01*
X010436Y014303D01*
X010434Y0143D01*
X010433Y014299D01*
X010432Y014298D01*
X010432Y014297D01*
X010432Y014297D01*
X010431Y014297D01*
X010431Y014296D01*
X01043Y014296D01*
X010429Y014295D01*
X010428Y014295D01*
X010427Y014294D01*
X010425Y014293D01*
X010424Y014292D01*
X010422Y014292D01*
X01042Y014291D01*
X010418Y01429D01*
X010416Y01429D01*
X010414Y014289D01*
X010411Y014289D01*
X010411Y014289D01*
X010412Y014288D01*
X010413Y014288D01*
X010414Y014287D01*
X010416Y014286D01*
X010418Y014285D01*
X010419Y014284D01*
X010419Y014284D01*
X01042Y014283D01*
X010421Y014282D01*
X010422Y01428D01*
X010424Y014278D01*
X010426Y014276D01*
X010428Y014274D01*
X01043Y014271D01*
X010446Y014244D01*
X01043D01*
X010417Y014265D01*
Y014265D01*
X010417Y014265D01*
X010417Y014265D01*
X010416Y014266D01*
X010415Y014268D01*
X010414Y01427D01*
X010413Y014272D01*
X010411Y014274D01*
X01041Y014276D01*
X010408Y014278D01*
X010408Y014278D01*
X010408Y014279D01*
X010407Y01428D01*
X010406Y014281D01*
X010404Y014283D01*
X010403Y014284D01*
X010402Y014284D01*
X010401Y014285D01*
X010401Y014285D01*
X010401Y014285D01*
X0104Y014285D01*
X010399Y014286D01*
X010398Y014286D01*
X010396Y014287D01*
X010395D01*
X010395Y014287D01*
X010395D01*
X010394Y014287D01*
X010393Y014287D01*
X010392D01*
X01039Y014288D01*
X010374D01*
Y014244D01*
X010361D01*
Y014342D01*
X010406D01*
X010407Y014342D01*
D02*
G37*
G36*
X0108Y014244D02*
X010788D01*
Y01432D01*
X010788Y01432D01*
X010788Y014319D01*
X010787Y014318D01*
X010785Y014317D01*
X010784Y014316D01*
X010782Y014315D01*
X01078Y014313D01*
X010777Y014312D01*
X010777D01*
X010777Y014311D01*
X010776Y014311D01*
X010774Y01431D01*
X010773Y014309D01*
X010771Y014308D01*
X010769Y014307D01*
X010767Y014306D01*
X010764Y014305D01*
Y014317D01*
X010765D01*
X010765Y014317D01*
X010765Y014317D01*
X010766Y014318D01*
X010767Y014318D01*
X010768Y014319D01*
X01077Y01432D01*
X010773Y014322D01*
X010776Y014324D01*
X010779Y014326D01*
X010782Y014328D01*
X010782Y014329D01*
X010782Y014329D01*
X010783Y014329D01*
X010783Y01433D01*
X010784Y014331D01*
X010786Y014333D01*
X010788Y014335D01*
X01079Y014337D01*
X010791Y014339D01*
X010793Y014342D01*
X0108D01*
Y014244D01*
D02*
G37*
G36*
X010708Y014341D02*
X01071D01*
X010713Y014341D01*
X010716Y01434D01*
X010719Y01434D01*
X010722Y014339D01*
X010724Y014339D01*
X010725Y014338D01*
X010725D01*
X010725Y014338D01*
X010726Y014338D01*
X010727Y014337D01*
X010729Y014336D01*
X010731Y014335D01*
X010732Y014333D01*
X010734Y014331D01*
X010736Y014329D01*
Y014329D01*
X010736Y014329D01*
X010737Y014328D01*
X010737Y014327D01*
X010738Y014325D01*
X010739Y014323D01*
X010739Y01432D01*
X01074Y014317D01*
X01074Y014314D01*
Y014314D01*
Y014314D01*
Y014313D01*
X01074Y014313D01*
Y014312D01*
X01074Y014311D01*
X010739Y014308D01*
X010738Y014306D01*
X010737Y014303D01*
X010735Y0143D01*
X010734Y014298D01*
X010733Y014297D01*
X010733Y014297D01*
X010733Y014297D01*
X010732Y014296D01*
X010732Y014296D01*
X010731Y014295D01*
X01073Y014295D01*
X010729Y014294D01*
X010728Y014293D01*
X010727Y014292D01*
X010725Y014292D01*
X010723Y014291D01*
X010722Y01429D01*
X010719Y01429D01*
X010717Y014289D01*
X010715Y014288D01*
X010712Y014288D01*
X010713Y014288D01*
X010713Y014288D01*
X010714Y014287D01*
X010715Y014286D01*
X010718Y014285D01*
X010719Y014284D01*
X01072Y014283D01*
X01072Y014283D01*
X010721Y014282D01*
X010722Y014281D01*
X010724Y01428D01*
X010725Y014278D01*
X010727Y014275D01*
X010729Y014273D01*
X010731Y01427D01*
X010748Y014244D01*
X010732D01*
X010719Y014264D01*
Y014264D01*
X010719Y014264D01*
X010718Y014265D01*
X010718Y014265D01*
X010717Y014267D01*
X010716Y014269D01*
X010714Y014271D01*
X010712Y014273D01*
X010711Y014275D01*
X010709Y014277D01*
X010709Y014277D01*
X010709Y014278D01*
X010708Y014279D01*
X010707Y01428D01*
X010705Y014282D01*
X010704Y014283D01*
X010703Y014284D01*
X010703Y014284D01*
X010702Y014284D01*
X010702Y014284D01*
X010701Y014285D01*
X0107Y014285D01*
X010699Y014286D01*
X010697Y014286D01*
X010697D01*
X010697Y014286D01*
X010696D01*
X010695Y014287D01*
X010694Y014287D01*
X010693D01*
X010692Y014287D01*
X010675D01*
Y014244D01*
X010662D01*
Y014341D01*
X010707D01*
X010708Y014341D01*
D02*
G37*
G36*
X010819Y012393D02*
X010821Y012393D01*
X010822Y012392D01*
X010824Y012392D01*
X010826Y012392D01*
X010829Y012391D01*
X010834Y01239D01*
X010836Y012389D01*
X010838Y012388D01*
X01084Y012387D01*
X010842Y012385D01*
X010842Y012385D01*
X010842Y012385D01*
X010843Y012385D01*
X010843Y012384D01*
X010844Y012383D01*
X010845Y012382D01*
X010846Y012381D01*
X010847Y01238D01*
X010848Y012379D01*
X01085Y012377D01*
X010851Y012375D01*
X010852Y012373D01*
X010853Y012371D01*
X010854Y012369D01*
X010855Y012367D01*
X010856Y012364D01*
X010843Y012361D01*
Y012362D01*
X010843Y012362D01*
X010843Y012362D01*
X010842Y012363D01*
X010842Y012364D01*
X010842Y012365D01*
X01084Y012367D01*
X010839Y01237D01*
X010837Y012372D01*
X010835Y012375D01*
X010833Y012377D01*
X010833Y012377D01*
X010832Y012378D01*
X01083Y012378D01*
X010829Y012379D01*
X010826Y01238D01*
X010824Y012381D01*
X01082Y012382D01*
X010817Y012382D01*
X010816D01*
X010815Y012382D01*
X010814D01*
X010813Y012382D01*
X01081Y012381D01*
X010807Y012381D01*
X010804Y01238D01*
X010801Y012378D01*
X010798Y012376D01*
X010798D01*
X010798Y012376D01*
X010797Y012375D01*
X010795Y012374D01*
X010794Y012373D01*
X010792Y01237D01*
X01079Y012368D01*
X010789Y012365D01*
X010787Y012362D01*
Y012362D01*
X010787Y012361D01*
X010787Y012361D01*
X010787Y01236D01*
X010787Y012359D01*
X010786Y012358D01*
X010786Y012356D01*
X010785Y012353D01*
X010785Y01235D01*
X010785Y012347D01*
X010784Y012343D01*
Y012343D01*
Y012343D01*
Y012342D01*
Y012341D01*
X010785Y01234D01*
Y012339D01*
X010785Y012337D01*
X010785Y012336D01*
X010785Y012332D01*
X010786Y012329D01*
X010787Y012325D01*
X010788Y012321D01*
Y012321D01*
X010788Y012321D01*
X010788Y012321D01*
X010789Y01232D01*
X010789Y012318D01*
X010791Y012316D01*
X010792Y012314D01*
X010794Y012312D01*
X010796Y012309D01*
X010799Y012307D01*
X010799D01*
X0108Y012307D01*
X0108Y012307D01*
X010801Y012307D01*
X010801Y012306D01*
X010802Y012306D01*
X010804Y012305D01*
X010807Y012304D01*
X010809Y012304D01*
X010813Y012303D01*
X010816Y012303D01*
X010817D01*
X010818Y012303D01*
X010819D01*
X01082Y012303D01*
X010822Y012304D01*
X010825Y012304D01*
X010828Y012306D01*
X010831Y012307D01*
X010833Y012308D01*
X010834Y012309D01*
X010834Y012309D01*
X010834Y012309D01*
X010835Y01231D01*
X010835Y01231D01*
X010836Y012311D01*
X010837Y012312D01*
X010838Y012313D01*
X010838Y012314D01*
X010839Y012315D01*
X01084Y012316D01*
X010841Y012318D01*
X010842Y01232D01*
X010842Y012321D01*
X010843Y012323D01*
X010844Y012325D01*
X010844Y012328D01*
X010857Y012324D01*
Y012324D01*
X010857Y012324D01*
X010857Y012323D01*
X010857Y012322D01*
X010856Y012321D01*
X010856Y012319D01*
X010855Y012317D01*
X010854Y012315D01*
X010852Y012312D01*
X01085Y012308D01*
X010848Y012306D01*
X010846Y012304D01*
X010845Y012302D01*
X010843Y0123D01*
X010843Y0123D01*
X010842Y0123D01*
X010842Y0123D01*
X010841Y012299D01*
X01084Y012298D01*
X010839Y012298D01*
X010837Y012297D01*
X010836Y012296D01*
X010834Y012295D01*
X010832Y012295D01*
X01083Y012294D01*
X010827Y012293D01*
X010825Y012293D01*
X010822Y012292D01*
X01082Y012292D01*
X010817Y012292D01*
X010815D01*
X010814Y012292D01*
X010813D01*
X010811Y012292D01*
X01081Y012292D01*
X010808Y012293D01*
X010804Y012293D01*
X010799Y012295D01*
X010795Y012296D01*
X010793Y012297D01*
X010791Y012298D01*
X010791Y012298D01*
X010791Y012299D01*
X01079Y012299D01*
X01079Y0123D01*
X010789Y0123D01*
X010788Y012301D01*
X010787Y012302D01*
X010786Y012303D01*
X010785Y012304D01*
X010783Y012306D01*
X010781Y012309D01*
X010778Y012313D01*
X010776Y012317D01*
Y012317D01*
X010776Y012317D01*
X010776Y012318D01*
X010775Y012319D01*
X010775Y01232D01*
X010775Y012322D01*
X010774Y012323D01*
X010774Y012325D01*
X010773Y012327D01*
X010773Y012329D01*
X010772Y012333D01*
X010771Y012338D01*
X010771Y012343D01*
Y012343D01*
Y012344D01*
Y012345D01*
X010771Y012346D01*
Y012347D01*
X010771Y012348D01*
X010772Y01235D01*
X010772Y012352D01*
X010773Y012356D01*
X010774Y012361D01*
X010775Y012365D01*
X010777Y01237D01*
X010777Y01237D01*
X010777Y01237D01*
X010777Y012371D01*
X010778Y012371D01*
X010779Y012372D01*
X010779Y012374D01*
X010781Y012376D01*
X010784Y012379D01*
X010786Y012382D01*
X01079Y012385D01*
X010793Y012387D01*
X010794Y012387D01*
X010794Y012387D01*
X010795Y012387D01*
X010795Y012388D01*
X010796Y012388D01*
X010797Y012389D01*
X010799Y012389D01*
X0108Y01239D01*
X010802Y01239D01*
X010804Y012391D01*
X010808Y012392D01*
X010812Y012393D01*
X010817Y012393D01*
X010818D01*
X010819Y012393D01*
D02*
G37*
G36*
X010902Y012391D02*
X010904Y012391D01*
X010906Y012391D01*
X010909Y01239D01*
X010911Y012389D01*
X010914Y012388D01*
X010914D01*
X010914Y012388D01*
X010915Y012387D01*
X010916Y012387D01*
X010917Y012386D01*
X010919Y012384D01*
X010921Y012383D01*
X010923Y012381D01*
X010924Y012379D01*
X010924Y012378D01*
X010924Y012378D01*
X010925Y012376D01*
X010926Y012375D01*
X010926Y012373D01*
X010927Y012371D01*
X010927Y012369D01*
X010928Y012366D01*
Y012366D01*
Y012365D01*
X010927Y012364D01*
X010927Y012362D01*
X010927Y012361D01*
X010926Y012359D01*
X010925Y012357D01*
X010924Y012355D01*
X010924Y012354D01*
X010924Y012354D01*
X010923Y012353D01*
X010922Y012352D01*
X01092Y01235D01*
X010918Y012349D01*
X010916Y012348D01*
X010914Y012346D01*
X010914D01*
X010914Y012346D01*
X010915Y012346D01*
X010915Y012346D01*
X010917Y012345D01*
X010919Y012345D01*
X010921Y012344D01*
X010924Y012342D01*
X010926Y01234D01*
X010928Y012338D01*
X010928Y012338D01*
X010928Y012337D01*
X010929Y012336D01*
X01093Y012334D01*
X010931Y012332D01*
X010932Y012329D01*
X010932Y012326D01*
X010932Y012322D01*
Y012322D01*
Y012322D01*
Y012321D01*
X010932Y01232D01*
X010932Y012319D01*
X010932Y012318D01*
X010932Y012316D01*
X010931Y012315D01*
X01093Y012312D01*
X010929Y01231D01*
X010928Y012308D01*
X010927Y012306D01*
X010926Y012304D01*
X010925Y012302D01*
X010923Y012301D01*
X010923Y012301D01*
X010923Y0123D01*
X010922Y0123D01*
X010921Y012299D01*
X01092Y012299D01*
X010919Y012298D01*
X010918Y012297D01*
X010916Y012296D01*
X010915Y012296D01*
X010913Y012295D01*
X010911Y012294D01*
X010909Y012293D01*
X010907Y012293D01*
X010904Y012292D01*
X010902Y012292D01*
X010899Y012292D01*
X010898D01*
X010897Y012292D01*
X010896Y012292D01*
X010895Y012292D01*
X010893Y012293D01*
X010892Y012293D01*
X010889Y012294D01*
X010885Y012295D01*
X010883Y012296D01*
X010882Y012297D01*
X01088Y012298D01*
X010878Y0123D01*
X010878Y0123D01*
X010878Y0123D01*
X010877Y0123D01*
X010877Y012301D01*
X010876Y012302D01*
X010875Y012303D01*
X010875Y012304D01*
X010874Y012305D01*
X010873Y012306D01*
X010872Y012308D01*
X010871Y012311D01*
X010869Y012315D01*
X010869Y012317D01*
X010869Y012319D01*
X010881Y012321D01*
Y012321D01*
X010881Y012321D01*
X010881Y01232D01*
X010881Y012319D01*
X010881Y012318D01*
X010881Y012317D01*
X010882Y012315D01*
X010883Y012313D01*
X010884Y01231D01*
X010886Y012308D01*
X010887Y012306D01*
X010888Y012306D01*
X010888Y012305D01*
X010889Y012305D01*
X010891Y012304D01*
X010892Y012303D01*
X010895Y012302D01*
X010897Y012302D01*
X0109Y012302D01*
X0109D01*
X010901Y012302D01*
X010903Y012302D01*
X010904Y012302D01*
X010907Y012303D01*
X010909Y012304D01*
X010912Y012306D01*
X010914Y012308D01*
X010914Y012308D01*
X010915Y012309D01*
X010916Y01231D01*
X010917Y012312D01*
X010918Y012314D01*
X010919Y012316D01*
X010919Y012319D01*
X01092Y012322D01*
Y012322D01*
Y012322D01*
Y012323D01*
X01092Y012323D01*
X010919Y012325D01*
X010919Y012327D01*
X010918Y012329D01*
X010917Y012331D01*
X010916Y012334D01*
X010914Y012336D01*
X010914Y012336D01*
X010913Y012337D01*
X010912Y012337D01*
X010911Y012338D01*
X010909Y012339D01*
X010906Y01234D01*
X010903Y012341D01*
X010901Y012341D01*
X010899D01*
X010898Y012341D01*
X010897Y012341D01*
X010896Y012341D01*
X010894Y01234D01*
X010892Y01234D01*
X010893Y01235D01*
X010894D01*
X010895Y01235D01*
X010897D01*
X010898Y012351D01*
X0109Y012351D01*
X010902Y012351D01*
X010904Y012352D01*
X010907Y012353D01*
X010909Y012354D01*
X010909D01*
X010909Y012354D01*
X01091Y012355D01*
X010911Y012356D01*
X010912Y012357D01*
X010913Y012359D01*
X010914Y012361D01*
X010915Y012364D01*
X010915Y012365D01*
Y012366D01*
Y012367D01*
Y012367D01*
Y012368D01*
X010915Y012369D01*
X010915Y01237D01*
X010914Y012372D01*
X010914Y012374D01*
X010912Y012376D01*
X010911Y012377D01*
X010911Y012377D01*
X01091Y012378D01*
X010909Y012379D01*
X010908Y01238D01*
X010906Y01238D01*
X010904Y012381D01*
X010902Y012382D01*
X010899Y012382D01*
X010898D01*
X010897Y012381D01*
X010895Y012381D01*
X010893Y012381D01*
X010892Y01238D01*
X01089Y012379D01*
X010888Y012377D01*
X010888Y012377D01*
X010887Y012376D01*
X010886Y012376D01*
X010885Y012374D01*
X010884Y012372D01*
X010883Y01237D01*
X010882Y012367D01*
X010882Y012364D01*
X01087Y012366D01*
Y012366D01*
X01087Y012367D01*
X01087Y012367D01*
X01087Y012368D01*
X010871Y012369D01*
X010871Y01237D01*
X010872Y012373D01*
X010873Y012376D01*
X010875Y012379D01*
X010877Y012382D01*
X01088Y012385D01*
X01088Y012385D01*
X01088Y012385D01*
X010881Y012386D01*
X010881Y012386D01*
X010882Y012386D01*
X010883Y012387D01*
X010884Y012388D01*
X010885Y012388D01*
X010888Y012389D01*
X010891Y012391D01*
X010895Y012391D01*
X010897Y012392D01*
X0109D01*
X010902Y012391D01*
D02*
G37*
G36*
X010752Y012294D02*
X010739D01*
Y012391D01*
X010752D01*
Y012294D01*
D02*
G37*
G36*
X008114Y01423D02*
X008115Y01423D01*
X008117Y01423D01*
X008118Y014229D01*
X00812Y014229D01*
X008124Y014228D01*
X008128Y014227D01*
X00813Y014226D01*
X008132Y014225D01*
X008134Y014224D01*
X008136Y014222D01*
X008136Y014222D01*
X008137Y014222D01*
X008137Y014222D01*
X008138Y014221D01*
X008138Y01422D01*
X008139Y014219D01*
X00814Y014218D01*
X008142Y014217D01*
X008143Y014216D01*
X008144Y014214D01*
X008145Y014212D01*
X008146Y014211D01*
X008147Y014208D01*
X008148Y014206D01*
X008149Y014204D01*
X00815Y014201D01*
X008137Y014199D01*
Y014199D01*
X008137Y014199D01*
X008137Y0142D01*
X008137Y0142D01*
X008136Y014201D01*
X008136Y014202D01*
X008135Y014204D01*
X008133Y014207D01*
X008132Y01421D01*
X00813Y014212D01*
X008127Y014214D01*
X008127Y014214D01*
X008126Y014215D01*
X008125Y014216D01*
X008123Y014217D01*
X008121Y014217D01*
X008118Y014218D01*
X008115Y014219D01*
X008111Y014219D01*
X00811D01*
X008109Y014219D01*
X008108D01*
X008107Y014219D01*
X008105Y014218D01*
X008102Y014218D01*
X008098Y014217D01*
X008095Y014215D01*
X008092Y014213D01*
X008092D01*
X008092Y014213D01*
X008091Y014212D01*
X00809Y014211D01*
X008088Y01421D01*
X008086Y014208D01*
X008085Y014205D01*
X008083Y014202D01*
X008082Y014199D01*
Y014199D01*
X008082Y014199D01*
X008081Y014198D01*
X008081Y014197D01*
X008081Y014197D01*
X008081Y014196D01*
X00808Y014193D01*
X00808Y01419D01*
X008079Y014187D01*
X008079Y014184D01*
X008079Y01418D01*
Y01418D01*
Y01418D01*
Y014179D01*
Y014178D01*
X008079Y014177D01*
Y014176D01*
X008079Y014174D01*
X008079Y014173D01*
X00808Y014169D01*
X00808Y014166D01*
X008081Y014162D01*
X008082Y014158D01*
Y014158D01*
X008082Y014158D01*
X008083Y014158D01*
X008083Y014157D01*
X008084Y014155D01*
X008085Y014153D01*
X008087Y014151D01*
X008089Y014149D01*
X008091Y014147D01*
X008094Y014145D01*
X008094D01*
X008094Y014144D01*
X008094Y014144D01*
X008095Y014144D01*
X008096Y014144D01*
X008096Y014143D01*
X008098Y014142D01*
X008101Y014141D01*
X008104Y014141D01*
X008107Y01414D01*
X00811Y01414D01*
X008111D01*
X008112Y01414D01*
X008113D01*
X008114Y01414D01*
X008116Y014141D01*
X008119Y014142D01*
X008122Y014143D01*
X008126Y014144D01*
X008127Y014145D01*
X008128Y014146D01*
X008129Y014146D01*
X008129Y014147D01*
X008129Y014147D01*
X00813Y014147D01*
X00813Y014148D01*
X008131Y014149D01*
X008132Y01415D01*
X008133Y014151D01*
X008133Y014152D01*
X008134Y014154D01*
X008135Y014155D01*
X008136Y014157D01*
X008137Y014158D01*
X008137Y01416D01*
X008138Y014163D01*
X008139Y014165D01*
X008152Y014162D01*
Y014161D01*
X008152Y014161D01*
X008151Y01416D01*
X008151Y014159D01*
X00815Y014158D01*
X00815Y014156D01*
X008149Y014154D01*
X008148Y014153D01*
X008146Y014149D01*
X008144Y014145D01*
X008142Y014143D01*
X008141Y014141D01*
X008139Y014139D01*
X008137Y014137D01*
X008137Y014137D01*
X008137Y014137D01*
X008136Y014137D01*
X008135Y014136D01*
X008134Y014135D01*
X008133Y014135D01*
X008131Y014134D01*
X00813Y014133D01*
X008128Y014132D01*
X008126Y014132D01*
X008124Y014131D01*
X008122Y01413D01*
X008119Y01413D01*
X008117Y014129D01*
X008114Y014129D01*
X008111Y014129D01*
X00811D01*
X008109Y014129D01*
X008107D01*
X008106Y014129D01*
X008104Y01413D01*
X008102Y01413D01*
X008098Y014131D01*
X008094Y014132D01*
X00809Y014133D01*
X008088Y014134D01*
X008086Y014135D01*
X008085Y014136D01*
X008085Y014136D01*
X008085Y014136D01*
X008084Y014137D01*
X008083Y014137D01*
X008082Y014138D01*
X008081Y014139D01*
X00808Y01414D01*
X008079Y014141D01*
X008078Y014143D01*
X008075Y014146D01*
X008073Y01415D01*
X008071Y014154D01*
Y014154D01*
X00807Y014155D01*
X00807Y014155D01*
X00807Y014156D01*
X008069Y014157D01*
X008069Y014159D01*
X008068Y01416D01*
X008068Y014162D01*
X008068Y014164D01*
X008067Y014166D01*
X008066Y01417D01*
X008066Y014175D01*
X008065Y01418D01*
Y01418D01*
Y014181D01*
Y014182D01*
X008066Y014183D01*
Y014184D01*
X008066Y014186D01*
X008066Y014187D01*
X008066Y014189D01*
X008067Y014193D01*
X008068Y014198D01*
X008069Y014202D01*
X008071Y014207D01*
X008071Y014207D01*
X008072Y014207D01*
X008072Y014208D01*
X008072Y014209D01*
X008073Y01421D01*
X008074Y014211D01*
X008075Y014213D01*
X008078Y014216D01*
X008081Y014219D01*
X008084Y014222D01*
X008088Y014224D01*
X008088Y014224D01*
X008088Y014224D01*
X008089Y014225D01*
X00809Y014225D01*
X008091Y014225D01*
X008092Y014226D01*
X008093Y014226D01*
X008095Y014227D01*
X008096Y014228D01*
X008098Y014228D01*
X008102Y014229D01*
X008107Y01423D01*
X008111Y01423D01*
X008113D01*
X008114Y01423D01*
D02*
G37*
G36*
X008197Y014229D02*
X008199Y014228D01*
X0082Y014228D01*
X008201Y014228D01*
X008203Y014228D01*
X008207Y014227D01*
X00821Y014225D01*
X008212Y014224D01*
X008214Y014223D01*
X008216Y014222D01*
X008217Y014221D01*
X008217Y014221D01*
X008218Y014221D01*
X008218Y01422D01*
X008219Y014219D01*
X008219Y014219D01*
X00822Y014218D01*
X008221Y014217D01*
X008222Y014215D01*
X008223Y014213D01*
X008224Y014209D01*
X008225Y014208D01*
X008225Y014206D01*
X008225Y014204D01*
X008226Y014202D01*
Y014201D01*
Y014201D01*
X008225Y0142D01*
X008225Y014198D01*
X008225Y014196D01*
X008224Y014194D01*
X008224Y014192D01*
X008223Y01419D01*
X008223Y01419D01*
X008223Y014189D01*
X008222Y014188D01*
X008221Y014186D01*
X00822Y014185D01*
X008219Y014183D01*
X008217Y01418D01*
X008215Y014178D01*
X008215Y014178D01*
X008214Y014177D01*
X008213Y014176D01*
X008213Y014176D01*
X008212Y014175D01*
X008211Y014174D01*
X00821Y014172D01*
X008208Y014171D01*
X008207Y01417D01*
X008205Y014168D01*
X008203Y014167D01*
X008201Y014165D01*
X008199Y014163D01*
X008197Y014161D01*
X008197Y014161D01*
X008196Y014161D01*
X008196Y01416D01*
X008195Y01416D01*
X008194Y014159D01*
X008193Y014158D01*
X008191Y014156D01*
X008189Y014154D01*
X008186Y014152D01*
X008184Y01415D01*
X008183Y014149D01*
X008183Y014149D01*
X008183Y014148D01*
X008182Y014148D01*
X008182Y014147D01*
X008181Y014147D01*
X00818Y014146D01*
X008179Y014145D01*
X008178Y014142D01*
X008226D01*
Y014131D01*
X008161D01*
Y014131D01*
Y014131D01*
Y014132D01*
X008161Y014133D01*
X008161Y014135D01*
X008162Y014136D01*
X008162Y014137D01*
X008162Y014139D01*
Y014139D01*
X008163Y014139D01*
X008163Y01414D01*
X008163Y014141D01*
X008164Y014143D01*
X008165Y014145D01*
X008167Y014147D01*
X008168Y01415D01*
X00817Y014152D01*
Y014152D01*
X008171Y014152D01*
X008171Y014153D01*
X008173Y014154D01*
X008174Y014156D01*
X008177Y014158D01*
X008179Y014161D01*
X008182Y014164D01*
X008186Y014167D01*
X008186Y014167D01*
X008187Y014167D01*
X008188Y014168D01*
X008189Y014169D01*
X00819Y01417D01*
X008191Y014171D01*
X008193Y014173D01*
X008195Y014174D01*
X008198Y014178D01*
X008202Y014181D01*
X008203Y014183D01*
X008205Y014184D01*
X008206Y014186D01*
X008208Y014187D01*
Y014188D01*
X008208Y014188D01*
X008208Y014188D01*
X008208Y014189D01*
X008209Y01419D01*
X008211Y014192D01*
X008212Y014194D01*
X008212Y014197D01*
X008213Y014199D01*
X008213Y014202D01*
Y014202D01*
Y014202D01*
X008213Y014203D01*
X008213Y014204D01*
X008213Y014206D01*
X008212Y014208D01*
X008211Y01421D01*
X00821Y014212D01*
X008208Y014214D01*
X008208Y014214D01*
X008207Y014215D01*
X008206Y014215D01*
X008205Y014216D01*
X008203Y014217D01*
X0082Y014218D01*
X008198Y014219D01*
X008195Y014219D01*
X008194D01*
X008193Y014219D01*
X008192Y014219D01*
X00819Y014218D01*
X008188Y014218D01*
X008185Y014217D01*
X008183Y014215D01*
X008181Y014214D01*
X00818Y014213D01*
X00818Y014213D01*
X008179Y014211D01*
X008178Y01421D01*
X008177Y014208D01*
X008176Y014205D01*
X008176Y014202D01*
X008176Y014199D01*
X008163Y014201D01*
Y014201D01*
X008163Y014201D01*
Y014202D01*
X008164Y014203D01*
X008164Y014204D01*
X008164Y014205D01*
X008165Y014207D01*
X008165Y014208D01*
X008166Y014212D01*
X008168Y014215D01*
X008169Y014217D01*
X00817Y014218D01*
X008171Y01422D01*
X008173Y014221D01*
X008173Y014222D01*
X008173Y014222D01*
X008174Y014222D01*
X008174Y014222D01*
X008175Y014223D01*
X008176Y014224D01*
X008177Y014224D01*
X008179Y014225D01*
X00818Y014226D01*
X008182Y014226D01*
X008184Y014227D01*
X008186Y014228D01*
X008188Y014228D01*
X00819Y014228D01*
X008192Y014229D01*
X008195Y014229D01*
X008196D01*
X008197Y014229D01*
D02*
G37*
G36*
X008046Y014131D02*
X008033D01*
Y014228D01*
X008046D01*
Y014131D01*
D02*
G37*
G36*
X008572Y014227D02*
X008573Y014226D01*
X008574Y014226D01*
X008576Y014226D01*
X008578Y014226D01*
X008582Y014225D01*
X008586Y014224D01*
X008588Y014223D01*
X00859Y014222D01*
X008592Y014221D01*
X008594Y014219D01*
X008594Y014219D01*
X008594Y014219D01*
X008595Y014219D01*
X008596Y014218D01*
X008596Y014217D01*
X008597Y014216D01*
X008598Y014215D01*
X008599Y014214D01*
X0086Y014212D01*
X008602Y014211D01*
X008603Y014209D01*
X008604Y014207D01*
X008605Y014205D01*
X008606Y014203D01*
X008607Y014201D01*
X008608Y014198D01*
X008595Y014195D01*
Y014195D01*
X008595Y014196D01*
X008595Y014196D01*
X008594Y014197D01*
X008594Y014198D01*
X008594Y014199D01*
X008593Y014201D01*
X008591Y014204D01*
X008589Y014206D01*
X008587Y014209D01*
X008585Y014211D01*
X008585Y014211D01*
X008584Y014212D01*
X008583Y014212D01*
X008581Y014213D01*
X008578Y014214D01*
X008576Y014215D01*
X008572Y014216D01*
X008569Y014216D01*
X008568D01*
X008567Y014216D01*
X008566D01*
X008565Y014215D01*
X008562Y014215D01*
X008559Y014214D01*
X008556Y014213D01*
X008553Y014212D01*
X00855Y01421D01*
X00855D01*
X00855Y01421D01*
X008549Y014209D01*
X008547Y014208D01*
X008546Y014206D01*
X008544Y014204D01*
X008542Y014202D01*
X008541Y014199D01*
X008539Y014196D01*
Y014196D01*
X008539Y014195D01*
X008539Y014195D01*
X008539Y014194D01*
X008539Y014193D01*
X008538Y014192D01*
X008538Y01419D01*
X008537Y014187D01*
X008537Y014184D01*
X008537Y014181D01*
X008536Y014177D01*
Y014177D01*
Y014176D01*
Y014176D01*
Y014175D01*
X008537Y014174D01*
Y014173D01*
X008537Y014171D01*
X008537Y01417D01*
X008537Y014166D01*
X008538Y014163D01*
X008539Y014159D01*
X00854Y014155D01*
Y014155D01*
X00854Y014155D01*
X00854Y014154D01*
X008541Y014154D01*
X008542Y014152D01*
X008543Y01415D01*
X008544Y014148D01*
X008546Y014145D01*
X008549Y014143D01*
X008551Y014141D01*
X008551D01*
X008552Y014141D01*
X008552Y014141D01*
X008553Y014141D01*
X008553Y01414D01*
X008554Y01414D01*
X008556Y014139D01*
X008559Y014138D01*
X008562Y014137D01*
X008565Y014137D01*
X008568Y014137D01*
X008569D01*
X00857Y014137D01*
X008571D01*
X008572Y014137D01*
X008574Y014138D01*
X008577Y014138D01*
X00858Y014139D01*
X008583Y014141D01*
X008585Y014142D01*
X008586Y014143D01*
X008586Y014143D01*
X008587Y014143D01*
X008587Y014144D01*
X008588Y014144D01*
X008588Y014145D01*
X008589Y014146D01*
X00859Y014147D01*
X00859Y014148D01*
X008591Y014149D01*
X008592Y01415D01*
X008593Y014152D01*
X008594Y014153D01*
X008595Y014155D01*
X008595Y014157D01*
X008596Y014159D01*
X008597Y014162D01*
X008609Y014158D01*
Y014158D01*
X008609Y014158D01*
X008609Y014157D01*
X008609Y014156D01*
X008608Y014154D01*
X008608Y014153D01*
X008607Y014151D01*
X008606Y014149D01*
X008604Y014145D01*
X008602Y014141D01*
X0086Y014139D01*
X008598Y014137D01*
X008597Y014136D01*
X008595Y014134D01*
X008595Y014134D01*
X008594Y014134D01*
X008594Y014133D01*
X008593Y014133D01*
X008592Y014132D01*
X008591Y014131D01*
X008589Y014131D01*
X008588Y01413D01*
X008586Y014129D01*
X008584Y014128D01*
X008582Y014128D01*
X008579Y014127D01*
X008577Y014126D01*
X008575Y014126D01*
X008572Y014126D01*
X008569Y014126D01*
X008567D01*
X008566Y014126D01*
X008565D01*
X008564Y014126D01*
X008562Y014126D01*
X00856Y014127D01*
X008556Y014127D01*
X008552Y014128D01*
X008547Y01413D01*
X008545Y014131D01*
X008543Y014132D01*
X008543Y014132D01*
X008543Y014132D01*
X008542Y014133D01*
X008542Y014133D01*
X008541Y014134D01*
X00854Y014135D01*
X008539Y014136D01*
X008538Y014137D01*
X008537Y014138D01*
X008535Y014139D01*
X008533Y014143D01*
X00853Y014147D01*
X008528Y014151D01*
Y014151D01*
X008528Y014151D01*
X008528Y014152D01*
X008527Y014153D01*
X008527Y014154D01*
X008527Y014155D01*
X008526Y014157D01*
X008526Y014159D01*
X008525Y01416D01*
X008525Y014163D01*
X008524Y014167D01*
X008524Y014172D01*
X008523Y014177D01*
Y014177D01*
Y014178D01*
Y014179D01*
X008523Y014179D01*
Y014181D01*
X008524Y014182D01*
X008524Y014184D01*
X008524Y014186D01*
X008525Y01419D01*
X008526Y014195D01*
X008527Y014199D01*
X008529Y014203D01*
X008529Y014204D01*
X008529Y014204D01*
X00853Y014205D01*
X00853Y014205D01*
X008531Y014206D01*
X008531Y014207D01*
X008533Y01421D01*
X008536Y014213D01*
X008538Y014216D01*
X008542Y014218D01*
X008545Y014221D01*
X008546Y014221D01*
X008546Y014221D01*
X008547Y014221D01*
X008547Y014222D01*
X008548Y014222D01*
X00855Y014223D01*
X008551Y014223D01*
X008553Y014224D01*
X008554Y014224D01*
X008556Y014225D01*
X00856Y014226D01*
X008565Y014226D01*
X008569Y014227D01*
X008571D01*
X008572Y014227D01*
D02*
G37*
G36*
X008666Y014127D02*
X008654D01*
Y014204D01*
X008653Y014204D01*
X008653Y014203D01*
X008652Y014202D01*
X008651Y014201D01*
X008649Y0142D01*
X008647Y014199D01*
X008645Y014197D01*
X008642Y014195D01*
X008642D01*
X008642Y014195D01*
X008641Y014195D01*
X00864Y014194D01*
X008638Y014193D01*
X008636Y014192D01*
X008634Y014191D01*
X008632Y01419D01*
X00863Y014189D01*
Y014201D01*
X00863D01*
X00863Y014201D01*
X008631Y014201D01*
X008631Y014202D01*
X008632Y014202D01*
X008633Y014203D01*
X008636Y014204D01*
X008638Y014206D01*
X008641Y014208D01*
X008644Y01421D01*
X008647Y014212D01*
X008647Y014212D01*
X008647Y014213D01*
X008648Y014213D01*
X008648Y014213D01*
X00865Y014215D01*
X008651Y014217D01*
X008653Y014219D01*
X008655Y014221D01*
X008656Y014223D01*
X008658Y014225D01*
X008666D01*
Y014127D01*
D02*
G37*
G36*
X008504D02*
X008491D01*
Y014225D01*
X008504D01*
Y014127D01*
D02*
G37*
G36*
X00946Y01354D02*
X009448D01*
Y013616D01*
X009448Y013616D01*
X009448Y013616D01*
X009447Y013615D01*
X009445Y013614D01*
X009444Y013613D01*
X009442Y013611D01*
X00944Y01361D01*
X009437Y013608D01*
X009437D01*
X009437Y013608D01*
X009436Y013607D01*
X009434Y013607D01*
X009433Y013606D01*
X009431Y013605D01*
X009429Y013604D01*
X009427Y013603D01*
X009424Y013602D01*
Y013614D01*
X009425D01*
X009425Y013614D01*
X009425Y013614D01*
X009426Y013614D01*
X009427Y013615D01*
X009428Y013615D01*
X00943Y013617D01*
X009433Y013618D01*
X009436Y01362D01*
X009439Y013623D01*
X009442Y013625D01*
X009442Y013625D01*
X009442Y013625D01*
X009443Y013626D01*
X009443Y013626D01*
X009444Y013627D01*
X009446Y013629D01*
X009448Y013631D01*
X00945Y013633D01*
X009451Y013636D01*
X009453Y013638D01*
X00946D01*
Y01354D01*
D02*
G37*
G36*
X009362Y013637D02*
X009365Y013637D01*
X009367Y013637D01*
X00937Y013637D01*
X009373Y013636D01*
X009373D01*
X009373Y013636D01*
X009374D01*
X009374Y013636D01*
X009376Y013635D01*
X009378Y013635D01*
X00938Y013634D01*
X009382Y013632D01*
X009385Y013631D01*
X009387Y013629D01*
X009387Y013629D01*
X009387Y013629D01*
X009388Y013628D01*
X009388Y013628D01*
X00939Y013627D01*
X009391Y013625D01*
X009393Y013622D01*
X009395Y013619D01*
X009397Y013616D01*
X009398Y013613D01*
Y013612D01*
X009399Y013612D01*
X009399Y013612D01*
X009399Y013611D01*
X009399Y01361D01*
X0094Y013609D01*
X0094Y013607D01*
X0094Y013606D01*
X009401Y013604D01*
X009401Y013602D01*
X009402Y013598D01*
X009402Y013594D01*
X009402Y013589D01*
Y013589D01*
Y013589D01*
Y013588D01*
Y013587D01*
X009402Y013586D01*
Y013585D01*
X009402Y013583D01*
X009402Y01358D01*
X009401Y013576D01*
X009401Y013573D01*
X0094Y01357D01*
Y013569D01*
X0094Y013569D01*
X009399Y013569D01*
X009399Y013568D01*
X009399Y013567D01*
X009398Y013565D01*
X009397Y013562D01*
X009396Y01356D01*
X009395Y013558D01*
X009393Y013555D01*
X009393Y013555D01*
X009392Y013554D01*
X009392Y013553D01*
X00939Y013552D01*
X009389Y013551D01*
X009388Y013549D01*
X009386Y013548D01*
X009384Y013547D01*
X009384Y013546D01*
X009383Y013546D01*
X009382Y013545D01*
X009381Y013545D01*
X009379Y013544D01*
X009377Y013543D01*
X009375Y013542D01*
X009373Y013542D01*
X009372D01*
X009372Y013541D01*
X009371Y013541D01*
X00937Y013541D01*
X009368Y013541D01*
X009366Y013541D01*
X009363Y01354D01*
X00936Y01354D01*
X009357Y01354D01*
X009322D01*
Y013638D01*
X009359D01*
X009362Y013637D01*
D02*
G37*
G36*
X012045Y012634D02*
X012046Y012634D01*
X012048Y012634D01*
X012049Y012634D01*
X012051Y012633D01*
X012055Y012632D01*
X012059Y012631D01*
X012061Y01263D01*
X012063Y012629D01*
X012065Y012628D01*
X012067Y012627D01*
X012067Y012627D01*
X012067Y012626D01*
X012068Y012626D01*
X012069Y012625D01*
X012069Y012625D01*
X01207Y012624D01*
X012071Y012622D01*
X012073Y012621D01*
X012074Y01262D01*
X012075Y012618D01*
X012076Y012617D01*
X012077Y012615D01*
X012078Y012613D01*
X012079Y01261D01*
X01208Y012608D01*
X012081Y012606D01*
X012068Y012603D01*
Y012603D01*
X012068Y012603D01*
X012068Y012604D01*
X012068Y012604D01*
X012067Y012605D01*
X012067Y012606D01*
X012066Y012609D01*
X012064Y012611D01*
X012063Y012614D01*
X012061Y012616D01*
X012058Y012618D01*
X012058Y012618D01*
X012057Y012619D01*
X012056Y01262D01*
X012054Y012621D01*
X012052Y012622D01*
X012049Y012622D01*
X012046Y012623D01*
X012042Y012623D01*
X012041D01*
X01204Y012623D01*
X012039D01*
X012038Y012623D01*
X012035Y012622D01*
X012033Y012622D01*
X012029Y012621D01*
X012026Y012619D01*
X012023Y012618D01*
X012023D01*
X012023Y012617D01*
X012022Y012617D01*
X012021Y012616D01*
X012019Y012614D01*
X012017Y012612D01*
X012016Y012609D01*
X012014Y012606D01*
X012013Y012603D01*
Y012603D01*
X012012Y012603D01*
X012012Y012602D01*
X012012Y012602D01*
X012012Y012601D01*
X012012Y0126D01*
X012011Y012597D01*
X012011Y012595D01*
X01201Y012591D01*
X01201Y012588D01*
X01201Y012584D01*
Y012584D01*
Y012584D01*
Y012583D01*
Y012582D01*
X01201Y012581D01*
Y01258D01*
X01201Y012579D01*
X01201Y012577D01*
X012011Y012574D01*
X012011Y01257D01*
X012012Y012566D01*
X012013Y012563D01*
Y012563D01*
X012013Y012562D01*
X012014Y012562D01*
X012014Y012561D01*
X012015Y012559D01*
X012016Y012557D01*
X012018Y012555D01*
X01202Y012553D01*
X012022Y012551D01*
X012024Y012549D01*
X012025D01*
X012025Y012549D01*
X012025Y012548D01*
X012026Y012548D01*
X012027Y012548D01*
X012027Y012547D01*
X012029Y012546D01*
X012032Y012546D01*
X012035Y012545D01*
X012038Y012544D01*
X012041Y012544D01*
X012042D01*
X012043Y012544D01*
X012044D01*
X012045Y012544D01*
X012047Y012545D01*
X01205Y012546D01*
X012053Y012547D01*
X012056Y012548D01*
X012058Y012549D01*
X012059Y01255D01*
X01206Y012551D01*
X01206Y012551D01*
X01206Y012551D01*
X012061Y012552D01*
X012061Y012552D01*
X012062Y012553D01*
X012063Y012554D01*
X012064Y012555D01*
X012064Y012556D01*
X012065Y012558D01*
X012066Y012559D01*
X012067Y012561D01*
X012068Y012563D01*
X012068Y012565D01*
X012069Y012567D01*
X01207Y012569D01*
X012083Y012566D01*
Y012566D01*
X012083Y012565D01*
X012082Y012564D01*
X012082Y012563D01*
X012081Y012562D01*
X012081Y01256D01*
X01208Y012559D01*
X012079Y012557D01*
X012077Y012553D01*
X012075Y012549D01*
X012073Y012547D01*
X012072Y012545D01*
X01207Y012543D01*
X012068Y012542D01*
X012068Y012541D01*
X012068Y012541D01*
X012067Y012541D01*
X012066Y01254D01*
X012065Y01254D01*
X012064Y012539D01*
X012062Y012538D01*
X012061Y012537D01*
X012059Y012537D01*
X012057Y012536D01*
X012055Y012535D01*
X012053Y012534D01*
X01205Y012534D01*
X012048Y012534D01*
X012045Y012533D01*
X012042Y012533D01*
X012041D01*
X01204Y012533D01*
X012038D01*
X012037Y012533D01*
X012035Y012534D01*
X012033Y012534D01*
X012029Y012535D01*
X012025Y012536D01*
X012021Y012537D01*
X012019Y012538D01*
X012017Y01254D01*
X012016Y01254D01*
X012016Y01254D01*
X012016Y01254D01*
X012015Y012541D01*
X012014Y012541D01*
X012013Y012542D01*
X012012Y012543D01*
X012011Y012544D01*
X01201Y012546D01*
X012009Y012547D01*
X012006Y01255D01*
X012004Y012554D01*
X012001Y012558D01*
Y012558D01*
X012001Y012559D01*
X012001Y012559D01*
X012001Y01256D01*
X012Y012561D01*
X012Y012563D01*
X011999Y012564D01*
X011999Y012566D01*
X011999Y012568D01*
X011998Y01257D01*
X011997Y012574D01*
X011997Y012579D01*
X011996Y012584D01*
Y012585D01*
Y012585D01*
Y012586D01*
X011997Y012587D01*
Y012588D01*
X011997Y01259D01*
X011997Y012592D01*
X011997Y012593D01*
X011998Y012597D01*
X011999Y012602D01*
X012Y012607D01*
X012002Y012611D01*
X012002Y012611D01*
X012002Y012611D01*
X012003Y012612D01*
X012003Y012613D01*
X012004Y012614D01*
X012005Y012615D01*
X012006Y012617D01*
X012009Y01262D01*
X012012Y012623D01*
X012015Y012626D01*
X012019Y012628D01*
X012019Y012628D01*
X012019Y012629D01*
X01202Y012629D01*
X012021Y012629D01*
X012022Y01263D01*
X012023Y01263D01*
X012024Y012631D01*
X012026Y012631D01*
X012027Y012632D01*
X012029Y012632D01*
X012033Y012633D01*
X012038Y012634D01*
X012042Y012634D01*
X012044D01*
X012045Y012634D01*
D02*
G37*
G36*
X012144Y012569D02*
X012157D01*
Y012558D01*
X012144D01*
Y012535D01*
X012132D01*
Y012558D01*
X01209D01*
Y012569D01*
X012134Y012632D01*
X012144D01*
Y012569D01*
D02*
G37*
G36*
X007745Y014234D02*
X007746Y014234D01*
X007747Y014234D01*
X007749Y014234D01*
X007751Y014233D01*
X007755Y014233D01*
X007759Y014231D01*
X007761Y01423D01*
X007763Y014229D01*
X007765Y014228D01*
X007767Y014227D01*
X007767Y014227D01*
X007767Y014227D01*
X007768Y014226D01*
X007769Y014225D01*
X007769Y014225D01*
X00777Y014224D01*
X007771Y014223D01*
X007772Y014222D01*
X007773Y01422D01*
X007775Y014218D01*
X007776Y014217D01*
X007777Y014215D01*
X007778Y014213D01*
X007779Y014211D01*
X00778Y014208D01*
X007781Y014206D01*
X007768Y014203D01*
Y014203D01*
X007768Y014203D01*
X007768Y014204D01*
X007767Y014205D01*
X007767Y014205D01*
X007767Y014207D01*
X007766Y014209D01*
X007764Y014211D01*
X007762Y014214D01*
X00776Y014216D01*
X007758Y014218D01*
X007758Y014219D01*
X007757Y014219D01*
X007756Y01422D01*
X007754Y014221D01*
X007751Y014222D01*
X007749Y014223D01*
X007745Y014223D01*
X007742Y014223D01*
X007741D01*
X00774Y014223D01*
X007739D01*
X007738Y014223D01*
X007735Y014223D01*
X007732Y014222D01*
X007729Y014221D01*
X007726Y01422D01*
X007723Y014218D01*
X007723D01*
X007723Y014218D01*
X007722Y014217D01*
X00772Y014216D01*
X007719Y014214D01*
X007717Y014212D01*
X007715Y01421D01*
X007714Y014207D01*
X007712Y014203D01*
Y014203D01*
X007712Y014203D01*
X007712Y014202D01*
X007712Y014202D01*
X007712Y014201D01*
X007711Y0142D01*
X007711Y014198D01*
X00771Y014195D01*
X00771Y014192D01*
X00771Y014188D01*
X007709Y014185D01*
Y014184D01*
Y014184D01*
Y014183D01*
Y014182D01*
X00771Y014181D01*
Y01418D01*
X00771Y014179D01*
X00771Y014177D01*
X00771Y014174D01*
X007711Y01417D01*
X007712Y014167D01*
X007713Y014163D01*
Y014163D01*
X007713Y014162D01*
X007713Y014162D01*
X007714Y014161D01*
X007715Y01416D01*
X007716Y014158D01*
X007717Y014155D01*
X007719Y014153D01*
X007722Y014151D01*
X007724Y014149D01*
X007724D01*
X007725Y014149D01*
X007725Y014148D01*
X007726Y014148D01*
X007726Y014148D01*
X007727Y014148D01*
X007729Y014147D01*
X007732Y014146D01*
X007735Y014145D01*
X007738Y014145D01*
X007741Y014144D01*
X007742D01*
X007743Y014145D01*
X007744D01*
X007745Y014145D01*
X007747Y014145D01*
X00775Y014146D01*
X007753Y014147D01*
X007756Y014149D01*
X007758Y014149D01*
X007759Y014151D01*
X007759Y014151D01*
X007759Y014151D01*
X00776Y014151D01*
X00776Y014152D01*
X007761Y014152D01*
X007762Y014153D01*
X007763Y014154D01*
X007763Y014155D01*
X007764Y014157D01*
X007765Y014158D01*
X007766Y014159D01*
X007767Y014161D01*
X007768Y014163D01*
X007768Y014165D01*
X007769Y014167D01*
X00777Y014169D01*
X007782Y014166D01*
Y014166D01*
X007782Y014165D01*
X007782Y014164D01*
X007782Y014163D01*
X007781Y014162D01*
X007781Y01416D01*
X00778Y014159D01*
X007779Y014157D01*
X007777Y014153D01*
X007775Y014149D01*
X007773Y014147D01*
X007771Y014145D01*
X00777Y014143D01*
X007768Y014142D01*
X007768Y014142D01*
X007767Y014141D01*
X007767Y014141D01*
X007766Y01414D01*
X007765Y01414D01*
X007764Y014139D01*
X007762Y014138D01*
X007761Y014138D01*
X007759Y014137D01*
X007757Y014136D01*
X007755Y014135D01*
X007752Y014135D01*
X00775Y014134D01*
X007748Y014134D01*
X007745Y014134D01*
X007742Y014133D01*
X00774D01*
X007739Y014134D01*
X007738D01*
X007737Y014134D01*
X007735Y014134D01*
X007733Y014134D01*
X007729Y014135D01*
X007725Y014136D01*
X00772Y014138D01*
X007718Y014139D01*
X007716Y01414D01*
X007716Y01414D01*
X007716Y01414D01*
X007715Y01414D01*
X007715Y014141D01*
X007714Y014142D01*
X007713Y014142D01*
X007712Y014143D01*
X007711Y014145D01*
X00771Y014146D01*
X007708Y014147D01*
X007706Y01415D01*
X007703Y014154D01*
X007701Y014158D01*
Y014159D01*
X007701Y014159D01*
X007701Y01416D01*
X0077Y01416D01*
X0077Y014162D01*
X0077Y014163D01*
X007699Y014165D01*
X007699Y014166D01*
X007698Y014168D01*
X007698Y01417D01*
X007697Y014175D01*
X007696Y01418D01*
X007696Y014185D01*
Y014185D01*
Y014185D01*
Y014186D01*
X007696Y014187D01*
Y014189D01*
X007696Y01419D01*
X007697Y014192D01*
X007697Y014194D01*
X007698Y014198D01*
X007699Y014202D01*
X0077Y014207D01*
X007702Y014211D01*
X007702Y014211D01*
X007702Y014212D01*
X007703Y014212D01*
X007703Y014213D01*
X007704Y014214D01*
X007704Y014215D01*
X007706Y014218D01*
X007709Y01422D01*
X007711Y014223D01*
X007715Y014226D01*
X007718Y014228D01*
X007719Y014229D01*
X007719Y014229D01*
X00772Y014229D01*
X00772Y014229D01*
X007721Y01423D01*
X007723Y01423D01*
X007724Y014231D01*
X007726Y014231D01*
X007727Y014232D01*
X007729Y014233D01*
X007733Y014233D01*
X007738Y014234D01*
X007742Y014234D01*
X007744D01*
X007745Y014234D01*
D02*
G37*
G36*
X007827Y014233D02*
X007829Y014233D01*
X007831Y014232D01*
X007834Y014232D01*
X007836Y014231D01*
X007839Y01423D01*
X007839D01*
X007839Y014229D01*
X00784Y014229D01*
X007841Y014228D01*
X007843Y014227D01*
X007844Y014226D01*
X007846Y014224D01*
X007848Y014222D01*
X007849Y01422D01*
X007849Y01422D01*
X00785Y014219D01*
X00785Y014218D01*
X007851Y014216D01*
X007852Y014215D01*
X007852Y014212D01*
X007853Y01421D01*
X007853Y014208D01*
Y014207D01*
Y014207D01*
X007853Y014205D01*
X007852Y014204D01*
X007852Y014202D01*
X007851Y0142D01*
X00785Y014198D01*
X007849Y014196D01*
X007849Y014196D01*
X007849Y014195D01*
X007848Y014194D01*
X007847Y014193D01*
X007845Y014192D01*
X007844Y014191D01*
X007842Y014189D01*
X007839Y014188D01*
X007839D01*
X00784Y014188D01*
X00784Y014188D01*
X007841Y014188D01*
X007842Y014187D01*
X007844Y014186D01*
X007846Y014185D01*
X007849Y014184D01*
X007851Y014182D01*
X007853Y01418D01*
X007853Y014179D01*
X007853Y014179D01*
X007854Y014177D01*
X007855Y014175D01*
X007856Y014173D01*
X007857Y01417D01*
X007857Y014167D01*
X007857Y014164D01*
Y014164D01*
Y014163D01*
Y014163D01*
X007857Y014162D01*
X007857Y014161D01*
X007857Y014159D01*
X007857Y014158D01*
X007856Y014156D01*
X007855Y014153D01*
X007854Y014151D01*
X007854Y014149D01*
X007852Y014148D01*
X007851Y014146D01*
X00785Y014144D01*
X007848Y014142D01*
X007848Y014142D01*
X007848Y014142D01*
X007847Y014141D01*
X007846Y014141D01*
X007845Y01414D01*
X007844Y014139D01*
X007843Y014139D01*
X007842Y014138D01*
X00784Y014137D01*
X007838Y014136D01*
X007836Y014136D01*
X007834Y014135D01*
X007832Y014134D01*
X00783Y014134D01*
X007827Y014134D01*
X007824Y014133D01*
X007823D01*
X007822Y014134D01*
X007821Y014134D01*
X00782Y014134D01*
X007819Y014134D01*
X007817Y014134D01*
X007814Y014135D01*
X00781Y014137D01*
X007808Y014137D01*
X007807Y014138D01*
X007805Y01414D01*
X007803Y014141D01*
X007803Y014141D01*
X007803Y014141D01*
X007802Y014142D01*
X007802Y014142D01*
X007801Y014143D01*
X007801Y014144D01*
X0078Y014145D01*
X007799Y014146D01*
X007798Y014148D01*
X007797Y014149D01*
X007796Y014153D01*
X007794Y014157D01*
X007794Y014159D01*
X007794Y014161D01*
X007806Y014162D01*
Y014162D01*
X007806Y014162D01*
X007806Y014161D01*
X007806Y014161D01*
X007806Y01416D01*
X007806Y014159D01*
X007807Y014157D01*
X007808Y014154D01*
X007809Y014152D01*
X007811Y01415D01*
X007812Y014148D01*
X007813Y014148D01*
X007813Y014147D01*
X007814Y014146D01*
X007816Y014146D01*
X007818Y014145D01*
X00782Y014144D01*
X007822Y014143D01*
X007825Y014143D01*
X007825D01*
X007826Y014143D01*
X007828Y014144D01*
X00783Y014144D01*
X007832Y014145D01*
X007834Y014146D01*
X007837Y014147D01*
X007839Y014149D01*
X007839Y014149D01*
X00784Y01415D01*
X007841Y014151D01*
X007842Y014153D01*
X007843Y014155D01*
X007844Y014158D01*
X007844Y01416D01*
X007845Y014164D01*
Y014164D01*
Y014164D01*
Y014164D01*
X007845Y014165D01*
X007844Y014167D01*
X007844Y014168D01*
X007844Y014171D01*
X007843Y014173D01*
X007841Y014175D01*
X007839Y014177D01*
X007839Y014178D01*
X007838Y014178D01*
X007837Y014179D01*
X007836Y01418D01*
X007834Y014181D01*
X007831Y014182D01*
X007829Y014182D01*
X007826Y014183D01*
X007824D01*
X007823Y014182D01*
X007822Y014182D01*
X007821Y014182D01*
X007819Y014182D01*
X007817Y014181D01*
X007819Y014192D01*
X007819D01*
X00782Y014192D01*
X007822D01*
X007823Y014192D01*
X007825Y014192D01*
X007827Y014193D01*
X00783Y014193D01*
X007832Y014194D01*
X007834Y014196D01*
X007834D01*
X007834Y014196D01*
X007835Y014196D01*
X007836Y014197D01*
X007837Y014199D01*
X007838Y014201D01*
X007839Y014203D01*
X00784Y014205D01*
X00784Y014206D01*
Y014208D01*
Y014208D01*
Y014208D01*
Y014209D01*
X00784Y01421D01*
X00784Y014212D01*
X007839Y014213D01*
X007839Y014215D01*
X007837Y014217D01*
X007836Y014219D01*
X007836Y014219D01*
X007835Y01422D01*
X007834Y01422D01*
X007833Y014221D01*
X007831Y014222D01*
X007829Y014223D01*
X007827Y014223D01*
X007824Y014223D01*
X007823D01*
X007822Y014223D01*
X00782Y014223D01*
X007818Y014222D01*
X007817Y014221D01*
X007815Y01422D01*
X007813Y014219D01*
X007813Y014219D01*
X007812Y014218D01*
X007811Y014217D01*
X00781Y014216D01*
X007809Y014214D01*
X007808Y014212D01*
X007807Y014209D01*
X007807Y014206D01*
X007795Y014208D01*
Y014208D01*
X007795Y014208D01*
X007795Y014209D01*
X007795Y01421D01*
X007796Y014211D01*
X007796Y014212D01*
X007797Y014215D01*
X007798Y014218D01*
X0078Y014221D01*
X007802Y014224D01*
X007805Y014226D01*
X007805Y014227D01*
X007805Y014227D01*
X007806Y014227D01*
X007806Y014227D01*
X007807Y014228D01*
X007808Y014229D01*
X007809Y014229D01*
X00781Y01423D01*
X007813Y014231D01*
X007816Y014232D01*
X00782Y014233D01*
X007822Y014233D01*
X007825D01*
X007827Y014233D01*
D02*
G37*
G36*
X008932Y013516D02*
X008933Y013516D01*
X008935Y013516D01*
X008936Y013516D01*
X008938Y013516D01*
X008942Y013515D01*
X008946Y013513D01*
X008948Y013513D01*
X00895Y013512D01*
X008952Y01351D01*
X008954Y013509D01*
X008954Y013509D01*
X008954Y013509D01*
X008955Y013508D01*
X008956Y013508D01*
X008956Y013507D01*
X008957Y013506D01*
X008958Y013505D01*
X008959Y013504D01*
X008961Y013502D01*
X008962Y013501D01*
X008963Y013499D01*
X008964Y013497D01*
X008965Y013495D01*
X008966Y013493D01*
X008967Y013491D01*
X008968Y013488D01*
X008955Y013485D01*
Y013485D01*
X008955Y013486D01*
X008955Y013486D01*
X008955Y013487D01*
X008954Y013488D01*
X008954Y013489D01*
X008953Y013491D01*
X008951Y013494D01*
X00895Y013496D01*
X008947Y013499D01*
X008945Y013501D01*
X008945Y013501D01*
X008944Y013501D01*
X008943Y013502D01*
X008941Y013503D01*
X008938Y013504D01*
X008936Y013505D01*
X008933Y013505D01*
X008929Y013506D01*
X008928D01*
X008927Y013505D01*
X008926D01*
X008925Y013505D01*
X008922Y013505D01*
X008919Y013504D01*
X008916Y013503D01*
X008913Y013502D01*
X00891Y0135D01*
X00891D01*
X00891Y0135D01*
X008909Y013499D01*
X008908Y013498D01*
X008906Y013496D01*
X008904Y013494D01*
X008903Y013492D01*
X008901Y013489D01*
X0089Y013486D01*
Y013485D01*
X008899Y013485D01*
X008899Y013485D01*
X008899Y013484D01*
X008899Y013483D01*
X008899Y013482D01*
X008898Y01348D01*
X008898Y013477D01*
X008897Y013474D01*
X008897Y01347D01*
X008897Y013467D01*
Y013467D01*
Y013466D01*
Y013466D01*
Y013465D01*
X008897Y013464D01*
Y013462D01*
X008897Y013461D01*
X008897Y013459D01*
X008897Y013456D01*
X008898Y013452D01*
X008899Y013449D01*
X0089Y013445D01*
Y013445D01*
X0089Y013445D01*
X008901Y013444D01*
X008901Y013444D01*
X008902Y013442D01*
X008903Y01344D01*
X008905Y013438D01*
X008906Y013435D01*
X008909Y013433D01*
X008911Y013431D01*
X008912D01*
X008912Y013431D01*
X008912Y013431D01*
X008913Y01343D01*
X008914Y01343D01*
X008914Y01343D01*
X008916Y013429D01*
X008919Y013428D01*
X008922Y013427D01*
X008925Y013427D01*
X008928Y013427D01*
X008929D01*
X00893Y013427D01*
X008931D01*
X008932Y013427D01*
X008934Y013427D01*
X008937Y013428D01*
X00894Y013429D01*
X008943Y013431D01*
X008945Y013432D01*
X008946Y013433D01*
X008947Y013433D01*
X008947Y013433D01*
X008947Y013434D01*
X008948Y013434D01*
X008948Y013435D01*
X008949Y013436D01*
X00895Y013436D01*
X00895Y013437D01*
X008951Y013439D01*
X008952Y01344D01*
X008953Y013442D01*
X008954Y013443D01*
X008955Y013445D01*
X008955Y013447D01*
X008956Y013449D01*
X008957Y013451D01*
X00897Y013448D01*
Y013448D01*
X008969Y013447D01*
X008969Y013447D01*
X008969Y013446D01*
X008968Y013444D01*
X008968Y013443D01*
X008967Y013441D01*
X008966Y013439D01*
X008964Y013435D01*
X008962Y013431D01*
X00896Y013429D01*
X008959Y013427D01*
X008957Y013426D01*
X008955Y013424D01*
X008955Y013424D01*
X008955Y013424D01*
X008954Y013423D01*
X008953Y013423D01*
X008952Y013422D01*
X008951Y013421D01*
X008949Y013421D01*
X008948Y01342D01*
X008946Y013419D01*
X008944Y013418D01*
X008942Y013418D01*
X00894Y013417D01*
X008937Y013416D01*
X008935Y013416D01*
X008932Y013416D01*
X008929Y013416D01*
X008928D01*
X008926Y013416D01*
X008925D01*
X008924Y013416D01*
X008922Y013416D01*
X00892Y013416D01*
X008916Y013417D01*
X008912Y013418D01*
X008907Y01342D01*
X008905Y013421D01*
X008904Y013422D01*
X008903Y013422D01*
X008903Y013422D01*
X008903Y013423D01*
X008902Y013423D01*
X008901Y013424D01*
X0089Y013425D01*
X008899Y013426D01*
X008898Y013427D01*
X008897Y013428D01*
X008895Y013429D01*
X008893Y013433D01*
X008891Y013436D01*
X008888Y013441D01*
Y013441D01*
X008888Y013441D01*
X008888Y013442D01*
X008888Y013443D01*
X008887Y013444D01*
X008887Y013445D01*
X008886Y013447D01*
X008886Y013448D01*
X008885Y01345D01*
X008885Y013452D01*
X008884Y013457D01*
X008884Y013462D01*
X008883Y013467D01*
Y013467D01*
Y013468D01*
Y013468D01*
X008883Y013469D01*
Y013471D01*
X008884Y013472D01*
X008884Y013474D01*
X008884Y013476D01*
X008885Y01348D01*
X008886Y013484D01*
X008887Y013489D01*
X008889Y013493D01*
X008889Y013493D01*
X008889Y013494D01*
X00889Y013494D01*
X00889Y013495D01*
X008891Y013496D01*
X008892Y013497D01*
X008893Y0135D01*
X008896Y013503D01*
X008899Y013505D01*
X008902Y013508D01*
X008906Y013511D01*
X008906Y013511D01*
X008906Y013511D01*
X008907Y013511D01*
X008907Y013512D01*
X008909Y013512D01*
X00891Y013512D01*
X008911Y013513D01*
X008913Y013514D01*
X008914Y013514D01*
X008916Y013515D01*
X00892Y013516D01*
X008925Y013516D01*
X008929Y013517D01*
X008931D01*
X008932Y013516D01*
D02*
G37*
G36*
X009015Y013515D02*
X009016Y013515D01*
X009018Y013515D01*
X009019Y013515D01*
X009021Y013514D01*
X009025Y013513D01*
X009028Y013512D01*
X00903Y013511D01*
X009032Y01351D01*
X009034Y013509D01*
X009035Y013507D01*
X009035Y013507D01*
X009036Y013507D01*
X009036Y013507D01*
X009036Y013506D01*
X009037Y013505D01*
X009038Y013504D01*
X009039Y013503D01*
X009039Y013502D01*
X009041Y013499D01*
X009042Y013496D01*
X009043Y013494D01*
X009043Y013492D01*
X009043Y01349D01*
X009044Y013488D01*
Y013488D01*
Y013487D01*
X009043Y013486D01*
X009043Y013485D01*
X009043Y013483D01*
X009042Y013481D01*
X009042Y013479D01*
X009041Y013477D01*
X009041Y013476D01*
X009041Y013476D01*
X00904Y013475D01*
X009039Y013473D01*
X009038Y013471D01*
X009037Y013469D01*
X009035Y013467D01*
X009033Y013465D01*
X009033Y013464D01*
X009032Y013464D01*
X009031Y013463D01*
X009031Y013462D01*
X00903Y013461D01*
X009029Y01346D01*
X009027Y013459D01*
X009026Y013458D01*
X009025Y013456D01*
X009023Y013455D01*
X009021Y013453D01*
X009019Y013451D01*
X009017Y01345D01*
X009015Y013448D01*
X009014Y013447D01*
X009014Y013447D01*
X009014Y013447D01*
X009013Y013446D01*
X009012Y013445D01*
X009011Y013445D01*
X009009Y013443D01*
X009006Y013441D01*
X009004Y013438D01*
X009002Y013437D01*
X009001Y013436D01*
X009001Y013435D01*
X009001Y013435D01*
X009Y013435D01*
X009Y013434D01*
X008999Y013433D01*
X008998Y013432D01*
X008997Y013431D01*
X008996Y013429D01*
X009044D01*
Y013417D01*
X008979D01*
Y013417D01*
Y013418D01*
Y013419D01*
X008979Y01342D01*
X008979Y013421D01*
X008979Y013423D01*
X00898Y013424D01*
X00898Y013426D01*
Y013426D01*
X00898Y013426D01*
X008981Y013427D01*
X008981Y013428D01*
X008982Y01343D01*
X008983Y013432D01*
X008985Y013434D01*
X008986Y013436D01*
X008988Y013439D01*
Y013439D01*
X008989Y013439D01*
X008989Y01344D01*
X00899Y013441D01*
X008992Y013443D01*
X008994Y013445D01*
X008997Y013447D01*
X009Y01345D01*
X009004Y013453D01*
X009004Y013453D01*
X009005Y013454D01*
X009005Y013455D01*
X009006Y013455D01*
X009008Y013457D01*
X009009Y013458D01*
X009011Y013459D01*
X009013Y013461D01*
X009016Y013464D01*
X00902Y013468D01*
X009021Y013469D01*
X009023Y013471D01*
X009024Y013472D01*
X009025Y013474D01*
Y013474D01*
X009026Y013474D01*
X009026Y013475D01*
X009026Y013475D01*
X009027Y013477D01*
X009028Y013479D01*
X009029Y013481D01*
X00903Y013483D01*
X009031Y013486D01*
X009031Y013489D01*
Y013489D01*
Y013489D01*
X009031Y01349D01*
X009031Y013491D01*
X009031Y013493D01*
X00903Y013495D01*
X009029Y013497D01*
X009028Y013499D01*
X009026Y0135D01*
X009026Y013501D01*
X009025Y013501D01*
X009024Y013502D01*
X009022Y013503D01*
X009021Y013504D01*
X009018Y013505D01*
X009016Y013505D01*
X009013Y013505D01*
X009012D01*
X009011Y013505D01*
X00901Y013505D01*
X009008Y013505D01*
X009005Y013504D01*
X009003Y013503D01*
X009001Y013502D01*
X008999Y0135D01*
X008998Y0135D01*
X008998Y013499D01*
X008997Y013498D01*
X008996Y013496D01*
X008995Y013494D01*
X008994Y013492D01*
X008994Y013489D01*
X008993Y013486D01*
X008981Y013487D01*
Y013487D01*
X008981Y013488D01*
Y013488D01*
X008981Y013489D01*
X008982Y01349D01*
X008982Y013492D01*
X008982Y013493D01*
X008983Y013495D01*
X008984Y013498D01*
X008986Y013502D01*
X008987Y013503D01*
X008988Y013505D01*
X008989Y013507D01*
X008991Y013508D01*
X008991Y013508D01*
X008991Y013508D01*
X008991Y013509D01*
X008992Y013509D01*
X008993Y01351D01*
X008994Y01351D01*
X008995Y013511D01*
X008997Y013512D01*
X008998Y013512D01*
X009Y013513D01*
X009002Y013514D01*
X009004Y013514D01*
X009006Y013515D01*
X009008Y013515D01*
X00901Y013515D01*
X009013Y013515D01*
X009014D01*
X009015Y013515D01*
D02*
G37*
G36*
X006436Y013318D02*
X006424D01*
Y013394D01*
X006424Y013394D01*
X006423Y013393D01*
X006423Y013393D01*
X006421Y013392D01*
X00642Y01339D01*
X006418Y013389D01*
X006415Y013387D01*
X006413Y013386D01*
X006413D01*
X006413Y013386D01*
X006412Y013385D01*
X00641Y013384D01*
X006409Y013384D01*
X006407Y013383D01*
X006404Y013382D01*
X006402Y013381D01*
X0064Y01338D01*
Y013391D01*
X0064D01*
X006401Y013392D01*
X006401Y013392D01*
X006402Y013392D01*
X006403Y013393D01*
X006404Y013393D01*
X006406Y013395D01*
X006409Y013396D01*
X006412Y013398D01*
X006415Y0134D01*
X006418Y013403D01*
X006418Y013403D01*
X006418Y013403D01*
X006418Y013403D01*
X006419Y013404D01*
X00642Y013405D01*
X006422Y013407D01*
X006424Y013409D01*
X006426Y013411D01*
X006427Y013413D01*
X006428Y013416D01*
X006436D01*
Y013318D01*
D02*
G37*
G36*
X006314Y01339D02*
X006316Y01339D01*
X006318Y01339D01*
X006321Y013389D01*
X006323Y013389D01*
X006325Y013388D01*
X006326Y013388D01*
X006326Y013388D01*
X006327Y013387D01*
X006329Y013387D01*
X00633Y013386D01*
X006331Y013385D01*
X006333Y013384D01*
X006334Y013383D01*
X006334Y013382D01*
X006334Y013382D01*
X006335Y013381D01*
X006335Y01338D01*
X006336Y013379D01*
X006336Y013378D01*
X006337Y013376D01*
X006337Y013375D01*
Y013374D01*
X006338Y013374D01*
X006338Y013373D01*
X006338Y013372D01*
Y01337D01*
X006338Y013369D01*
X006338Y013366D01*
Y013364D01*
Y013347D01*
Y013347D01*
Y013347D01*
Y013346D01*
Y013345D01*
Y013344D01*
Y013342D01*
X006338Y013339D01*
Y013335D01*
X006338Y013332D01*
X006339Y01333D01*
Y013329D01*
X006339Y013327D01*
X006339Y013326D01*
Y013326D01*
X006339Y013326D01*
X006339Y013325D01*
X00634Y013324D01*
X00634Y013322D01*
X00634Y013321D01*
X006341Y013319D01*
X006342Y013318D01*
X006329D01*
X006329Y013318D01*
X006329Y013319D01*
X006329Y013319D01*
X006328Y01332D01*
X006328Y013322D01*
X006328Y013323D01*
X006327Y013325D01*
X006327Y013327D01*
X006327D01*
X006327Y013326D01*
X006326Y013326D01*
X006325Y013325D01*
X006323Y013324D01*
X006321Y013322D01*
X006319Y013321D01*
X006316Y01332D01*
X006314Y013319D01*
X006314Y013318D01*
X006313Y013318D01*
X006312Y013318D01*
X00631Y013317D01*
X006308Y013317D01*
X006306Y013317D01*
X006303Y013316D01*
X006301Y013316D01*
X0063D01*
X006299Y013316D01*
X006298D01*
X006297Y013317D01*
X006294Y013317D01*
X006291Y013318D01*
X006288Y013319D01*
X006285Y01332D01*
X006283Y013322D01*
X006283Y013322D01*
X006282Y013323D01*
X006281Y013324D01*
X00628Y013326D01*
X006279Y013328D01*
X006278Y01333D01*
X006277Y013333D01*
X006277Y013335D01*
X006277Y013336D01*
Y013337D01*
Y013337D01*
X006277Y013338D01*
X006277Y01334D01*
X006277Y013341D01*
X006278Y013343D01*
X006278Y013344D01*
X006279Y013346D01*
X006279Y013346D01*
X006279Y013347D01*
X00628Y013347D01*
X006281Y013348D01*
X006281Y01335D01*
X006283Y013351D01*
X006284Y013352D01*
X006285Y013353D01*
X006285Y013353D01*
X006286Y013353D01*
X006287Y013354D01*
X006288Y013354D01*
X006289Y013355D01*
X00629Y013356D01*
X006292Y013356D01*
X006294Y013357D01*
X006294D01*
X006295Y013357D01*
X006295Y013357D01*
X006297Y013357D01*
X006298Y013358D01*
X0063Y013358D01*
X006302Y013358D01*
X006304Y013359D01*
X006305D01*
X006305Y013359D01*
X006306D01*
X006307Y013359D01*
X006308Y013359D01*
X006309Y013359D01*
X006311Y013359D01*
X006313Y01336D01*
X006316Y01336D01*
X00632Y013361D01*
X006323Y013362D01*
X006324Y013362D01*
X006326Y013363D01*
Y013363D01*
Y013363D01*
X006326Y013364D01*
Y013365D01*
Y013366D01*
Y013366D01*
Y013366D01*
Y013366D01*
Y013367D01*
X006326Y013368D01*
X006326Y01337D01*
X006325Y013372D01*
X006324Y013373D01*
X006324Y013375D01*
X006322Y013376D01*
X006322Y013376D01*
X006322Y013377D01*
X00632Y013378D01*
X006319Y013378D01*
X006317Y013379D01*
X006315Y01338D01*
X006312Y01338D01*
X006309Y01338D01*
X006307D01*
X006306Y01338D01*
X006304Y01338D01*
X006302Y01338D01*
X0063Y013379D01*
X006298Y013378D01*
X006296Y013377D01*
X006296Y013377D01*
X006296Y013377D01*
X006295Y013376D01*
X006294Y013375D01*
X006293Y013374D01*
X006292Y013372D01*
X006291Y013369D01*
X00629Y013367D01*
X006279Y013368D01*
Y013369D01*
X006279Y013369D01*
Y013369D01*
X006279Y01337D01*
X006279Y013371D01*
X00628Y013373D01*
X006281Y013375D01*
X006282Y013377D01*
X006283Y013379D01*
X006284Y01338D01*
X006284Y013381D01*
X006285Y013381D01*
X006286Y013382D01*
X006287Y013383D01*
X006288Y013384D01*
X00629Y013385D01*
X006292Y013387D01*
X006295Y013388D01*
X006295D01*
X006295Y013388D01*
X006295Y013388D01*
X006296Y013388D01*
X006297Y013389D01*
X006299Y013389D01*
X006301Y013389D01*
X006304Y01339D01*
X006307Y01339D01*
X006311Y01339D01*
X006312D01*
X006314Y01339D01*
D02*
G37*
G36*
X00623Y013415D02*
X006231D01*
X006234Y013415D01*
X006237Y013415D01*
X00624Y013414D01*
X006243Y013413D01*
X006245Y013412D01*
X006245D01*
X006245Y013412D01*
X006246Y013412D01*
X006248Y013411D01*
X006249Y01341D01*
X006251Y013409D01*
X006253Y013407D01*
X006254Y013405D01*
X006256Y013403D01*
X006256Y013403D01*
X006256Y013402D01*
X006257Y013401D01*
X006258Y013399D01*
X006258Y013397D01*
X006259Y013395D01*
X00626Y013393D01*
X00626Y01339D01*
Y01339D01*
Y01339D01*
X00626Y013388D01*
X006259Y013387D01*
X006259Y013385D01*
X006258Y013383D01*
X006257Y013381D01*
X006256Y013379D01*
X006256Y013379D01*
X006256Y013378D01*
X006255Y013377D01*
X006254Y013376D01*
X006252Y013374D01*
X006251Y013373D01*
X006248Y013371D01*
X006246Y01337D01*
X006246D01*
X006246Y01337D01*
X006247Y01337D01*
X006247Y013369D01*
X006249Y013369D01*
X006251Y013368D01*
X006253Y013367D01*
X006256Y013365D01*
X006258Y013363D01*
X00626Y013361D01*
X00626Y013361D01*
X00626Y01336D01*
X006261Y013358D01*
X006262Y013357D01*
X006263Y013355D01*
X006264Y013352D01*
X006264Y013349D01*
X006265Y013346D01*
Y013346D01*
Y013346D01*
Y013345D01*
X006264Y013344D01*
X006264Y013342D01*
X006264Y01334D01*
X006263Y013338D01*
X006263Y013336D01*
X006262Y013333D01*
X006261Y013333D01*
X006261Y013332D01*
X00626Y013331D01*
X00626Y01333D01*
X006258Y013329D01*
X006257Y013327D01*
X006256Y013326D01*
X006254Y013324D01*
X006254Y013324D01*
X006254Y013324D01*
X006253Y013323D01*
X006251Y013323D01*
X00625Y013322D01*
X006248Y013321D01*
X006246Y01332D01*
X006244Y013319D01*
X006243D01*
X006243Y013319D01*
X006241Y013319D01*
X006239Y013319D01*
X006237Y013318D01*
X006234Y013318D01*
X006231Y013318D01*
X006228Y013318D01*
X006191D01*
Y013415D01*
X006229D01*
X00623Y013415D01*
D02*
G37*
G36*
X006371Y013389D02*
X006383D01*
Y013379D01*
X006371D01*
Y013338D01*
Y013337D01*
Y013337D01*
Y013336D01*
X006371Y013335D01*
X006371Y013333D01*
X006371Y013332D01*
X006371Y013331D01*
X006371Y013331D01*
X006372Y01333D01*
X006372Y01333D01*
X006373Y013329D01*
X006373Y013329D01*
X006374Y013328D01*
X006375Y013328D01*
X006377Y013328D01*
X006379D01*
X006379Y013328D01*
X00638D01*
X006382Y013328D01*
X006383Y013328D01*
X006384Y013318D01*
X006384D01*
X006383Y013318D01*
X006382Y013318D01*
X006381Y013317D01*
X00638Y013317D01*
X006378Y013317D01*
X006375Y013317D01*
X006374D01*
X006373Y013317D01*
X006371Y013317D01*
X00637Y013317D01*
X006368Y013318D01*
X006366Y013318D01*
X006365Y013319D01*
X006365Y013319D01*
X006364Y013319D01*
X006364Y01332D01*
X006363Y01332D01*
X006362Y013321D01*
X006361Y013322D01*
X006361Y013323D01*
X00636Y013324D01*
Y013325D01*
X00636Y013325D01*
X00636Y013326D01*
X006359Y013327D01*
X006359Y013329D01*
X006359Y01333D01*
Y013332D01*
X006359Y013333D01*
X006359Y013335D01*
Y013336D01*
Y013338D01*
Y013379D01*
X00635D01*
Y013389D01*
X006359D01*
Y013406D01*
X006371Y013413D01*
Y013389D01*
D02*
G37*
%LPC*%
G36*
X007812Y008364D02*
X007812D01*
X007811Y008364D01*
X00781Y008364D01*
X007808Y008363D01*
X007806Y008363D01*
X007803Y008361D01*
X007801Y00836D01*
X0078Y008359D01*
X007799Y008358D01*
Y008357D01*
X007799Y008357D01*
X007799Y008357D01*
X007798Y008356D01*
X007798Y008356D01*
X007797Y008355D01*
X007797Y008354D01*
X007796Y008353D01*
X007796Y008351D01*
X007795Y00835D01*
X007795Y008348D01*
X007795Y008346D01*
X007794Y008344D01*
X007794Y008342D01*
X007794Y00834D01*
Y008337D01*
Y008337D01*
Y008337D01*
Y008336D01*
X007794Y008335D01*
Y008334D01*
X007794Y008333D01*
X007795Y00833D01*
X007795Y008327D01*
X007796Y008323D01*
X007798Y00832D01*
X007798Y008319D01*
X007799Y008317D01*
X0078D01*
X0078Y008317D01*
X0078Y008316D01*
X007802Y008315D01*
X007803Y008314D01*
X007805Y008313D01*
X007807Y008312D01*
X00781Y008311D01*
X007811Y008311D01*
X007813Y008311D01*
X007813D01*
X007814Y008311D01*
X007815Y008311D01*
X007817Y008312D01*
X007819Y008312D01*
X007822Y008313D01*
X007824Y008315D01*
X007825Y008316D01*
X007826Y008317D01*
Y008317D01*
X007826Y008317D01*
X007826Y008318D01*
X007827Y008318D01*
X007827Y008319D01*
X007828Y00832D01*
X007828Y008321D01*
X007829Y008322D01*
X007829Y008323D01*
X00783Y008325D01*
X00783Y008326D01*
X007831Y008328D01*
X007831Y00833D01*
X007831Y008332D01*
X007831Y008334D01*
Y008336D01*
Y008336D01*
Y008337D01*
Y008338D01*
X007831Y008339D01*
Y00834D01*
X007831Y008341D01*
X007831Y008343D01*
X007831Y008344D01*
X00783Y008348D01*
X007829Y008351D01*
X007828Y008354D01*
X007827Y008356D01*
X007826Y008357D01*
Y008357D01*
X007826Y008358D01*
X007825Y008358D01*
X007824Y008359D01*
X007822Y008361D01*
X00782Y008362D01*
X007818Y008363D01*
X007815Y008364D01*
X007814Y008364D01*
X007812Y008364D01*
D02*
G37*
G36*
X00795Y008338D02*
X00795D01*
X00795Y008337D01*
X007949Y008337D01*
X007949Y008337D01*
X007948Y008337D01*
X007947Y008337D01*
X007946Y008336D01*
X007945Y008336D01*
X007944Y008336D01*
X007942Y008335D01*
X007941Y008335D01*
X007939Y008335D01*
X007937Y008334D01*
X007935Y008334D01*
X007933Y008333D01*
X007931Y008333D01*
X00793D01*
X007929Y008333D01*
X007928Y008333D01*
X007927Y008332D01*
X007925Y008332D01*
X007923Y008332D01*
X007922Y008331D01*
X00792Y008331D01*
X00792D01*
X00792Y00833D01*
X007919Y00833D01*
X007919Y00833D01*
X007917Y008329D01*
X007916Y008327D01*
Y008327D01*
X007915Y008326D01*
X007915Y008326D01*
X007915Y008325D01*
X007915Y008324D01*
X007914Y008324D01*
X007914Y008322D01*
X007914Y008321D01*
Y008321D01*
Y008321D01*
X007914Y00832D01*
X007914Y008319D01*
X007915Y008317D01*
X007916Y008316D01*
X007916Y008315D01*
X007918Y008313D01*
X007918Y008313D01*
X007918Y008313D01*
X007919Y008312D01*
X00792Y008312D01*
X007922Y008311D01*
X007924Y008311D01*
X007926Y008311D01*
X007928Y00831D01*
X007929D01*
X007931Y008311D01*
X007932Y008311D01*
X007934Y008311D01*
X007936Y008312D01*
X007938Y008312D01*
X00794Y008313D01*
X00794Y008313D01*
X007941Y008314D01*
X007942Y008315D01*
X007943Y008316D01*
X007944Y008317D01*
X007946Y008318D01*
X007947Y00832D01*
X007948Y008321D01*
X007948Y008322D01*
X007948Y008322D01*
X007948Y008323D01*
X007949Y008324D01*
X007949Y008326D01*
X00795Y008328D01*
X00795Y00833D01*
X00795Y008333D01*
X00795Y008338D01*
D02*
G37*
G36*
X007681D02*
X007681D01*
X007681Y008337D01*
X007681Y008337D01*
X00768Y008337D01*
X00768Y008337D01*
X007679Y008337D01*
X007678Y008336D01*
X007677Y008336D01*
X007675Y008336D01*
X007674Y008335D01*
X007672Y008335D01*
X007671Y008335D01*
X007669Y008334D01*
X007667Y008334D01*
X007664Y008333D01*
X007662Y008333D01*
X007662D01*
X007661Y008333D01*
X00766Y008333D01*
X007658Y008332D01*
X007656Y008332D01*
X007655Y008332D01*
X007653Y008331D01*
X007652Y008331D01*
X007652D01*
X007651Y00833D01*
X007651Y00833D01*
X00765Y00833D01*
X007648Y008329D01*
X007647Y008327D01*
Y008327D01*
X007647Y008326D01*
X007647Y008326D01*
X007646Y008325D01*
X007646Y008324D01*
X007646Y008324D01*
X007646Y008322D01*
X007646Y008321D01*
Y008321D01*
Y008321D01*
X007646Y00832D01*
X007646Y008319D01*
X007646Y008317D01*
X007647Y008316D01*
X007648Y008315D01*
X007649Y008313D01*
X007649Y008313D01*
X00765Y008313D01*
X007651Y008312D01*
X007652Y008312D01*
X007653Y008311D01*
X007655Y008311D01*
X007657Y008311D01*
X00766Y00831D01*
X007661D01*
X007662Y008311D01*
X007664Y008311D01*
X007666Y008311D01*
X007667Y008312D01*
X00767Y008312D01*
X007672Y008313D01*
X007672Y008313D01*
X007672Y008314D01*
X007673Y008315D01*
X007675Y008316D01*
X007676Y008317D01*
X007677Y008318D01*
X007678Y00832D01*
X007679Y008321D01*
X00768Y008322D01*
X00768Y008322D01*
X00768Y008323D01*
X00768Y008324D01*
X007681Y008326D01*
X007681Y008328D01*
X007681Y00833D01*
X007681Y008333D01*
X007681Y008338D01*
D02*
G37*
G36*
X007368D02*
X007368D01*
X007368Y008337D01*
X007368Y008337D01*
X007367Y008337D01*
X007366Y008337D01*
X007365Y008337D01*
X007364Y008336D01*
X007363Y008336D01*
X007362Y008336D01*
X007361Y008335D01*
X007359Y008335D01*
X007357Y008335D01*
X007355Y008334D01*
X007353Y008334D01*
X007351Y008333D01*
X007349Y008333D01*
X007349D01*
X007348Y008333D01*
X007346Y008333D01*
X007345Y008332D01*
X007343Y008332D01*
X007341Y008332D01*
X00734Y008331D01*
X007339Y008331D01*
X007338D01*
X007338Y00833D01*
X007337Y00833D01*
X007337Y00833D01*
X007335Y008329D01*
X007334Y008327D01*
Y008327D01*
X007334Y008326D01*
X007333Y008326D01*
X007333Y008325D01*
X007333Y008324D01*
X007333Y008324D01*
X007332Y008322D01*
X007332Y008321D01*
Y008321D01*
Y008321D01*
X007332Y00832D01*
X007333Y008319D01*
X007333Y008317D01*
X007334Y008316D01*
X007335Y008315D01*
X007336Y008313D01*
X007336Y008313D01*
X007336Y008313D01*
X007337Y008312D01*
X007338Y008312D01*
X00734Y008311D01*
X007342Y008311D01*
X007344Y008311D01*
X007346Y00831D01*
X007347D01*
X007349Y008311D01*
X00735Y008311D01*
X007352Y008311D01*
X007354Y008312D01*
X007356Y008312D01*
X007358Y008313D01*
X007359Y008313D01*
X007359Y008314D01*
X00736Y008315D01*
X007361Y008316D01*
X007363Y008317D01*
X007364Y008318D01*
X007365Y00832D01*
X007366Y008321D01*
X007366Y008322D01*
X007366Y008322D01*
X007367Y008323D01*
X007367Y008324D01*
X007368Y008326D01*
X007368Y008328D01*
X007368Y00833D01*
X007368Y008333D01*
X007368Y008338D01*
D02*
G37*
G36*
X007272Y008388D02*
X007241D01*
Y008356D01*
X00727D01*
X007272Y008356D01*
X007273Y008356D01*
X007276Y008357D01*
X007278Y008357D01*
X00728Y008357D01*
X007282Y008358D01*
X007282Y008358D01*
X007283Y008358D01*
X007284Y008359D01*
X007285Y008359D01*
X007286Y00836D01*
X007287Y008361D01*
X007289Y008362D01*
X00729Y008364D01*
X00729Y008364D01*
X00729Y008364D01*
X00729Y008365D01*
X007291Y008366D01*
X007291Y008368D01*
X007292Y008369D01*
X007292Y008371D01*
X007292Y008372D01*
Y008372D01*
Y008373D01*
X007292Y008373D01*
X007292Y008375D01*
X007292Y008376D01*
X007291Y008378D01*
X00729Y00838D01*
X007289Y008382D01*
X007287Y008383D01*
X007287Y008384D01*
X007286Y008384D01*
X007285Y008385D01*
X007283Y008386D01*
X007281Y008387D01*
X007278Y008387D01*
X007275Y008388D01*
X007272Y008388D01*
D02*
G37*
G36*
X007085Y008338D02*
X007085D01*
X007085Y008337D01*
X007084Y008337D01*
X007084Y008337D01*
X007083Y008337D01*
X007082Y008337D01*
X007081Y008336D01*
X00708Y008336D01*
X007079Y008336D01*
X007077Y008335D01*
X007076Y008335D01*
X007074Y008335D01*
X007072Y008334D01*
X00707Y008334D01*
X007068Y008333D01*
X007065Y008333D01*
X007065D01*
X007064Y008333D01*
X007063Y008333D01*
X007061Y008332D01*
X00706Y008332D01*
X007058Y008332D01*
X007057Y008331D01*
X007055Y008331D01*
X007055D01*
X007055Y00833D01*
X007054Y00833D01*
X007054Y00833D01*
X007052Y008329D01*
X00705Y008327D01*
Y008327D01*
X00705Y008326D01*
X00705Y008326D01*
X00705Y008325D01*
X00705Y008324D01*
X007049Y008324D01*
X007049Y008322D01*
X007049Y008321D01*
Y008321D01*
Y008321D01*
X007049Y00832D01*
X007049Y008319D01*
X00705Y008317D01*
X00705Y008316D01*
X007051Y008315D01*
X007052Y008313D01*
X007053Y008313D01*
X007053Y008313D01*
X007054Y008312D01*
X007055Y008312D01*
X007057Y008311D01*
X007058Y008311D01*
X00706Y008311D01*
X007063Y00831D01*
X007064D01*
X007065Y008311D01*
X007067Y008311D01*
X007069Y008311D01*
X007071Y008312D01*
X007073Y008312D01*
X007075Y008313D01*
X007075Y008313D01*
X007076Y008314D01*
X007077Y008315D01*
X007078Y008316D01*
X007079Y008317D01*
X007081Y008318D01*
X007082Y00832D01*
X007083Y008321D01*
X007083Y008322D01*
X007083Y008322D01*
X007083Y008323D01*
X007084Y008324D01*
X007084Y008326D01*
X007084Y008328D01*
X007085Y00833D01*
X007085Y008333D01*
X007085Y008338D01*
D02*
G37*
G36*
X006839Y008388D02*
X006809D01*
Y008356D01*
X006837D01*
X006839Y008356D01*
X006841Y008356D01*
X006843Y008357D01*
X006845Y008357D01*
X006848Y008357D01*
X00685Y008358D01*
X00685Y008358D01*
X00685Y008358D01*
X006851Y008359D01*
X006852Y008359D01*
X006854Y00836D01*
X006855Y008361D01*
X006856Y008362D01*
X006857Y008364D01*
X006857Y008364D01*
X006857Y008364D01*
X006858Y008365D01*
X006858Y008366D01*
X006859Y008368D01*
X006859Y008369D01*
X00686Y008371D01*
X00686Y008372D01*
Y008372D01*
Y008373D01*
X00686Y008373D01*
X006859Y008375D01*
X006859Y008376D01*
X006858Y008378D01*
X006858Y00838D01*
X006856Y008382D01*
X006855Y008383D01*
X006854Y008384D01*
X006854Y008384D01*
X006853Y008385D01*
X006851Y008386D01*
X006849Y008387D01*
X006846Y008387D01*
X006843Y008388D01*
X006839Y008388D01*
D02*
G37*
G36*
X006919Y008364D02*
X006918D01*
X006918Y008364D01*
X006916Y008364D01*
X006914Y008363D01*
X006912Y008362D01*
X006909Y008361D01*
X006907Y00836D01*
X006906Y008359D01*
X006905Y008357D01*
Y008357D01*
X006904Y008357D01*
X006904Y008357D01*
X006904Y008356D01*
X006903Y008355D01*
X006903Y008355D01*
X006902Y008354D01*
X006902Y008352D01*
X006901Y008351D01*
X006901Y00835D01*
X0069Y008348D01*
X0069Y008346D01*
X006899Y008344D01*
X006899Y008342D01*
X006899Y00834D01*
X006899Y008337D01*
Y008337D01*
Y008337D01*
Y008336D01*
X006899Y008335D01*
Y008334D01*
X006899Y008333D01*
X006899Y00833D01*
X0069Y008327D01*
X006901Y008323D01*
X006903Y00832D01*
X006904Y008319D01*
X006905Y008317D01*
X006905D01*
X006905Y008317D01*
X006906Y008316D01*
X006907Y008315D01*
X006909Y008314D01*
X006911Y008313D01*
X006913Y008312D01*
X006916Y008311D01*
X006918Y008311D01*
X006919Y008311D01*
X00692D01*
X006921Y008311D01*
X006922Y008311D01*
X006924Y008312D01*
X006927Y008312D01*
X006929Y008314D01*
X006931Y008315D01*
X006933Y008316D01*
X006934Y008317D01*
X006934Y008318D01*
X006934Y008318D01*
X006934Y008318D01*
X006935Y008319D01*
X006935Y008319D01*
X006936Y00832D01*
X006936Y008321D01*
X006937Y008322D01*
X006937Y008324D01*
X006938Y008325D01*
X006938Y008327D01*
X006939Y008329D01*
X006939Y008331D01*
X00694Y008333D01*
X00694Y008335D01*
Y008338D01*
Y008338D01*
Y008338D01*
Y008339D01*
X00694Y00834D01*
Y008341D01*
X00694Y008342D01*
X006939Y008345D01*
X006938Y008348D01*
X006937Y008352D01*
X006936Y008355D01*
X006935Y008356D01*
X006934Y008357D01*
Y008358D01*
X006934Y008358D01*
X006933Y008359D01*
X006931Y008359D01*
X00693Y008361D01*
X006928Y008362D01*
X006925Y008363D01*
X006922Y008364D01*
X006921Y008364D01*
X006919Y008364D01*
D02*
G37*
G36*
X010348Y012821D02*
X010318D01*
Y012789D01*
X010347D01*
X010348Y012789D01*
X01035Y012789D01*
X010353Y01279D01*
X010355Y01279D01*
X010357Y01279D01*
X010359Y012791D01*
X010359Y012791D01*
X01036Y012791D01*
X010361Y012792D01*
X010362Y012792D01*
X010363Y012793D01*
X010365Y012794D01*
X010366Y012795D01*
X010367Y012797D01*
X010367Y012797D01*
X010367Y012797D01*
X010368Y012798D01*
X010368Y012799D01*
X010369Y012801D01*
X010369Y012802D01*
X010369Y012804D01*
X010369Y012806D01*
Y012806D01*
Y012806D01*
X010369Y012807D01*
X010369Y012808D01*
X010369Y01281D01*
X010368Y012811D01*
X010367Y012813D01*
X010366Y012815D01*
X010364Y012817D01*
X010364Y012817D01*
X010363Y012818D01*
X010362Y012818D01*
X01036Y012819D01*
X010358Y01282D01*
X010356Y012821D01*
X010352Y012821D01*
X010348Y012821D01*
D02*
G37*
G36*
X010682Y012788D02*
X010681D01*
X010681Y012788D01*
X010679Y012788D01*
X010677Y012788D01*
X010675Y012787D01*
X010673Y012786D01*
X010671Y012784D01*
X010668Y012782D01*
X010668Y012782D01*
X010668Y012781D01*
X010667Y01278D01*
X010666Y012778D01*
X010665Y012776D01*
X010664Y012773D01*
X010663Y012771D01*
X010663Y012767D01*
Y012767D01*
Y012766D01*
X010663Y012765D01*
X010663Y012763D01*
X010663Y012761D01*
X010664Y01276D01*
X010665Y012757D01*
X010665Y012755D01*
X010665Y012755D01*
X010666Y012754D01*
X010666Y012753D01*
X010667Y012752D01*
X010668Y012751D01*
X01067Y012749D01*
X010671Y012748D01*
X010673Y012747D01*
X010673Y012747D01*
X010674Y012746D01*
X010675Y012746D01*
X010676Y012745D01*
X010677Y012745D01*
X010679Y012744D01*
X010681Y012744D01*
X010683Y012744D01*
X010683D01*
X010684Y012744D01*
X010685Y012744D01*
X010687Y012744D01*
X010689Y012745D01*
X010691Y012746D01*
X010694Y012748D01*
X010695Y012749D01*
X010696Y01275D01*
Y01275D01*
X010696Y01275D01*
X010697Y012751D01*
X010697Y012752D01*
X010699Y012754D01*
X0107Y012757D01*
X0107Y012759D01*
X010701Y012763D01*
X010701Y012766D01*
Y012767D01*
Y012767D01*
Y012767D01*
X010701Y012768D01*
Y012769D01*
X010701Y01277D01*
X010701Y012772D01*
X0107Y012775D01*
X010699Y012777D01*
X010698Y01278D01*
X010696Y012782D01*
X010696Y012783D01*
X010695Y012783D01*
X010694Y012784D01*
X010692Y012785D01*
X01069Y012786D01*
X010688Y012787D01*
X010685Y012788D01*
X010682Y012788D01*
D02*
G37*
G36*
X0106Y012822D02*
X010569D01*
Y01279D01*
X010598D01*
X0106Y01279D01*
X010602Y01279D01*
X010604Y01279D01*
X010606Y012791D01*
X010609Y012791D01*
X010611Y012792D01*
X010611Y012792D01*
X010611Y012792D01*
X010612Y012793D01*
X010613Y012793D01*
X010615Y012794D01*
X010616Y012795D01*
X010617Y012796D01*
X010618Y012798D01*
X010618Y012798D01*
X010619Y012798D01*
X010619Y012799D01*
X01062Y0128D01*
X01062Y012802D01*
X010621Y012803D01*
X010621Y012805D01*
X010621Y012806D01*
Y012806D01*
Y012807D01*
X010621Y012807D01*
X010621Y012809D01*
X01062Y01281D01*
X01062Y012812D01*
X010619Y012814D01*
X010618Y012816D01*
X010616Y012818D01*
X010616Y012818D01*
X010615Y012818D01*
X010614Y012819D01*
X010612Y01282D01*
X01061Y012821D01*
X010607Y012822D01*
X010604Y012822D01*
X0106Y012822D01*
D02*
G37*
G36*
X010849D02*
X010818D01*
Y01279D01*
X010847D01*
X010849Y01279D01*
X010851Y01279D01*
X010853Y01279D01*
X010855Y012791D01*
X010858Y012791D01*
X01086Y012792D01*
X01086Y012792D01*
X01086Y012792D01*
X010861Y012793D01*
X010862Y012793D01*
X010864Y012794D01*
X010865Y012795D01*
X010866Y012796D01*
X010867Y012798D01*
X010867Y012798D01*
X010868Y012798D01*
X010868Y012799D01*
X010869Y0128D01*
X010869Y012802D01*
X010869Y012803D01*
X01087Y012805D01*
X01087Y012806D01*
Y012806D01*
Y012807D01*
X01087Y012807D01*
X01087Y012809D01*
X010869Y01281D01*
X010869Y012812D01*
X010868Y012814D01*
X010866Y012816D01*
X010865Y012818D01*
X010865Y012818D01*
X010864Y012818D01*
X010863Y012819D01*
X010861Y01282D01*
X010859Y012821D01*
X010856Y012822D01*
X010853Y012822D01*
X010849Y012822D01*
D02*
G37*
G36*
X011967Y012965D02*
X011936Y012922D01*
X011967D01*
Y012965D01*
D02*
G37*
G36*
X011879Y012974D02*
X011848D01*
Y012942D01*
X011877D01*
X011879Y012942D01*
X011881Y012942D01*
X011883Y012942D01*
X011885Y012942D01*
X011887Y012943D01*
X011889Y012943D01*
X01189Y012944D01*
X01189Y012944D01*
X011891Y012944D01*
X011892Y012945D01*
X011894Y012946D01*
X011895Y012947D01*
X011896Y012948D01*
X011897Y012949D01*
X011897Y012949D01*
X011897Y01295D01*
X011898Y012951D01*
X011898Y012952D01*
X011899Y012953D01*
X011899Y012955D01*
X0119Y012956D01*
X0119Y012958D01*
Y012958D01*
Y012958D01*
X0119Y012959D01*
X011899Y01296D01*
X011899Y012962D01*
X011898Y012964D01*
X011898Y012966D01*
X011896Y012968D01*
X011895Y01297D01*
X011894Y01297D01*
X011894Y01297D01*
X011893Y012971D01*
X011891Y012972D01*
X011889Y012973D01*
X011886Y012973D01*
X011883Y012974D01*
X011879Y012974D01*
D02*
G37*
G36*
X008329Y013505D02*
X008298D01*
Y013472D01*
X008327D01*
X008329Y013473D01*
X008331Y013473D01*
X008333Y013473D01*
X008335Y013473D01*
X008337Y013474D01*
X008339Y013474D01*
X00834Y013474D01*
X00834Y013474D01*
X008341Y013475D01*
X008342Y013475D01*
X008343Y013476D01*
X008345Y013477D01*
X008346Y013479D01*
X008347Y01348D01*
X008347Y01348D01*
X008347Y013481D01*
X008348Y013482D01*
X008348Y013483D01*
X008349Y013484D01*
X008349Y013485D01*
X008349Y013487D01*
X00835Y013489D01*
Y013489D01*
Y013489D01*
X008349Y01349D01*
X008349Y013491D01*
X008349Y013493D01*
X008348Y013495D01*
X008347Y013496D01*
X008346Y013498D01*
X008344Y0135D01*
X008344Y0135D01*
X008343Y013501D01*
X008342Y013502D01*
X008341Y013502D01*
X008338Y013503D01*
X008336Y013504D01*
X008332Y013505D01*
X008329Y013505D01*
D02*
G37*
G36*
X010404Y014331D02*
X010374D01*
Y014299D01*
X010403D01*
X010404Y014299D01*
X010406Y014299D01*
X010409Y014299D01*
X010411Y014299D01*
X010413Y0143D01*
X010415Y0143D01*
X010415Y014301D01*
X010416Y014301D01*
X010417Y014301D01*
X010418Y014302D01*
X010419Y014303D01*
X01042Y014304D01*
X010422Y014305D01*
X010423Y014306D01*
X010423Y014306D01*
X010423Y014307D01*
X010424Y014308D01*
X010424Y014309D01*
X010425Y01431D01*
X010425Y014312D01*
X010425Y014313D01*
X010425Y014315D01*
Y014315D01*
Y014315D01*
X010425Y014316D01*
X010425Y014317D01*
X010425Y014319D01*
X010424Y014321D01*
X010423Y014323D01*
X010422Y014325D01*
X01042Y014327D01*
X01042Y014327D01*
X010419Y014327D01*
X010418Y014328D01*
X010416Y014329D01*
X010414Y01433D01*
X010411Y01433D01*
X010408Y014331D01*
X010404Y014331D01*
D02*
G37*
G36*
X010706Y01433D02*
X010675D01*
Y014298D01*
X010704D01*
X010706Y014298D01*
X010708Y014298D01*
X01071Y014298D01*
X010712Y014299D01*
X010714Y014299D01*
X010716Y0143D01*
X010717Y0143D01*
X010717Y0143D01*
X010718Y014301D01*
X010719Y014301D01*
X01072Y014302D01*
X010722Y014303D01*
X010723Y014304D01*
X010724Y014306D01*
X010724Y014306D01*
X010724Y014306D01*
X010725Y014307D01*
X010725Y014308D01*
X010726Y01431D01*
X010726Y014311D01*
X010727Y014313D01*
X010727Y014314D01*
Y014314D01*
Y014315D01*
X010727Y014315D01*
X010726Y014317D01*
X010726Y014318D01*
X010725Y01432D01*
X010725Y014322D01*
X010723Y014324D01*
X010722Y014326D01*
X010721Y014326D01*
X010721Y014326D01*
X010719Y014327D01*
X010718Y014328D01*
X010716Y014329D01*
X010713Y01433D01*
X010709Y01433D01*
X010706Y01433D01*
D02*
G37*
G36*
X009357Y013626D02*
X009335D01*
Y013552D01*
X009358D01*
X009359Y013552D01*
X009361Y013552D01*
X009363Y013552D01*
X009366Y013552D01*
X009368Y013553D01*
X009371Y013553D01*
X009371Y013553D01*
X009372Y013554D01*
X009373Y013554D01*
X009374Y013555D01*
X009375Y013555D01*
X009377Y013556D01*
X009378Y013557D01*
X009379Y013558D01*
X00938Y013559D01*
X00938Y013559D01*
X009381Y01356D01*
X009382Y013562D01*
X009383Y013563D01*
X009384Y013566D01*
X009386Y013568D01*
X009387Y013571D01*
Y013571D01*
X009387Y013571D01*
X009387Y013572D01*
X009387Y013572D01*
X009387Y013573D01*
X009387Y013574D01*
X009388Y013575D01*
X009388Y013576D01*
X009388Y013579D01*
X009389Y013582D01*
X009389Y013586D01*
X009389Y01359D01*
Y01359D01*
Y01359D01*
Y013591D01*
X009389Y013592D01*
Y013593D01*
X009389Y013595D01*
X009389Y013596D01*
X009389Y013598D01*
X009388Y013602D01*
X009387Y013606D01*
X009386Y01361D01*
X009385Y013611D01*
X009384Y013613D01*
Y013613D01*
X009384Y013613D01*
X009384Y013614D01*
X009383Y013614D01*
X009382Y013616D01*
X009381Y013617D01*
X009379Y013619D01*
X009377Y013621D01*
X009374Y013623D01*
X009372Y013624D01*
X009372Y013624D01*
X009371Y013624D01*
X00937Y013625D01*
X009368Y013625D01*
X009366Y013625D01*
X009363Y013626D01*
X009361Y013626D01*
X009359D01*
X009357Y013626D01*
D02*
G37*
G36*
X012132Y012613D02*
X012101Y012569D01*
X012132D01*
Y012613D01*
D02*
G37*
G36*
X006326Y013353D02*
X006326D01*
X006326Y013353D01*
X006325Y013353D01*
X006325Y013353D01*
X006324Y013353D01*
X006323Y013352D01*
X006322Y013352D01*
X006321Y013352D01*
X00632Y013351D01*
X006318Y013351D01*
X006317Y013351D01*
X006315Y01335D01*
X006313Y01335D01*
X006311Y013349D01*
X006309Y013349D01*
X006306Y013349D01*
X006306D01*
X006305Y013349D01*
X006304Y013348D01*
X006302Y013348D01*
X0063Y013348D01*
X006299Y013347D01*
X006297Y013347D01*
X006296Y013346D01*
X006296D01*
X006295Y013346D01*
X006295Y013346D01*
X006294Y013345D01*
X006292Y013344D01*
X006291Y013343D01*
Y013342D01*
X006291Y013342D01*
X006291Y013342D01*
X00629Y013341D01*
X00629Y01334D01*
X00629Y013339D01*
X00629Y013338D01*
X006289Y013337D01*
Y013337D01*
Y013336D01*
X00629Y013335D01*
X00629Y013334D01*
X00629Y013333D01*
X006291Y013332D01*
X006292Y01333D01*
X006293Y013329D01*
X006293Y013329D01*
X006294Y013328D01*
X006295Y013328D01*
X006296Y013327D01*
X006297Y013327D01*
X006299Y013326D01*
X006301Y013326D01*
X006304Y013326D01*
X006305D01*
X006306Y013326D01*
X006308Y013326D01*
X00631Y013326D01*
X006312Y013327D01*
X006314Y013328D01*
X006316Y013329D01*
X006316Y013329D01*
X006317Y013329D01*
X006318Y01333D01*
X006319Y013331D01*
X00632Y013332D01*
X006322Y013334D01*
X006323Y013335D01*
X006324Y013337D01*
X006324Y013337D01*
X006324Y013338D01*
X006324Y013339D01*
X006325Y01334D01*
X006325Y013342D01*
X006326Y013344D01*
X006326Y013346D01*
X006326Y013349D01*
X006326Y013353D01*
D02*
G37*
G36*
X006227Y013404D02*
X006204D01*
Y013375D01*
X006228D01*
X00623Y013375D01*
X006232Y013375D01*
X006233Y013375D01*
X006235Y013375D01*
X006237Y013376D01*
X006237Y013376D01*
X006238Y013376D01*
X006239Y013376D01*
X00624Y013377D01*
X006241Y013377D01*
X006242Y013378D01*
X006244Y013379D01*
X006244Y01338D01*
X006245Y013381D01*
X006245Y013381D01*
X006245Y013382D01*
X006246Y013383D01*
X006246Y013384D01*
X006247Y013385D01*
X006247Y013387D01*
X006247Y013389D01*
Y013389D01*
Y01339D01*
X006247Y013391D01*
X006247Y013392D01*
X006246Y013393D01*
X006246Y013395D01*
X006245Y013396D01*
X006245Y013397D01*
X006244Y013398D01*
X006244Y013398D01*
X006244Y013399D01*
X006243Y013399D01*
X006242Y0134D01*
X006241Y013401D01*
X006239Y013402D01*
X006238Y013402D01*
X006238D01*
X006237Y013403D01*
X006236Y013403D01*
X006234Y013403D01*
X006232Y013403D01*
X00623Y013404D01*
X006227Y013404D01*
D02*
G37*
G36*
X006229Y013363D02*
X006204D01*
Y013329D01*
X006232D01*
X006234Y01333D01*
X006236Y01333D01*
X006237Y01333D01*
X006237D01*
X006238Y01333D01*
X006238Y01333D01*
X006239Y01333D01*
X006242Y013331D01*
X006244Y013332D01*
X006244Y013333D01*
X006245Y013333D01*
X006245Y013333D01*
X006246Y013334D01*
X006247Y013335D01*
X006248Y013336D01*
X006248Y013337D01*
X006249Y013338D01*
X006249Y013338D01*
X00625Y013338D01*
X00625Y013339D01*
X00625Y01334D01*
X006251Y013341D01*
X006251Y013343D01*
X006251Y013345D01*
X006251Y013346D01*
Y013347D01*
Y013347D01*
X006251Y013348D01*
X006251Y013349D01*
X006251Y013351D01*
X00625Y013352D01*
X006249Y013354D01*
X006248Y013356D01*
X006248Y013356D01*
X006248Y013356D01*
X006247Y013357D01*
X006246Y013358D01*
X006245Y013359D01*
X006244Y01336D01*
X006242Y013361D01*
X00624Y013361D01*
X00624Y013361D01*
X00624Y013362D01*
X006238Y013362D01*
X006237Y013362D01*
X006235Y013362D01*
X006232Y013363D01*
X006229Y013363D01*
D02*
G37*
%LPD*%
D10*
X012208Y012186D02*
G03*
X012208Y012196I0J000005D01*
G01*
D02*
G03*
X012208Y012186I0J-000005D01*
G01*
X011964Y013166D02*
Y013466D01*
X012164Y013166D02*
Y013466D01*
X008018Y010146D02*
Y012686D01*
X006408Y010146D02*
X008018D01*
X006408D02*
Y012686D01*
X008018D01*
X007564D02*
Y013066D01*
X006864Y012686D02*
Y013066D01*
Y009766D02*
Y010146D01*
X007564Y009766D02*
Y010146D01*
D11*
X008518Y013541D02*
G03*
X008518Y013541I-000005J0D01*
G01*
X010768Y013741D02*
G03*
X010768Y013741I-000005J0D01*
G01*
X010468D02*
G03*
X010468Y013741I-000005J0D01*
G01*
X012514Y012781D02*
X012634D01*
Y013797D01*
X012393D02*
X012634D01*
X012393Y012908D02*
Y013797D01*
X008068Y013836D02*
Y013896D01*
X008358D01*
Y013836D02*
Y013896D01*
X008068Y013836D02*
X008358D01*
X008051Y013681D02*
Y013801D01*
X008503Y013683D02*
Y013788D01*
X008518Y013824D02*
X008808D01*
Y013909D01*
X008518D02*
X008808D01*
X008518Y013824D02*
Y013909D01*
X010843Y010596D02*
X012339D01*
X010843D02*
Y012136D01*
X012339D01*
X009411Y013185D02*
X009946D01*
X009411Y013447D02*
X009915D01*
D12*
X010223Y013636D02*
X010198Y013661D01*
X010147D01*
X010122Y013636D01*
Y013534D01*
X010147Y013509D01*
X010198D01*
X010223Y013534D01*
X010274Y013509D02*
X010325D01*
X0103D01*
Y013661D01*
X010274Y013636D01*
M02*
