M48
;Layer_Color=9474304
;FILE_FORMAT=4:2
METRIC,LZ
;TYPE=PLATED
T1F00S00C0.30
T2F00S00C0.40
T4F00S00C1.00
T5F00S00C1.09
T6F00S00C1.10
T7F00S00C1.50
%
T01
X007Y0085
X0075
X00775Y009
X00725
X00675
X0065Y0095
X00675Y01
X00725
X00775
X0075Y0105
X007
X0065
X00675Y011
X00725
X00775
X0075Y0115
X007
X0065
X0075Y0095
X008
X0085
X009
X0095
X00975Y01
X00925
X00875
X00825
X0085Y0105
X009
X0095
X01
X01025Y011
X00975
X00875
X00825
X0085Y0115
X009
X008
Y0105
X00825Y009
X00875
X009Y0085
X0095
X01
X0105
X01075Y009
X01025
X00975
X0105Y0095
X011033Y009336
X011304Y009566
X011683Y009596
X011693Y010456
X011783Y010416
X0115Y0105
X01125Y011
X010756Y011331
X010674Y011416
X010564Y011456
X010683Y011656
X010593Y011766
X010664Y011876
X01075Y01
X0085Y0085
X008
X01225Y009
X012174Y009266
X012193Y009506
X012Y0095
X01225Y01
X01275
Y009
X012204Y010496
X0125Y0125
X01275Y013
Y014
X01225
X011933Y012796
X01125Y013
X01075
X01025
X00975
X00925
X009Y0135
X008933Y013736
X00825Y013
X0085Y0125
X008
X008833Y012076
X00925Y012
X00975
X010304Y012076
X010414Y012066
X010424Y011956
X010564Y012096
X010724
X010843Y012226
X011Y0125
Y0135
X0115
X01175Y014
X01125
X0105Y0135
X007924Y013636
X0075Y0135
X00775Y013
Y012
X00725
X00675
X007Y0125
X0065
X00675Y013
X0065Y0135
X00675Y014
X00725
T02
X009366Y01378
X009451
X009536
X009621
X009706
X009791
X009876
X009961
Y013915
X009876
X009791
X009706
X009621
X009536
X009451
X009366
T04
X009438Y008841
X009888
T05
X009537Y012366
X009791
T06
X012513Y012908
Y013162
Y013416
Y01367
T07
X009313Y009091
X010013
M30
